<svg height="509pt" viewBox="-6 0 509 509" width="509pt" xmlns="http://www.w3.org/2000/svg"><path d="m221.058594 294.089844h55.320312v168.320312h-55.320312zm0 0" fill="#d8d6d7"/><path d="m254.898438 294.089844h21.480468v168.320312h-21.480468zm0 0" fill="#fff"/><path d="m483.441406 330.542969h-469.441406c-5.523438 0-10-4.476563-10-10v-305.792969c0-5.523438 4.476562-10 10-10h469.441406c5.519532 0 10 4.476562 10 10v305.792969c0 5.523437-4.480468 10-10 10zm0 0" fill="#d8d6d7"/><path d="m467.441406 40.75v253.800781c0 5.519531-4.480468 10-10 10h-417.441406c-5.519531 0-10-4.480469-10-10v-253.800781c0-5.519531 4.480469-10 10-10h417.441406c5.519532 0 10 4.480469 10 10zm0 0" fill="#1c868e"/><path d="m467.441406 40.75v253.800781c0 5.519531-4.480468 10-10 10h-373.941406c-5.519531 0-10-4.480469-10-10v-253.800781c0-5.519531 4.480469-10 10-10h373.941406c5.519532 0 10 4.480469 10 10zm0 0" fill="#40c4df"/><path d="m376.058594 472.410156v23.339844c0 5.519531-4.480469 10-10 10h-234.679688c-5.519531 0-10-4.480469-10-10v-23.339844c0-5.519531 4.480469-10 10-10h234.679688c5.519531 0 10 4.480469 10 10zm0 0" fill="#d8d6d7"/><path d="m376.058594 472.410156v23.339844c0 5.519531-4.480469 10-10 10h-202.679688c-5.519531 0-10-4.480469-10-10v-23.339844c0-5.519531 4.480469-10 10-10h202.679688c5.519531 0 10 4.480469 10 10zm0 0" fill="#fff"/><g fill="#491352"><path d="m483.441406 0h-469.441406c-7.71875 0-14 6.28125-14 14v305.792969c0 7.71875 6.28125 14 14 14h203.058594v123.863281h-85.671875c-7.722657 0-14 6.285156-14 14v23.34375c0 7.71875 6.277343 14 14 14h234.664062c7.722657 0 14-6.28125 14-14v-23.34375c0-7.714844-6.277343-14-14-14h-85.671875v-123.863281h203.0625c7.71875 0 14-6.28125 14-14v-305.792969c0-7.71875-6.28125-14-14-14zm-117.386718 465.65625c3.308593 0 6 2.695312 6 6v23.34375c0 3.308594-2.691407 6-6 6h-234.667969c-3.308594 0-6-2.691406-6-6v-23.34375c0-3.304688 2.691406-6 6-6zm-140.996094-8v-123.863281h47.320312v123.863281zm264.382812-137.863281c0 3.308593-2.695312 6-6 6h-469.441406c-3.308594 0-6-2.691407-6-6v-305.792969c0-3.308594 2.691406-6 6-6h469.441406c3.304688 0 6 2.691406 6 6zm0 0"/><path d="m457.441406 26h-417.441406c-7.71875 0-14 6.28125-14 14v253.792969c0 7.71875 6.28125 14 14 14h417.441406c7.71875 0 14-6.28125 14-14v-253.792969c0-7.71875-6.28125-14-14-14zm6 267.792969c0 3.308593-2.695312 6-6 6h-417.441406c-3.308594 0-6-2.691407-6-6v-253.792969c0-3.308594 2.691406-6 6-6h417.441406c3.304688 0 6 2.691406 6 6zm0 0"/><path d="m419.21875 190.394531h-101.398438c-29.070312-65.40625-26.933593-62.582031-30.117187-62.96875-3.140625-.378906-1.210937-1.621093-36.535156 43.933594l-21.058594-87.894531c-.984375-4.109375-6.839844-4.074219-7.789063.035156l-34.03125 147.773438c-25.921874-116.65625-23.570312-111.386719-27.613281-111.851563-3.914062-.476563-1.617187-2.859375-36.972656 70.972656h-45.484375c-5.28125 0-5.289062 8 0 8h48c1.542969 0 2.941406-.878906 3.609375-2.269531l29-60.558594 25.488281 114.699219c.917969 4.136719 6.84375 4.191406 7.800782.03125l34.179687-148.410156 19.035156 79.441406c.777344 3.25 4.988281 4.179687 7.050781 1.523437l33.898438-43.714843 25.285156 56.886719c.640625 1.445312 2.074219 2.375 3.65625 2.375h104c5.28125-.003907 5.289063-8.003907-.003906-8.003907zm0 0"/></g></svg>