<svg height="501pt" viewBox="-65 0 501 501.01664" width="501pt" xmlns="http://www.w3.org/2000/svg"><path d="m310.1875 322.15625c-9.183594 21.039062-16.242188 35.480469-16.242188 60.339844 0 11.878906 1.921876 23.601562 5.640626 34.71875 3.699218 11.140625 9.199218 21.660156 16.320312 31.160156l24.460938 32.640625c4.957031 6.601563.257812 16-8 16h-174.601563c-5.519531 0-10-4.480469-10-10 0-42 .019531-80.5.019531-80.5 0-5.519531-4.480468-10-10-10h-34.359375c-9.21875 0-17.800781-4.738281-22.699219-12.539063-5.742187-11.300781-36.460937-46.078124-40.242187-106.238281l-.359375-11.582031h-23.378906c-10.339844 0-16.359375-11.679688-10.339844-20.101562l31.859375-44.539063c1.21875-1.699219 1.859375-3.71875 1.859375-5.820313 0-7.558593 0-25.980468 0-25.980468 0-90.238282 72.179688-165.019532 162.421875-165.699219 6.019531-.039063 11.980469.242187 17.839844.839844 82.558593 8.320312 147.019531 78.019531 147.019531 162.800781 0 28.980469-7.519531 55.980469-20.699219 79.480469-13.601562 24.261719-25.402343 49.519531-36.519531 75.019531zm0 0" fill="#1c868e"/><path d="m310.1875 322.15625c-9.183594 21.039062-16.242188 35.480469-16.242188 60.339844 0 11.878906 1.921876 23.601562 5.640626 34.71875 3.699218 11.140625 9.199218 21.660156 16.320312 31.160156l24.460938 32.640625c4.957031 6.601563.257812 16-8 16h-141.601563c-5.523437 0-10-4.480469-10-10.003906 0-41.996094.019531-80.496094.019531-80.496094 0-5.519531-4.480468-10-10-10h-34.359375c-9.21875 0-17.800781-4.738281-22.699219-12.539063-5.742187-11.300781-36.460937-46.078124-40.242187-106.238281l-.003906-.144531c-.195313-6.375-5.421875-11.4375-11.796875-11.4375h-10.472656c-10.339844 0-16.359376-11.679688-10.339844-20.101562l30.394531-44.539063c1.21875-1.699219 1.859375-3.722656 1.859375-5.820313 0-7.5625 0-25.980468 0-25.980468 0-85.121094 64.222656-156.5 147.261719-164.859375 82.558593 8.320312 147.019531 78.019531 147.019531 162.800781 0 28.976562-7.519531 55.976562-20.699219 79.476562-13.601562 24.265626-25.402343 49.523438-36.519531 75.023438zm0 0" fill="#40c4df"/><path d="m141.914062 71.683594h137.578126c8.636718 0 15.636718 7 15.636718 15.632812v137.578125c0 8.632813-7 15.632813-15.636718 15.632813h-137.578126c-8.632812 0-15.632812-7-15.632812-15.632813v-137.578125c0-8.632812 7-15.632812 15.632812-15.632812zm0 0" fill="#fff"/><path d="m271.128906 95.683594v120.84375h-120.84375v-120.84375zm0 0" fill="#f85252"/><g fill="#491352"><path d="m178.707031 190.695312 4.910157-13.589843h32.992187l4.910156 13.589843c2.207031 6.117188 11.402344 2.734376 9.207031-3.328124l-23.691406-65.421876c-.703125-1.9375-2.542968-3.226562-4.601562-3.226562-4.085938 0-7.730469-.636719-9.132813 3.21875l-23.792969 65.421875c-2.21875 6.105469 7.011719 9.398437 9.199219 3.335937zm21.40625-59.820312 13.675781 38.199219h-27.347656zm0 0"/><path d="m252.199219 189.03125v-65.851562c0-2.703126-2.191407-4.894532-4.890625-4.894532h-.09375c-2.699219 0-4.890625 2.191406-4.890625 4.894532v65.855468c0 6.496094 9.875 6.539063 9.875-.003906zm0 0"/><path d="m350.203125 249.089844c35.28125-62.921875 27.011719-145.464844-28.347656-200.417969-105.496094-104.726563-285.726563-29.4375-285.726563 121.046875.003906 28.335938.378906 27.378906-1.117187 29.472656l-31.863281 44.546875c-7.898438 11.039063.007812 26.417969 13.585937 26.417969h19.519531c1.785156 57.296875 24 88.941406 41.074219 115.957031 5.679687 9.019531 15.429687 14.402344 26.089844 14.402344h34.355469c3.308593 0 6.003906 2.675781 6 6.003906h.078124c-.125 1.082031-.082031 79.40625-.082031 80.492188 0 7.722656 6.277344 14.003906 14 14.003906h174.605469c11.53125 0 18.117188-13.175781 11.199219-22.398437-24.933594-33.242188-45.636719-54.472657-45.636719-96.117188 0-22.457031 5.957031-36.035156 14.195312-54.824219 10.769532-24.613281 22.542969-50.894531 38.070313-78.585937zm-60.261719 133.410156c0 44.148438 21.683594 66.851562 47.234375 100.917969 2.976563 3.964843.148438 9.601562-4.800781 9.601562h-174.605469c-3.308593 0-6-2.695312-6-6.003906 0-41.902344.007813-80.324219.007813-80.492187 0-7.738282-6.257813-14.003907-14-14.003907h-34.359375c-7.835938 0-15.007813-3.929687-19.226563-10.523437-9.128906-17.652344-37.882812-45.644532-40.058594-115.960938-.066406-2.160156-1.835937-3.875-4-3.875h-23.394531c-7.101562 0-11.203125-8-7.082031-13.765625 34.597656-48.371093 34.476562-46.703125 34.476562-52.6875-.003906-23.523437.058594-24.46875-.097656-25.984375h.09375c0-143.171875 171.480469-215.234375 272.085938-115.375 52.46875 52.082032 60.792968 130.574219 27.007812 190.828125-11.921875 21.265625-23.242187 44.511719-36.703125 75.378907-9.320312 21.292968-16.578125 36.480468-16.578125 61.945312zm0 0"/><path d="m271.128906 91.074219h-120.847656c-2.542969 0-4.609375 2.0625-4.609375 4.609375v120.84375c0 2.546875 2.0625 4.609375 4.609375 4.609375h120.847656c2.542969 0 4.605469-2.0625 4.605469-4.609375v-120.847656c0-2.542969-2.0625-4.605469-4.605469-4.605469zm-4.605468 120.847656h-111.632813v-111.632813h111.628906v111.632813zm0 0"/><path d="m329.785156 119.28125c6.089844 0 6.097656-9.210938 0-9.210938h-30.046875v-22.753906c0-11.160156-9.082031-20.242187-20.242187-20.242187h-22.753906v-30.050781c0-6.085938-9.210938-6.09375-9.210938 0v30.050781h-32.214844v-30.050781c0-6.085938-9.214844-6.09375-9.214844 0v30.050781h-32.214843v-30.050781c0-6.085938-9.214844-6.09375-9.214844 0v30.050781h-22.75c-11.164063 0-20.242187 9.078125-20.242187 20.242187v22.753906h-30.054688c-6.085938 0-6.09375 9.210938 0 9.210938h30.046875v32.214844h-30.046875c-6.085938 0-6.09375 9.214844 0 9.214844h30.046875v32.21875h-30.046875c-6.085938 0-6.09375 9.214843 0 9.214843h30.046875v22.75c0 11.160157 9.082031 20.238281 20.242187 20.238281h22.753907v30.050782c0 6.085937 9.214843 6.09375 9.214843 0v-30.050782h32.214844v30.050782c0 6.085937 9.210938 6.09375 9.210938 0v-30.050782h32.214844v30.050782c0 6.085937 9.214843 6.09375 9.214843 0v-30.050782h22.75c11.164063 0 20.242188-9.078124 20.242188-20.238281v-22.75h30.050781c6.085938 0 6.09375-9.214843 0-9.214843h-30.050781v-32.21875h30.050781c6.085938 0 6.09375-9.210938 0-9.210938h-30.050781v-32.21875zm-39.261718 105.613281c0 6.082031-4.949219 11.027344-11.027344 11.027344h-137.578125c-6.082031 0-11.027344-4.945313-11.027344-11.027344v-137.578125c0-6.078125 4.945313-11.027344 11.027344-11.027344h137.578125c6.078125 0 11.027344 4.949219 11.027344 11.027344zm0 0"/></g></svg>