<svg height="508pt" viewBox="-3 0 508 508.68" width="508pt" xmlns="http://www.w3.org/2000/svg"><path d="m496.664062 98.601562-22.378906 54.339844c-.859375 2.097656-2.921875 3.480469-5.199218 3.480469-2.523438 0-4.660157 1.65625-5.382813 3.957031-.160156.542969-.238281 1.101563-.238281 1.679688v146.921875h-18.179688v-146.921875c0-3.117188-2.5-5.636719-5.621094-5.636719h-.019531c-2.28125 0-4.339843-1.382813-5.199219-3.480469l-22.339843-54.28125c-.761719-1.820312-.960938-3.839844-.5625-5.800781l16.480469-80.859375c.960937-4.660156 5.0625-8.019531 9.800781-8.019531h34.21875c4.800781 0 8.921875 3.417969 9.820312 8.140625l15.378907 80.800781c.363281 1.917969.160156 3.878906-.578126 5.679687zm0 0" fill="#d8d6d7"/><path d="m496.664062 98.601562-22.378906 54.339844c-.859375 2.097656-2.921875 3.480469-5.199218 3.480469-2.523438 0-4.660157 1.65625-5.382813 3.957031-.699219-2.300781-2.839844-3.957031-5.378906-3.957031h-.019531c-2.28125 0-4.339844-1.382813-5.199219-3.480469l-22.339844-54.28125c-.761719-1.820312-.941406-3.839844-.5625-5.800781l16.5-80.859375c.941406-4.660156 5.039063-8.019531 9.78125-8.019531h15.558594c4.800781 0 8.921875 3.417969 9.820312 8.140625l15.378907 80.800781c.363281 1.917969.160156 3.878906-.578126 5.679687zm0 0" fill="#fff"/><path d="m489.5625 279.699219v189.800781c0 13.460938-7.558594 25.179688-18.679688 31.078125-4.917968 2.640625-10.539062 4.121094-16.5 4.121094-19.4375 0-35.179687-15.757813-35.179687-35.199219v-189.800781c0-5.539063 4.460937-10 10-10h50.359375c5.523438 0 10 4.460937 10 10zm0 0" fill="#d73735"/><path d="m489.5625 279.699219v189.800781c0 13.460938-7.558594 25.179688-18.679688 31.078125-11.117187-5.898437-18.679687-17.597656-18.679687-31.078125v-189.800781c0-5.539063 4.460937-10 10-10h17.359375c5.523438 0 10 4.460937 10 10zm0 0" fill="#f85252"/><path d="m317.945312 133.730469h-224.730468c-4.632813 0-8.386719 3.753906-8.386719 8.386719v224.730468c0 4.628906 3.753906 8.382813 8.386719 8.382813h224.730468c4.628907 0 8.382813-3.753907 8.382813-8.382813v-224.730468c0-4.632813-3.753906-8.386719-8.382813-8.386719zm0 0" fill="#fff"/><path d="m301.726562 166.71875v175.523438c0 4.628906-3.757812 8.386718-8.386718 8.386718h-175.523438c-4.628906 0-8.386718-3.757812-8.386718-8.386718v-175.523438c0-4.628906 3.757812-8.386719 8.386718-8.386719h175.523438c4.628906 0 8.386718 3.757813 8.386718 8.386719zm0 0" fill="#1c868e"/><g fill="#f85252"><path d="m218.992188 62.453125c0 7.410156-6.003907 13.417969-13.414063 13.417969s-13.417969-6.007813-13.417969-13.417969 6.007813-13.414063 13.417969-13.414063 13.414063 6.003907 13.414063 13.414063zm0 0"/><path d="m159.738281 446.226562c0 7.410157-6.007812 13.414063-13.417969 13.414063-7.40625 0-13.414062-6.003906-13.414062-13.414063 0-7.410156 6.007812-13.417968 13.414062-13.417968 7.410157 0 13.417969 6.007812 13.417969 13.417968zm0 0"/><path d="m53.800781 313.734375c0 7.410156-6.003906 13.417969-13.414062 13.417969-7.410157 0-13.417969-6.007813-13.417969-13.417969 0-7.40625 6.007812-13.414063 13.417969-13.414063 7.410156 0 13.414062 6.007813 13.414062 13.414063zm0 0"/><path d="m383.347656 195.222656c0 7.410156-6.007812 13.414063-13.414062 13.414063-7.410156 0-13.417969-6.003907-13.417969-13.414063s6.007813-13.417968 13.417969-13.417968c7.40625 0 13.414062 6.007812 13.414062 13.417968zm0 0"/></g><path d="m301.726562 166.71875v175.523438c0 4.628906-3.757812 8.386718-8.386718 8.386718h-140.304688c-4.628906 0-8.386718-3.757812-8.386718-8.386718v-175.523438c0-4.628906 3.757812-8.386719 8.386718-8.386719h140.304688c4.628906 0 8.386718 3.757813 8.386718 8.386719zm0 0" fill="#40c4df"/><path d="m479.5625 265.679688h-12.097656v-105.257813c4.886718 0 7.8125.636719 9.097656-2.480469 25.90625-62.933594 25.644531-60.164062 24.601562-65.761718l-15.359374-80.800782c-1.261719-6.597656-7.039063-11.378906-13.761719-11.378906h-34.21875c-6.621094 0-12.398438 4.699219-13.71875 11.199219-17.789063 87.265625-17.949219 83.492187-15.703125 89l23.761718 57.742187c1.273438 3.074219 4.082032 2.480469 9.121094 2.480469v105.257813h-12.082031c-7.71875 0-14 6.28125-14 14v189.820312c0 21.621094 17.5625 39.179688 39.179687 39.179688 21.601563 0 39.179688-17.558594 39.179688-39.179688v-189.820312c0-7.71875-6.277344-14-14-14zm-41.019531-113.257813-22.738281-55.28125c-1.007813-2.410156-1.765626 3.515625 16.140624-84.339844.578126-2.800781 3.039063-4.800781 5.878907-4.800781h34.21875c2.882812 0 5.359375 2.039062 5.902343 4.859375l15.359376 80.820313c.476562 2.480468 1.648437-1.425782-23.121094 58.742187-12.492188 0-17.4375 0-31.640625 0zm20.921875 8v105.257813h-10.179688v-105.257813zm26.097656 309.078125c0 17.199219-14 31.179688-31.179688 31.179688-17.199218 0-31.179687-13.980469-31.179687-31.179688v-189.820312c0-3.300782 2.679687-6 6-6h50.359375c3.300781 0 6 2.699218 6 6zm0 0" fill="#491352"/><path d="m406.804688 250.480469h-76.503907v-51.257813h22.660157c1.820312 7.679688 8.722656 13.417969 16.941406 13.417969 9.621094 0 17.417968-7.820313 17.417968-17.421875 0-20.304688-29.300781-24.234375-34.359374-3.996094h-22.660157v-49.101562c0-6.839844-5.558593-12.402344-12.378906-12.402344h-49.109375v-36.238281c0-2.207031-1.789062-4-4-4-2.207031 0-4 1.792969-4 4v36.238281h-51.257812v-50.316406c7.789062-1.832032 13.425781-8.8125 13.425781-16.941406 0-9.621094-7.820313-17.421876-17.417969-17.421876-9.601562 0-17.421875 7.800782-17.421875 17.421876 0 8.21875 5.738281 15.136718 13.414063 16.9375v50.320312h-51.253907v-53.847656c0-5.285156-8-5.292969-8 0v53.847656h-49.117187c-6.820313 0-12.378906 5.5625-12.378906 12.402344v49.101562h-58.046876c-5.285156 0-5.292968 8 0 8h58.046876v51.253906h-76.5c-5.28125 0-5.289063 8 0 8h76.496093v51.257813h-23.5c-1.800781-7.679687-8.71875-13.417969-16.9375-13.417969-9.601562 0-17.421875 7.820313-17.421875 17.421875 0 20.308594 29.300782 24.234375 34.359375 3.996094h23.5v49.105469c0 6.839844 5.5625 12.378906 12.382813 12.378906h49.113281v50.0625c-7.675781 1.800781-13.414063 8.71875-13.414063 16.9375 0 9.621094 7.820313 17.417969 17.417969 17.417969 9.601563 0 17.421875-7.796875 17.421875-17.417969 0-10.917969-9.910156-16.941406-13.425781-16.941406v-50.058594h51.257813v36.257812c0 5.285157 8 5.292969 8 0v-36.257812h51.257812v76.507812c0 5.285157 8 5.292969 8 0v-76.507812h49.109375c6.816406 0 12.378906-5.539062 12.378906-12.378906v-49.105469h46.316407c5.28125 0 5.289062-8 0-8h-46.316407v-51.253906h76.503907c5.289062 0 5.296874-8 0-8zm-36.902344-64.679688c5.203125 0 9.421875 4.238281 9.421875 9.417969 0 5.203125-4.21875 9.421875-9.421875 9.421875-5.179688 0-9.398438-4.21875-9.398438-9.421875 0-5.179688 4.21875-9.417969 9.398438-9.417969zm-329.539063 137.359375c-5.199219 0-9.417969-4.238281-9.417969-9.421875 0-5.199219 4.21875-9.417969 9.417969-9.417969 5.207031 0 9.421875 4.226563 9.421875 9.425782-.007812 5.179687-4.226562 9.414062-9.421875 9.414062zm155.78125-260.699218c0-5.199219 4.21875-9.421876 9.417969-9.421876 5.179688 0 9.421875 4.222657 9.421875 9.421876 0 5.164062-4.214844 9.390624-9.375 9.414062h-.09375c-5.179687-.027344-9.371094-4.253906-9.371094-9.414062zm-40.421875 383.757812c0 5.203125-4.238281 9.421875-9.417968 9.421875-5.199219 0-9.421876-4.21875-9.421876-9.421875s4.257813-9.441406 9.46875-9.414062c5.15625.023437 9.371094 4.25 9.371094 9.414062zm166.582032-79.378906c0 2.421875-1.960938 4.378906-4.378907 4.378906h-224.742187c-2.398438 0-4.378906-1.957031-4.378906-4.378906 0-24.597656 0-199.769532 0-224.71875 0-2.421875 1.980468-4.402344 4.378906-4.402344h224.742187c2.417969 0 4.378907 1.980469 4.378907 4.402344zm0 0" fill="#491352"/><path d="m293.324219 154.320312h-175.539063c-6.820312 0-12.382812 5.558594-12.382812 12.398438v175.519531c0 6.839844 5.5625 12.402344 12.382812 12.402344h175.539063c6.820312 0 12.378906-5.5625 12.378906-12.402344v-175.519531c0-6.839844-5.558594-12.398438-12.378906-12.398438zm4.378906 187.917969c0 2.421875-1.960937 4.402344-4.378906 4.402344h-175.539063c-2.421875 0-4.382812-1.980469-4.382812-4.402344v-175.519531c0-2.417969 1.960937-4.398438 4.382812-4.398438h175.539063c2.417969 0 4.378906 1.980469 4.378906 4.398438zm0 0" fill="#491352"/></svg>