<svg height="508pt" viewBox="-5 0 508 508.998" width="508pt" xmlns="http://www.w3.org/2000/svg"><path d="m221.558594 293.839844h55.320312v168.320312h-55.320312zm0 0" fill="#d8d6d7"/><path d="m255.398438 293.839844h21.480468v168.320312h-21.480468zm0 0" fill="#fff"/><path d="m483.9375 330.292969h-469.4375c-5.523438 0-10-4.476563-10-10v-305.792969c0-5.523438 4.476562-10 10-10h469.4375c5.523438 0 10 4.476562 10 10v305.792969c0 5.523437-4.476562 10-10 10zm0 0" fill="#d8d6d7"/><path d="m467.9375 40.5v253.800781c0 5.519531-4.476562 10-10 10h-417.4375c-5.519531 0-10-4.480469-10-10v-253.800781c0-5.519531 4.480469-10 10-10h417.4375c5.523438 0 10 4.480469 10 10zm0 0" fill="#56c1b3"/><path d="m467.9375 40.5v253.800781c0 5.519531-4.476562 10-10 10h-373.9375c-5.519531 0-10-4.480469-10-10v-253.800781c0-5.519531 4.480469-10 10-10h373.9375c5.523438 0 10 4.480469 10 10zm0 0" fill="#7befe4"/><path d="m376.558594 472.160156v23.339844c0 5.519531-4.480469 10-10 10h-234.679688c-5.519531 0-10-4.480469-10-10v-23.339844c0-5.519531 4.480469-10 10-10h234.679688c5.519531 0 10 4.480469 10 10zm0 0" fill="#d8d6d7"/><path d="m376.558594 472.160156v23.339844c0 5.519531-4.480469 10-10 10h-202.679688c-5.519531 0-10-4.480469-10-10v-23.339844c0-5.519531 4.480469-10 10-10h202.679688c5.519531 0 10 4.480469 10 10zm0 0" fill="#fff"/><path d="m353.011719 109.265625c-52.234375-15.828125-83.472657-43.230469-96.566407-56.921875-3.945312-4.125-10.507812-4.125-14.453124 0-13.09375 13.6875-44.332032 41.09375-96.566407 56.921875-3.847656 1.167969-6.625 4.523437-7.027343 8.523437-2.746094 27.164063-7.304688 128.78125 73.378906 158.527344 24.101562 8.882813 50.78125 8.882813 74.878906 0 80.683594-29.746094 76.125-131.363281 73.382812-158.527344-.402343-4-3.183593-7.355468-7.027343-8.523437zm0 0" fill="#40c4df"/><path d="m249.21875 256.511719c-31.328125 0-56.722656-25.394531-56.722656-56.722657v-46.726562c0-5.519531 4.476562-10 10-10h93.445312c5.523438 0 10 4.480469 10 10v46.726562c0 31.328126-25.394531 56.722657-56.722656 56.722657zm0 0" fill="#f85252"/><path d="m269.609375 182.570312c0-12.027343-10.414063-21.621093-22.714844-20.261718-9.429687 1.042968-17.046875 8.78125-17.964843 18.222656-.664063 6.828125 2.046874 13.035156 6.65625 17.179688 2.132812 1.917968 3.46875 4.566406 3.46875 7.433593v14.984375c0 5.308594 3.882812 10.050782 9.167968 10.554688 6.0625.578125 11.167969-4.171875 11.167969-10.117188v-15.292968c0-2.925782 1.339844-5.636719 3.507813-7.601563 4.117187-3.726563 6.710937-9.109375 6.710937-15.101563zm0 0" fill="#d73735"/><g fill="#491352"><path d="m483.9375 0h-469.4375c-7.71875 0-14 6.28125-14 14v305.792969c0 7.71875 6.28125 14 14 14h203.058594v123.863281h-85.671875c-7.71875 0-14 6.28125-14 14v23.339844c0 7.722656 6.28125 14 14 14h234.667969c7.714843 0 14-6.277344 14-14v-23.339844c0-7.71875-6.285157-14-14-14h-85.675782v-123.863281h203.058594c7.71875 0 14-6.28125 14-14v-305.792969c0-7.71875-6.277344-14-14-14zm-117.382812 465.65625c3.304687 0 6 2.695312 6 6v23.34375c0 3.308594-2.695313 6-6 6h-234.667969c-3.308594 0-6-2.691406-6-6v-23.34375c0-3.304688 2.691406-6 6-6zm-140.996094-8v-123.863281h47.320312v123.863281zm264.378906-137.863281c0 3.308593-2.691406 6-6 6h-469.4375c-3.308594 0-6-2.691407-6-6v-305.792969c0-3.308594 2.691406-6 6-6h469.4375c3.308594 0 6 2.691406 6 6zm0 0"/><path d="m457.9375 26h-417.4375c-7.71875 0-14 6.28125-14 14v253.792969c0 7.71875 6.28125 14 14 14h417.441406c7.71875 0 14-6.28125 14-14v-253.792969c-.003906-7.71875-6.28125-14-14.003906-14zm6 267.792969c0 3.308593-2.691406 6-6 6h-417.4375c-3.308594 0-6-2.691407-6-6v-253.792969c0-3.308594 2.691406-6 6-6h417.441406c3.308594 0 6 2.691406 6 6v253.792969zm0 0"/><path d="m295.941406 139.0625h-15.0625v-37c0-7.71875-6.28125-14-14-14h-35.320312c-7.71875 0-14 6.28125-14 14v37h-15.0625c-7.71875 0-14 6.28125-14 14v46.726562c0 33.484376 27.238281 60.722657 60.722656 60.722657s60.722656-27.242188 60.722656-60.722657v-46.726562c0-7.71875-6.277344-14-14-14zm-70.382812-37c0-3.304688 2.691406-6 6-6h35.320312c3.308594 0 6 2.695312 6 6v37h-47.320312zm76.382812 97.726562c0 29.070313-23.652344 52.722657-52.722656 52.722657s-52.722656-23.652344-52.722656-52.722657v-46.726562c0-3.304688 2.691406-6 6-6h93.449218c3.308594 0 6 2.695312 6 6v46.726562zm0 0"/><path d="m265.484375 164.394531c-5.160156-4.621093-12.09375-6.832031-19.03125-6.0625-11.355469 1.257813-20.398437 10.429688-21.507813 21.8125-.761718 7.816407 2.140626 15.304688 7.964844 20.542969 1.378906 1.242188 2.140625 2.824219 2.140625 4.457031v14.984375c0 7.46875 5.617188 13.851563 12.789063 14.535156.449218.042969.902344.066407 1.351562.066407 3.519532 0 6.941406-1.304688 9.554688-3.679688 2.945312-2.679687 4.636718-6.5 4.636718-10.484375v-15.292968c0-1.707032.78125-3.351563 2.195313-4.636719 5.105469-4.613281 8.03125-11.199219 8.03125-18.066407 0-6.925781-2.960937-13.550781-8.125-18.175781zm-5.269531 30.308594c-3.070313 2.777344-4.828125 6.628906-4.828125 10.570313v15.289062c0 1.757812-.71875 3.382812-2.023438 4.566406-1.296875 1.179688-2.976562 1.746094-4.765625 1.570313-3.109375-.296875-5.542968-3.183594-5.542968-6.574219v-14.984375c0-3.871094-1.75-7.664063-4.792969-10.40625-3.914063-3.519531-5.863281-8.554687-5.351563-13.816406.730469-7.515625 6.933594-13.804688 14.425782-14.632813.636718-.070312 1.269531-.105468 1.898437-.105468 4.046875 0 7.871094 1.449218 10.914063 4.175781 3.46875 3.105469 5.460937 7.558593 5.460937 12.214843 0 4.609376-1.964844 9.03125-5.394531 12.132813zm0 0"/><path d="m354.171875 105.4375c-50.726563-15.371094-81.191406-41.59375-94.835937-55.859375-2.671876-2.792969-6.261719-4.332031-10.117188-4.332031s-7.445312 1.539062-10.117188 4.332031c-13.640624 14.261719-44.109374 40.484375-94.835937 55.859375-5.414063 1.636719-9.28125 6.328125-9.851563 11.945312-3.074218 30.460938-6.6875 132.210938 75.980469 162.683594 12.519531 4.613282 25.671875 6.921875 38.824219 6.921875 13.148438 0 26.300781-2.308593 38.820312-6.921875 82.671876-30.476562 79.054688-132.222656 75.980469-162.683594-.566406-5.613281-4.433593-10.304687-9.847656-11.945312zm-68.898437 167.125c-23.253907 8.570312-48.859376 8.570312-72.113282 0-77.273437-28.488281-73.714844-125.359375-70.785156-154.371094.242188-2.394531 1.894531-4.394531 4.207031-5.097656 52.476563-15.902344 84.113281-43.15625 98.296875-57.984375 1.144532-1.199219 2.6875-1.859375 4.335938-1.859375 1.648437 0 3.191406.660156 4.335937 1.859375 14.1875 14.832031 45.820313 42.085937 98.296875 57.988281 2.3125.699219 3.964844 2.699219 4.207032 5.09375 2.9375 29.011719 6.496093 125.882813-70.78125 154.371094zm0 0"/></g></svg>