<svg height="507pt" viewBox="-29 0 507 507.17217" width="507pt" xmlns="http://www.w3.org/2000/svg"><path d="m349.539062 224.570312c0 68.980469-55.898437 124.878907-124.878906 124.878907-.660156 0-1.320312 0-1.980468-.019531-68.058594-1.058594-122.898438-56.539063-122.898438-124.859376 0-68.960937 55.898438-124.878906 124.878906-124.878906.5 0 1.019532 0 1.519532.019532 68.28125.800781 123.359374 56.398437 123.359374 124.859374zm0 0" fill="#56c1b3"/><path d="m349.539062 224.570312c0 68.980469-55.898437 124.878907-124.878906 124.878907-.660156 0-1.320312 0-1.980468-.019531-38.558594-24.039063-64.660157-70.460938-64.660157-123.800782 0-54.9375 27.699219-102.539062 68.160157-125.917968 68.28125.800781 123.359374 56.398437 123.359374 124.859374zm0 0" fill="#7befe4"/><path d="m246.910156 26.246094c0 12.289062-9.960937 22.25-22.25 22.25-12.289062 0-22.25-9.960938-22.25-22.25 0-12.285156 9.960938-22.25 22.25-22.25 12.289063 0 22.25 9.964844 22.25 22.25zm0 0" fill="#40c4df"/><path d="m106.675781 84.335938c0 12.289062-9.964843 22.25-22.25 22.25-12.289062 0-22.25-9.960938-22.25-22.25 0-12.289063 9.960938-22.25 22.25-22.25 12.285157 0 22.25 9.960937 22.25 22.25zm0 0" fill="#1c868e"/><path d="m48.585938 224.574219c0 12.289062-9.960938 22.25-22.25 22.25-12.289063 0-22.25-9.960938-22.25-22.25 0-12.289063 9.960937-22.25 22.25-22.25 12.289062 0 22.25 9.960937 22.25 22.25zm0 0" fill="#40c4df"/><path d="m387.550781 84.335938c0 12.289062-9.960937 22.25-22.25 22.25-12.289062 0-22.25-9.960938-22.25-22.25 0-12.289063 9.960938-22.25 22.25-22.25 12.289063 0 22.25 9.960937 22.25 22.25zm0 0" fill="#1c868e"/><path d="m445.636719 224.574219c0 12.289062-9.960938 22.25-22.25 22.25-12.285157 0-22.25-9.960938-22.25-22.25 0-12.289063 9.964843-22.25 22.25-22.25 12.289062 0 22.25 9.960937 22.25 22.25zm0 0" fill="#40c4df"/><path d="m146.097656 302.074219c-9.679687 4.160156-18.140625 11.363281-23.800781 21.183593l-60.101563 104.097657c-13.980468 24.199219-5.679687 55.160156 18.519532 69.121093 1.742187 1 3.519531 1.898438 5.320312 2.660157-14.179687 6.078125-30.9375 5.640625-45.320312-2.660157-24.199219-13.960937-32.5-44.921874-18.519532-69.121093l60.101563-104.097657c12.960937-22.460937 40.558594-31.222656 63.800781-21.183593zm0 0" fill="#1c868e"/><path d="m433.917969 452.617188c0 17.480468-9.082031 34.5-25.320313 43.859374-1.742187 1-3.523437 1.898438-5.320312 2.660157-23.242188 10.039062-50.839844 1.277343-63.800782-21.179688l-14.441406-24.980469h-200.757812l-14.441406 24.980469c-5.660157 9.820313-14.121094 17.019531-23.800782 21.179688-1.800781-.761719-3.578125-1.660157-5.320312-2.660157-24.199219-13.960937-32.5-44.921874-18.519532-69.121093l60.101563-104.097657c5.660156-9.820312 14.121094-17.023437 23.800781-21.183593 1.796875.761719 3.578125 1.660156 5.320313 2.660156 8.777343 5.0625 15.417969 12.382813 19.71875 20.78125h107.039062c2.140625-4.199219 4.878907-8.140625 8.179688-11.640625 3.300781-3.519531 7.140625-6.617188 11.539062-9.140625 14.382813-8.296875 31.140625-8.738281 45.320313-2.660156 9.679687 4.160156 18.140625 11.363281 23.800781 21.183593l60.101563 104.097657c4.597656 7.960937 6.800781 16.660156 6.800781 25.261719zm0 0" fill="#40c4df"/><path d="m335.335938 342.457031c0 5.078125-3.058594 9.4375-7.417969 11.359375-1.542969.679688-3.222657 1.058594-5 1.058594-6.882813 0-12.441407-5.558594-12.441407-12.417969 0-6.882812 5.558594-12.441406 12.441407-12.441406 1.777343 0 3.457031.378906 5 1.058594 4.359375 1.921875 7.417969 6.28125 7.417969 11.382812zm0 0" fill="#d8d6d7"/><path d="m335.335938 405.617188c0 5.097656-3.058594 9.457031-7.417969 11.378906-1.542969.679687-3.222657 1.058594-5 1.058594-6.882813 0-12.441407-5.558594-12.441407-12.4375 0-6.859376 5.558594-12.421876 12.441407-12.421876 1.777343 0 3.457031.378907 5 1.0625 4.359375 1.917969 7.417969 6.277344 7.417969 11.359376zm0 0" fill="#d8d6d7"/><path d="m303.757812 374.035156c0 5.082032-3.0625 9.460938-7.441406 11.378906-1.519531.683594-3.21875 1.0625-5 1.0625-6.859375 0-12.421875-5.582031-12.421875-12.441406s5.5625-12.4375 12.421875-12.4375c1.78125 0 3.480469.378906 5 1.058594 4.378906 1.917969 7.441406 6.300781 7.441406 11.378906zm0 0" fill="#d8d6d7"/><path d="m366.9375 374.035156c0 5.082032-3.0625 9.460938-7.441406 11.378906-1.519532.683594-3.21875 1.0625-5 1.0625-6.859375 0-12.441406-5.582031-12.441406-12.441406s5.582031-12.4375 12.441406-12.4375c1.78125 0 3.480468.378906 5 1.058594 4.378906 1.917969 7.441406 6.300781 7.441406 11.378906zm0 0" fill="#d73735"/><path d="m335.335938 342.457031c0 5.078125-3.058594 9.4375-7.417969 11.359375-4.382813-1.921875-7.441407-6.28125-7.441407-11.359375 0-5.101562 3.058594-9.460937 7.441407-11.382812 4.359375 1.921875 7.417969 6.28125 7.417969 11.382812zm0 0" fill="#fff"/><path d="m335.335938 405.617188c0 5.097656-3.058594 9.457031-7.417969 11.378906-4.382813-1.921875-7.441407-6.28125-7.441407-11.378906 0-5.082032 3.058594-9.441407 7.441407-11.359376 4.359375 1.917969 7.417969 6.277344 7.417969 11.359376zm0 0" fill="#fff"/><path d="m303.757812 374.035156c0 5.082032-3.0625 9.460938-7.441406 11.378906-4.359375-1.917968-7.421875-6.296874-7.421875-11.378906 0-5.078125 3.0625-9.460937 7.421875-11.378906 4.378906 1.917969 7.441406 6.300781 7.441406 11.378906zm0 0" fill="#fff"/><path d="m366.9375 374.035156c0-6.285156-3.332031-11.378906-7.441406-11.378906s-7.441406 5.09375-7.441406 11.378906 3.332031 11.378906 7.441406 11.378906 7.441406-5.09375 7.441406-11.378906zm0 0" fill="#f85252"/><path d="m159.777344 371.695312v4.679688c0 4.699219-3.820313 8.5-8.519532 8.5h-6.761718c-4.71875 0-8.519532 3.820312-8.519532 8.519531v1.101563c-4.242187-.460938-7.558593-4.082032-7.558593-8.460938v-6.777344c0-4.703124-3.820313-8.523437-8.523438-8.523437h-6.757812c-4.402344 0-7.980469-3.277344-8.460938-7.539063h1.082031c4.699219 0 8.519532-3.820312 8.519532-8.519531v-6.78125c0-4.699219 3.820312-8.519531 8.519531-8.519531h4.660156c.320313 0 .640625.019531.960938.0625 4.238281.457031 7.558593 4.078125 7.558593 8.457031v6.78125c0 4.699219 3.800782 8.519531 8.519532 8.519531h6.761718c4.378907 0 8 3.300782 8.457032 7.539063.042968.320313.0625.640625.0625.960937zm0 0" fill="#fff"/><path d="m135.976562 394.496094v5.679687c0 4.699219-3.820312 8.519531-8.519531 8.519531h-4.660156c-4.699219 0-8.519531-3.820312-8.519531-8.519531v-6.78125c0-4.699219-3.820313-8.519531-8.519532-8.519531h-6.78125c-4.699218 0-8.5-3.800781-8.5-8.5v-4.679688c0-4.699218 3.800782-8.5 8.5-8.5h5.699219c.480469 4.261719 4.058594 7.539063 8.460938 7.539063h6.757812c4.703125 0 8.523438 3.820313 8.523438 8.523437v6.777344c0 4.378906 3.316406 8 7.558593 8.460938zm0 0" fill="#d8d6d7"/><g fill="#491352"><path d="m306.484375 342.445312c0 9.058594 7.375 16.433594 16.433594 16.433594 9.058593 0 16.433593-7.375 16.433593-16.433594 0-9.0625-7.375-16.433593-16.433593-16.433593-9.058594 0-16.433594 7.371093-16.433594 16.433593zm16.433594-8.429687c4.648437 0 8.433593 3.78125 8.433593 8.429687 0 4.652344-3.785156 8.433594-8.433593 8.433594-4.652344 0-8.4375-3.78125-8.4375-8.433594.003906-4.648437 3.785156-8.429687 8.4375-8.429687zm0 0"/><path d="m322.917969 389.1875c-9.0625 0-16.4375 7.375-16.4375 16.433594 0 9.0625 7.375 16.433594 16.4375 16.433594 9.058593 0 16.433593-7.371094 16.433593-16.433594 0-9.058594-7.375-16.433594-16.433593-16.433594zm0 24.867188c-4.652344 0-8.4375-3.785157-8.4375-8.433594 0-4.652344 3.785156-8.433594 8.4375-8.433594 4.648437 0 8.433593 3.78125 8.433593 8.433594 0 4.648437-3.785156 8.433594-8.433593 8.433594zm0 0"/><path d="m291.332031 357.601562c-9.0625 0-16.4375 7.371094-16.4375 16.433594 0 9.058594 7.375 16.433594 16.4375 16.433594 9.058594 0 16.429688-7.375 16.429688-16.433594 0-9.0625-7.371094-16.433594-16.429688-16.433594zm0 24.863282c-4.652343 0-8.4375-3.78125-8.4375-8.433594 0-4.648438 3.785157-8.433594 8.4375-8.433594 4.644531 0 8.429688 3.785156 8.429688 8.433594 0 4.652344-3.78125 8.433594-8.429688 8.433594zm0 0"/><path d="m354.503906 390.464844c9.058594 0 16.433594-7.371094 16.433594-16.433594 0-9.058594-7.375-16.433594-16.433594-16.433594s-16.433594 7.375-16.433594 16.433594c0 9.0625 7.375 16.433594 16.433594 16.433594zm0-24.863282c4.648438 0 8.433594 3.78125 8.433594 8.433594 0 4.648438-3.785156 8.433594-8.433594 8.433594-4.648437 0-8.433594-3.785156-8.433594-8.433594 0-4.652344 3.785157-8.433594 8.433594-8.433594zm0 0"/><path d="m151.269531 359.1875h-6.777343c-2.488282 0-4.515626-2.027344-4.515626-4.515625v-6.777344c0-6.902343-5.617187-12.515625-12.515624-12.515625h-4.664063c-6.902344 0-12.515625 5.613282-12.515625 12.515625v6.777344c0 2.488281-2.027344 4.515625-4.515625 4.515625h-6.78125c-6.898437 0-12.511719 5.613281-12.511719 12.515625v4.664063c0 6.898437 5.613282 12.515624 12.511719 12.515624h6.78125c2.488281 0 4.515625 2.023438 4.515625 4.515626v6.777343c0 6.898438 5.613281 12.515625 12.515625 12.515625h4.664063c6.902343 0 12.515624-5.617187 12.515624-12.515625v-6.777343c0-2.492188 2.027344-4.515626 4.515626-4.515626h6.777343c6.902344 0 12.515625-5.617187 12.515625-12.515624v-4.664063c0-6.902344-5.617187-12.515625-12.515625-12.515625zm4.515625 17.175781c0 2.492188-2.027344 4.515625-4.515625 4.515625h-6.777343c-6.898438 0-12.515626 5.617188-12.515626 12.515625v6.78125c0 2.484375-2.027343 4.511719-4.515624 4.511719h-4.664063c-2.492187 0-4.515625-2.027344-4.515625-4.511719v-6.78125c0-6.898437-5.617188-12.515625-12.515625-12.515625h-6.78125c-2.484375 0-4.511719-2.023437-4.511719-4.515625v-4.664062c0-2.488281 2.027344-4.515625 4.511719-4.515625h6.78125c6.898437 0 12.515625-5.617188 12.515625-12.515625v-6.777344c0-2.488281 2.023438-4.515625 4.515625-4.515625h4.664063c2.492187 0 4.515624 2.027344 4.515624 4.515625v6.777344c0 6.898437 5.617188 12.515625 12.515626 12.515625h6.777343c2.492188 0 4.515625 2.027344 4.515625 4.515625zm0 0"/><path d="m397.472656 228.570312c1.9375 12.582032 12.800782 22.253907 25.914063 22.253907 14.472656 0 26.25-11.777344 26.25-26.25 0-14.472657-11.777344-26.25-26.25-26.25-13.109375 0-23.976563 9.667969-25.914063 22.246093h-44.035156c-.996094-32.410156-14-61.835937-34.722656-83.976562l31.085937-31.109375c4.597657 3.375 10.042969 5.089844 15.496094 5.089844 23.226563 0 35.117187-28.242188 18.5625-44.796875-10.234375-10.238282-26.890625-10.234375-37.125 0-9.269531 9.269531-10.113281 23.789062-2.589844 34.050781l-31.078125 31.097656c-22.191406-20.960937-51.785156-34.128906-84.410156-35.132812v-43.632813c12.578125-1.933594 22.25-12.796875 22.25-25.910156 0-14.472656-11.773438-26.25-26.25-26.25-14.472656 0-26.25 11.777344-26.25 26.25 0 13.113281 9.675781 23.976562 22.25 25.910156v43.632813c-32.515625.996093-62.027344 14.085937-84.191406 34.925781l-30.890625-30.890625c7.527343-10.261719 6.683593-24.78125-2.589844-34.050781-10.234375-10.238282-26.886719-10.234375-37.121094 0-16.550781 16.550781-4.667969 44.796875 18.558594 44.796875 5.457031 0 10.898437-1.714844 15.496094-5.089844l30.890625 30.894531c-20.839844 22.164063-33.929688 51.675782-34.925782 84.191406h-43.632812c-1.941406-12.578124-12.804688-22.246093-25.914062-22.246093-14.472657 0-26.2500005 11.777343-26.2500005 26.25 0 14.472656 11.7773435 26.25 26.2500005 26.25 13.113281 0 23.976562-9.671875 25.914062-22.253907h43.605469c.71875 23.746094 7.84375 46.4375 20.761719 66.222657-16.269532 2.914062-29.777344 12.589843-37.785157 26.460937l-60.101562 104.097656c-7.292969 12.628907-9.230469 27.34375-5.457031 41.433594 12.550781 46.84375 75.847656 55.0625 100.039062 13.171875l13.273438-22.992187h196.148437l13.273437 22.992187c24.34375 42.15625 87.539063 33.472657 100.039063-13.171875 3.773437-14.089844 1.835937-28.804687-5.457031-41.433594l-60.097656-104.097656c-8.382813-14.515625-22.464844-23.71875-37.804688-26.441406 12.929688-19.792969 20.054688-42.488281 20.777344-66.242188zm25.914063-22.246093c10.0625 0 18.25 8.1875 18.25 18.25s-8.1875 18.25-18.25 18.25-18.25-8.1875-18.25-18.25 8.1875-18.25 18.25-18.25zm-58.085938-140.226563c16.148438 0 24.414063 19.632813 12.90625 31.144532-7.121093 7.117187-18.695312 7.113281-25.8125 0-11.511719-11.511719-3.242187-31.144532 12.90625-31.144532zm-267.972656 31.144532c-7.113281 7.117187-18.6875 7.117187-25.808594 0-7.117187-7.117188-7.117187-18.695313 0-25.808594 7.117188-7.117188 18.691407-7.117188 25.808594 0 7.117187 7.113281 7.117187 18.691406 0 25.808594zm-70.992187 145.582031c-10.0625 0-18.25-8.1875-18.25-18.25s8.1875-18.25 18.25-18.25 18.25 8.1875 18.25 18.25-8.1875 18.25-18.25 18.25zm289.695312-97.261719c17.546875 20.265625 28.472656 46.390625 29.410156 75.011719h-49.921875c-.488281-20.171875-4.660156-39.601563-11.972656-57.273438 11.589844-4.585937 22.523437-10.53125 32.484375-17.738281zm-35.789062 147.546875c5.679687 2.234375 11.214843 4.78125 16.519531 7.691406-9.050781 5.011719-16.121094 12.195313-20.964844 20.714844h-13.339844c6.933594-8.65625 12.894531-18.167969 17.785157-28.40625zm-28.238282 28.40625h-23.34375v-38.738281c15.144532.378906 29.921875 2.925781 44.035156 7.585937-5.539062 11.433594-12.484374 21.882813-20.691406 31.152344zm23.957032-38.492187c-15.152344-5.089844-31.023438-7.859376-47.300782-8.25v-46.203126h58.816406c-.492187 18.84375-4.4375 37.503907-11.515624 54.453126zm-47.300782-62.449219v-46.199219c16.3125-.398438 32.320313-3.234375 47.382813-8.316406 6.992187 16.796875 10.988281 35.292968 11.476562 54.515625zm81.921875-80.933594c-9.308593 6.632813-19.5 12.109375-30.296875 16.347656-9.722656-20.386719-23.757812-38.09375-41.214844-51.410156 27.820313 3.320313 52.769532 16.109375 71.511719 35.0625zm-37.835937 19.101563c-14.023438 4.648437-28.914063 7.242187-44.085938 7.636718v-59.429687c18.824219 12.746093 33.898438 30.714843 44.085938 51.792969zm-66.335938-132.492188c0-10.0625 8.1875-18.25 18.25-18.25s18.25 8.1875 18.25 18.25-8.1875 18.25-18.25 18.25-18.25-8.1875-18.25-18.25zm-29.769531 264.128906c14.101563-4.671875 28.871094-7.222656 44.019531-7.601562v38.738281h-23.339844c-8.226562-9.289063-15.167968-19.730469-20.679687-31.136719zm10.222656 31.136719h-13.335937c-4.890625-8.59375-12.011719-15.753906-20.925782-20.695313 5.277344-2.898437 10.808594-5.449218 16.496094-7.691406 4.867188 10.21875 10.820313 19.722656 17.765625 28.386719zm-13.488281-38.472656c-7.183594-17.128907-11.058594-35.414063-11.53125-54.46875h58.816406v46.203125c-16.277344.386718-32.144531 3.164062-47.285156 8.265625zm-11.574219-62.46875c.488281-19.214844 4.484375-37.707031 11.472657-54.5 15.0625 5.074219 31.074218 7.902343 47.386718 8.304687v46.195313zm14.765625-61.816407c10.1875-21.082031 25.265625-39.058593 44.09375-51.808593v59.429687c-15.175781-.394531-30.066406-2.980468-44.09375-7.621094zm33.6875-54.179687c-17.460937 13.324219-31.503906 31.035156-41.226562 51.433594-10.804688-4.238281-21.003906-9.710938-30.316406-16.335938 18.746093-18.976562 43.707031-31.773437 71.542968-35.097656zm-76.992187 41.019531c9.964843 7.199219 20.90625 13.140625 32.507812 17.722656-7.3125 17.667969-11.480469 37.089844-11.96875 57.253907h-49.917969c.933594-28.609375 11.847657-54.71875 29.378907-74.976563zm-29.402344 82.976563h49.984375c.472656 20.007812 4.507812 39.222656 12.019531 57.234375-7.773437 3.082031-15.238281 6.757812-22.261719 10.996094-5.777343-1.960938-11.8125-2.921876-17.894531-2.867188-13.574219-19.289062-21.085937-41.761719-21.847656-65.363281zm259.703125 96.683593 60.097656 104.09375c6.226563 10.78125 7.878906 23.339844 4.65625 35.367188-10.707031 39.980469-64.734375 46.984375-85.375 11.238281-14.632812-23.988281-13.820312-26.988281-17.894531-26.988281h-200.769531c-4.167969 0-3.722656 3.753906-17.894532 26.988281-20.621093 35.722657-74.664062 28.761719-85.375-11.238281-3.222656-12.027344-1.570312-24.585938 4.652344-35.367188l60.101563-104.09375c12.875-22.308593 41.355469-29.941406 63.664062-17.0625 17.570313 10.152344 15.949219 21.320313 21.714844 21.320313 110.0625-.84375 108.492187 1.960937 110.605469-2.183594 16.71875-32.738281 63.367187-34.039062 81.816406-2.074219zm-39.972656-31.28125c-5.960938-.050781-11.972656.863282-17.796875 2.824219-7.074219-4.253906-14.554688-7.9375-22.316407-11.015625 7.398438-17.832031 11.507813-37.433594 12-57.210937h49.988282c-.765625 23.617187-8.285156 46.105469-21.875 65.402343zm0 0"/></g></svg>