<svg height="506pt" viewBox="0 -46 506.50625 506" width="506pt" xmlns="http://www.w3.org/2000/svg"><path d="m471.855469 386.253906v13c0 5.519532-4.480469 10-10 10h-414.738281c-5.519532 0-10-4.480468-10-10v-13c0-5.519531 4.480468-10 10-10h414.738281c5.519531 0 10 4.480469 10 10zm0 0" fill="#1c868e"/><path d="m471.855469 386.253906v8.859375h-410.597657c-5.523437 0-10-4.476562-10-10v-8.859375h410.597657c5.519531 0 10 4.480469 10 10zm0 0" fill="#40c4df"/><path d="m434.816406 156.996094v209.257812c0 5.519532-4.480468 10-10 10h-340.660156c-5.519531 0-10-4.480468-10-10v-209.257812c0-5.539063 4.480469-10 10-10h340.660156c5.519532 0 10 4.460937 10 10zm0 0" fill="#1c868e"/><path d="m434.816406 156.996094v209.257812c0 5.519532-4.480468 10-10 10h-320.660156c-5.519531 0-10-4.480468-10-10v-209.257812c0-5.539063 4.480469-10 10-10h320.660156c5.519532 0 10 4.460937 10 10zm0 0" fill="#40c4df"/><path d="m102.160156 338.25v-153.265625c0-5.519531 4.476563-10 10-10h284.660156c5.523438 0 10 4.480469 10 10v153.265625c0 5.519531-4.476562 10-10 10h-284.660156c-5.527344 0-10-4.480469-10-10zm0 0" fill="#fff"/><path d="m94.15625 157.195312-14.039062 14.042969c-3.300782 3.300781-8.621094 3.300781-11.921876 0l-53.21875-53.222656c-14.679687-14.699219-14.679687-38.5 0-53.21875 12.679688-12.640625 32.101563-14.402344 46.621094-5.261719-2.363281 1.460938-4.582031 3.21875-6.621094 5.261719-14.679687 14.71875-14.679687 38.519531 0 53.21875zm0 0" fill="#d73735"/><path d="m133.335938 118.015625-39.179688 39.179687-39.179688-39.179687c-14.679687-14.699219-14.679687-38.5 0-53.21875 2.039063-2.042969 4.257813-3.800781 6.621094-5.261719 2.339844 1.480469 4.558594 3.21875 6.597656 5.261719 1.640626 1.636719 3.800782 2.476563 5.960938 2.476563s4.320312-.839844 5.960938-2.476563c4.097656-4.101563 8.917968-7.042969 14.039062-8.863281 4.058594-1.417969 8.300781-2.136719 12.558594-2.136719 6.960937 0 13.921875 1.917969 20.019531 5.738281 2.34375 1.480469 4.5625 3.21875 6.601563 5.261719 14.679687 14.71875 14.679687 38.519531 0 53.21875zm0 0" fill="#f85252"/><path d="m502.496094 66.636719c0 26.679687-25.960938 49.476562-62.480469 58.378906-2.140625.519531-3.960937 1.960937-4.839844 3.980469-5.597656 12.738281-15.097656 23.359375-27.019531 30.320312-9.71875 5.71875-21.039062 8.980469-33.121094 8.980469h-.199218c-6.378907-.023437-9.398438-8.121094-4.558594-12.28125 6.179687-5.320313 11.058594-12.082031 14.117187-19.78125 1.640625-4.140625-.839843-8.839844-5.238281-9.660156-32.519531-6.058594-58-22.878907-66.601562-44.097657-1.058594-2.621093-1.878907-5.339843-2.417969-8.101562-.460938-2.539062-.71875-5.121094-.71875-7.738281 0-34.441407 43.21875-62.382813 96.539062-62.382813 6.859375 0 13.539063.460938 20 1.339844 43.71875 5.960938 76.539063 31.019531 76.539063 61.042969zm0 0" fill="#d8d6d7"/><path d="m502.496094 66.636719c0 26.679687-25.960938 49.476562-62.480469 58.378906-2.140625.519531-3.960937 1.960937-4.839844 3.980469-5.597656 12.738281-15.097656 23.359375-27.019531 30.320312.320312-1.203125 1.019531-2.359375 2.121094-3.300781 6.179687-5.320313 11.058594-12.082031 14.117187-19.78125 1.640625-4.140625-.839843-8.839844-5.238281-9.660156-32.519531-6.058594-58-22.878907-66.601562-44.097657-1.058594-2.621093-1.878907-5.339843-2.417969-8.101562-.460938-2.539062-.71875-5.121094-.71875-7.738281 0-30.023438 32.816406-55.082031 76.539062-61.042969 43.71875 5.960938 76.539063 31.019531 76.539063 61.042969zm0 0" fill="#fff"/><path d="m381.835938 247.496094v62.160156c0 3.320312-2.679688 6-6 6h-64.320313c-3.320313 0-6-2.679688-6-6v-62.160156c0-1.660156.679687-3.140625 1.761719-4.222656 1.078125-1.078126 2.578125-1.757813 4.238281-1.757813 1.761719 0 3.199219-1.441406 3.199219-3.21875v-34.882813c0-3.300781 2.679687-5.980468 6-5.980468h2.960937c2.5 0 4.859375.582031 6.941407 1.621094 5.160156 2.558593 8.699218 7.878906 8.699218 14.019531v20.539062c0 4.363281 3.539063 7.902344 7.898438 7.902344h28.621094c3.320312 0 6 2.679687 6 5.980469zm0 0" fill="#edaf85"/><path d="m381.835938 247.496094v62.160156c0 3.320312-2.679688 6-6 6h-50.320313c-3.320313 0-6-2.679688-6-6v-62.160156c0-1.660156.679687-3.140625 1.761719-4.222656 1.078125-1.078126 2.578125-1.757813 4.238281-1.757813 1.761719 0 3.199219-1.441406 3.199219-3.21875v-34.882813c0-1.71875.722656-3.257812 1.902344-4.359374 5.160156 2.558593 8.699218 7.878906 8.699218 14.019531v20.539062c0 4.363281 3.539063 7.902344 7.898438 7.902344h28.621094c3.320312 0 6 2.679687 6 5.980469zm0 0" fill="#f7c09a"/><path d="m305.515625 241.355469v74.460937c0 4.457032-2.9375 8.257813-6.980469 9.519532-.957031.320312-1.980468.480468-3.019531.480468h-7.960937c-5.519532 0-10-4.480468-10-10v-74.460937c0-5.519531 4.480468-10 10-10h7.960937c1.039063 0 2.0625.160156 3.019531.460937 4.042969 1.277344 6.980469 5.058594 6.980469 9.539063zm0 0" fill="#1c868e"/><path d="m305.515625 241.355469v74.460937c0 4.457032-2.9375 8.257813-6.980469 9.519532-4.039062-1.261719-6.980468-5.0625-6.980468-9.519532v-74.460937c0-4.480469 2.941406-8.261719 6.980468-9.539063 4.042969 1.277344 6.980469 5.058594 6.980469 9.539063zm0 0" fill="#40c4df"/><path d="m185.554688 217.457031v35.796875c0 5.519532-4.476563 10-10 10h-38.417969c-5.519531 0-10-4.480468-10-10v-35.796875c0-5.523437 4.480469-10 10-10h38.417969c5.523437 0 10 4.476563 10 10zm0 0" fill="#56c1b3"/><path d="m185.554688 217.457031v31.636719h-34.277344c-5.519532 0-10-4.457031-10-10v-31.636719h34.277344c5.523437 0 10 4.476563 10 10zm0 0" fill="#7befe4"/><path d="m372.734375 68.253906c0 5.121094-3.078125 9.519532-7.5 11.460938-1.539063.660156-3.21875 1.039062-5 1.039062-6.898437 0-12.5-5.597656-12.5-12.5 0-6.898437 5.601563-12.5 12.5-12.5 1.78125 0 3.460937.382813 5 1.042969 4.421875 1.9375 7.5 6.339844 7.5 11.457031zm0 0" fill="#56c1b3"/><path d="m418.457031 68.253906c0 5.121094-3.082031 9.519532-7.5 11.460938-1.539062.660156-3.222656 1.039062-5 1.039062-6.902343 0-12.5-5.597656-12.5-12.5 0-6.898437 5.597657-12.5 12.5-12.5 1.777344 0 3.460938.382813 5 1.042969 4.417969 1.9375 7.5 6.339844 7.5 11.457031zm0 0" fill="#56c1b3"/><path d="m464.175781 68.253906c0 5.121094-3.078125 9.519532-7.5 11.460938-1.539062.660156-3.21875 1.039062-5 1.039062-6.898437 0-12.5-5.597656-12.5-12.5 0-6.898437 5.601563-12.5 12.5-12.5 1.78125 0 3.460938.382813 5 1.042969 4.421875 1.9375 7.5 6.339844 7.5 11.457031zm0 0" fill="#56c1b3"/><path d="m372.734375 68.253906c0-6.328125-3.355469-11.457031-7.5-11.457031-4.140625 0-7.5 5.128906-7.5 11.457031 0 6.332032 3.359375 11.460938 7.5 11.460938 4.144531 0 7.5-5.128906 7.5-11.460938zm0 0" fill="#7befe4"/><path d="m418.457031 68.253906c0-6.328125-3.359375-11.457031-7.5-11.457031-4.144531 0-7.5 5.128906-7.5 11.457031 0 6.332032 3.355469 11.460938 7.5 11.460938 4.140625 0 7.5-5.128906 7.5-11.460938zm0 0" fill="#7befe4"/><path d="m464.175781 68.253906c0-6.328125-3.355469-11.457031-7.5-11.457031-4.140625 0-7.5 5.128906-7.5 11.457031 0 6.332032 3.359375 11.460938 7.5 11.460938 4.144531 0 7.5-5.128906 7.5-11.460938zm0 0" fill="#7befe4"/><g fill="#491352"><path d="m440.972656 128.898438c39.199219-9.558594 65.535156-34.582032 65.535156-62.261719 0-36.605469-45.109374-66.382813-100.546874-66.382813-55.441407 0-100.546876 29.777344-100.546876 66.382813 0 2.792969.269532 5.644531.804688 8.503906.578125 2.988281 1.464844 5.960937 2.636719 8.839844 9.070312 22.394531 35.734375 40.21875 69.578125 46.523437 1.199218.222656 1.816406 1.042969 2.074218 1.511719.464844.847656.527344 1.847656.167969 2.75-1.144531 2.878906-2.597656 5.632813-4.292969 8.230469h-262.363281l22.144531-22.148438h.003907c16.195312-16.234375 16.195312-42.640625-.007813-58.878906-16.230468-16.195312-42.640625-16.199219-58.875.003906-1.722656 1.722656-4.53125 1.726563-6.261718-.003906-16.230469-16.195312-42.640626-16.199219-58.875.007812-16.199219 16.230469-16.199219 42.636719 0 58.875l53.222656 53.21875c1.390625 1.390626 3.039062 2.332032 4.785156 2.925782v189.257812c0 2.148438.5 4.175782 1.367188 5.996094h-24.398438c-7.722656 0-14 6.28125-14 14v13.007812c0 7.71875 6.277344 14 14 14h414.726562c7.71875 0 14-6.28125 14-14v-13.007812c0-7.71875-6.28125-14-14-14h-24.402343c.867187-1.820312 1.367187-3.847656 1.367187-5.996094v-209.257812c0-5.582032-3.289062-10.394532-8.023437-12.644532 3.152343-4.207031 5.871093-8.800781 8.042969-13.753906.363281-.835937 1.140624-1.457031 2.136718-1.699218zm-423.164062-13.703126c-13.085938-13.117187-13.085938-34.457031-.003906-47.5625 6.558593-6.542968 15.171874-9.816406 23.785156-9.816406 8.613281 0 17.226562 3.273438 23.78125 9.8125 4.84375 4.84375 12.726562 4.839844 17.570312.003906 13.113282-13.085937 34.453125-13.089843 47.5625-.003906 13.089844 13.113282 13.089844 34.453125 0 47.566406l-53.21875 53.21875c-1.726562 1.722657-4.53125 1.722657-6.257812 0zm450.042968 271.054688v13.007812c0 3.308594-2.691406 6-6 6h-414.726562c-3.308594 0-6-2.691406-6-6v-13.007812c0-3.308594 2.691406-6 6-6 89.375 0-82.410156.007812 414.726562 0 3.308594 0 6 2.691406 6 6zm-37.035156-229.253906v209.257812c0 3.292969-2.660156 5.964844-5.941406 5.996094h-340.777344c-3.28125-.03125-5.941406-2.707031-5.941406-5.996094v-189.257812c1.746094-.59375 3.394531-1.535156 4.785156-2.925782l23.074219-23.074218h263.8125c-.703125.683594-1.421875 1.347656-2.164063 1.988281-3.476562 2.988281-4.683593 7.734375-3.074218 12.089844.964844 2.621093 2.808594 4.671875 5.113281 5.914062h-257.542969c-7.722656 0-14 6.28125-14 14v153.261719c0 7.71875 6.277344 14 14 14h284.660156c7.71875 0 14-6.28125 14-14v-153.261719c0-7.71875-6.28125-14-14-14h-8.570312c14.121094-2.730469 26.980469-9.738281 36.863281-19.960937 3.167969.152344 5.703125 2.761718 5.703125 5.96875zm-34 21.988281c3.308594 0 6 2.691406 6 6v153.265625c0 3.308594-2.691406 6-6 6h-284.65625c-3.308594 0-6-2.691406-6-6v-153.265625c0-3.308594 2.691406-6 6-6zm34.6875-51.597656c-9.832031 22.417969-31.992187 36.90625-56.460937 36.90625h-.199219c-1.871094-.007813-2.578125-1.527344-2.746094-1.988281-.171875-.460938-.617187-2.054688.785156-3.257813 6.707032-5.769531 11.96875-13.140625 15.226563-21.324219 1.246094-3.132812 1.027344-6.621094-.597656-9.570312-1.597657-2.902344-4.375-4.910156-7.613281-5.511719-31.1875-5.808594-55.570313-21.777344-63.628907-41.667969-.976562-2.398437-1.714843-4.875-2.191406-7.332031-.441406-2.347656-.664063-4.707031-.664063-7.003906 0-32.195313 41.515626-58.382813 92.546876-58.382813s92.546874 26.191406 92.546874 58.382813c0 23.921875-23.882812 45.820312-59.429687 54.488281-3.4375.839844-6.199219 3.121094-7.574219 6.261719zm0 0"/><path d="m287.554688 329.804688h7.96875c6.503906 0 11.972656-4.46875 13.535156-10.492188.792968.203125 1.605468.34375 2.457031.34375h64.332031c5.507813 0 9.992188-4.484375 9.992188-9.992188v-62.164062c0-5.511719-4.484375-9.992188-9.992188-9.992188h-28.636718c-2.148438 0-3.898438-1.75-3.898438-3.898437v-20.539063c0-10.832031-8.808594-19.640624-19.640625-19.640624h-2.957031c-5.507813 0-9.992188 4.480468-9.992188 9.992187v34.117187c-.574218.042969-1.125.15625-1.667968.292969-1.566407-6.015625-7.03125-10.476562-13.53125-10.476562h-7.96875c-7.71875 0-14 6.28125-14 14v74.453125c0 7.714844 6.28125 13.996094 14 13.996094zm23.960937-84.296876c3.976563 0 7.207031-3.234374 7.207031-7.210937v-34.875c0-1.097656.894532-1.992187 1.992188-1.992187h2.957031c6.417969 0 11.640625 5.222656 11.640625 11.640624v20.539063c0 6.558594 5.339844 11.898437 11.898438 11.898437h28.632812c1.097656 0 1.992188.894532 1.992188 1.992188v62.164062c0 1.097657-.894532 1.992188-1.992188 1.992188h-64.328125c-1.097656 0-1.992187-.894531-1.992187-1.992188v-62.164062c0-1.097656.894531-1.992188 1.992187-1.992188zm-29.960937-4.152343c0-3.308594 2.695312-6 6-6h7.96875c3.308593 0 6 2.691406 6 6v74.449219c0 3.308593-2.691407 6-6 6h-7.96875c-3.304688 0-6-2.691407-6-6zm0 0"/><path d="m137.140625 267.246094h38.421875c7.71875 0 14-6.28125 14-14v-35.785156c0-7.71875-6.28125-14-14-14h-38.421875c-7.71875 0-14 6.28125-14 14v35.785156c0 7.71875 6.28125 14 14 14zm-6-49.785156c0-3.308594 2.691406-6 6-6h38.421875c3.308594 0 6 2.691406 6 6v35.785156c0 3.308594-2.691406 6-6 6h-38.421875c-3.308594 0-6-2.691406-6-6zm0 0"/><path d="m209.660156 239.460938h46.207032c2.210937 0 4-1.792969 4-4 0-2.207032-1.789063-4-4-4h-46.207032c-2.210937 0-4 1.792968-4 4 0 2.207031 1.789063 4 4 4zm0 0"/><path d="m127.140625 295.136719h128.726563c2.210937 0 4-1.792969 4-4s-1.789063-4-4-4h-128.726563c-2.207031 0-4 1.792969-4 4s1.792969 4 4 4zm0 0"/><path d="m127.140625 323.03125h128.726563c2.210937 0 4-1.792969 4-4s-1.789063-4-4-4h-128.726563c-2.207031 0-4 1.792969-4 4s1.792969 4 4 4zm0 0"/><path d="m360.234375 51.753906c-9.097656 0-16.5 7.402344-16.5 16.5s7.402344 16.5 16.5 16.5c9.101563 0 16.5-7.402344 16.5-16.5s-7.398437-16.5-16.5-16.5zm0 25c-4.683594 0-8.5-3.8125-8.5-8.5s3.816406-8.5 8.5-8.5c4.6875 0 8.5 3.8125 8.5 8.5s-3.808594 8.5-8.5 8.5zm0 0"/><path d="m405.957031 51.753906c-9.097656 0-16.5 7.402344-16.5 16.5s7.402344 16.5 16.5 16.5c9.097657 0 16.5-7.402344 16.5-16.5s-7.402343-16.5-16.5-16.5zm0 25c-4.683593 0-8.5-3.8125-8.5-8.5s3.816407-8.5 8.5-8.5c4.6875 0 8.5 3.8125 8.5 8.5s-3.8125 8.5-8.5 8.5zm0 0"/><path d="m451.679688 84.753906c9.097656 0 16.5-7.402344 16.5-16.5s-7.402344-16.5-16.5-16.5c-9.097657 0-16.5 7.402344-16.5 16.5s7.402343 16.5 16.5 16.5zm0-25c4.683593 0 8.5 3.8125 8.5 8.5s-3.816407 8.5-8.5 8.5c-4.6875 0-8.5-3.8125-8.5-8.5s3.8125-8.5 8.5-8.5zm0 0"/></g></svg>