<svg height="499pt" viewBox="0 -29 499.246 499" width="499pt" xmlns="http://www.w3.org/2000/svg"><path d="m364.539062 326.421875h-350.5c-5.519531 0-10-4.480469-10-10v-302.320313c0-5.519531 4.480469-10 10-10h350.5c5.523438 0 10 4.480469 10 10v302.320313c0 5.523437-4.476562 10-10 10zm0 0" fill="#f85252"/><path d="m374.539062 56.871094v259.550781c0 5.523437-4.476562 10-10 10h-350.5c-5.519531 0-10-4.476563-10-10v-302.320313c0-5.519531 4.480469-10 10-10h87.425782l38.265625 47.550782c2.65625 3.300781 6.664062 5.21875 10.898437 5.21875zm0 0" fill="#d8d6d7"/><path d="m374.539062 56.871094v259.550781c0 5.523437-4.476562 10-10 10h-330.15625c-4.140624 0-7.5-3.355469-7.5-7.5v-307.320313c0-4.140624 3.359376-7.5 7.5-7.5h67.082032l38.265625 47.550782c2.65625 3.300781 6.664062 5.21875 10.898437 5.21875zm0 0" fill="#fff"/><path d="m247.851562 229.558594c-4.554687-4.925782-4.253906-12.609375.671876-17.160156l39.078124-36.136719-39.078124-36.132813c-4.925782-4.550781-5.226563-12.234375-.671876-17.160156 4.550782-4.921875 12.234376-5.226562 17.160157-.671875l48.722656 45.046875c5.195313 4.800781 5.203125 13.027344 0 17.835938l-48.722656 45.046874c-4.921875 4.550782-12.605469 4.257813-17.160157-.667968zm0 0" fill="#40c4df"/><path d="m113.566406 230.230469-48.722656-45.050781c-5.195312-4.796876-5.203125-13.023438 0-17.832032l48.722656-45.046875c4.925782-4.554687 12.609375-4.253906 17.160156.671875 4.554688 4.921875 4.253907 12.605469-.671874 17.160156l-39.078126 36.132813 39.078126 36.132813c4.925781 4.550781 5.226562 12.238281.671874 17.160156-4.554687 4.929687-12.238281 5.21875-17.160156.671875zm0 0" fill="#40c4df"/><path d="m157.207031 231.828125c-5.808593-3.351563-7.796875-10.777344-4.445312-16.585937l52.019531-90.101563c3.355469-5.804687 10.777344-7.796875 16.589844-4.445313 5.808594 3.355469 7.796875 10.78125 4.445312 16.585938l-52.019531 90.101562c-3.351563 5.808594-10.777344 7.800782-16.589844 4.445313zm0 0" fill="#40c4df"/><path d="m495.242188 325.621094c0 57.203125-43.21875 104.34375-98.820313 110.460937-4.039063.480469-8.160156.699219-12.339844.699219-61.398437 0-111.160156-49.777344-111.160156-111.160156 0-61.398438 49.761719-111.179688 111.160156-111.179688 4.179688 0 8.300781.222656 12.339844.703125 55.597656 6.117188 98.820313 53.257813 98.820313 110.476563zm0 0" fill="#1c868e"/><path d="m495.242188 325.621094c0 57.203125-43.21875 104.34375-98.820313 110.460937-55.578125-6.097656-98.839844-53.238281-98.839844-110.460937 0-57.238282 43.261719-104.378906 98.839844-110.476563 55.597656 6.117188 98.820313 53.257813 98.820313 110.476563zm0 0" fill="#40c4df"/><path d="m462.082031 271.941406c0 6.28125-2.378906 12.542969-7.179687 17.320313l-9.421875 9.421875-89.117188 89.121094-.421875.417968-35.519531 11.179688c-6.058594 1.902344-11.78125-3.738282-9.960937-9.820313l10.820312-36.019531 98.960938-98.960938c9.558593-9.578124 25.078124-9.578124 34.660156 0 4.800781 4.78125 7.179687 11.0625 7.179687 17.339844zm0 0" fill="#f85252"/><path d="m446.140625 296.542969s-.238281.761719-.660156 2.140625l-89.117188 89.121094-.800781-.640626-33.359375-33.359374-.242187-.921876 90-90 1.382812.859376zm0 0" fill="#fff"/><path d="m315.605469 30.96875c0 5.714844-4.628907 10.34375-10.34375 10.34375-5.710938 0-10.34375-4.628906-10.34375-10.34375 0-5.710938 4.632812-10.34375 10.34375-10.34375 5.714843 0 10.34375 4.632812 10.34375 10.34375zm0 0" fill="#fff"/><path d="m353.46875 30.96875c0 5.714844-4.632812 10.34375-10.34375 10.34375-5.714844 0-10.34375-4.628906-10.34375-10.34375 0-5.710938 4.628906-10.34375 10.34375-10.34375 5.710938 0 10.34375 4.632812 10.34375 10.34375zm0 0" fill="#fff"/><g fill="#491352"><path d="m378.5 210.589844c0-18.234375 0-177.230469 0-196.46875 0-7.71875-6.28125-14-14-14-4.238281 0-347.140625 0-350.5 0-7.71875 0-14 6.28125-14 14v302.320312c0 7.722656 6.28125 14 14 14h255.035156c2.542969 61.273438 53.160156 110.339844 115.042969 110.339844 63.503906 0 115.167969-51.664062 115.167969-115.164062 0-65.40625-54.800782-118.195313-120.746094-115.027344zm-14-202.46875c3.308594 0 6 2.695312 6 6v38.761718h-219.898438c-3.050781 0-5.894531-1.359374-7.804687-3.726562l-33.023437-41.035156zm-95.503906 314.320312h-254.996094c-3.308594 0-6-2.691406-6-6v-302.320312c0-3.304688 2.691406-6 6-6h85.503906l37.0625 46.050781c3.4375 4.265625 8.550782 6.710937 14.035156 6.710937h219.902344v150.394532c-56.09375 6.625-99.941406 53.695312-101.507812 111.164062zm115.085937 110.339844c-59.082031 0-107.167969-48.09375-107.167969-107.164062 0-59.09375 48.074219-107.167969 107.167969-107.167969s107.164063 48.074219 107.164063 107.167969-48.074219 107.164062-107.164063 107.164062zm0 0"/><path d="m89.386719 32.710938c0-2.210938-1.789063-4-4-4h-51.8125c-2.207031 0-4 1.789062-4 4 0 2.207031 1.792969 4 4 4h51.8125c2.210937 0 4-1.792969 4-4zm0 0"/><path d="m305.261719 45.3125c7.910156 0 14.34375-6.433594 14.34375-14.34375s-6.433594-14.34375-14.34375-14.34375c-7.910157 0-14.347657 6.433594-14.347657 14.34375s6.4375 14.34375 14.347657 14.34375zm0-20.6875c3.5 0 6.34375 2.847656 6.34375 6.34375 0 3.5-2.84375 6.34375-6.34375 6.34375s-6.347657-2.84375-6.347657-6.34375c0-3.496094 2.847657-6.34375 6.347657-6.34375zm0 0"/><path d="m343.125 45.3125c7.910156 0 14.34375-6.433594 14.34375-14.34375s-6.433594-14.34375-14.34375-14.34375-14.34375 6.433594-14.34375 14.34375 6.433594 14.34375 14.34375 14.34375zm0-20.6875c3.5 0 6.34375 2.847656 6.34375 6.34375 0 3.5-2.84375 6.34375-6.34375 6.34375s-6.34375-2.84375-6.34375-6.34375c0-3.496094 2.84375-6.34375 6.34375-6.34375zm0 0"/><path d="m316.410156 164.429688-48.726562-45.046876c-3.167969-2.929687-7.300782-4.457031-11.589844-4.28125-8.914062.351563-15.851562 7.847657-15.5 16.761719.167969 4.3125 2.003906 8.296875 5.171875 11.222657l35.902344 33.195312c-38.273438 35.390625-40.726563 35.585938-41.074219 44.417969-.5625 14.433593 16.625 22.160156 27.089844 12.488281l48.722656-45.046875c6.90625-6.382813 6.90625-17.328125.003906-23.710937zm-5.429687 17.832031-48.726563 45.050781c-3.296875 3.042969-8.4375 2.867188-11.507812-.449219-3.054688-3.300781-2.855469-8.449219.453125-11.507812l39.078125-36.132813c.820312-.757812 1.285156-1.824218 1.285156-2.9375 0-1.113281-.460938-2.179687-1.285156-2.9375l-39.078125-36.132812c-7.90625-7.308594 3.183593-19.238282 11.054687-11.957032l48.726563 45.046876c3.476562 3.210937 3.5 8.722656 0 11.957031zm0 0"/><path d="m137.902344 131.867188c.5625-14.375-16.601563-22.179688-27.089844-12.484376l-48.726562 45.046876c-6.902344 6.382812-6.902344 17.324218 0 23.707031l48.722656 45.046875c10.546875 9.75 27.648437 1.804687 27.09375-12.484375-.347656-8.78125-2.589844-8.832031-41.078125-44.417969 38.277343-35.386719 40.730469-35.582031 41.078125-44.414062zm-49.683594 41.480468c-1.710938 1.578125-1.710938 4.292969 0 5.875 42.691406 39.472656 41.511719 37.277344 41.691406 41.792969.277344 7.207031-8.34375 11.21875-13.667968 6.296875-52.90625-48.914062-51.339844-46.121094-51.339844-51.027344s-1.671875-2.015625 51.339844-51.027344c5.253906-4.863281 13.949218-1.007812 13.667968 6.296876-.179687 4.527343.980469 2.335937-41.691406 41.792968zm0 0"/><path d="m223.328125 117.253906c-7.707031-4.449218-17.601563-1.792968-22.050781 5.910156l-52.019532 90.097657c-4.460937 7.730469-1.820312 17.589843 5.90625 22.054687h.003907c7.707031 4.445313 17.601562 1.792969 22.050781-5.910156l52.019531-90.101562c4.449219-7.707032 1.796875-17.601563-5.910156-22.050782zm-1.019531 18.054688-52.015625 90.097656c-3.628907 6.269531-13.054688 5.007812-14.921875-1.964844-1.230469-4.59375-3.613282 1.492188 52.832031-96.277344 2.246094-3.886718 7.234375-5.226562 11.125-2.980468 3.890625 2.242187 5.226563 7.234375 2.980469 11.125zm0 0"/><path d="m417.40625 251.773438c-1.109375 1.113281-99.507812 99.136718-99.960938 100.640624l-10.808593 36.027344c-2.3125 7.703125 3.507812 15.332032 11.394531 15.332032 2.523438 0 .597656.386718 39.109375-11.726563 1.457031-.460937 99.511719-98.875 100.589844-99.953125 5.386719-5.382812 8.355469-12.542969 8.355469-20.160156-.011719-25.199219-30.703126-38.136719-48.679688-20.160156zm-102.109375 142.871093c-2.277344-2.242187-1.683594-1.625 8.042969-34.046875l25.628906 25.632813c-32.066406 10.085937-31.429688 10.625-33.671875 8.414062zm40.984375-12.414062-29.007812-29.007813 84.949218-84.949218 29.007813 29.007812zm95.792969-95.792969-5.1875 5.1875-29.007813-29.007812 5.1875-5.1875c7.996094-7.996094 21.011719-7.996094 29.007813 0 7.996093 8 7.996093 21.011718 0 29.007812zm0 0"/></g></svg>