<svg height="505pt" viewBox="-42 0 505 505.998" width="505pt" xmlns="http://www.w3.org/2000/svg"><path d="m406.5 50h-392c-5.523438 0-10-4.476562-10-10v-26c0-5.523438 4.476562-10 10-10h392c5.519531 0 10 4.476562 10 10v26c0 5.523438-4.480469 10-10 10zm0 0" fill="#40c4df"/><path d="m386.160156 50v324.660156c0 5.519532-4.480468 10-10 10h-331.320312c-5.519532 0-10-4.480468-10-10v-324.660156zm0 0" fill="#d8d6d7"/><path d="m242.5 470c0 11.179688-5.742188 21.019531-14.421875 26.738281-5.039063 3.320313-11.078125 5.261719-17.578125 5.261719-17.679688 0-32-14.320312-32-32s14.320312-32 32-32c6.5 0 12.539062 1.941406 17.578125 5.261719 8.679687 5.71875 14.421875 15.558593 14.421875 26.738281zm0 0" fill="#d8d6d7"/><path d="m386.160156 50v324.660156c0 5.519532-4.480468 10-10 10h-296.160156c-5.519531 0-10-4.480468-10-10v-324.660156zm0 0" fill="#fff"/><path d="m242.5 470c0-14.769531-6.457031-26.738281-14.421875-26.738281s-14.417969 11.96875-14.417969 26.738281 6.453125 26.738281 14.417969 26.738281 14.421875-11.96875 14.421875-26.738281zm0 0" fill="#fff"/><path d="m119.613281 356.664062h-18.664062c-5.523438 0-10-4.476562-10-10v-160c0-5.519531 4.476562-10 10-10h18.664062c5.523438 0 10 4.480469 10 10v160c0 5.527344-4.476562 10-10 10zm0 0" fill="#40c4df"/><path d="m186.347656 356.664062h-18.664062c-5.523438 0-10-4.476562-10-10v-120c0-5.519531 4.476562-10 10-10h18.664062c5.523438 0 10 4.480469 10 10v120c0 5.527344-4.476562 10-10 10zm0 0" fill="#f85252"/><path d="m320.050781 356.664062h-18.667969c-5.523437 0-10-4.476562-10-10v-120c0-5.519531 4.476563-10 10-10h18.667969c5.519531 0 10 4.480469 10 10v120c0 5.527344-4.476562 10-10 10zm0 0" fill="#56c1b3"/><path d="m253.082031 356.664062h-18.664062c-5.523438 0-10-4.476562-10-10v-200c0-5.519531 4.476562-10 10-10h18.664062c5.523438 0 10 4.480469 10 10v200c0 5.527344-4.476562 10-10 10zm0 0" fill="#1c868e"/><g fill="#491352"><path d="m406.5 0h-392c-7.722656 0-14 6.28125-14 14v26c0 7.71875 6.277344 14 14 14h16.34375v320.664062c0 7.722657 6.277344 14 14 14h161.65625v45.570313c-17.976562 1.996094-32 17.269531-32 35.761719 0 19.851562 16.148438 36 36 36 19.847656 0 36-16.148438 36-36 0-18.496094-14.027344-33.765625-32-35.761719v-45.570313h161.65625c7.71875 0 14-6.277343 14-14v-320.664062h16.34375c7.71875 0 14-6.28125 14-14v-26c0-7.71875-6.28125-14-14-14zm-168 470c0 15.441406-12.5625 28-28 28-15.441406 0-28-12.558594-28-28s12.558594-28 28-28c15.4375 0 28 12.558594 28 28zm143.65625-95.335938c0 3.308594-2.691406 6-6 6h-331.3125c-3.308594 0-6-2.691406-6-6v-320.664062h343.3125zm30.34375-334.664062c0 3.308594-2.691406 6-6 6-44.335938 0-348.796875 0-392 0-3.308594 0-6-2.691406-6-6v-26c0-3.308594 2.691406-6 6-6h392c3.308594 0 6 2.691406 6 6zm0 0"/><path d="m100.949219 360.664062h18.664062c7.722657 0 14-6.277343 14-14v-160c0-7.71875-6.277343-14-14-14h-18.664062c-7.71875 0-14 6.28125-14 14v160c0 7.722657 6.28125 14 14 14zm-6-174c0-3.304687 2.691406-6 6-6h18.664062c3.308594 0 6 2.695313 6 6v160c0 3.308594-2.691406 6-6 6h-18.664062c-3.308594 0-6-2.691406-6-6zm0 0"/><path d="m167.683594 360.664062h18.664062c7.722656 0 14-6.277343 14-14v-120c0-7.71875-6.277344-14-14-14h-18.664062c-7.71875 0-14 6.28125-14 14v120c0 7.722657 6.28125 14 14 14zm-6-134c0-3.304687 2.691406-6 6-6h18.664062c3.308594 0 6 2.695313 6 6v120c0 3.308594-2.691406 6-6 6h-18.664062c-3.308594 0-6-2.691406-6-6zm0 0"/><path d="m301.382812 360.664062h18.667969c7.71875 0 14-6.277343 14-14v-120c0-7.71875-6.28125-14-14-14h-18.667969c-7.71875 0-14 6.28125-14 14v120c0 7.722657 6.28125 14 14 14zm-6-134c0-3.304687 2.691407-6 6-6h18.667969c3.304688 0 6 2.695313 6 6v120c0 3.308594-2.695312 6-6 6h-18.667969c-3.308593 0-6-2.691406-6-6zm0 0"/><path d="m234.414062 360.664062h18.667969c7.71875 0 14-6.277343 14-14v-200c0-7.71875-6.28125-14-14-14h-18.667969c-7.71875 0-14 6.28125-14 14v200c0 7.722657 6.28125 14 14 14zm-6-214c0-3.304687 2.691407-6 6-6h18.667969c3.308594 0 6 2.695313 6 6v200c0 3.308594-2.691406 6-6 6h-18.667969c-3.308593 0-6-2.691406-6-6zm0 0"/></g></svg>