<svg height="505pt" viewBox="-19 0 505 505.69299" width="505pt" xmlns="http://www.w3.org/2000/svg"><path d="m365.007812 14.007812v412.71875c0 5.519532-4.480468 10-10 10h-340.65625c-5.519531 0-10-4.480468-10-10v-412.71875c0-5.523437 4.480469-10 10-10h340.660157c5.515625 0 9.996093 4.476563 9.996093 10zm0 0" fill="#d8d6d7"/><path d="m365.007812 14.007812v394.4375h-322.378906c-5.519531 0-10-4.480468-10-10v-394.4375h322.378906c5.519532 0 10 4.476563 10 10zm0 0" fill="#fff"/><path d="m322.289062 44.546875v306.738281c0 5.519532-4.480468 10-10 10h-255.21875c-5.523437 0-10-4.480468-10-10v-306.738281c0-5.519531 4.476563-10 10-10h255.21875c5.519532 0 10 4.480469 10 10zm0 0" fill="#56c1b3"/><path d="m322.289062 44.546875v306.738281c0 5.519532-4.480468 10-10 10h-215.21875c-5.523437 0-10-4.480468-10-10v-306.738281c0-5.519531 4.476563-10 10-10h215.21875c5.519532 0 10 4.480469 10 10zm0 0" fill="#7befe4"/><path d="m217.289062 394.785156v8.421875c0 4.578125-3.699218 8.277344-8.277343 8.277344h-48.660157c-4.582031 0-8.28125-3.699219-8.28125-8.277344v-8.421875c0-4.558594 3.699219-8.277344 8.28125-8.277344h48.660157c4.578125 0 8.277343 3.71875 8.277343 8.277344zm0 0" fill="#d73735"/><path d="m217.289062 394.785156v2.5625h-42.796874c-4.582032 0-8.28125-3.703125-8.28125-8.28125v-2.558594h42.800781c4.578125 0 8.277343 3.71875 8.277343 8.277344zm0 0" fill="#f85252"/><path d="m85.25 436.726562v55.679688c0 5.640625-4.601562 9.28125-9.339844 9.28125-2.480468 0-5-.980469-6.921875-3.203125-1.839843-2.117187-4.417969-3.199219-7-3.199219-2.558593 0-5.140625 1.082032-6.980469 3.199219-5.640624 6.460937-16.257812 2.5-16.257812-6.078125v-55.679688zm0 0" fill="#d73735"/><path d="m85.25 436.726562v49.4375c-.761719-.457031-1.480469-1.078124-2.121094-1.816406-1.859375-2.140625-4.421875-3.203125-7-3.203125-2.582031 0-5.140625 1.0625-6.980468 3.203125-5.621094 6.457032-16.261719 2.5-16.261719-6.082031v-41.539063zm0 0" fill="#f85252"/><path d="m459.332031 151.484375-56 275.621094c-.242187 1.179687-.761719 2.28125-1.5 3.21875l-2.660156 3.421875c-.820313 1.058594-1.820313 1.820312-2.902344 2.300781-4.097656 1.859375-9.378906-.179687-10.699219-5.0625l-1.121093-4.179687c-.320313-1.160157-.359375-2.378907-.117188-3.558594l56-275.621094 9.71875 1.980469zm0 0" fill="#1c868e"/><path d="m462.789062 134.386719-3.457031 17.097656-9.28125-1.878906-9.71875-1.980469 3.476563-17.097656c1.0625-5.242188 6.183594-8.640625 11.421875-7.5625 2.019531.402344 3.761719 1.421875 5.078125 2.800781 2.121094 2.21875 3.140625 5.398437 2.480468 8.621094zm0 0" fill="#d73735"/><path d="m459.332031 151.484375-56 275.621094c-.242187 1.179687-.761719 2.28125-1.5 3.21875l-2.660156 3.421875c-.820313 1.058594-1.820313 1.820312-2.902344 2.300781-.480469-.722656-.859375-1.519531-1.097656-2.441406l-1.121094-4.238281c-.320312-1.160157-.359375-2.402344-.121093-3.601563l56.121093-276.160156zm0 0" fill="#40c4df"/><path d="m462.789062 134.386719-3.457031 17.097656-9.28125-1.878906 3.339844-16.417969c.738281-3.703125 3.519531-6.480469 6.917969-7.421875 2.121094 2.21875 3.140625 5.398437 2.480468 8.621094zm0 0" fill="#f85252"/><g fill="#491352"><path d="m355.011719 0h-340.664063c-7.71875 0-14 6.28125-14 14v412.726562c0 7.71875 6.28125 14 14 14h20.390625v51.683594c0 5.59375 3.382813 10.46875 8.621094 12.425782 1.542969.574218 3.128906.855468 4.695313.855468 3.75 0 7.378906-1.605468 9.964843-4.582031 2.03125-2.335937 5.917969-2.335937 7.949219 0 3.667969 4.21875 9.421875 5.6875 14.660156 3.726563 5.234375-1.957032 8.621094-6.832032 8.621094-12.425782v-51.683594h265.765625c7.71875 0 14-6.28125 14-14v-412.726562c-.003906-7.71875-6.28125-14-14.003906-14zm-273.761719 492.40625c0 3.390625-2.621094 4.632812-3.421875 4.933594-.804687.300781-3.59375 1.082031-5.820313-1.480469-2.519531-2.902344-6.167968-4.566406-10.011718-4.566406-3.847656 0-7.496094 1.664062-10.019532 4.566406-2.222656 2.5625-5.015624 1.78125-5.816406 1.480469-.800781-.296875-3.421875-1.542969-3.421875-4.933594v-51.679688h38.511719zm279.761719-65.679688c0 3.308594-2.691407 6-6 6h-340.664063c-3.308594 0-6-2.691406-6-6v-412.726562c0-3.308594 2.691406-6 6-6h340.664063c3.308593 0 6 2.691406 6 6zm0 0"/><path d="m312.292969 30.542969h-255.222657c-7.71875 0-14 6.28125-14 14v306.738281c0 7.71875 6.28125 14 14 14h255.222657c7.71875 0 14-6.28125 14-14v-306.738281c0-7.71875-6.28125-14-14-14zm6 320.738281c0 3.308594-2.691407 6-6 6h-255.222657c-3.308593 0-6-2.691406-6-6v-306.738281c0-3.308594 2.691407-6 6-6h255.222657c3.308593 0 6 2.691406 6 6zm0 0"/><path d="m209.015625 382.511719h-48.671875c-6.773438 0-12.285156 5.507812-12.285156 12.28125v8.421875c0 6.773437 5.511718 12.28125 12.285156 12.28125h48.671875c6.773437 0 12.28125-5.507813 12.28125-12.28125v-8.421875c0-6.773438-5.507813-12.28125-12.28125-12.28125zm4.28125 20.703125c0 2.363281-1.917969 4.28125-4.28125 4.28125h-48.671875c-2.363281 0-4.285156-1.917969-4.285156-4.28125v-8.421875c0-2.359375 1.921875-4.28125 4.285156-4.28125h48.671875c2.363281 0 4.28125 1.921875 4.28125 4.28125zm0 0"/><path d="m136.410156 69.078125h96.542969c2.207031 0 4-1.792969 4-4s-1.792969-4-4-4h-96.542969c-2.207031 0-4 1.792969-4 4s1.789063 4 4 4zm0 0"/><path d="m285.628906 97.019531h-163.84375c-2.207031 0-4 1.789063-4 4 0 2.207031 1.792969 4 4 4h163.84375c2.207032 0 4-1.792969 4-4 0-2.210937-1.792968-4-4-4zm0 0"/><path d="m285.628906 125.734375h-201.894531c-2.207031 0-4 1.792969-4 4s1.792969 4 4 4h201.894531c2.207032 0 4-1.792969 4-4s-1.792968-4-4-4zm0 0"/><path d="m285.628906 154.449219h-201.894531c-2.207031 0-4 1.792969-4 4s1.792969 4 4 4h201.894531c2.207032 0 4-1.792969 4-4s-1.792968-4-4-4zm0 0"/><path d="m83.734375 191.164062h118.386719c2.207031 0 4-1.789062 4-4 0-2.207031-1.792969-4-4-4h-118.386719c-2.207031 0-4 1.792969-4 4 0 2.210938 1.789063 4 4 4zm0 0"/><path d="m285.628906 240.597656h-163.84375c-2.207031 0-4 1.792969-4 4 0 2.207032 1.792969 4 4 4h163.84375c2.207032 0 4-1.792968 4-4 0-2.207031-1.792968-4-4-4zm0 0"/><path d="m285.628906 269.316406h-201.894531c-2.207031 0-4 1.792969-4 4 0 2.207032 1.792969 4 4 4h201.894531c2.207032 0 4-1.792968 4-4 0-2.207031-1.792968-4-4-4zm0 0"/><path d="m285.628906 298.03125h-201.894531c-2.207031 0-4 1.792969-4 4s1.792969 4 4 4h201.894531c2.207032 0 4-1.792969 4-4s-1.792968-4-4-4zm0 0"/><path d="m257.085938 326.746094h-173.351563c-2.207031 0-4 1.792968-4 4 0 2.207031 1.792969 4 4 4h173.355469c2.207031 0 4-1.792969 4-4 0-2.207032-1.792969-4-4.003906-4zm0 0"/><path d="m464.714844 124.898438c-2.019532-3.046876-5.105469-5.125-8.691406-5.855469-7.394532-1.492188-14.636719 3.292969-16.140626 10.6875l-4.269531 21.015625-55.203125 271.699218c-.363281 1.777344-.300781 3.644532.167969 5.398438l1.128906 4.1875c1.164063 4.324219 4.617188 7.566406 9.003907 8.457031.792968.160157 1.589843.238281 2.375.238281 3.570312 0 6.960937-1.621093 9.222656-4.511718l2.667968-3.414063c1.125-1.429687 1.90625-3.125 2.265626-4.902343l56.792968-279.539063 2.679688-13.175781c.726562-3.585938.019531-7.238282-2-10.285156zm-65.308594 301.410156c-.117188.566406-.367188 1.105468-.722656 1.5625l-2.671875 3.410156c-.890625 1.144531-2.265625 1.652344-3.703125 1.367188-1.425782-.289063-2.5-1.296876-2.875-2.699219l-1.128906-4.1875c-.148438-.558594-.167969-1.15625-.050782-1.722657l55.199219-271.699218c.226563.042968 11.554687 2.347656 11.152344 2.265625zm45.640625-281.8125 2.675781-13.171875c.625-3.070313 3.625-5.082031 6.707032-4.445313h.003906c1.488281.304688 2.769531 1.167969 3.609375 2.433594.839843 1.269531 1.136719 2.789062.832031 4.277344l-2.675781 13.175781c-.226563-.046875-11.554688-2.347656-11.152344-2.269531zm0 0"/></g></svg>