<svg height="504pt" viewBox="0 0 504.30883 504" width="504pt" xmlns="http://www.w3.org/2000/svg"><path d="m241.835938 500.21875c-132.261719-5.398438-237.820313-114.339844-237.820313-247.917969 0-136.679687 110.5-247.539062 247.039063-248.140625h1.101562c120.296875 0 220.746094 85.660156 243.359375 199.480469 31.253906 156.671875-92.105469 303.414063-253.679687 296.578125zm0 0" fill="#1c868e"/><path d="m241.835938 500.21875c-233.347657-110.84375-228.410157-391.066406 9.21875-496.058594h1.101562c120.296875 0 220.746094 85.660156 243.359375 199.480469 31.390625 157.359375-92.957031 303.378906-253.679687 296.578125zm0 0" fill="#40c4df"/><path d="m500.292969 252.300781c0 18.539063-2.039063 36.621094-5.898438 54h-238.238281c-28.363281 0-51.339844-22.980469-51.339844-51.339843 0-14.179688 5.738282-27 15.039063-36.28125 9.277343-9.300782 22.121093-15.039063 36.300781-15.039063h239.359375c3.140625 15.738281 4.777344 32 4.777344 48.660156zm0 0" fill="#f85252"/><g fill="#491352"><path d="m310.050781 276.238281-14.503906-53.386719h-9.242187l-15.226563 53.570313-13.777344-53.570313h-8.792969l17.675782 63.265626 9.15625-.089844 15.226562-50.847656 14.683594 50.847656h9.242188l18.308593-63.175782h-8.882812zm0 0"/><path d="m369.964844 251.496094v-.457032c6.886718-1.539062 11.601562-7.429687 11.601562-14.953124 0-22.722657-39.503906-22.980469-41.238281.90625h8.066406c.8125-6.347657 5.4375-10.699219 13.140625-10.699219 7.886719 0 12.054688 4.351562 12.054688 10.609375 0 7.613281-5.890625 10.964844-16.859375 11.054687h-2.175781v6.886719h2.085937c11.78125 0 18.214844 3.535156 18.214844 12.78125 0 16.195312-25.628907 16-27.550781-.453125h-7.976563c.996094 12.6875 10.242187 19.304687 22.660156 19.304687 13.6875 0 20.753907-7.976562 20.753907-18.125.003906-9.425781-5.164063-15.046874-12.777344-16.855468zm0 0"/><path d="m443.109375 241.164062h9.878906c-11.679687-30.320312-60.820312-23.746093-60.820312 13.230469 0 36.976563 49.207031 43.15625 60.820312 13.234375h-9.878906c-8.5625 18.683594-42.511719 15.878906-42.511719-13.234375.003906-29.296875 34.015625-32.007812 42.511719-13.230469zm0 0"/><path d="m252.15625.15625c-219.199219 0-332.78125 261.226562-186.3125 421.867188.238281.425781.46875.824218 1.253906 1.347656 100.042969 108.140625 270.160156 108.070312 370.136719-.027344.703125-.460938 1.007813-.878906 1.296875-1.394531 146.382812-160.671875 32.757812-421.792969-186.375-421.792969zm238.410156 199.484375h-105.789062c-4.136719-24.824219-11.246094-48.757813-20.953125-71.203125 25.335937-9.621094 49.128906-22.53125 70.542969-38.445312 27.320312 30.636718 47.042968 68.179687 56.199218 109.648437zm-61.636718-115.570313c-20.773438 15.339844-43.835938 27.785157-68.382813 37.0625-21.390625-46.054687-53.828125-85.375-93.839844-112.53125 63.664063 3.761719 120.851563 32.015626 162.222657 75.46875zm-172.773438-72.828124c41.414062 26.28125 74.992188 65.835937 96.851562 112.621093-30.65625 10.652344-63.445312 16.4375-96.851562 16.863281zm0 137.484374c34.542969-.429687 68.457031-6.445312 100.152344-17.539062 9.367187 21.578125 16.269531 44.582031 20.355468 68.453125h-120.507812zm-105.039062-24.890624c21.613281-46.5625 54.933593-85.910157 97.039062-112.578126v129.46875c-33.476562-.425781-66.332031-6.21875-97.039062-16.890624zm97.039062 24.890624v51.488282c-24.550781 3.53125-43.96875 23.25-46.929688 48.085937h-77.984374c.523437-41.425781 9.148437-81.265625 24.605468-117.132812 31.730469 11.105469 65.699219 17.128906 100.308594 17.558593zm-10.519531-140.128906c-40.648438 27.476563-72.898438 66.609375-94.066407 112.5-24.5-9.261718-47.519531-21.671875-68.246093-36.96875 41.382812-43.496094 98.601562-71.777344 162.3125-75.53125zm-167.75 81.457032c21.382812 15.875 45.136719 28.757812 70.4375 38.363281-15.773438 36.75-24.558594 77.515625-25.082031 119.882812h-107.183594c.980468-60.664062 24.191406-116.011719 61.828125-158.246093zm.054687 324.554687c-37.667968-42.246094-60.902344-97.617187-61.882812-158.308594h107.183594c.523437 42.371094 9.328124 83.144531 25.128906 119.902344-25.292969 9.617187-49.046875 22.511719-70.429688 38.40625zm5.4375 5.921875c20.734375-15.3125 43.746094-27.738281 68.242188-37.007812 21.195312 45.871093 53.46875 85 94.152344 112.488281-63.734376-3.722657-120.984376-31.988281-162.394532-75.480469zm172.777344 72.734375c-42.074219-26.675781-75.375-65.992187-96.984375-112.484375 30.691406-10.679688 63.527344-16.480469 96.984375-16.910156zm0-137.394531c-34.585938.433594-68.539062 6.460937-100.261719 17.582031-15.488281-35.878906-24.128906-75.726563-24.652343-117.152344h77.605468c.652344 27.195313 21.003906 49.585938 47.308594 53.414063zm105.066406 24.902344c-21.710937 46.816406-55.117187 85.941406-97.066406 112.519531v-129.421875c33.484375.429687 66.347656 6.226562 97.066406 16.902344zm-97.066406-24.902344v-45.570313h119.542969c-4.175781 22.113281-10.648438 43.277344-19.199219 63.144531-31.742188-11.113281-65.726562-17.140624-100.34375-17.574218zm10.460938 140.136718c40.546874-27.382812 72.886718-66.339843 94.15625-112.492187 24.488281 9.257813 47.492187 21.664063 68.214843 36.953125-41.398437 43.507812-98.640625 71.796875-162.371093 75.539062zm167.804687-81.460937c-21.371094-15.867187-45.109375-28.742187-70.394531-38.347656 8.882812-20.726563 15.5625-42.820313 19.808594-65.898438h105.484374c-9.617187 39.324219-28.785156 74.941407-54.898437 104.246094zm-178.265625-112.246094c-41.988281 0-63.183594-51.144531-33.46875-80.792969 8.921875-8.945312 20.808594-13.867187 33.46875-13.867187h236.035156c5.867188 31.589844 5.394532 63.824219-1.046875 94.660156zm0 0"/></g></svg>