<svg height="509pt" viewBox="0 -1 509.56 509" width="509pt" xmlns="http://www.w3.org/2000/svg"><path d="m177.699219 291.785156c0 33.902344-22.820313 62.5-53.941407 71.222656-6.359374 1.777344-13.058593 2.738282-20 2.738282-40.839843 0-73.941406-33.121094-73.941406-73.960938s33.101563-73.9375 73.941406-73.9375c6.941407 0 13.640626.957032 20 2.738282 31.121094 8.71875 53.941407 37.300781 53.941407 71.199218zm0 0" fill="#edaf85"/><path d="m203.519531 437.746094v56.101562c0 5.519532-4.480469 10-10 10h-179.523437c-5.519532 0-10-4.480468-10-10v-56.101562c0-39.78125 32.222656-72 72-72h55.523437c39.777344 0 72 32.21875 72 72zm0 0" fill="#1c868e"/><path d="m177.699219 291.785156c0 33.902344-22.820313 62.5-53.941407 71.222656-31.121093-8.722656-53.941406-37.320312-53.941406-71.222656 0-33.898437 22.820313-62.480468 53.941406-71.199218 31.121094 8.71875 53.941407 37.300781 53.941407 71.199218zm0 0" fill="#f7c09a"/><path d="m203.519531 437.746094v56.101562c0 5.519532-4.480469 10-10 10h-155.523437c-5.519532 0-10-4.480468-10-10v-56.101562c0-39.78125 32.222656-72 72-72h31.523437c39.777344 0 72 32.21875 72 72zm0 0" fill="#40c4df"/><path d="m232.761719 30.402344c0 9.679687-5.261719 18.121094-13.082031 22.660156-3.839844 2.21875-8.320313 3.5-13.078126 3.5-14.441406 0-26.160156-11.71875-26.160156-26.160156s11.71875-26.160156 26.160156-26.160156c4.757813 0 9.238282 1.28125 13.078126 3.5 7.820312 4.539062 13.082031 12.980468 13.082031 22.660156zm0 0" fill="#d73735"/><path d="m455.71875 314.921875c0 9.679687-5.257812 18.121094-13.058594 22.640625-3.839844 2.21875-8.320312 3.5-13.082031 3.5-14.457031 0-26.15625-11.699219-26.15625-26.140625 0-14.460937 11.699219-26.160156 26.15625-26.160156 4.761719 0 9.242187 1.28125 13.082031 3.5 7.800782 4.519531 13.058594 12.980469 13.058594 22.660156zm0 0" fill="#d73735"/><path d="m350.140625 168.003906c0 9.679688-5.261719 18.136719-13.0625 22.660156-3.859375 2.21875-8.339844 3.5-13.097656 3.5-14.441407 0-26.140625-11.703124-26.140625-26.160156 0-14.441406 11.699218-26.140625 26.140625-26.140625 4.757812 0 9.238281 1.277344 13.097656 3.5 7.800781 4.519531 13.0625 12.960938 13.0625 22.640625zm0 0" fill="#56c1b3"/><path d="m232.761719 30.402344c0 9.679687-5.261719 18.121094-13.082031 22.660156-7.820313-4.519531-13.078126-12.980469-13.078126-22.660156 0-9.679688 5.257813-18.140625 13.078126-22.660156 7.820312 4.539062 13.082031 12.980468 13.082031 22.660156zm0 0" fill="#f85252"/><path d="m455.71875 314.921875c0 9.679687-5.257812 18.121094-13.058594 22.640625-7.820312-4.5-13.082031-12.960938-13.082031-22.640625 0-9.699219 5.261719-18.140625 13.082031-22.660156 7.800782 4.519531 13.058594 12.980469 13.058594 22.660156zm0 0" fill="#f85252"/><path d="m350.140625 168.003906c0 9.679688-5.261719 18.136719-13.0625 22.660156-7.839844-4.523437-13.097656-12.960937-13.097656-22.660156 0-9.679687 5.257812-18.140625 13.097656-22.640625 7.800781 4.519531 13.0625 12.960938 13.0625 22.640625zm0 0" fill="#7befe4"/><g fill="#491352"><path d="m137.640625 361.980469c26.058594-12.640625 44.058594-39.359375 44.058594-70.199219 0-42.980469-34.960938-77.941406-77.9375-77.941406-42.980469 0-77.960938 34.960937-77.960938 77.941406 0 30.839844 18.019531 57.558594 44.078125 70.199219-39.058594 3.121093-69.878906 35.898437-69.878906 75.761719v56.097656c0 7.71875 6.28125 14 14 14h179.519531c7.71875 0 14-6.28125 14-14v-56.097656c0-39.859376-30.820312-72.640626-69.878906-75.761719zm-103.839844-70.199219c0-38.558594 31.378907-69.9375 69.960938-69.9375 38.558593 0 69.9375 31.378906 69.9375 69.9375 0 38.582031-31.378907 69.960938-69.9375 69.960938-38.582031 0-69.960938-31.378907-69.960938-69.960938zm100.113281 78c-22.148437 22.386719-22.929687 27.640625-30.15625 27.640625-7.625 0-8.949218-6.476563-29.03125-27.660156 62.769532-.023438 56.714844-.042969 59.1875.019531zm65.605469 124.0625c0 3.296875-2.679687 6-6 6h-179.519531c-3.320312 0-6-2.703125-6-6v-56.101562c0-33.699219 24.621094-61.738282 56.820312-67.078126l25.730469 28.921876c3.382813 3.707031 8.195313 5.835937 13.207031 5.835937h.003907c12.667969 0 15.191406-10.03125 40.101562-34.5625 31.617188 5.820313 55.660157 33.601563 55.660157 66.882813v56.101562zm0 0"/><path d="m103.757812 432.507812c9.0625 0 9.078126-13.710937 0-13.710937-9.0625 0-9.074218 13.710937 0 13.710937zm0 0"/><path d="m96.902344 452.15625c0 9.0625 13.710937 9.074219 13.710937 0 0-3.789062-13.710937-9.078125-13.710937 0zm0 0"/><path d="m96.902344 478.65625c0 3.785156 3.070312 6.855469 6.855468 6.855469 3.785157 0 6.855469-3.070313 6.855469-6.855469 0-9.066406-13.710937-9.078125-13.710937 0zm0 0"/><path d="m509.558594 168.003906c0-23.660156-29.078125-44.261718-74.679688-57 14.300782-36.980468 16.722656-67.679687 4.042969-83.300781-5.703125-7.039063-13.863281-10.601563-24.242187-10.601563-23.679688 0-56.621094 18.621094-90.699219 50.019532-33.921875-31.238282-66.699219-49.839844-90.320313-50.019532-14.113281-28.628906-57.21875-18.414062-57.21875 13.300782 0 14.699218 10.539063 26.960937 24.457032 29.601562.621093 14.519532 4.820312 31.917969 12.203124 51-45.601562 12.738282-74.679687 33.339844-74.679687 57s29.078125 44.257813 74.679687 57.019532c-39.835937 103.019531 21.738282 126.160156 110.859376 43.878906 27.300781 25.121094 53.859374 42.082031 75.519531 47.839844.941406 15.78125 14.058593 28.320312 30.097656 28.320312 29.589844 0 41.472656-38.492188 16.84375-55.140625 2.578125-16.660156-1.621094-39.257813-11.542969-64.898437 45.601563-12.761719 74.679688-33.359376 74.679688-57.019532zm-94.878906-142.902344c35.558593 0 25.496093 50.085938 12.199218 83.800782-21.339844-5.339844-45.878906-9.019532-72.480468-10.640625-8.136719-9.199219-16.339844-17.738281-24.519532-25.597657 32.28125-29.621093 63.402344-47.5625 84.800782-47.5625zm-128.558594 204.0625c-22.402344-1.800781-43.359375-5.140624-61.882813-9.703124 5.960938-13.9375 13.523438-28.679688 22.441407-43.699219 12.148437 19.039062 26.3125 37.988281 39.441406 53.402343zm-61.902344-112.621093c18.519531-4.539063 39.480469-7.878907 61.902344-9.679688-13.054688 15.324219-27.230469 34.261719-39.441406 53.398438-8.941407-15.019531-16.480469-29.78125-22.460938-43.71875zm27.179688 51.476562c13.347656-21.457031 28.761718-42.257812 45.921874-61.917969 17.371094-.957031 34.898438-1.015624 53.339844 0 17.121094 19.617188 32.621094 40.539063 45.917969 61.917969-13.511719 21.722657-29.03125 42.550781-45.917969 61.902344-17.375.953125-34.898437 1.015625-53.339844 0-17.226562-19.738281-32.675781-40.605469-45.921874-61.902344zm149.902343 7.742188c8.917969 15.019531 16.480469 29.78125 22.4375 43.699219-18.519531 4.5625-39.476562 7.902343-61.898437 9.703124 13.03125-15.304687 27.195312-34.214843 39.460937-53.402343zm-39.460937-68.898438c22.421875 1.800781 43.378906 5.140625 61.921875 9.679688-5.980469 13.941406-13.523438 28.699219-22.460938 43.71875-12.207031-19.09375-26.355469-38.011719-39.460937-53.398438zm-37.839844-28.699219c6.378906 6.097657 12.78125 12.636719 19.140625 19.558594-12.511719-.476562-25.714844-.480468-38.300781 0 6.359375-6.941406 12.78125-13.480468 19.160156-19.558594zm-123.039062-26.339843c-9.5-2.480469-16.519532-11.140625-16.519532-21.421875 0-12.21875 9.9375-22.160156 22.160156-22.160156 12.113282 0 22.160157 9.800781 22.160157 22.160156 0 14.714844-14.03125 25.09375-27.800781 21.421875zm7.898437 8.636719c17.703125-1.296876 30.5625-17.765626 27.441406-35.238282 21.238281 1.539063 51 19.179688 81.800781 47.417969-8.179687 7.863281-16.402343 16.421875-24.542968 25.621094-26.578125 1.621093-51.117188 5.300781-72.457032 10.621093-7.222656-18.28125-11.460937-34.878906-12.242187-48.421874zm7.320313 58.160156c6.621093 15.703125 15.242187 32.382812 25.640624 49.402344-10.398437 17.019531-19.019531 33.679687-25.621093 49.359374-92.878907-25.523437-92.992188-73.199218-.019531-98.761718zm17.121093 192.300781c-35.5 0-25.558593-49.9375-12.199219-83.78125 21.339844 5.320313 45.878907 9 72.457032 10.621094 8.140625 9.199219 16.363281 17.761719 24.542968 25.621093-32.28125 29.578126-63.421874 47.539063-84.800781 47.539063zm90.699219-53.058594c-6.378906-6.101562-12.800781-12.640625-19.160156-19.5625 12.5625.480469 25.765625.480469 38.300781 0-6.359375 6.921875-12.761719 13.460938-19.140625 19.5625zm105.578125 79.199219c-12.25 0-22.15625-9.984375-22.15625-22.140625 0-15.554687 15.648437-26.171875 29.9375-20.738281 22.875 8.507812 16.882813 42.878906-7.78125 42.878906zm9.34375-50.800781c-16.710937-5.570313-35.085937 4.71875-38.84375 22.359375-24.4375-7.019532-51.550781-28.160156-70.21875-45.257813 8.179687-7.859375 16.402344-16.421875 24.539063-25.601562 26.601562-1.621094 51.140624-5.300781 72.480468-10.640625 9.242188 23.460937 13.621094 44.140625 12.042969 59.140625zm-7.140625-68.878907c-6.601562-15.679687-15.222656-32.339843-25.640625-49.359374 10.417969-17.019532 19.039063-33.699219 25.660156-49.402344 42.121094 11.582031 69.757813 29.582031 69.757813 49.382812 0 19.796875-27.636719 37.796875-69.777344 49.378906zm0 0"/><path d="m323.980469 198.164062c16.640625 0 30.160156-13.523437 30.160156-30.160156 0-16.621094-13.519531-30.140625-30.160156-30.140625-16.621094 0-30.140625 13.519531-30.140625 30.140625 0 16.636719 13.519531 30.160156 30.140625 30.160156zm0-52.300781c12.21875 0 22.160156 9.9375 22.160156 22.140625 0 12.21875-9.941406 22.160156-22.160156 22.160156-12.199219 0-22.140625-9.941406-22.140625-22.160156 0-12.203125 9.941406-22.140625 22.140625-22.140625zm0 0"/></g></svg>