<svg height="506pt" viewBox="-27 0 506 506" width="506pt" xmlns="http://www.w3.org/2000/svg"><path d="m340.382812 112.492188v379.480468c0 5.519532-4.460937 10-10 10h-316.363281c-5.539062 0-10-4.480468-10-10v-478c0-5.519531 4.460938-10 10-10h219.378907c2.679687 0 5.261718 1.058594 7.140624 2.980469l96.980469 98.519531c1.84375 1.878906 2.863281 4.402344 2.863281 7.019532zm0 0" fill="#1c868e"/><path d="m340.382812 112.492188v379.480468c0 5.519532-4.460937 10-10 10h-285.941406c-5.519531 0-10-4.480468-10-10v-478c0-5.519531 4.480469-10 10-10h188.957032c2.679687 0 5.261718 1.058594 7.140624 2.980469l96.980469 98.519531c1.84375 1.878906 2.863281 4.402344 2.863281 7.019532zm0 0" fill="#40c4df"/><path d="m4.011719 176.425781h336.375v245.769531h-336.375zm0 0" fill="#fff"/><path d="m4.019531 176.433594h30.421875v245.757812h-30.421875zm0 0" fill="#d8d6d7"/><path d="m440 275.820312h-18.960938c-1.660156-5.582031-3.898437-11.019531-6.738281-16.21875l13.417969-13.421874c3.28125-3.257813 3.28125-8.578126 0-11.859376l-21.9375-21.921874c-3.28125-3.277344-8.582031-3.277344-11.859375 0l-13.421875 13.402343c-5.199219-2.839843-10.640625-5.082031-16.21875-6.722656v-18.957031c0-4.640625-3.761719-8.382813-8.402344-8.382813h-31.019531c-4.621094 0-8.378906 3.742188-8.378906 8.382813v18.957031c-5.582031 1.640625-11.019531 3.902344-16.21875 6.722656l-13.421875-13.402343c-3.261719-3.277344-8.578125-3.277344-11.839844 0l-21.941406 21.921874c-3.277344 3.28125-3.277344 8.601563 0 11.859376l13.402344 13.421874c-3.082032 5.660157-5.441407 11.578126-7.121094 17.660157h-18.558594c-4.640625 0-8.382812 3.757812-8.382812 8.378906v31.039063c0 4.621093 3.742187 8.378906 8.382812 8.378906h19.417969c1.5625 5.082031 3.660156 10.042968 6.261719 14.761718l-13.402344 13.441407c-3.277344 3.277343-3.277344 8.578125 0 11.859375l21.941406 21.9375c3.261719 3.261718 8.578125 3.261718 11.839844 0l13.421875-13.417969c5.199219 2.839844 10.636719 5.058594 16.21875 6.738281v18.960938c0 4.640625 3.757812 8.378906 8.378906 8.378906h31.019531c4.640625 0 8.402344-3.738281 8.402344-8.378906v-18.960938c5.578125-1.679687 11.039062-3.898437 16.238281-6.738281l13.402344 13.417969c3.277344 3.261718 8.578125 3.261718 11.859375 0l21.9375-21.9375c3.28125-3.28125 3.28125-8.582032 0-11.859375l-13.417969-13.402344c2.839844-5.199219 5.078125-10.660156 6.738281-16.238281h18.960938c4.640625 0 8.398438-3.761719 8.398438-8.402344v-31.019531c0-4.621094-3.757813-8.378907-8.398438-8.378907zm-99.601562 74.878907c-28.277344 0-51-22.9375-51-50.960938 0-28.296875 22.980468-51 51-51 28.140624 0 50.980468 22.839844 50.980468 51 0 28.242188-22.917968 50.960938-50.980468 50.960938zm0 0" fill="#f85252"/><g fill="#491352"><path d="m340.441406 244.746094c-.019531 0-.042968-.007813-.0625-.007813-.023437 0-.042968.007813-.070312.007813-30.277344.046875-54.902344 24.695312-54.902344 54.984375 0 30.316406 24.667969 54.976562 54.988281 54.976562 30.316407 0 54.976563-24.660156 54.976563-54.976562 0-30.304688-24.636719-54.960938-54.929688-54.984375zm-4.0625 101.777344c-24.03125-2.042969-42.972656-22.242188-42.972656-46.792969 0-24.554688 18.9375-44.757813 42.972656-46.800781zm8 .003906v-93.601563c24.042969 2.03125 42.992188 22.238281 42.992188 46.804688 0 24.5625-18.945313 44.765625-42.992188 46.796875zm0 0"/><path d="m440.003906 271.816406h-16.035156c-1.320312-3.957031-2.914062-7.792968-4.753906-11.464844l11.335937-11.335937c2.339844-2.332031 3.628907-5.4375 3.632813-8.746094.003906-3.316406-1.285156-6.429687-3.628906-8.777343l-21.953126-21.925782c-4.816406-4.820312-12.671874-4.820312-17.511718 0l-11.332032 11.332032c-3.691406-1.847657-7.535156-3.4375-11.480468-4.75v-16.03125c0-6.832032-5.554688-12.386719-12.386719-12.386719h-11.507813c0-28.796875 0-46.730469 0-75.191407 0-3.722656-1.425781-7.214843-4.007812-9.824218l-96.992188-98.550782c-2.617187-2.644531-6.257812-4.164062-9.984374-4.164062h-219.398438c-7.71875 0-14 6.28125-14 14v478c0 7.71875 6.28125 14 14 14h316.378906c7.722656 0 14-6.28125 14-14 0-41.707031 0-38.484375 0-80.269531h11.507813c6.832031 0 12.390625-5.554688 12.390625-12.386719v-16.042969c3.964844-1.328125 7.808594-2.917969 11.484375-4.753906l11.335937 11.359375c4.832032 4.792969 12.679688 4.792969 17.5-.011719l21.957032-21.953125c4.820312-4.820312 4.820312-12.671875-.003907-17.519531l-11.339843-11.316406c1.839843-3.679688 3.433593-7.523438 4.757812-11.488281h16.035156c6.832032 0 12.386719-5.558594 12.386719-12.390626v-31.019531c0-6.832031-5.554687-12.390625-12.386719-12.390625zm-432.003906-257.816406c0-3.308594 2.691406-6 6-6h219.398438c1.605468 0 3.167968.652344 4.292968 1.785156l96.988282 98.546875c1.097656 1.113281 1.703124 2.605469 1.703124 4.207031v59.921876h-328.382812zm328.378906 478c0 3.308594-2.691406 6-6 6h-316.378906c-3.308594 0-6-2.691406-6-6v-65.78125h328.378906zm0-73.78125h-328.378906v-237.757812h328.378906v7.269531h-11.511718c-6.832032 0-12.386719 5.554687-12.386719 12.386719v16.03125c-3.914063 1.304687-7.75 2.894531-11.460938 4.75l-11.339843-11.328126c-2.335938-2.34375-5.445313-3.632812-8.757813-3.632812s-6.425781 1.292969-8.75 3.625l-21.945313 21.929688c-2.339843 2.34375-3.628906 5.460937-3.625 8.777343.003907 3.308594 1.292969 6.417969 3.625 8.738281l11.335938 11.347657c-2.066406 4.132812-3.808594 8.457031-5.207031 12.914062h-15.574219c-6.832031 0-12.390625 5.546875-12.390625 12.371094v31.035156c0 6.832031 5.558594 12.386719 12.390625 12.386719h16.527344c1.1875 3.414062 2.613281 6.765625 4.25 10.023438l-11.335938 11.34375c-4.816406 4.835937-4.8125 12.691406.003906 17.507812l21.945313 21.953125c2.332031 2.335937 5.4375 3.621094 8.75 3.621094 3.308594 0 6.417969-1.289063 8.75-3.621094l11.347656-11.347656c3.679688 1.839843 7.515625 3.429687 11.460938 4.753906v16.042969c0 6.832031 5.558593 12.386718 12.386719 12.386718h11.511718zm108.011719-102.992188c0 2.417969-1.964844 4.390626-4.386719 4.390626h-18.96875c-1.769531 0-3.332031 1.164062-3.832031 2.859374-1.609375 5.425782-3.765625 10.628907-6.40625 15.460938-.851563 1.558594-.574219 3.496094.683594 4.75l13.414062 13.386719c1.710938 1.71875 1.714844 4.503906.007813 6.210937l-21.949219 21.945313c-1.710937 1.707031-4.5 1.703125-6.207031.007812l-13.394532-13.421875c-1.253906-1.253906-3.1875-1.53125-4.742187-.6875-4.835937 2.632813-10.046875 4.789063-15.476563 6.414063-1.695312.507812-2.855468 2.066406-2.855468 3.832031v18.96875c0 2.417969-1.96875 4.386719-4.386719 4.386719-2.785156 0-7.527344 0-31.019531 0-2.421875 0-4.390625-1.964844-4.390625-4.386719v-18.96875c0-1.765625-1.160157-3.324219-2.851563-3.832031-5.394531-1.613281-10.59375-3.769531-15.449218-6.414063-.605469-.328125-1.257813-.484375-1.910157-.484375-1.039062 0-2.0625.402344-2.832031 1.171875l-13.421875 13.421875c-1.644531 1.640625-4.542969 1.644531-6.1875 0l-21.945313-21.953125c-1.703124-1.707031-1.703124-4.492187.003907-6.207031l13.410156-13.421875c1.253906-1.253906 1.53125-3.191406.675781-4.75-2.457031-4.488281-4.457031-9.207031-5.945312-14.019531-.515625-1.675781-2.066406-2.824219-3.820313-2.824219h-19.425781c-2.417969 0-4.386719-1.964844-4.386719-4.386719v-31.035156c0-2.414063 1.96875-4.375 4.386719-4.375h18.566406c1.796875 0 3.375-1.203125 3.855469-2.933594 1.625-5.886719 3.90625-11.542969 6.777344-16.8125.847656-1.558593.570312-3.488281-.679688-4.742187l-13.417969-13.429688c-.824218-.820312-1.277343-1.917968-1.277343-3.085937 0-1.175781.453125-2.28125 1.28125-3.109375l21.953125-21.9375c1.640625-1.648438 4.527344-1.65625 6.183594.007812l13.421874 13.410156c1.253907 1.253907 3.179688 1.53125 4.738282.683594 4.925781-2.675781 10.117187-4.828125 15.433594-6.390625 1.699218-.5 2.867187-2.0625 2.867187-3.835937v-18.96875c0-2.417969 1.96875-4.390625 4.390625-4.390625h31.019531c2.417969 0 4.386719 1.96875 4.386719 4.390625v18.96875c0 1.773437 1.167969 3.335937 2.871094 3.835937 5.382812 1.582031 10.578125 3.734375 15.441406 6.390625 1.558594.847656 3.492188.574219 4.746094-.683594l13.402344-13.402343c1.714843-1.707031 4.5-1.710938 6.210937-.003907l21.953125 21.925782c.828125.828125 1.285156 1.933594 1.285156 3.109375-.003906 1.171875-.457031 2.265625-1.285156 3.089843l-13.421875 13.425782c-1.257813 1.253906-1.535156 3.191406-.679687 4.75 2.640624 4.824218 4.796874 10.015625 6.402343 15.429687.503907 1.695313 2.066407 2.859375 3.835938 2.859375h18.96875c2.417969 0 4.386719 1.96875 4.386719 4.390625v31.019531zm0 0"/><path d="m29.199219 215.84375h206c2.207031 0 4-1.792969 4-4 0-2.210938-1.792969-4-4-4h-206c-2.210938 0-4 1.789062-4 4 0 2.207031 1.789062 4 4 4zm0 0"/><path d="m29.199219 259.59375h186c2.207031 0 4-1.792969 4-4 0-2.210938-1.792969-4-4-4h-186c-2.210938 0-4 1.789062-4 4 0 2.207031 1.789062 4 4 4zm0 0"/><path d="m29.199219 303.34375h160c2.207031 0 4-1.792969 4-4 0-2.210938-1.792969-4-4-4h-160c-2.210938 0-4 1.789062-4 4 0 2.207031 1.789062 4 4 4zm0 0"/><path d="m29.199219 347.09375h186c2.207031 0 4-1.792969 4-4 0-2.210938-1.792969-4-4-4h-186c-2.210938 0-4 1.789062-4 4 0 2.207031 1.789062 4 4 4zm0 0"/><path d="m235.199219 382.84375h-206c-2.210938 0-4 1.789062-4 4 0 2.207031 1.789062 4 4 4h206c2.207031 0 4-1.792969 4-4 0-2.210938-1.792969-4-4-4zm0 0"/></g></svg>