<svg height="501pt" viewBox="0 -76 501 501" width="501pt" xmlns="http://www.w3.org/2000/svg"><path d="m374.660156 32.058594c-6.898437-1.039063-13.980468-1.558594-21.160156-1.558594-79.261719 0-143.5 64.238281-143.5 143.5s64.238281 143.5 143.5 143.5c7.179688 0 14.261719-.519531 21.160156-1.558594 69.21875-10.222656 122.339844-69.863281 122.339844-141.941406s-53.121094-131.71875-122.339844-141.941406zm0 172.882812c-6.019531 4.136719-13.320312 6.558594-21.160156 6.558594-20.679688 0-37.5-16.820312-37.5-37.5s16.820312-37.5 37.5-37.5c7.839844 0 15.140625 2.421875 21.160156 6.558594 9.859375 6.761718 16.339844 18.101562 16.339844 30.941406s-6.480469 24.179688-16.339844 30.941406zm0 0" fill="#40c4df"/><path d="m316 174c0 24.046875 22.476562 42.019531 46 36.519531v106.742188c-83.320312 4.730469-152-61.324219-152-143.261719 0-81.894531 68.636719-147.992188 152-143.261719v106.742188c-23.519531-5.5-46 12.472656-46 36.519531zm0 0" fill="#1c868e"/><path d="m344 14v320c0 5.519531-4.480469 10-10 10h-320c-5.519531 0-10-4.480469-10-10v-320c0-5.519531 4.480469-10 10-10h320c5.519531 0 10 4.480469 10 10zm0 0" fill="#d8d6d7"/><path d="m344 14v320c0 5.519531-4.480469 10-10 10h-301c-5.519531 0-10-4.480469-10-10v-320c0-5.519531 4.480469-10 10-10h301c5.519531 0 10 4.480469 10 10zm0 0" fill="#fff"/><path d="m312.359375 140.78125h-26.359375c-2.300781-7.742188-5.398438-15.300781-9.339844-22.519531l18.640625-18.640625c4.539063-4.519532 4.539063-11.921875 0-16.460938l-30.5-30.460937c-4.539062-4.539063-11.902343-4.539063-16.460937 0l-18.621094 18.621093c-7.238281-3.941406-14.796875-7.039062-22.539062-9.320312v-26.359375c0-6.421875-5.21875-11.640625-11.660157-11.640625h-43.078125c-6.441406 0-11.660156 5.21875-11.660156 11.640625v26.359375c-7.742188 2.28125-15.28125 5.398438-22.519531 9.320312l-18.640625-18.621093c-4.519532-4.539063-11.921875-4.539063-16.441406 0l-30.480469 30.460937c-4.539063 4.539063-4.539063 11.941406 0 16.460938l18.621093 18.640625c-4.28125 7.859375-7.558593 16.078125-9.878906 24.539062h-25.800781c-6.421875 0-11.640625 5.21875-11.640625 11.640625v43.097656c0 6.421876 5.21875 11.640626 11.640625 11.640626h26.980469c2.179687 7.058593 5.097656 13.941406 8.699218 20.519531l-18.621093 18.640625c-4.539063 4.558594-4.539063 11.921875 0 16.460937l30.480469 30.5c4.519531 4.539063 11.921874 4.539063 16.441406 0l18.640625-18.640625c7.238281 3.917969 14.777343 7.019532 22.519531 9.339844v26.359375c0 6.421875 5.21875 11.640625 11.660156 11.640625h43.078125c6.441407 0 11.660157-5.21875 11.660157-11.640625v-26.359375c7.742187-2.320312 15.320312-5.421875 22.558593-9.339844l18.601563 18.640625c4.558594 4.539063 11.921875 4.539063 16.460937 0l30.5-30.5c4.539063-4.539062 4.539063-11.902343 0-16.460937l-18.640625-18.601563c3.941406-7.238281 7.039063-14.816406 9.339844-22.558593h26.359375c6.421875 0 11.640625-5.21875 11.640625-11.660157v-43.078125c0-6.441406-5.21875-11.660156-11.640625-11.660156zm-138.359375 104.019531c-39.261719 0-70.800781-31.859375-70.800781-70.800781 0-39.300781 31.878906-70.820312 70.800781-70.820312 39.101562 0 70.800781 31.699218 70.800781 70.820312 0 39.238281-31.800781 70.800781-70.800781 70.800781zm0 0" fill="#40c4df"/><g fill="#491352"><path d="m148.066406 141.648438c-17.835937 0-31.851562 13.378906-31.851562 32.398437s14.015625 32.394531 31.851562 32.394531c17.925782 0 31.851563-13.375 31.851563-32.394531s-13.925781-32.398437-31.851563-32.398437zm0 57.605468c-13.375 0-23.386718-9.738281-23.386718-25.210937 0-15.5625 10.011718-25.207031 23.386718-25.207031 13.378906 0 23.386719 9.644531 23.386719 25.207031 0 15.472656-10.007813 25.210937-23.386719 25.210937zm0 0"/><path d="m187.101562 159.121094c0 23.570312 34.308594 12.648437 34.308594 29.757812 0 6.007813-4.730468 10.554688-12.738281 10.554688-7.144531 0-10.953125-3.457032-12.433594-7.570313-.636719-1.773437-2.273437-2.984375-4.15625-2.984375h-.050781c-3.019531 0-5.269531 3.011719-4.171875 5.824219 2.796875 7.1875 10.609375 11.738281 20.8125 11.738281 13.738281 0 21.113281-8.917968 21.113281-17.925781 0-23.480469-34.21875-13.289063-34.21875-29.667969 0-6.824218 5.371094-10.375 12.195313-10.195312 6.113281.074218 9.894531 3.101562 11.484375 6.480468.757812 1.609376 2.285156 2.714844 4.0625 2.714844 3.339844 0 5.460937-3.566406 3.890625-6.515625-3.195313-5.996093-9.945313-9.777343-19.074219-9.777343-12.558594.003906-21.023438 7.101562-21.023438 17.566406zm0 0"/><path d="m174.007812 99.1875c-41.253906 0-74.816406 33.5625-74.816406 74.816406 0 41.242188 33.5625 74.796875 74.816406 74.796875 41.246094 0 74.796876-33.554687 74.796876-74.796875 0-41.253906-33.550782-74.816406-74.796876-74.816406zm0 141.613281c-36.84375 0-66.816406-29.964843-66.816406-66.796875 0-36.84375 29.972656-66.816406 66.816406-66.816406 36.832032 0 66.796876 29.972656 66.796876 66.816406 0 36.832032-29.964844 66.796875-66.796876 66.796875zm0 0"/><path d="m312.351562 136.789062h-23.398437c-1.996094-6.164062-4.464844-12.125-7.375-17.78125l16.542969-16.546874c2.957031-2.941407 4.585937-6.867188 4.589844-11.046876.003906-4.191406-1.625-8.125-4.585938-11.085937l-30.488281-30.457031c-6.089844-6.089844-16.015625-6.089844-22.125 0l-16.539063 16.535156c-5.691406-2.917969-11.65625-5.382812-17.796875-7.363281v-23.394531c0-8.625-7.023437-15.648438-15.652343-15.648438h-43.082032c-8.628906 0-15.652344 7.023438-15.652344 15.648438v23.394531c-6.085937 1.960937-12.042968 4.429687-17.777343 7.367187l-16.550781-16.535156c-2.945313-2.957031-6.875-4.589844-11.058594-4.589844-4.1875 0-8.117188 1.628906-11.054688 4.582032l-30.476562 30.460937c-2.957032 2.957031-4.585938 6.894531-4.582032 11.082031.003907 4.183594 1.632813 8.109375 4.582032 11.042969l16.539062 16.554687c-3.222656 6.296876-5.898437 12.933594-7.980468 19.792969h-22.78125c-8.625 0-15.648438 7.011719-15.648438 15.628907v43.105468c0 8.625 7.023438 15.648438 15.648438 15.648438h24.066406c1.824218 5.390625 4.0625 10.675781 6.6875 15.777344l-16.539063 16.554687c-6.085937 6.109375-6.082031 16.03125.003907 22.121094l30.476562 30.492187c6.09375 6.097656 16.011719 6.097656 22.109375 0l16.554687-16.558594c5.679688 2.90625 11.636719 5.378907 17.78125 7.378907v23.402343c0 8.625 7.019532 15.648438 15.648438 15.648438h43.085938c8.625 0 15.648437-7.023438 15.648437-15.648438v-23.402343c6.175781-2.007813 12.144531-4.480469 17.808594-7.378907l16.539062 16.570313c6.105469 6.054687 16.023438 6.058594 22.117188-.011719l30.492187-30.492187c6.089844-6.089844 6.089844-16.011719-.003906-22.128907l-16.550781-16.519531c2.910156-5.667969 5.382812-11.636719 7.378906-17.8125h23.394531c8.628906 0 15.648438-7.023437 15.648438-15.652343v-43.082032c.003906-8.632812-7.019532-15.652344-15.644532-15.652344zm7.648438 58.734376c0 4.21875-3.433594 7.652343-7.648438 7.652343h-26.34375c-1.773437 0-3.332031 1.164063-3.835937 2.863281-2.269531 7.636719-5.300781 14.964844-9.023437 21.773438-.851563 1.558594-.574219 3.496094.683593 4.75l18.632813 18.597656c2.980468 2.992188 2.980468 7.847656.007812 10.820313l-30.488281 30.488281c-2.972656 2.964844-7.835937 2.964844-10.8125.007812l-18.609375-18.640624c-1.253906-1.257813-3.183594-1.542969-4.746094-.691407-6.808594 3.707031-14.140625 6.746094-21.789062 9.03125-1.695313.507813-2.855469 2.0625-2.855469 3.832031v26.34375c0 4.21875-3.433594 7.652344-7.648437 7.652344h-43.082032c-4.21875 0-7.652344-3.433594-7.652344-7.652344v-26.34375c0-1.769531-1.160156-3.324218-2.851562-3.832031-7.59375-2.273437-14.914062-5.308593-21.757812-9.03125-.601563-.328125-1.257813-.484375-1.910157-.484375-1.039062 0-2.058593.402344-2.828125 1.171875l-18.644531 18.640625c-2.972656 2.976563-7.816406 2.980469-10.789063 0l-30.480468-30.492187c-2.972656-2.976563-2.972656-7.832031.003906-10.816407l18.625-18.640624c1.253906-1.257813 1.53125-3.195313.679688-4.75-3.464844-6.316407-6.285157-12.964844-8.382813-19.765626-.519531-1.679687-2.070313-2.820312-3.824219-2.820312h-26.980468c-4.214844 0-7.648438-3.433594-7.648438-7.652344v-43.101562c0-4.210938 3.433594-7.632813 7.648438-7.632813h25.785156c1.796875 0 3.375-1.199219 3.855468-2.933593 2.289063-8.292969 5.503907-16.261719 9.546876-23.683594.851562-1.558594.570312-3.488282-.683594-4.742188l-18.628906-18.648437c-1.441407-1.433594-2.234376-3.347657-2.234376-5.386719-.003906-2.046875.789063-3.972656 2.238282-5.417969l30.480468-30.464843c2.871094-2.882813 7.902344-2.890626 10.792969.007812l18.640625 18.625c1.25 1.25 3.183594 1.539062 4.738282.6875 6.933593-3.773438 14.25-6.800781 21.742187-9.007812 1.699219-.5 2.867187-2.0625 2.867187-3.839844v-26.347656c0-4.214844 3.433594-7.648438 7.652344-7.648438h43.082032c4.21875 0 7.652343 3.433594 7.652343 7.648438v26.34375c0 1.777343 1.167969 3.335937 2.871094 3.839843 7.582031 2.230469 14.902344 5.261719 21.75 9.003907 1.558594.851562 3.488281.570312 4.746094-.683594l18.617187-18.621094c2.992188-2.976562 7.847656-2.980469 10.824219-.003906l30.488281 30.457031c1.449219 1.449219 2.242188 3.371094 2.242188 5.417969-.003906 2.042968-.792969 3.957031-2.242188 5.394531l-18.640625 18.640625c-1.257812 1.257812-1.535156 3.191406-.679687 4.75 3.722656 6.796875 6.757812 14.113281 9.023437 21.738281.503907 1.699219 2.058594 2.863281 3.832031 2.863281h26.34375c4.21875 0 7.652344 3.429688 7.652344 7.648438v43.085938zm0 0"/><path d="m353.5 26.5c-1.890625 0-3.710938.042969-5.5.109375v-12.609375c0-7.71875-6.28125-14-14-14h-320c-7.71875 0-14 6.28125-14 14v320c0 7.71875 6.28125 14 14 14h320c7.71875 0 14-6.28125 14-14v-12.609375c1.789062.070313 3.609375.109375 5.5.109375 81.332031 0 147.5-66.167969 147.5-147.5s-66.167969-147.5-147.5-147.5zm-13.5 307.5c0 3.308594-2.691406 6-6 6h-320c-3.308594 0-6-2.691406-6-6v-320c0-3.308594 2.691406-6 6-6h320c3.308594 0 6 2.691406 6 6zm8-193.03125c1.804688-.300781 3.644531-.46875 5.5-.46875 18.472656 0 33.5 15.027344 33.5 33.5s-15.027344 33.5-33.5 33.5c-1.855469 0-3.695312-.167969-5.5-.46875zm5.5 172.53125c-1.898438 0-3.714844-.046875-5.5-.117188v-98.25c1.816406.242188 3.652344.367188 5.5.367188 22.882812 0 41.5-18.617188 41.5-41.5s-18.617188-41.5-41.5-41.5c-1.847656 0-3.683594.125-5.5.367188v-98.25c1.785156-.070313 3.601562-.117188 5.5-.117188 76.921875 0 139.5 62.578125 139.5 139.5s-62.578125 139.5-139.5 139.5zm0 0"/></g></svg>