<svg height="502pt" viewBox="0 -32 502 502" width="502pt" xmlns="http://www.w3.org/2000/svg"><path d="m488 433.757812h-474c-5.523438 0-10-4.480468-10-10v-409.757812c0-5.523438 4.476562-10 10-10h474c5.523438 0 10 4.476562 10 10v409.757812c0 5.523438-4.476562 10-10 10zm0 0" fill="#f85252"/><path d="m498 74.359375v349.398437c0 5.519532-4.480469 10-10 10h-474c-5.519531 0-10-4.480468-10-10v-409.761718c0-5.519532 4.480469-10 10-10h119.898438l51.023437 63.402344c3.539063 4.398437 8.898437 6.960937 14.558594 6.960937zm0 0" fill="#d8d6d7"/><path d="m498 74.359375v349.398437c0 5.523438-4.476562 10-10 10h-443.539062c-5.523438 0-10-4.476562-10-10v-409.761718c0-5.519532 4.476562-10 10-10h89.4375l51.023437 63.402344c3.539063 4.398437 8.898437 6.960937 14.558594 6.960937zm0 0" fill="#fff"/><path d="m329.082031 304.605469c-6.070312-6.566407-5.671875-16.8125.894531-22.882813l52.109376-48.175781-52.109376-48.179687c-6.566406-6.070313-6.964843-16.3125-.894531-22.878907 6.070313-6.566406 16.3125-6.96875 22.878907-.894531l64.96875 60.0625c6.925781 6.402344 6.933593 17.367188 0 23.777344l-64.96875 60.0625c-6.5625 6.070312-16.804688 5.679687-22.878907-.890625zm0 0" fill="#40c4df"/><path d="m150.039062 305.5-64.96875-60.0625c-6.925781-6.402344-6.933593-17.371094 0-23.78125l64.96875-60.0625c6.5625-6.070312 16.808594-5.671875 22.878907.894531 6.070312 6.566407 5.671875 16.8125-.894531 22.882813l-52.109376 48.175781 52.109376 48.179687c6.566406 6.070313 6.964843 16.3125.894531 22.878907-6.078125 6.574219-16.320313 6.957031-22.878907.894531zm0 0" fill="#40c4df"/><path d="m208.222656 307.632812c-7.746094-4.472656-10.394531-14.371093-5.925781-22.117187l69.359375-120.132813c4.472656-7.742187 14.371094-10.398437 22.121094-5.925781 7.746094 4.472657 10.394531 14.375 5.925781 22.117188l-69.359375 120.132812c-4.472656 7.742188-14.371094 10.398438-22.121094 5.925781zm0 0" fill="#40c4df"/><path d="m419.476562 39.792969c0 7.617187-6.175781 13.792969-13.792968 13.792969-7.617188 0-13.792969-6.175782-13.792969-13.792969 0-7.617188 6.175781-13.792969 13.792969-13.792969 7.617187 0 13.792968 6.175781 13.792968 13.792969zm0 0" fill="#fff"/><path d="m469.960938 39.792969c0 7.617187-6.175782 13.792969-13.792969 13.792969-7.617188 0-13.792969-6.175782-13.792969-13.792969 0-7.617188 6.175781-13.792969 13.792969-13.792969 7.617187 0 13.792969 6.175781 13.792969 13.792969zm0 0" fill="#fff"/><g fill="#491352"><path d="m326.144531 307.320312c7.589844 8.207032 20.347657 8.683594 28.53125 1.117188l64.964844-60.0625c8.632813-7.976562 8.640625-21.671875 0-29.65625l-64.960937-60.0625c-8.03125-7.425781-20.820313-7.222656-28.535157 1.117188-7.578125 8.191406-7.082031 20.957031 1.117188 28.53125l48.929687 45.242187-48.929687 45.242187c-8.195313 7.574219-8.695313 20.335938-1.117188 28.53125zm6.546875-22.660156 52.109375-48.175781c1.710938-1.582031 1.710938-4.292969 0-5.875l-52.109375-48.175781c-4.945312-4.574219-5.25-12.28125-.671875-17.226563 4.570313-4.945312 12.28125-5.253906 17.226563-.675781l64.964844 60.066406c5.207031 4.808594 5.246093 13.054688 0 17.902344l-64.964844 60.066406c-4.941406 4.5625-12.640625 4.285156-17.226563-.675781-4.566406-4.933594-4.289062-12.644531.671875-17.230469zm0 0"/><path d="m175.855469 159.773438c-7.5625-8.179688-20.320313-8.714844-28.53125-1.117188l-64.964844 60.0625c-8.632813 7.976562-8.640625 21.671875 0 29.65625l64.964844 60.0625c8.058593 7.453125 20.84375 7.199219 28.53125-1.117188 7.578125-8.191406 7.082031-20.957031-1.117188-28.53125l-48.929687-45.242187 48.929687-45.242187c8.195313-7.574219 8.695313-20.335938 1.117188-28.53125zm-6.546875 22.660156-52.109375 48.175781c-1.710938 1.582031-1.710938 4.292969 0 5.875l52.109375 48.179687c4.945312 4.570313 5.25 12.28125.671875 17.226563-4.542969 4.917969-12.242188 5.285156-17.226563.675781l-64.964844-60.070312c-5.207031-4.808594-5.246093-13.054688 0-17.902344l64.96875-60.066406c4.925782-4.558594 12.636719-4.285156 17.222657.675781 4.574219 4.941406 4.277343 12.652344-.671875 17.230469zm0 0"/><path d="m206.222656 311.097656c9.648438 5.5625 22.015625 2.246094 27.582032-7.390625l69.363281-120.132812c5.5625-9.640625 2.246093-22.015625-7.394531-27.582031-9.640626-5.558594-22.007813-2.246094-27.578126 7.394531l-69.363281 120.132812c-5.5625 9.640625-2.246093 22.011719 7.390625 27.578125zm-.460937-23.582031 69.359375-120.128906c3.363281-5.824219 10.832031-7.820313 16.65625-4.464844 5.820312 3.359375 7.824218 10.832031 4.460937 16.652344l-69.363281 120.132812c-3.359375 5.820313-10.832031 7.824219-16.652344 4.464844-5.820312-3.363281-7.820312-10.832031-4.460937-16.65625zm0 0"/><path d="m488 0h-474c-7.71875 0-14 6.28125-14 14v409.757812c0 7.71875 6.28125 14 14 14h474c7.71875 0 14-6.28125 14-14v-409.757812c0-7.71875-6.28125-14-14-14zm6 423.316406c0 3.550782-2.886719 6.441406-6.441406 6.441406h-473.117188c-3.550781 0-6.441406-2.890624-6.441406-6.441406v-408.878906c0-3.550781 2.886719-6.4375 6.441406-6.4375h117.539063l49.828125 61.898438c4.324218 5.375 10.761718 8.457031 17.660156 8.457031h294.53125zm0-352.960937h-294.53125c-4.460938 0-8.628906-1.996094-11.429688-5.472657l-45.785156-56.882812h345.746094c3.308594 0 6 2.691406 6 6zm0 0"/><path d="m116.519531 42.113281c0-2.207031-1.792969-4-4-4h-69.085937c-2.207032 0-4 1.792969-4 4s1.792968 4 4 4h69.085937c2.207031 0 4-1.792969 4-4zm0 0"/><path d="m405.6875 22c-9.8125 0-17.792969 7.980469-17.792969 17.792969 0 9.808593 7.980469 17.792969 17.792969 17.792969 9.808594 0 17.789062-7.984376 17.789062-17.792969 0-9.8125-7.980468-17.792969-17.789062-17.792969zm0 27.585938c-5.402344 0-9.792969-4.390626-9.792969-9.792969 0-5.398438 4.390625-9.789063 9.792969-9.789063 5.398438 0 9.789062 4.390625 9.789062 9.789063 0 5.398437-4.390624 9.792969-9.789062 9.792969zm0 0"/><path d="m456.167969 22c-9.808594 0-17.792969 7.980469-17.792969 17.792969 0 9.808593 7.980469 17.792969 17.792969 17.792969s17.792969-7.984376 17.792969-17.792969c0-9.8125-7.984376-17.792969-17.792969-17.792969zm0 27.585938c-5.398438 0-9.792969-4.390626-9.792969-9.792969 0-5.398438 4.394531-9.789063 9.792969-9.789063 5.398437 0 9.792969 4.390625 9.792969 9.789063 0 5.398437-4.394532 9.792969-9.792969 9.792969zm0 0"/></g></svg>