<svg height="502pt" viewBox="0 -32 502 501" width="502pt" xmlns="http://www.w3.org/2000/svg"><path d="m488 434.257812h-474c-5.523438 0-10-4.476562-10-10v-409.753906c0-5.523437 4.476562-10 10-10h474c5.523438 0 10 4.476563 10 10v409.757813c0 5.519531-4.476562 9.996093-10 9.996093zm0 0" fill="#f85252"/><path d="m498 74.859375v349.402344c0 5.519531-4.480469 10-10 10h-474c-5.519531 0-10-4.480469-10-10v-409.761719c0-5.519531 4.480469-10 10-10h119.898438l51.023437 63.398438c3.539063 4.402343 8.898437 6.960937 14.558594 6.960937zm0 0" fill="#d8d6d7"/><path d="m498 74.859375v349.402344c0 5.519531-4.476562 10-10 10h-443.539062c-5.523438 0-10-4.480469-10-10v-409.761719c0-5.523438 4.476562-10 10-10h89.4375l51.023437 63.398438c3.539063 4.402343 8.898437 6.960937 14.558594 6.960937zm0 0" fill="#fff"/><path d="m419.476562 40.292969c0 7.617187-6.175781 13.792969-13.792968 13.792969-7.617188 0-13.792969-6.175782-13.792969-13.792969 0-7.617188 6.175781-13.789063 13.792969-13.789063 7.617187 0 13.792968 6.171875 13.792968 13.789063zm0 0" fill="#40c4df"/><path d="m469.960938 40.292969c0 7.617187-6.175782 13.792969-13.792969 13.792969-7.617188 0-13.792969-6.175782-13.792969-13.792969 0-7.617188 6.175781-13.789063 13.792969-13.789063 7.617187 0 13.792969 6.171875 13.792969 13.789063zm0 0" fill="#40c4df"/><path d="m149.84375 410.714844h-111.6875c-5.523438 0-10-4.480469-10-10v-290.433594c0-5.519531 4.476562-10 10-10h111.6875c5.523438 0 10 4.480469 10 10v290.433594c0 5.519531-4.476562 10-10 10zm0 0" fill="#40c4df"/><path d="m306.84375 239.386719h-111.6875c-5.523438 0-10-4.480469-10-10v-119.105469c0-5.519531 4.476562-10 10-10h111.6875c5.523438 0 10 4.480469 10 10v119.105469c0 5.523437-4.476562 10-10 10zm0 0" fill="#d8d6d7"/><path d="m463.84375 239.386719h-111.6875c-5.523438 0-10-4.480469-10-10v-119.105469c0-5.519531 4.476562-10 10-10h111.6875c5.523438 0 10 4.480469 10 10v119.105469c0 5.523437-4.476562 10-10 10zm0 0" fill="#d8d6d7"/><path d="m239 337.808594c0 15.113281-12.253906 27.367187-27.367188 27.367187-15.113281 0-27.363281-12.253906-27.363281-27.367187 0-15.113282 12.25-27.367188 27.363281-27.367188 15.113282 0 27.367188 12.253906 27.367188 27.367188zm0 0" fill="#d8d6d7"/><path d="m317.578125 337.808594c0 15.113281-12.253906 27.367187-27.367187 27.367187-15.113282 0-27.363282-12.253906-27.363282-27.367187 0-15.113282 12.25-27.367188 27.363282-27.367188 15.113281 0 27.367187 12.253906 27.367187 27.367188zm0 0" fill="#d8d6d7"/><path d="m396.152344 337.808594c0 15.113281-12.25 27.367187-27.363282 27.367187-15.113281 0-27.367187-12.253906-27.367187-27.367187 0-15.113282 12.253906-27.367188 27.367187-27.367188 15.113282 0 27.363282 12.253906 27.363282 27.367188zm0 0" fill="#d8d6d7"/><path d="m474.730469 337.808594c0 15.113281-12.25 27.367187-27.363281 27.367187-15.113282 0-27.367188-12.253906-27.367188-27.367187 0-15.113282 12.253906-27.367188 27.367188-27.367188 15.113281 0 27.363281 12.253906 27.363281 27.367188zm0 0" fill="#d8d6d7"/><path d="m363.6875 340.105469 19.847656 74.066406c1.992188 7.4375 11.285156 9.925781 16.730469 4.480469l54.21875-54.21875c5.445313-5.445313 2.953125-14.738282-4.480469-16.730469l-74.066406-19.847656c-7.4375-1.992188-14.242188 4.8125-12.25 12.25zm0 0" fill="#40c4df"/><path d="m455.734375 403.390625-16.511719 16.511719c-3.90625 3.90625-10.234375 3.90625-14.140625 0l-13.03125-13.03125 30.652344-30.652344 13.03125 13.03125c3.902344 3.90625 3.902344 10.234375 0 14.140625zm0 0" fill="#1c868e"/><g fill="#491352"><path d="m488 .5c-18.835938 0-454.773438 0-473.558594 0h-.441406c-7.71875 0-14 6.28125-14 14v409.761719c0 7.71875 6.28125 14 14 14h474c7.71875 0 14-6.28125 14-14v-.441407c0-11.496093 0-361.660156 0-409.320312 0-7.71875-6.28125-14-14-14zm6 423.320312c0 3.550782-2.886719 6.441407-6.441406 6.441407h-473.117188c-3.550781 0-6.441406-2.890625-6.441406-6.441407v-408.878906c0-3.550781 2.886719-6.441406 6.441406-6.441406h117.542969l49.820313 61.90625c4.320312 5.375 10.761718 8.457031 17.675781 8.457031h294.519531zm0-352.960937h-294.519531c-4.476563 0-8.648438-1.992187-11.445313-5.46875l-45.78125-56.890625h345.746094c3.308594 0 6 2.691406 6 6zm0 0"/><path d="m43.433594 46.617188h69.085937c2.207031 0 4-1.792969 4-4 0-2.210938-1.792969-4-4-4h-69.085937c-2.207032 0-4 1.789062-4 4 0 2.207031 1.789062 4 4 4zm0 0"/><path d="m405.683594 22.503906c-9.8125 0-17.792969 7.980469-17.792969 17.789063 0 9.8125 7.984375 17.792969 17.792969 17.792969s17.792968-7.980469 17.792968-17.792969c0-9.808594-7.980468-17.789063-17.792968-17.789063zm0 27.585938c-5.398438 0-9.792969-4.394532-9.792969-9.792969 0-5.402344 4.394531-9.792969 9.792969-9.792969 5.398437 0 9.792968 4.394532 9.792968 9.792969s-4.390624 9.792969-9.792968 9.792969zm0 0"/><path d="m456.167969 22.503906c-9.8125 0-17.792969 7.980469-17.792969 17.789063 0 9.8125 7.984375 17.792969 17.792969 17.792969 9.808593 0 17.792969-7.980469 17.792969-17.792969 0-9.808594-7.980469-17.789063-17.792969-17.789063zm0 27.585938c-5.398438 0-9.792969-4.394532-9.792969-9.792969 0-5.402344 4.394531-9.792969 9.792969-9.792969 5.398437 0 9.792969 4.394532 9.792969 9.792969s-4.394532 9.792969-9.792969 9.792969zm0 0"/><path d="m149.84375 96.28125h-111.6875c-7.71875 0-14 6.28125-14 14v290.429688c0 7.722656 6.28125 14 14 14h111.6875c7.71875 0 14-6.277344 14-14v-290.429688c0-7.71875-6.28125-14-14-14zm6 304.433594c0 3.308594-2.691406 6-6 6h-111.6875c-3.308594 0-6-2.691406-6-6v-290.433594c0-3.308594 2.691406-6 6-6h111.6875c3.308594 0 6 2.691406 6 6zm0 0"/><path d="m181.15625 110.28125v119.105469c0 7.71875 6.28125 14 14 14h111.6875c7.71875 0 14-6.28125 14-14v-119.105469c0-7.71875-6.28125-14-14-14h-111.6875c-7.71875 0-14 6.28125-14 14zm131.6875 0v119.105469c0 3.308593-2.691406 6-6 6h-111.6875c-3.308594 0-6-2.691407-6-6v-119.105469c0-3.308594 2.691406-6 6-6h111.6875c3.308594 0 6 2.691406 6 6zm0 0"/><path d="m352.15625 243.386719h111.6875c7.71875 0 14-6.28125 14-14v-119.105469c0-7.71875-6.28125-14-14-14h-111.6875c-7.71875 0-14 6.28125-14 14v119.105469c0 7.71875 6.28125 14 14 14zm-6-133.105469c0-3.308594 2.691406-6 6-6h111.6875c3.308594 0 6 2.691406 6 6v119.105469c0 3.308593-2.691406 6-6 6h-111.6875c-3.308594 0-6-2.691407-6-6zm0 0"/><path d="m188.664062 265.378906h124.667969c2.207031 0 4-1.789062 4-4 0-2.207031-1.792969-4-4-4h-124.667969c-2.207031 0-4 1.792969-4 4 0 2.210938 1.792969 4 4 4zm0 0"/><path d="m188.664062 286.714844h124.667969c2.207031 0 4-1.792969 4-4 0-2.207032-1.792969-4-4-4h-124.667969c-2.207031 0-4 1.792968-4 4 0 2.207031 1.792969 4 4 4zm0 0"/><path d="m470.335938 257.378906h-124.667969c-2.207031 0-4 1.792969-4 4 0 2.210938 1.792969 4 4 4h124.667969c2.207031 0 4-1.789062 4-4 0-2.207031-1.792969-4-4-4zm0 0"/><path d="m470.335938 278.714844h-124.667969c-2.207031 0-4 1.792968-4 4 0 2.207031 1.792969 4 4 4h124.667969c2.207031 0 4-1.792969 4-4 0-2.207032-1.792969-4-4-4zm0 0"/><path d="m211.632812 369.175781c17.296876 0 31.367188-14.074219 31.367188-31.367187 0-17.292969-14.070312-31.367188-31.367188-31.367188-17.292968 0-31.363281 14.074219-31.363281 31.367188 0 17.292968 14.070313 31.367187 31.363281 31.367187zm0-54.734375c12.886719 0 23.367188 10.484375 23.367188 23.367188 0 12.882812-10.480469 23.367187-23.367188 23.367187-12.882812 0-23.363281-10.484375-23.363281-23.367187 0-12.882813 10.480469-23.367188 23.363281-23.367188zm0 0"/><path d="m290.210938 306.441406c-17.296876 0-31.367188 14.074219-31.367188 31.367188 0 17.292968 14.070312 31.367187 31.367188 31.367187 17.296874 0 31.363281-14.074219 31.363281-31.367187 0-17.292969-14.066407-31.367188-31.363281-31.367188zm0 54.734375c-12.886719 0-23.367188-10.484375-23.367188-23.367187 0-12.882813 10.480469-23.367188 23.367188-23.367188 12.882812 0 23.363281 10.484375 23.363281 23.367188 0 12.882812-10.480469 23.367187-23.363281 23.367187zm0 0"/><path d="m367.3125 369.105469 3.785156 14.113281h-182.4375c-2.207031 0-4 1.792969-4 4 0 2.210938 1.792969 4 4 4h184.582032l3.4375 12.820312h-188.019532c-2.207031 0-4 1.792969-4 4 0 2.207032 1.792969 4 4 4h190.164063l.851562 3.171876c2.769531 10.386718 15.78125 13.910156 23.414063 6.277343l8.960937-8.960937c10.417969 10.417968 12.859375 14.296875 20.101563 14.296875 7.304687 0 9.714844-3.914063 20.585937-14.785157h24.261719c5.285156 0 5.292969-8 0-8h-16.65625c2.542969-3.832031 2.992188-8.625 1.351562-12.820312h15.304688c5.285156 0 5.292969-8 0-8h-21.640625l-7-7 8.542969-8.546875c12.910156-4.128906 21.835937-16.230469 21.835937-29.871094 0-17.292969-14.078125-31.359375-31.378906-31.359375-16.175781 0-29.523437 12.308594-31.179687 28.050782l-17.03125-4.558594c-3.527344-13.757813-15.90625-23.492188-30.367188-23.492188-17.292969 0-31.359375 14.066406-31.359375 31.359375 0 16.808594 13.28125 30.53125 29.890625 31.304688zm85.59375 22.972656c2.335938 2.339844 2.335938 6.144531 0 8.484375-23.363281 23.367188-18.265625 23.242188-35.199219 6.308594l24.996094-24.996094zm-5.546875-77.636719c12.894531 0 23.378906 10.476563 23.378906 23.359375 0 7.484375-3.601562 14.359375-9.34375 18.691407-.390625-5.945313-4.40625-11.0625-10.359375-12.65625l-27.003906-7.238282c.625-12.324218 10.851562-22.15625 23.328125-22.15625zm1.605469 37.121094c4.476562 1.199219 5.863281 6.652344 2.835937 9.878906-.015625.019532-.027343.042969-.046875.066406-.035156.035157-.070312.0625-.105468.101563-10.847657 10.847656-43.554688 43.558594-54.21875 54.21875-3.269532 3.273437-8.839844 1.757813-10.027344-2.683594-21.34375-79.617187-21.6875-76.496093-18.296875-79.878906 3.371093-3.363281.25-3.042969 79.859375 18.296875zm-80.183594-37.121094c9.105469 0 17.089844 5.183594 20.9375 12.964844l-12.742188-3.410156c-10.414062-2.804688-19.933593 6.710937-17.164062 17.136718l5.289062 19.726563c-11.136718-1.773437-19.683593-11.421875-19.683593-23.0625.003906-12.875 10.480469-23.355469 23.363281-23.355469zm0 0"/></g></svg>