<svg height="504pt" viewBox="0 -40 504.426 504" width="504pt" xmlns="http://www.w3.org/2000/svg"><path d="m258.507812 212.644531h-244.527343c-5.523438 0-10-4.480469-10-10v-188.398437c0-5.519532 4.476562-10 10-10h244.527343c5.519532 0 10 4.480468 10 10v188.398437c0 5.519531-4.476562 10-10 10zm0 0" fill="#f85252"/><path d="m258.507812 420.933594h-244.527343c-5.523438 0-10-4.476563-10-10v-188.394532c0-5.523437 4.476562-10 10-10h244.527343c5.519532 0 10 4.476563 10 10v188.394532c0 5.523437-4.476562 10-10 10zm0 0" fill="#f85252"/><path d="m268.503906 41.929688v160.722656c0 5.519531-4.480468 10-10 10h-244.519531c-5.519531 0-10-4.480469-10-10v-188.402344c0-5.519531 4.480469-10 10-10h59.558594l27.320312 33.941406c1.902344 2.359375 4.761719 3.738282 7.78125 3.738282zm0 0" fill="#d8d6d7"/><path d="m226.460938 23.414062c0 4.078126-3.308594 7.386719-7.386719 7.386719s-7.386719-3.308593-7.386719-7.386719c0-4.082031 3.308594-7.386718 7.386719-7.386718s7.386719 3.304687 7.386719 7.386718zm0 0" fill="#fff"/><path d="m253.492188 23.414062c0 4.078126-3.304688 7.386719-7.382813 7.386719-4.082031 0-7.386719-3.308593-7.386719-7.386719 0-4.082031 3.304688-7.386718 7.386719-7.386718 4.078125 0 7.382813 3.304687 7.382813 7.386718zm0 0" fill="#fff"/><path d="m268.503906 250.210938v160.71875c0 5.519531-4.480468 10-10 10h-244.519531c-5.519531 0-10-4.480469-10-10v-188.402344c0-5.519532 4.480469-10 10-10h59.558594l27.320312 33.960937c1.902344 2.359375 4.761719 3.722657 7.78125 3.722657zm0 0" fill="#1c868e"/><path d="m268.503906 250.210938v160.71875c0 5.519531-4.480468 10-10 10h-244.519531c-5.519531 0-10-4.480469-10-10v-188.402344c0-5.519532 4.480469-10 10-10h59.558594l27.320312 33.960937c1.902344 2.359375 4.761719 3.722657 7.78125 3.722657zm0 0" fill="#d8d6d7"/><path d="m226.460938 231.703125c0 4.082031-3.308594 7.386719-7.386719 7.386719s-7.386719-3.304688-7.386719-7.386719c0-4.078125 3.308594-7.382813 7.386719-7.382813s7.386719 3.304688 7.386719 7.382813zm0 0" fill="#fff"/><path d="m253.492188 231.703125c0 4.082031-3.304688 7.386719-7.382813 7.386719-4.082031 0-7.386719-3.304688-7.386719-7.386719 0-4.078125 3.304688-7.382813 7.386719-7.382813 4.078125 0 7.382813 3.304688 7.382813 7.382813zm0 0" fill="#fff"/><path d="m268.503906 41.929688v140.722656c0 5.519531-4.480468 10-10 10h-244.519531c-5.519531 0-10-4.480469-10-10v-168.402344c0-5.519531 4.480469-10 10-10h59.558594l27.320312 33.941406c1.902344 2.359375 4.761719 3.738282 7.78125 3.738282zm0 0" fill="#fff"/><path d="m268.503906 250.210938v140.71875c0 5.519531-4.480468 10-10 10h-244.519531c-5.519531 0-10-4.480469-10-10v-168.402344c0-5.519532 4.480469-10 10-10h59.558594l27.320312 33.960937c1.902344 2.359375 4.761719 3.722657 7.78125 3.722657zm0 0" fill="#fff"/><path d="m490.453125 316.753906h-244.527344c-5.523437 0-10-4.476562-10-10v-188.394531c0-5.523437 4.476563-10 10-10h244.527344c5.523437 0 10 4.476563 10 10v188.394531c0 5.523438-4.476563 10-10 10zm0 0" fill="#f85252"/><path d="m500.445312 146.03125v160.71875c0 5.519531-4.460937 10-10 10h-244.519531c-5.523437 0-10-4.480469-10-10v-188.398438c0-5.519531 4.476563-10 10-10h59.558594l27.320313 33.960938c1.898437 2.359375 4.757812 3.71875 7.800781 3.71875zm0 0" fill="#d8d6d7"/><path d="m500.445312 146.03125v140.71875c0 5.519531-4.460937 10-10 10h-244.519531c-5.523437 0-10-4.480469-10-10v-168.398438c0-5.519531 4.476563-10 10-10h59.558594l27.320313 33.960938c1.898437 2.359375 4.757812 3.71875 7.800781 3.71875zm0 0" fill="#fff"/><path d="m458.40625 127.523438c0 4.082031-3.308594 7.386718-7.386719 7.386718s-7.386719-3.304687-7.386719-7.386718c0-4.078126 3.308594-7.382813 7.386719-7.382813s7.386719 3.304687 7.386719 7.382813zm0 0" fill="#fff"/><path d="m485.441406 127.523438c0 4.082031-3.308594 7.386718-7.386718 7.386718-4.078126 0-7.386719-3.304687-7.386719-7.386718 0-4.078126 3.308593-7.382813 7.386719-7.382813 4.078124 0 7.386718 3.304687 7.386718 7.382813zm0 0" fill="#fff"/><g fill="#491352"><path d="m44.394531 80.449219c-3.003906 0-5.441406 2.4375-5.441406 5.441406v67.605469c0 6.738281 10.203125 6.75 10.203125 0v-27.527344h15.027344c19.394531 0 27.023437-10.765625 27.023437-22.648438 0-12.785156-8.636719-22.875-27.023437-22.875h-19.789063zm36.382813 22.871093c0 8.746094-4.933594 14.238282-16.59375 14.238282h-15.027344v-28.703125h15.027344c11.660156 0 16.59375 5.382812 16.59375 14.464843zm0 0"/><path d="m114.0625 153.496094v-30.328125h39.804688v30.328125c0 6.738281 10.203124 6.75 10.203124 0v-67.945313c0-2.820312-2.285156-5.105469-5.101562-5.105469-2.820312 0-5.101562 2.285157-5.101562 5.105469v29.207031h-39.804688v-29.207031c0-2.820312-2.28125-5.105469-5.101562-5.105469-2.816407 0-5.101563 2.285157-5.101563 5.105469v67.945313c0 6.738281 10.203125 6.746094 10.203125 0zm0 0"/><path d="m191.527344 153.496094v-27.527344h15.027344c19.394531 0 27.019531-10.765625 27.019531-22.648438 0-12.785156-8.632813-22.875-27.019531-22.875h-19.785157c-3.007812 0-5.445312 2.4375-5.445312 5.445313v67.601563c0 6.742187 10.203125 6.75 10.203125.003906zm0-64.640625h15.027344c11.660156 0 16.59375 5.382812 16.59375 14.464843 0 8.746094-4.933594 14.238282-16.59375 14.238282h-15.027344zm0 0"/><path d="m66.175781 298.296875c10.113281 0 17.726563 4.199219 22.199219 11.785156.953125 1.625 2.675781 2.644531 4.5625 2.644531h.03125c4.355469 0 6.78125-4.929687 4.238281-8.464843-6.867187-9.542969-17.882812-14.773438-31.03125-14.773438-21.476562 0-38.328125 16.296875-38.328125 39.320313 0 23.015625 16.851563 39.097656 38.328125 39.097656 13.109375 0 24.097657-5.132812 30.964844-14.535156 2.578125-3.523438.144531-8.484375-4.222656-8.484375-1.875 0-3.589844 1.011719-4.546875 2.621093-4.472656 7.503907-12.085938 11.695313-22.195313 11.695313-16.078125 0-28.085937-11.675781-28.085937-30.394531 0-18.835938 12.003906-30.511719 28.085937-30.511719zm0 0"/><path d="m167.433594 322.746094h-19.21875v-19.660156c0-2.339844-1.898438-4.238282-4.242188-4.238282h-.878906c-2.339844 0-4.238281 1.898438-4.238281 4.238282v19.660156h-19.113281c-2.339844 0-4.238282 1.898437-4.238282 4.242187 0 2.339844 1.898438 4.238281 4.238282 4.238281h19.113281v19.550782c0 2.339844 1.898437 4.238281 4.238281 4.238281h.878906c2.34375 0 4.242188-1.898437 4.242188-4.238281v-19.550782h19.21875c2.339844 0 4.238281-1.898437 4.238281-4.238281 0-2.34375-1.898437-4.242187-4.238281-4.242187zm0 0"/><path d="m240.445312 322.746094h-19.21875v-19.660156c0-2.339844-1.898437-4.238282-4.242187-4.238282h-.878906c-2.339844 0-4.238281 1.898438-4.238281 4.238282v19.660156h-19.113282c-2.34375 0-4.238281 1.898437-4.238281 4.242187 0 2.339844 1.894531 4.238281 4.238281 4.238281h19.109375v19.550782c0 2.339844 1.898438 4.238281 4.242188 4.238281h.878906c2.339844 0 4.238281-1.898437 4.238281-4.238281v-19.550782h19.21875c2.34375 0 4.242188-1.898437 4.242188-4.238281 0-2.34375-1.898438-4.242187-4.238282-4.242187zm0 0"/><path d="m302.265625 181.324219h-1.566406c-1.886719 0-3.414063 1.527343-3.414063 3.414062v24.824219h-32.761718v-24.824219c0-1.886719-1.53125-3.414062-3.414063-3.414062h-1.570313c-1.886718 0-3.414062 1.527343-3.414062 3.414062v57.492188c0 1.886719 1.527344 3.414062 3.414062 3.414062h1.570313c1.882813 0 3.414063-1.527343 3.414063-3.414062v-25.746094h32.761718v25.746094c0 1.886719 1.527344 3.414062 3.414063 3.414062h1.566406c1.886719 0 3.414063-1.527343 3.414063-3.414062v-57.492188c0-1.886719-1.527344-3.414062-3.414063-3.414062zm0 0"/><path d="m315.929688 184.738281c0 1.882813 1.527343 3.414063 3.414062 3.414063h14.210938v54.078125c0 1.886719 1.53125 3.414062 3.414062 3.414062h1.570312c1.886719 0 3.414063-1.527343 3.414063-3.414062v-54.078125h14.121094c1.886719 0 3.414062-1.53125 3.414062-3.414063 0-1.886719-1.527343-3.414062-3.414062-3.414062h-36.730469c-1.886719 0-3.414062 1.527343-3.414062 3.414062zm0 0"/><path d="m373.242188 245.644531h1.570312c1.886719 0 3.414062-1.527343 3.414062-3.414062v-44.296875l20.414063 45.6875c.550781 1.230468 1.769531 2.023437 3.121094 2.023437h1.472656c1.351563 0 2.570313-.792969 3.121094-2.023437l20.320312-45.59375v44.207031c0 1.882813 1.527344 3.414063 3.414063 3.414063h1.570312c1.886719 0 3.414063-1.53125 3.414063-3.414063v-55.015625c0-3-2.433594-5.433594-5.433594-5.433594-2.140625 0-4.082031 1.257813-4.957031 3.210938l-22.1875 49.574218-22.1875-49.574218c-.875-1.957032-2.816406-3.210938-4.957032-3.210938h-.09375c-3 0-5.433593 2.433594-5.433593 5.433594v55.015625c.003906 1.882813 1.535156 3.410156 3.417969 3.410156zm0 0"/><path d="m454.960938 245.644531h21.835937c1.886719 0 3.414063-1.527343 3.414063-3.414062s-1.527344-3.414063-3.414063-3.414063h-19.101563v-54.078125c0-1.886719-1.53125-3.414062-3.414062-3.414062h-1.570312c-1.886719 0-3.414063 1.527343-3.414063 3.414062v55.242188c0 3.128906 2.535156 5.664062 5.664063 5.664062zm0 0"/><path d="m490.425781 104.332031h-217.902343v-90.117187c0-7.71875-6.285157-14-14-14-28.957032 0-238.609376 0-244.523438 0-7.71875 0-14 6.28125-14 14v188.398437c0 3.875 1.582031 7.382813 4.132812 9.917969-2.546874 2.539062-4.132812 6.046875-4.132812 9.921875v188.398437c0 7.71875 6.28125 14 14 14h244.523438c7.714843 0 14-6.28125 14-14v-90.121093h217.902343c7.71875 0 14-6.285157 14-14 0-23.015625 0-167.535157 0-188.398438 0-7.71875-6.28125-14-14-14zm-231.902343-96.117187c3.304687 0 6 2.691406 6 6v23.679687h-155.863282c-1.8125 0-3.511718-.820312-4.664062-2.25l-22.082032-27.429687zm-250.519532 6c0-3.308594 2.691406-6 6-6h57.640625l26.125 32.445312c2.675781 3.328125 6.644531 5.234375 10.890625 5.234375h155.863282v58.4375h-18.625c-7.714844 0-14 6.28125-14 14v90.121094h-217.894532c-.359375 0-.707031.027344-1.058594.054687-2.804687-.503906-4.941406-2.945312-4.941406-5.894531zm223.894532 202.398437v29.519531h-123.238282c-1.8125 0-3.515625-.816406-4.660156-2.226562l-21.957031-27.292969zm32.625 194.238281c0 3.308594-2.695313 6-6 6h-244.519532c-3.308594 0-6-2.691406-6-6v-188.398437c0-2.949219 2.136719-5.390625 4.941406-5.894531.351563.027344.699219.054687 1.058594.054687h57.769532l26.003906 32.320313c2.683594 3.304687 6.648437 5.199218 10.882812 5.199218h123.238282v52.597657c0 7.71875 6.28125 14 14 14h18.625zm231.902343-104.121093c0 3.308593-2.691406 6-6 6h-244.527343c-3.304688 0-6-2.691407-6-6v-56.578125c0-.003906.003906-.011719.003906-.019532 0-.007812-.003906-.011718-.003906-.019531v-37.480469c0-.003906.003906-.011718.003906-.019531 0-.007812-.003906-.011719-.003906-.019531v-.121094c0-.007812.003906-.011718.003906-.023437 0-.007813-.003906-.011719-.003906-.019531v-94.097657c0-3.308593 2.695312-6 6-6h57.644531l26.121093 32.457031c2.675782 3.316407 6.648438 5.21875 10.90625 5.21875h155.859376v156.722657zm0-164.722657h-155.855469c-1.828124 0-3.53125-.816406-4.675781-2.238281l-22.082031-27.4375h176.617188c3.304687 0 6 2.691407 6 6v23.675781zm0 0"/><path d="m260.742188 136h36.996093c2.207031 0 4-1.789062 4-4 0-2.207031-1.792969-4-4-4h-36.996093c-2.207032 0-4 1.792969-4 4 0 2.210938 1.792968 4 4 4zm0 0"/><path d="m450.992188 116.113281c-6.277344 0-11.382813 5.109375-11.382813 11.386719s5.109375 11.386719 11.382813 11.386719c6.28125 0 11.386718-5.109375 11.386718-11.386719s-5.105468-11.386719-11.386718-11.386719zm0 14.773438c-1.867188 0-3.382813-1.519531-3.382813-3.382813 0-1.867187 1.519531-3.386718 3.382813-3.386718 1.867187 0 3.386718 1.519531 3.386718 3.386718 0 1.863282-1.519531 3.382813-3.386718 3.382813zm0 0"/><path d="m478.027344 116.113281c-6.28125 0-11.386719 5.109375-11.386719 11.386719s5.109375 11.386719 11.386719 11.386719 11.382812-5.109375 11.382812-11.386719c.003906-6.277344-5.105468-11.386719-11.382812-11.386719zm0 14.773438c-1.871094 0-3.386719-1.519531-3.386719-3.382813 0-1.867187 1.519531-3.386718 3.386719-3.386718 1.863281 0 3.382812 1.519531 3.382812 3.386718 0 1.863282-1.515625 3.382813-3.382812 3.382813zm0 0"/><path d="m28.839844 31.878906h36.996094c5.28125 0 5.289062-8 0-8h-36.996094c-5.285156 0-5.292969 8 0 8zm0 0"/><path d="m219.089844 34.761719c6.277344 0 11.382812-5.109375 11.382812-11.382813 0-6.28125-5.105468-11.386718-11.382812-11.386718-6.28125 0-11.386719 5.105468-11.386719 11.386718 0 6.277344 5.109375 11.382813 11.386719 11.382813zm0-14.769531c1.867187 0 3.382812 1.519531 3.382812 3.386718 0 1.863282-1.515625 3.382813-3.382812 3.382813-1.867188 0-3.386719-1.519531-3.386719-3.382813 0-1.867187 1.519531-3.386718 3.386719-3.386718zm0 0"/><path d="m246.125 34.761719c6.277344 0 11.382812-5.109375 11.382812-11.382813 0-6.28125-5.109374-11.386718-11.382812-11.386718-6.28125 0-11.386719 5.105468-11.386719 11.386718 0 6.277344 5.105469 11.382813 11.386719 11.382813zm0-14.769531c1.867188 0 3.382812 1.519531 3.382812 3.386718 0 1.863282-1.519531 3.382813-3.382812 3.382813-1.867188 0-3.386719-1.519531-3.386719-3.382813 0-1.867187 1.519531-3.386718 3.386719-3.386718zm0 0"/><path d="m65.835938 240.128906c2.207031 0 4-1.792968 4-4 0-2.210937-1.792969-4-4-4h-36.996094c-2.207032 0-4 1.789063-4 4 0 2.207032 1.792968 4 4 4zm0 0"/><path d="m219.089844 243.011719c6.277344 0 11.382812-5.109375 11.382812-11.382813 0-6.28125-5.105468-11.386718-11.382812-11.386718-6.28125 0-11.386719 5.105468-11.386719 11.386718 0 6.277344 5.109375 11.382813 11.386719 11.382813zm0-14.769531c1.867187 0 3.382812 1.519531 3.382812 3.386718 0 1.863282-1.515625 3.382813-3.382812 3.382813-1.867188 0-3.386719-1.519531-3.386719-3.382813 0-1.867187 1.519531-3.386718 3.386719-3.386718zm0 0"/></g></svg>