<svg height="507pt" viewBox="0 -134 507.522 507" width="507pt" xmlns="http://www.w3.org/2000/svg"><path d="m479.761719 50.261719v13c0 5.519531 4.476562 10 10 10h9.71875c2.21875 0 4.039062 1.820312 4.039062 4.039062v21.421875c0 2.21875-1.820312 4.039063-4.039062 4.039063h-9.71875c-5.523438 0-10 4.480469-10 10v13c0 5.519531 4.476562 10 10 10h9.71875c2.21875 0 4.039062 1.820312 4.039062 4.039062v84.460938c0 5.519531-4.480469 10-10 10h-479.519531c-5.519531 0-10-4.480469-10-10v-84.460938c0-2.21875 1.820312-4.039062 4.039062-4.039062h9.722657c5.519531 0 10-4.480469 10-10v-13c0-5.519531-4.480469-10-10-10h-9.722657c-2.21875 0-4.039062-1.820313-4.039062-4.039063v-21.421875c0-2.21875 1.820312-4.039062 4.039062-4.039062h9.722657c5.519531 0 10-4.480469 10-10v-13c0-5.519531-4.480469-10-10-10h-9.722657c-2.21875 0-4.039062-1.820313-4.039062-4.039063v-21.960937c0-5.519531 4.480469-10 10-10h479.519531c5.519531 0 10 4.480469 10 10v21.960937c0 2.21875-1.820312 4.039063-4.039062 4.039063h-9.71875c-5.523438 0-10 4.480469-10 10zm0 0" fill="#40c4df"/><path d="m467.878906 190.921875v43.339844h-432.660156v-43.339844c0-5.519531 4.480469-10 10-10h412.660156c5.519532 0 10 4.480469 10 10zm0 0" fill="#d73735"/><path d="m467.878906 190.921875v43.339844h-408.660156v-43.339844c0-5.519531 4.480469-10 10-10h388.660156c5.519532 0 10 4.480469 10 10zm0 0" fill="#f85252"/><path d="m122.859375 39.601562v107.320313c0 5.519531-4.480469 10-10 10h-48.578125c-5.519531 0-10-4.480469-10-10v-107.320313c0-5.519531 4.480469-10 10-10h48.578125c5.519531 0 10 4.480469 10 10zm0 0" fill="#d8d6d7"/><path d="m216.359375 39.601562v107.320313c0 5.519531-4.480469 10-10 10h-48.578125c-5.519531 0-10-4.480469-10-10v-107.320313c0-5.519531 4.480469-10 10-10h48.578125c5.519531 0 10 4.480469 10 10zm0 0" fill="#d8d6d7"/><path d="m359.738281 39.601562v107.320313c0 5.519531-4.476562 10-10 10h-48.578125c-5.519531 0-10-4.480469-10-10v-107.320313c0-5.519531 4.480469-10 10-10h48.578125c5.523438 0 10 4.480469 10 10zm0 0" fill="#d8d6d7"/><path d="m453.238281 39.601562v107.320313c0 5.519531-4.476562 10-10 10h-48.578125c-5.519531 0-10-4.480469-10-10v-107.320313c0-5.519531 4.480469-10 10-10h48.578125c5.523438 0 10 4.480469 10 10zm0 0" fill="#d8d6d7"/><path d="m122.859375 39.601562v107.320313c0 5.519531-4.480469 10-10 10h-25.917969c-5.519531 0-10-4.480469-10-10v-107.320313c0-5.519531 4.480469-10 10-10h25.917969c5.519531 0 10 4.480469 10 10zm0 0" fill="#fff"/><path d="m216.359375 39.601562v107.320313c0 5.519531-4.480469 10-10 10h-25.917969c-5.519531 0-10-4.480469-10-10v-107.320313c0-5.519531 4.480469-10 10-10h25.917969c5.519531 0 10 4.480469 10 10zm0 0" fill="#fff"/><path d="m359.738281 39.601562v107.320313c0 5.519531-4.476562 10-10 10h-25.917969c-5.519531 0-10-4.480469-10-10v-107.320313c0-5.519531 4.480469-10 10-10h25.917969c5.523438 0 10 4.480469 10 10zm0 0" fill="#fff"/><path d="m453.238281 39.601562v107.320313c0 5.519531-4.476562 10-10 10h-25.917969c-5.519531 0-10-4.480469-10-10v-107.320313c0-5.519531 4.480469-10 10-10h25.917969c5.523438 0 10 4.480469 10 10zm0 0" fill="#fff"/><g fill="#491352"><path d="m489.761719 44.261719h9.710937c4.4375 0 8.046875-3.609375 8.046875-8.046875v-21.953125c0-7.722657-6.28125-14-14-14h-479.519531c-7.71875 0-14 6.277343-14 14v21.953125c0 4.4375 3.609375 8.046875 8.046875 8.046875h9.714844c3.304687 0 6 2.691406 6 6v13c0 3.308593-2.695313 6-6 6h-9.714844c-4.4375 0-8.04296875 3.609375-8.04296875 8.046875v21.40625c0 4.4375 3.60937475 8.042968 8.04296875 8.042968h9.714844c3.304687 0 6 2.691407 6 6v13c0 3.308594-2.695313 6-6 6h-9.714844c-4.4375 0-8.04296875 3.609376-8.04296875 8.046876v84.457031c0 7.71875 6.27734375 14 13.99999975 14h479.519532c7.71875 0 14-6.28125 14-14v-84.453125c0-4.441406-3.613282-8.046875-8.046876-8.046875h-9.714843c-3.308594 0-6-2.691407-6-6v-13c0-3.308594 2.691406-6 6-6h9.710937c4.4375 0 8.046875-3.609375 8.046875-8.046875v-21.40625c0-4.4375-3.613281-8.046875-8.046875-8.046875h-9.710937c-3.308594 0-6-2.691407-6-6v-13c0-3.308594 2.691406-6 6-6zm-25.886719 186h-19.113281v-45.335938h13.113281c3.308594 0 6 2.691407 6 6zm-27.113281 0h-23.167969v-45.335938h23.167969zm-31.167969 0h-23.164062v-45.335938h23.164062zm-31.167969 0h-23.164062v-45.335938h23.164062zm-31.164062 0h-23.167969v-45.335938h23.167969zm-31.167969 0h-23.164062v-45.335938h23.164062zm-31.167969 0h-23.164062v-45.335938h23.164062zm-31.164062 0h-23.167969v-45.335938h23.167969zm-31.167969 0h-23.167969v-45.335938h23.167969zm-31.167969 0h-23.164062v-45.335938h23.164062zm-31.164062 0h-23.167969v-45.335938h23.167969zm-31.167969 0h-23.167969v-45.335938h23.167969zm-31.167969 0h-23.164062v-45.335938h23.164062zm-31.164062 0h-23.546875v-39.335938c0-3.308593 2.691406-6 6-6h17.546875zm427-153 9.757812.046875-.046875 21.453125h-9.710937c-7.722657 0-14 6.277343-14 14v13c0 7.71875 6.277343 14 14 14l9.757812.046875v84.453125c0 3.308593-2.691406 6-6 6h-21.644531v-39.335938c0-7.71875-6.28125-14-14-14h-412.660156c-7.71875 0-14 6.28125-14 14v39.335938h-17.214844c-3.308594 0-6-2.691407-6-6l.046875-84.5h9.714844c7.71875 0 14-6.28125 14-14v-13c0-7.722657-6.28125-14-14-14l-9.761719-.046875.046875-21.453125h9.714844c7.71875 0 14-6.28125 14-14v-13c0-7.722657-6.28125-14-14-14l-9.761719-.046875v-21.953125c0-3.308594 2.691406-6 6-6h479.519531c3.308594 0 6 2.691406 6 6l-.046875 22h-9.710937c-7.722657 0-14 6.277343-14 14v13c0 7.71875 6.277343 14 14 14zm0 0"/><path d="m112.863281 25.59375h-48.582031c-7.722656 0-14 6.28125-14 14v107.335938c0 7.71875 6.277344 14 14 14h48.582031c7.722657 0 14-6.28125 14-14v-107.335938c0-7.71875-6.277343-14-14-14zm6 121.332031c0 3.308594-2.691406 6-6 6h-48.582031c-3.308594 0-6-2.691406-6-6v-107.332031c0-3.308594 2.691406-6 6-6h48.582031c3.308594 0 6 2.691406 6 6zm0 0"/><path d="m206.363281 25.59375h-48.582031c-7.722656 0-14 6.28125-14 14v107.335938c0 7.71875 6.277344 14 14 14h48.582031c7.722657 0 14-6.28125 14-14v-107.335938c0-7.71875-6.277343-14-14-14zm6 121.332031c0 3.308594-2.691406 6-6 6h-48.582031c-3.308594 0-6-2.691406-6-6v-107.332031c0-3.308594 2.691406-6 6-6h48.582031c3.308594 0 6 2.691406 6 6zm0 0"/><path d="m349.738281 25.59375h-48.582031c-7.71875 0-14 6.28125-14 14v107.335938c0 7.71875 6.28125 14 14 14h48.582031c7.722657 0 14-6.28125 14-14v-107.335938c0-7.71875-6.277343-14-14-14zm6 121.332031c0 3.308594-2.691406 6-6 6h-48.582031c-3.308594 0-6-2.691406-6-6v-107.332031c0-3.308594 2.691406-6 6-6h48.582031c3.308594 0 6 2.691406 6 6zm0 0"/><path d="m443.238281 25.59375h-48.582031c-7.71875 0-14 6.28125-14 14v107.335938c0 7.71875 6.28125 14 14 14h48.582031c7.722657 0 14-6.28125 14-14v-107.335938c0-7.71875-6.277343-14-14-14zm6 121.332031c0 3.308594-2.691406 6-6 6h-48.582031c-3.308594 0-6-2.691406-6-6v-107.332031c0-3.308594 2.691406-6 6-6h48.582031c3.308594 0 6 2.691406 6 6zm0 0"/></g></svg>