<svg height="508pt" viewBox="-5 0 508 508.998" width="508pt" xmlns="http://www.w3.org/2000/svg"><path d="m483.9375 4h-469.4375c-5.523438 0-10 4.476562-10 10v305.792969c0 5.523437 4.476562 10 10 10h469.4375c5.523438 0 10-4.476563 10-10v-305.792969c0-5.523438-4.476562-10-10-10zm0 0" fill="#d8d6d7"/><path d="m457.9375 30.5h-417.4375c-5.519531 0-10 4.480469-10 10v253.800781c0 5.519531 4.480469 10 10 10h417.4375c5.523438 0 10-4.480469 10-10v-253.800781c0-5.519531-4.476562-10-10-10zm0 0" fill="#56c1b3"/><path d="m457.9375 30h-373.9375c-5.523438 0-10 4.476562-10 10v253.800781c0 5.519531 4.476562 10 10 10h373.9375c5.523438 0 10-4.480469 10-10v-253.800781c0-5.523438-4.476562-10-10-10zm0 0" fill="#7befe4"/><path d="m221.558594 329.800781h55.320312v131.859375h-55.320312zm0 0" fill="#d8d6d7"/><path d="m255.398438 329.800781h21.480468v131.859375h-21.480468zm0 0" fill="#fff"/><path d="m376.558594 471.660156v23.339844c0 5.519531-4.480469 10-10 10h-234.679688c-5.519531 0-10-4.480469-10-10v-23.339844c0-5.519531 4.480469-10 10-10h234.679688c5.519531 0 10 4.480469 10 10zm0 0" fill="#d8d6d7"/><path d="m376.558594 471.660156v23.339844c0 5.519531-4.480469 10-10 10h-202.679688c-5.519531 0-10-4.480469-10-10v-23.339844c0-5.519531 4.480469-10 10-10h202.679688c5.519531 0 10 4.480469 10 10zm0 0" fill="#fff"/><path d="m327.21875 129.5c0 25.578125-12.3125 48.289062-31.34375 62.503906-12.996094 9.730469-29.152344 15.496094-46.65625 15.496094-17.5 0-33.65625-5.765625-46.65625-15.496094-19.03125-14.214844-31.34375-36.925781-31.34375-62.503906 0-43.078125 34.921875-78 78-78 43.082031 0 78 34.921875 78 78zm0 0" fill="#fff"/><path d="m295.875 171.113281v20.890625c-12.996094 9.730469-29.152344 15.496094-46.65625 15.496094-17.5 0-33.65625-5.765625-46.65625-15.496094v-20.890625c0-8.347656 2.234375-16.386719 6.261719-23.347656 4.027343-6.984375 9.875-12.914063 17.105469-17.085937 2.4375-1.40625 4.960937-2.542969 7.542968-3.472657-6.570312-4.835937-10.867187-12.605469-10.867187-21.40625 0-14.691406 11.921875-26.59375 26.613281-26.59375 14.6875 0 26.609375 11.902344 26.609375 26.59375 0 8.800781-4.296875 16.570313-10.867187 21.40625 2.582031.929688 5.105468 2.066407 7.542968 3.472657 14.464844 8.324218 23.371094 23.738281 23.371094 40.433593zm0 0" fill="#f85252"/><path d="m347.09375 281h-195.75c-11.046875 0-20-8.953125-20-20v-13c0-11.046875 8.953125-20 20-20h195.75c11.046875 0 20 8.953125 20 20v13c0 11.046875-8.953125 20-20 20zm0 0" fill="#fff"/><g fill="#491352"><path d="m483.9375 0h-469.4375c-7.71875 0-14 6.28125-14 14v305.792969c0 7.71875 6.28125 14 14 14h203.058594v123.863281h-85.671875c-7.71875 0-14 6.28125-14 14v23.339844c0 7.722656 6.28125 14 14 14h234.667969c7.714843 0 14-6.277344 14-14v-23.339844c0-7.71875-6.285157-14-14-14h-85.675782v-123.863281h203.058594c7.71875 0 14-6.28125 14-14v-305.792969c0-7.71875-6.277344-14-14-14zm-117.382812 465.65625c3.304687 0 6 2.691406 6 6v23.34375c0 3.308594-2.695313 6-6 6h-234.667969c-3.308594 0-6-2.691406-6-6v-23.34375c0-3.304688 2.691406-6 6-6h89.640625c.011718 0 .023437.003906.03125.003906h55.320312c.011719 0 .019532-.003906.03125-.003906zm-140.996094-8v-123.863281h47.320312v123.863281zm264.378906-137.863281c0 3.308593-2.691406 6-6 6h-469.4375c-3.308594 0-6-2.691407-6-6v-305.792969c0-3.308594 2.691406-6 6-6h469.4375c3.308594 0 6 2.691406 6 6zm0 0"/><path d="m457.9375 26h-417.4375c-7.71875 0-14 6.28125-14 14v253.792969c0 7.71875 6.28125 14 14 14h417.441406c7.71875 0 14-6.28125 14-14v-253.792969c-.003906-7.71875-6.28125-14-14.003906-14zm6.003906 267.792969h-.003906c0 3.308593-2.691406 6-6 6h-417.4375c-3.308594 0-6-2.691407-6-6v-253.792969c0-3.308594 2.691406-6 6-6h417.441406c3.308594 0 6 2.691406 6 6zm0 0"/><path d="m249.21875 211.5c44.503906 0 82-35.796875 82-82 0-45.214844-36.785156-82-82-82s-82 36.785156-82 82c0 46.195312 37.492188 82 82 82zm42.660156-21.546875c-25.542968 18.113281-59.875 18.054687-85.316406 0v-18.835937c0-7.496094 1.976562-14.875 5.726562-21.351563 4.832032-8.378906 12.59375-15.214844 22.539063-18.792969 3.007813-1.082031 3.59375-5.089844 1.019531-6.988281-5.875-4.320313-9.242187-10.945313-9.242187-18.183594 0-12.457031 10.144531-22.589843 22.617187-22.589843 12.46875 0 22.613282 10.132812 22.613282 22.589843 0 7.238281-3.367188 13.863281-9.242188 18.183594-2.570312 1.894531-1.992188 5.90625 1.019531 6.988281 17.589844 6.335938 28.265625 22.820313 28.265625 40.144532zm-42.660156-134.453125c40.804688 0 74 33.195312 74 74 0 20.761719-8.417969 39.996094-23.34375 53.941406v-12.328125c0-19.460937-11.179688-36.796875-27.679688-45.148437 4.859376-5.535156 7.636719-12.710938 7.636719-20.164063 0-16.871093-13.734375-30.59375-30.613281-30.59375-16.882812 0-30.617188 13.726563-30.617188 30.59375 0 7.449219 2.78125 14.628907 7.636719 20.164063-8.46875 4.277344-15.902343 11.171875-20.878906 19.796875-4.449219 7.6875-6.796875 16.453125-6.796875 25.351562v12.324219c-14.921875-13.9375-23.34375-33.175781-23.34375-53.9375 0-40.804688 33.195312-74 74-74zm0 0"/><path d="m347.09375 224h-195.75c-13.234375 0-24 10.765625-24 24v13c0 13.234375 10.765625 24 24 24h195.75c13.234375 0 24-10.765625 24-24v-13c0-13.234375-10.765625-24-24-24zm16 37c0 8.820312-7.179688 16-16 16h-195.75c-8.824219 0-16-7.179688-16-16v-13c0-8.820312 7.175781-16 16-16h195.75c8.820312 0 16 7.179688 16 16zm0 0"/><path d="m218.796875 246.085938c-1.109375-1.914063-3.554687-2.574219-5.464844-1.464844l-5.113281 2.949218v-5.902343c0-2.207031-1.792969-4-4-4s-4 1.792969-4 4v5.902343l-5.113281-2.949218c-1.921875-1.109375-4.359375-.449219-5.464844 1.464844-1.105469 1.910156-.449219 4.359374 1.464844 5.460937l5.113281 2.953125-5.113281 2.953125c-1.914063 1.105469-2.570313 3.550781-1.464844 5.464844 1.109375 1.917969 3.5625 2.566406 5.464844 1.464843l5.113281-2.953124v5.90625c0 2.207031 1.792969 4 4 4s4-1.792969 4-4v-5.90625l5.113281 2.953124c1.917969 1.105469 4.359375.449219 5.464844-1.464843 1.105469-1.914063.449219-4.359375-1.464844-5.464844l-5.113281-2.953125 5.113281-2.953125c1.914063-1.105469 2.570313-3.550781 1.464844-5.460937zm0 0"/><path d="m263.796875 246.085938c-1.109375-1.914063-3.554687-2.574219-5.464844-1.464844l-5.113281 2.949218v-5.902343c0-2.207031-1.792969-4-4-4s-4 1.792969-4 4v5.902343l-5.113281-2.949218c-1.921875-1.109375-4.359375-.449219-5.464844 1.464844-1.105469 1.910156-.449219 4.359374 1.464844 5.460937l5.113281 2.953125-5.113281 2.953125c-1.914063 1.105469-2.570313 3.550781-1.464844 5.464844 1.109375 1.917969 3.5625 2.566406 5.464844 1.464843l5.113281-2.953124v5.90625c0 2.207031 1.792969 4 4 4s4-1.792969 4-4v-5.90625l5.113281 2.953124c1.917969 1.105469 4.359375.449219 5.464844-1.464843 1.105469-1.914063.449219-4.359375-1.464844-5.464844l-5.113281-2.953125 5.113281-2.953125c1.914063-1.105469 2.570313-3.550781 1.464844-5.460937zm0 0"/><path d="m308.796875 246.085938c-1.105469-1.914063-3.554687-2.574219-5.464844-1.464844l-5.113281 2.949218v-5.902343c0-2.207031-1.792969-4-4-4s-4 1.792969-4 4v5.902343l-5.113281-2.949218c-1.921875-1.109375-4.359375-.449219-5.464844 1.464844-1.105469 1.910156-.449219 4.359374 1.464844 5.460937l5.113281 2.953125-5.113281 2.953125c-1.914063 1.105469-2.570313 3.550781-1.464844 5.464844 1.109375 1.917969 3.5625 2.566406 5.464844 1.464843l5.113281-2.953124v5.90625c0 2.207031 1.792969 4 4 4s4-1.792969 4-4v-5.90625l5.113281 2.953124c1.917969 1.105469 4.359375.449219 5.464844-1.464843 1.105469-1.914063.449219-4.359375-1.464844-5.464844l-5.113281-2.953125 5.113281-2.953125c1.914063-1.105469 2.570313-3.550781 1.464844-5.460937zm0 0"/></g></svg>