<svg height="507pt" viewBox="0 -106 507.29 507" width="507pt" xmlns="http://www.w3.org/2000/svg"><path d="m503.285156 14.140625v266.679687c0 5.519532-4.480468 10-10 10h-479.28125c-5.519531 0-10-4.480468-10-10v-266.679687c0-5.523437 4.480469-10 10-10h479.28125c5.519532 0 10 4.476563 10 10zm0 0" fill="#1c868e"/><path d="m503.285156 14.140625v266.679687c0 5.519532-4.480468 10-10 10h-458.082031c-5.519531 0-10-4.480468-10-10v-266.679687c0-5.523437 4.480469-10 10-10h458.082031c5.519532 0 10 4.476563 10 10zm0 0" fill="#40c4df"/><path d="m472.144531 175.480469h-66.058593c-5.523438 0-10-4.480469-10-10v-125c0-5.523438 4.476562-10 10-10h66.058593c5.519531 0 10 4.476562 10 10v125c0 5.519531-4.480469 10-10 10zm0 0" fill="#1c868e"/><path d="m464.144531 58.480469v89c0 5.519531-4.480469 10-10 10h-30.058593c-5.523438 0-10-4.480469-10-10v-89c0-5.519531 4.476562-10 10-10h30.058593c5.519531 0 10 4.480469 10 10zm0 0" fill="#d8d6d7"/><path d="m464.144531 58.480469v89c0 5.519531-4.480469 10-10 10h-15c-5.519531 0-10-4.480469-10-10v-89c0-5.519531 4.480469-10 10-10h15c5.519531 0 10 4.480469 10 10zm0 0" fill="#fff"/><path d="m449.082031 124.980469c0 5.503906-4.460937 9.964843-9.96875 9.964843-5.503906 0-9.96875-4.460937-9.96875-9.964843 0-5.507813 4.464844-9.96875 9.96875-9.96875 5.507813 0 9.96875 4.460937 9.96875 9.96875zm0 0" fill="#40c4df"/><path d="m235.625 40.480469v64.839843c0 5.519532-4.480469 10-10 10h-190.421875c-5.519531 0-10-4.480468-10-10v-64.839843c0-5.519531 4.480469-10 10-10h190.421875c5.519531 0 10 4.480469 10 10zm0 0" fill="#d8d6d7"/><path d="m75.765625 159.539062c0 9.359376-5.082031 17.519532-12.640625 21.898438-3.722656 2.160156-8.039062 3.382812-12.640625 3.382812-13.960937 0-25.28125-11.320312-25.28125-25.28125 0-13.960937 11.320313-25.28125 25.28125-25.28125 4.601563 0 8.917969 1.222657 12.640625 3.382813 7.558594 4.378906 12.640625 12.539063 12.640625 21.898437zm0 0" fill="#d8d6d7"/><path d="m153.824219 159.539062c0 9.359376-5.082031 17.519532-12.640625 21.898438-3.71875 2.160156-8.039063 3.382812-12.640625 3.382812-13.957031 0-25.277344-11.320312-25.277344-25.28125 0-13.960937 11.320313-25.28125 25.277344-25.28125 4.601562 0 8.921875 1.222657 12.640625 3.382813 7.558594 4.378906 12.640625 12.539063 12.640625 21.898437zm0 0" fill="#d8d6d7"/><path d="m75.765625 159.539062c0-12.09375-5.660156-21.898437-12.640625-21.898437s-12.640625 9.804687-12.640625 21.898437 5.660156 21.898438 12.640625 21.898438 12.640625-9.804688 12.640625-21.898438zm0 0" fill="#fff"/><path d="m153.824219 159.539062c0-12.09375-5.660157-21.898437-12.640625-21.898437-6.980469 0-12.640625 9.804687-12.640625 21.898437s5.660156 21.898438 12.640625 21.898438c6.980468 0 12.640625-9.804688 12.640625-21.898438zm0 0" fill="#fff"/><path d="m358.125 72.898438c0 18.941406-12.460938 34.980468-29.640625 40.339843-4 1.242188-8.242187 1.921875-12.640625 1.921875-23.339844 0-42.257812-18.921875-42.257812-42.261718 0-23.339844 18.917968-42.257813 42.257812-42.257813 4.398438 0 8.640625.679687 12.640625 1.917969 17.179687 5.359375 29.640625 21.402344 29.640625 40.339844zm0 0" fill="#d8d6d7"/><path d="m235.625 40.480469v64.839843c0 5.519532-4.480469 10-10 10h-165.140625c-5.519531 0-10-4.480468-10-10v-64.839843c0-5.519531 4.480469-10 10-10h165.140625c5.519531 0 10 4.480469 10 10zm0 0" fill="#fff"/><path d="m358.125 72.898438c0 18.941406-12.460938 34.980468-29.640625 40.339843-17.160156-5.359375-29.621094-21.398437-29.621094-40.339843 0-18.9375 12.460938-34.980469 29.621094-40.339844 17.179687 5.359375 29.640625 21.402344 29.640625 40.339844zm0 0" fill="#fff"/><g fill="#491352"><path d="m493.289062.144531h-479.289062c-7.71875 0-14 6.28125-14 14v266.671875c0 7.71875 6.28125 14 14 14h479.289062c7.71875 0 14-6.28125 14-14v-266.671875c0-7.71875-6.28125-14-14-14zm6 280.667969c0 3.308594-2.691406 6-6 6h-479.289062c-3.308594 0-6-2.691406-6-6v-266.667969c0-3.308593 2.691406-6 6-6h479.289062c3.308594 0 6 2.691407 6 6zm0 0"/><path d="m406.085938 179.480469h66.058593c7.71875 0 14-6.28125 14-14v-125c0-7.722657-6.28125-14-14-14h-66.058593c-7.71875 0-14 6.277343-14 14v125c0 7.71875 6.28125 14 14 14zm-6-139c0-3.308594 2.691406-6 6-6h66.058593c3.308594 0 6 2.691406 6 6v125c0 3.304687-2.691406 6-6 6h-66.058593c-3.308594 0-6-2.695313-6-6zm0 0"/><path d="m424.085938 161.480469h30.058593c7.71875 0 14-6.28125 14-14v-89c0-7.722657-6.28125-14-14-14h-30.058593c-7.71875 0-14 6.277343-14 14v89c0 7.71875 6.28125 14 14 14zm-6-103c0-3.308594 2.691406-6 6-6h30.058593c3.308594 0 6 2.691406 6 6v89c0 3.304687-2.691406 6-6 6h-30.058593c-3.308594 0-6-2.695313-6-6zm0 0"/><path d="m53.449219 204.1875-29.957031 61.21875c-2.320313 4.746094 4.863281 8.265625 7.191406 3.515625l29.953125-61.21875c2.320312-4.742187-4.859375-8.265625-7.1875-3.515625zm0 0"/><path d="m78.390625 204.1875-29.953125 61.21875c-2.347656 4.796875 4.882812 8.222656 7.1875 3.515625l29.953125-61.21875c2.320313-4.742187-4.855469-8.265625-7.1875-3.515625zm0 0"/><path d="m103.335938 204.1875-29.953126 61.21875c-2.347656 4.796875 4.882813 8.222656 7.1875 3.515625l29.953126-61.21875c2.320312-4.742187-4.859376-8.265625-7.1875-3.515625zm0 0"/><path d="m128.28125 204.1875-29.957031 61.21875c-1.300781 2.664062.652343 5.757812 3.589843 5.757812 1.480469 0 2.902344-.824218 3.601563-2.242187l29.953125-61.21875c2.320312-4.738281-4.851562-8.269531-7.1875-3.515625zm0 0"/><path d="m153.222656 204.1875-29.953125 61.21875c-1.300781 2.664062.652344 5.757812 3.589844 5.757812 1.480469 0 2.902344-.824218 3.597656-2.242187l29.953125-61.21875c2.320313-4.742187-4.855468-8.265625-7.1875-3.515625zm0 0"/><path d="m178.167969 204.1875-29.953125 61.21875c-1.304688 2.664062.648437 5.757812 3.589844 5.757812 1.480468 0 2.902343-.824218 3.597656-2.242187l29.953125-61.21875c2.320312-4.742187-4.859375-8.265625-7.1875-3.515625zm0 0"/><path d="m203.109375 204.1875-29.953125 61.21875c-1.300781 2.664062.648438 5.757812 3.589844 5.757812 3.53125 0 1.339844 2.375 33.550781-63.460937 2.324219-4.742187-4.855469-8.265625-7.1875-3.515625zm0 0"/><path d="m228.054688 204.1875-29.953126 61.21875c-.96875 1.984375-.148437 4.378906 1.835938 5.351562.566406.277344 1.164062.40625 1.753906.40625 3.53125 0 1.339844 2.375 33.550782-63.460937 2.320312-4.742187-4.855469-8.265625-7.1875-3.515625zm0 0"/><path d="m253 204.1875-29.953125 61.21875c-.972656 1.984375-.148437 4.378906 1.835937 5.351562 1.996094.976563 4.386719.136719 5.351563-1.835937l29.953125-61.21875c2.320312-4.738281-4.851562-8.269531-7.1875-3.515625zm0 0"/><path d="m277.941406 204.1875-29.953125 61.21875c-.96875 1.984375-.148437 4.378906 1.835938 5.351562 1.996093.976563 4.386719.136719 5.351562-1.835937l29.953125-61.21875c2.324219-4.742187-4.855468-8.265625-7.1875-3.515625zm0 0"/><path d="m302.886719 204.1875-29.953125 61.21875c-.96875 1.984375-.148438 4.378906 1.835937 5.351562 1.996094.976563 4.386719.136719 5.351563-1.835937l29.953125-61.21875c2.320312-4.742187-4.855469-8.265625-7.1875-3.515625zm0 0"/><path d="m327.832031 204.1875-29.953125 61.21875c-.972656 1.984375-.148437 4.378906 1.835938 5.351562 1.996094.976563 4.386718.136719 5.351562-1.835937l29.953125-61.21875c2.320313-4.742187-4.859375-8.265625-7.1875-3.515625zm0 0"/><path d="m352.773438 204.1875-29.953126 61.21875c-.96875 1.984375-.148437 4.378906 1.835938 5.351562 1.996094.976563 4.386719.136719 5.351562-1.835937l29.953126-61.21875c2.324218-4.742187-4.855469-8.265625-7.1875-3.515625zm0 0"/><path d="m377.71875 204.1875-29.953125 61.21875c-.96875 1.984375-.148437 4.378906 1.835937 5.351562 1.996094.976563 4.386719.136719 5.351563-1.835937l29.953125-61.21875c2.320312-4.742187-4.855469-8.265625-7.1875-3.515625zm0 0"/><path d="m402.664062 204.1875-29.953124 61.21875c-.972657 1.984375-.148438 4.378906 1.835937 5.351562 1.996094.976563 4.386719.136719 5.351563-1.835937l29.953124-61.21875c2.320313-4.742187-4.859374-8.265625-7.1875-3.515625zm0 0"/><path d="m427.605469 204.1875-29.953125 61.21875c-.96875 1.984375-.148438 4.378906 1.835937 5.351562 1.996094.976563 4.386719.136719 5.351563-1.835937l29.953125-61.21875c2.324219-4.742187-4.855469-8.265625-7.1875-3.515625zm0 0"/><path d="m452.550781 204.1875-29.953125 61.21875c-.96875 1.984375-.148437 4.378906 1.835938 5.351562 1.996094.976563 4.386718.136719 5.351562-1.835937l29.953125-61.21875c2.320313-4.742187-4.859375-8.265625-7.1875-3.515625zm0 0"/><path d="m477.496094 204.1875-29.953125 61.21875c-1.304688 2.664062.648437 5.757812 3.589843 5.757812 3.527344 0 1.335938 2.375 33.550782-63.460937 2.320312-4.742187-4.859375-8.265625-7.1875-3.515625zm0 0"/><path d="m487.453125 234.820312-14.957031 30.582032c-1.300782 2.660156.648437 5.757812 3.589844 5.757812 3.335937 0 2.464843.074219 18.554687-32.824218 2.324219-4.746094-4.855469-8.269532-7.1875-3.515626zm0 0"/><path d="m27.605469 204.1875-14.960938 30.582031c-2.347656 4.796875 4.882813 8.222657 7.191407 3.515625l14.957031-30.582031c2.320312-4.742187-4.855469-8.265625-7.1875-3.515625zm0 0"/><path d="m441.0625 86.34375v-15.332031c0-5.285157-8-5.292969-8 0v15.332031c0 5.289062 8 5.292969 8 0zm0 0"/><path d="m439.113281 138.945312c7.703125 0 13.964844-6.265624 13.964844-13.964843 0-7.703125-6.265625-13.96875-13.964844-13.96875s-13.964843 6.265625-13.964843 13.96875c0 7.699219 6.265624 13.964843 13.964843 13.964843zm5.96875-13.964843c0 7.882812-11.933593 7.886719-11.933593 0s11.933593-7.890625 11.933593 0zm0 0"/><path d="m35.199219 119.3125h190.417969c7.71875 0 14-6.28125 14-14v-64.832031c0-7.722657-6.28125-14-14-14h-190.417969c-7.71875 0-14 6.277343-14 14v64.832031c0 7.71875 6.28125 14 14 14zm-6-78.832031c0-3.308594 2.691406-6 6-6h190.417969c3.308593 0 6 2.691406 6 6v64.832031c0 3.308594-2.691407 6-6 6h-190.417969c-3.308594 0-6-2.691406-6-6zm0 0"/><path d="m50.476562 188.8125c16.144532 0 29.28125-13.132812 29.28125-29.28125 0-16.144531-13.132812-29.277344-29.28125-29.277344-16.144531 0-29.277343 13.136719-29.277343 29.277344 0 16.144531 13.136719 29.28125 29.277343 29.28125zm0-50.558594c10.367188 0 19.011719 7.457032 20.890626 17.277344h-12.546876c-5.28125 0-5.289062 8 0 8h12.546876c-1.878907 9.828125-10.523438 17.28125-20.890626 17.28125-11.734374 0-21.277343-9.546875-21.277343-21.28125 0-11.730469 9.542969-21.277344 21.277343-21.277344zm0 0"/><path d="m99.261719 159.53125c0 16.144531 13.132812 29.28125 29.28125 29.28125 16.144531 0 29.277343-13.132812 29.277343-29.28125 0-16.144531-13.132812-29.277344-29.277343-29.277344-16.148438 0-29.28125 13.136719-29.28125 29.277344zm50.167969-4h-12.546876c-2.207031 0-4 1.792969-4 4 0 2.210938 1.792969 4 4 4h12.546876c-1.878907 9.828125-10.523438 17.28125-20.890626 17.28125-11.734374 0-21.277343-9.546875-21.277343-21.28125 0-11.730469 9.542969-21.277344 21.277343-21.277344 10.367188 0 19.011719 7.453125 20.890626 17.277344zm0 0"/><path d="m315.851562 119.160156c25.511719 0 46.269532-20.753906 46.269532-46.265625s-20.757813-46.265625-46.269532-46.265625c-25.511718 0-46.265624 20.753906-46.265624 46.265625s20.753906 46.265625 46.265624 46.265625zm0-84.53125c21.101563 0 38.269532 17.167969 38.269532 38.265625 0 21.101563-17.167969 38.265625-38.269532 38.265625-21.097656 0-38.265624-17.164062-38.265624-38.265625 0-21.097656 17.167968-38.265625 38.265624-38.265625zm0 0"/><path d="m300.78125 78.417969c7.296875 0 7.304688-11.046875 0-11.046875-7.300781 0-7.308594 11.046875 0 11.046875zm0 0"/><path d="m336.445312 72.894531c0-7.296875-11.046874-7.304687-11.046874 0 0 7.3125 11.046874 7.296875 11.046874 0zm0 0"/></g></svg>