<svg height="497pt" viewBox="-103 0 497 497" width="497pt" xmlns="http://www.w3.org/2000/svg"><path d="m287.800781 98.839844v384.160156c0 5.519531-4.480469 10-10 10h-263.800781c-5.519531 0-10-4.480469-10-10v-384.160156c0-5.519532 4.480469-10 10-10h107.558594v112.980468h-41.71875l32.140625 39.621094 33.917969 41.820313 13.761718-16.960938 20.160156-24.859375 32.140626-39.621094h-41.722657v-112.980468h107.5625c5.519531 0 10 4.480468 10 10zm0 0" fill="#1c868e"/><path d="m287.800781 98.839844v315.058594c0 5.523437-4.480469 10-10 10h-263.800781c-5.519531 0-10-4.476563-10-10v-315.058594c0-5.519532 4.480469-10 10-10h107.558594v112.980468h-41.71875l32.140625 39.621094 33.917969 41.820313 33.921874-41.820313 32.140626-39.621094h-41.722657v-112.980468h107.5625c5.519531 0 10 4.480468 10 10zm0 0" fill="#56c1b3"/><path d="m287.800781 98.839844v384.160156c0 5.519531-4.480469 10-10 10h-246.300781v-404.160156h246.300781c5.519531 0 10 4.480468 10 10zm0 0" fill="#40c4df"/><path d="m287.800781 98.839844v315.058594c0 5.523437-4.480469 10-10 10h-246.300781v-335.058594h246.300781c5.519531 0 10 4.480468 10 10zm0 0" fill="#7befe4"/><path d="m234.84375 446.855469c-6.914062 0-12.515625 5.601562-12.515625 12.511719 0 6.914062 5.601563 12.515624 12.515625 12.515624 6.910156 0 12.511719-5.601562 12.511719-12.515624 0-6.910157-5.601563-12.511719-12.511719-12.511719zm0 0" fill="#fff"/><path d="m145.898438 158.898438c-58.597657 0-106.097657 47.523437-106.097657 106.121093 0 58.601563 47.5 106.101563 106.097657 106.101563 58.601562 0 106.101562-47.5 106.101562-106.101563 0-58.597656-47.5-106.121093-106.101562-106.121093zm0 147.460937c-22.796876 0-41.339844-18.558594-41.339844-41.339844 0-22.800781 18.542968-41.339843 41.339844-41.339843 22.800781 0 41.339843 18.539062 41.339843 41.339843 0 22.78125-18.539062 41.339844-41.339843 41.339844zm0 0" fill="#f85252"/><path d="m170.242188 201.824219v-187.824219c0-5.523438-4.476563-10-10-10h-28.683594c-5.523438 0-10 4.476562-10 10v187.824219h-41.722656l66.0625 81.433593 66.066406-81.433593zm0 0" fill="#fff"/><g fill="#491352"><path d="m277.800781 84.839844h-103.558593v-70.839844c0-7.71875-6.28125-14-14-14h-28.683594c-7.71875 0-14 6.28125-14 14v70.839844h-103.558594c-7.71875 0-14 6.28125-14 14v384.160156c0 7.71875 6.28125 14 14 14h263.800781c7.71875 0 14-6.28125 14-14v-384.160156c0-7.71875-6.28125-14-14-14zm-94.5625 180.179687c0 20.589844-16.75 37.339844-37.339843 37.339844-20.589844 0-37.339844-16.75-37.339844-37.339844 0-5.835937 1.34375-11.492187 3.910156-16.621093l5.246094 6.464843 25.078125 30.917969c.054687.066406.128906.113281.1875.179688.75.8125 1.800781 1.296874 2.917969 1.296874 1.121093 0 2.167968-.484374 2.921874-1.296874.058594-.066407.132813-.109376.1875-.179688l25.078126-30.917969 5.242187-6.464843c2.570313 5.128906 3.910156 10.785156 3.910156 16.621093zm-65.679687-67.199219h-37.71875c-1.15625 0-2.238282.5-2.984375 1.335938-.25.28125-.464844.597656-.628907.945312-.664062 1.390626-.464843 3.042969.503907 4.242188l30.316406 37.367188c-4.242187 7.019531-6.484375 15.011718-6.484375 23.308593 0 25 20.339844 45.339844 45.339844 45.339844s45.339844-20.339844 45.339844-45.339844c0-8.296875-2.242188-16.289062-6.484376-23.308593l30.3125-37.367188c.972657-1.199219 1.171876-2.847656.507813-4.242188-.167969-.347656-.378906-.664062-.628906-.945312-.75-.839844-1.828125-1.335938-2.984375-1.335938h-37.71875v-30.925781c43.679687 12.527344 73.757812 52.175781 73.757812 98.125 0 56.296875-45.800781 102.101563-102.101562 102.101563-56.296875 0-102.097656-45.804688-102.097656-102.101563 0-45.949219 30.078124-85.597656 73.757812-98.125v30.925781zm14-189.820312h28.683594c3.308593 0 6 2.691406 6 6v74.820312c0 .003907-.003907.011719-.003907.019532v112.980468c0 .554688.113281 1.078126.316407 1.558594.609374 1.4375 2.03125 2.445313 3.6875 2.445313h33.320312l-26.835938 33.082031c-.003906.003906-.007812.007812-.011718.015625l-21.75 26.816406-9.066406 11.167969-9.058594-11.167969-21.75-26.816406c-.003906-.007813-.011719-.011719-.015625-.015625l-26.835938-33.082031h33.320313c1.65625 0 3.078125-1.007813 3.6875-2.445313.203125-.480468.316406-1.003906.316406-1.558594v-112.980468c0-.003906-.003906-.011719-.003906-.019532v-74.820312c0-3.308594 2.691406-6 6-6zm-123.558594 90.839844c0-3.308594 2.691406-6 6-6h103.558594v65.78125c-48.292969 12.789062-81.757813 56.078125-81.757813 106.398437 0 60.710938 49.390625 110.101563 110.097657 110.101563 60.710937 0 110.101562-49.390625 110.101562-110.101563 0-50.316406-33.464844-93.609375-81.757812-106.398437v-65.78125h103.558593c3.308594 0 6 2.691406 6 6v315.058594c0 3.308593-2.691406 6-6 6h-263.800781c-3.308594 0-6-2.691407-6-6zm269.800781 390.160156h-263.800781c-3.308594 0-6-2.691406-6-6v-56.46875c1.820312.867188 3.851562 1.367188 6 1.367188h263.800781c2.148438 0 4.175781-.5 6-1.367188v56.46875c0 3.308594-2.691406 6-6 6zm0 0"/><path d="m234.84375 442.855469c-9.109375 0-16.515625 7.40625-16.515625 16.511719 0 9.105468 7.40625 16.515624 16.515625 16.515624 9.105469 0 16.511719-7.410156 16.511719-16.515624 0-9.105469-7.410157-16.511719-16.511719-16.511719zm0 25.027343c-4.699219 0-8.515625-3.820312-8.515625-8.515624 0-4.691407 3.816406-8.511719 8.515625-8.511719 4.695312 0 8.511719 3.820312 8.511719 8.511719 0 4.695312-3.820313 8.515624-8.511719 8.515624zm0 0"/><path d="m193.769531 455.367188h-149.324219c-2.210937 0-4 1.792968-4 4 0 2.207031 1.789063 4 4 4h149.320313c2.207031 0 4-1.792969 4-4 0-2.207032-1.789063-4-3.996094-4zm0 0"/></g></svg>