<svg height="496pt" viewBox="0 0 496 496" width="496pt" xmlns="http://www.w3.org/2000/svg"><path d="m202 14.003906v124c0 5.519532-4.480469 10-10 10h-178c-5.519531 0-10-4.480468-10-10v-124c0-5.519531 4.480469-10 10-10h178c5.519531 0 10 4.480469 10 10zm0 0" fill="#d8d6d7"/><path d="m492 132.003906v236.160156c0 5.519532-4.480469 10-10 10h-178c-5.519531 0-10-4.480468-10-10v-236.160156c0-5.519531 4.480469-10 10-10h178c5.519531 0 10 4.480469 10 10zm0 0" fill="#d8d6d7"/><path d="m202 357.164062v124c0 5.519532-4.480469 10-10 10h-178c-5.519531 0-10-4.480468-10-10v-124c0-5.519531 4.480469-10 10-10h178c5.519531 0 10 4.480469 10 10zm0 0" fill="#d8d6d7"/><path d="m202 14.003906v124c0 5.519532-4.480469 10-10 10h-151.339844c-5.519531 0-10-4.480468-10-10v-124c0-5.519531 4.480469-10 10-10h151.339844c5.519531 0 10 4.480469 10 10zm0 0" fill="#fff"/><path d="m492 132.003906v236.160156c0 5.519532-4.480469 10-10 10h-151.339844c-5.519531 0-10-4.480468-10-10v-236.160156c0-5.519531 4.480469-10 10-10h151.339844c5.519531 0 10 4.480469 10 10zm0 0" fill="#fff"/><path d="m202 357.164062v124c0 5.519532-4.480469 10-10 10h-151.339844c-5.519531 0-10-4.480468-10-10v-124c0-5.519531 4.480469-10 10-10h151.339844c5.519531 0 10 4.480469 10 10zm0 0" fill="#fff"/><path d="m202 14.003906v34h-198v-34c0-5.519531 4.480469-10 10-10h178c5.519531 0 10 4.480469 10 10zm0 0" fill="#7befe4"/><path d="m492 132.003906v34h-198v-34c0-5.519531 4.480469-10 10-10h178c5.519531 0 10 4.480469 10 10zm0 0" fill="#40c4df"/><path d="m202 357.164062v34h-198v-34c0-5.519531 4.480469-10 10-10h178c5.519531 0 10 4.480469 10 10zm0 0" fill="#7befe4"/><path d="m4 14.003906v34h26.660156v-34c0-5.519531 4.480469-10 10-10h-26.660156c-5.519531 0-10 4.480469-10 10zm0 0" fill="#56c1b3"/><path d="m304 122.003906c-5.519531 0-10 4.480469-10 10v34h26.660156v-34c0-5.519531 4.480469-10 10-10zm0 0" fill="#1c868e"/><path d="m4 357.164062v34h26.660156v-34c0-5.519531 4.480469-10 10-10h-26.660156c-5.519531 0-10 4.480469-10 10zm0 0" fill="#56c1b3"/><g fill="#491352"><path d="m14 152h178c7.71875 0 14-6.28125 14-14v-124c0-7.71875-6.28125-14-14-14h-178c-7.71875 0-14 6.28125-14 14v124c0 7.71875 6.28125 14 14 14zm-6-138c0-3.308594 2.691406-6 6-6h178c3.308594 0 6 2.691406 6 6v30h-190zm0 38h190v86c0 3.308594-2.691406 6-6 6h-178c-3.308594 0-6-2.691406-6-6zm0 0"/><path d="m28 87.835938h150c2.207031 0 4-1.792969 4-4 0-2.210938-1.792969-4-4-4h-150c-2.207031 0-4 1.789062-4 4 0 2.207031 1.792969 4 4 4zm0 0"/><path d="m28 116.835938h150c2.207031 0 4-1.792969 4-4 0-2.210938-1.792969-4-4-4h-150c-2.207031 0-4 1.789062-4 4 0 2.207031 1.792969 4 4 4zm0 0"/><path d="m482 118h-178c-7.71875 0-14 6.28125-14 14v110.835938h-40.335938v-156c0-7.71875-6.277343-14-14-14h-29.332031v8h29.332031c3.308594 0 6 2.691406 6 6v320c0 3.304687-2.691406 6-6 6h-29.664062v-55.667969c0-7.71875-6.28125-14-14-14h-178c-7.71875 0-14 6.28125-14 14v124c0 7.71875 6.28125 14 14 14h178c7.71875 0 14-6.28125 14-14v-60.332031h29.664062c7.722657 0 14-6.285157 14-14v-156h40.335938v117.332031c0 7.71875 6.28125 14 14 14h178c7.71875 0 14-6.28125 14-14v-236.167969c0-7.71875-6.28125-14-14-14zm-284 363.167969c0 3.308593-2.691406 6-6 6h-178c-3.308594 0-6-2.691407-6-6v-86h190zm0-94h-190v-30c0-3.308594 2.691406-6 6-6h178c3.308594 0 6 2.691406 6 6zm290-19c0 3.308593-2.691406 6-6 6h-178c-3.308594 0-6-2.691407-6-6v-198.167969h190zm0-206.167969h-190v-30c0-3.308594 2.691406-6 6-6h178c3.308594 0 6 2.691406 6 6zm0 0"/><path d="m318 205.835938h150c2.207031 0 4-1.792969 4-4 0-2.210938-1.792969-4-4-4h-150c-2.207031 0-4 1.789062-4 4 0 2.207031 1.792969 4 4 4zm0 0"/><path d="m318 234.335938h150c2.207031 0 4-1.792969 4-4 0-2.210938-1.792969-4-4-4h-150c-2.207031 0-4 1.789062-4 4 0 2.207031 1.792969 4 4 4zm0 0"/><path d="m318 262.835938h150c2.207031 0 4-1.792969 4-4 0-2.210938-1.792969-4-4-4h-150c-2.207031 0-4 1.789062-4 4 0 2.207031 1.792969 4 4 4zm0 0"/><path d="m318 291.335938h150c2.207031 0 4-1.792969 4-4 0-2.210938-1.792969-4-4-4h-150c-2.207031 0-4 1.789062-4 4 0 2.207031 1.792969 4 4 4zm0 0"/><path d="m318 319.835938h150c2.207031 0 4-1.792969 4-4 0-2.210938-1.792969-4-4-4h-150c-2.207031 0-4 1.789062-4 4 0 2.207031 1.792969 4 4 4zm0 0"/><path d="m318 348.335938h150c2.207031 0 4-1.792969 4-4 0-2.210938-1.792969-4-4-4h-150c-2.207031 0-4 1.789062-4 4 0 2.207031 1.792969 4 4 4zm0 0"/><path d="m28 431h150c2.207031 0 4-1.792969 4-4s-1.792969-4-4-4h-150c-2.207031 0-4 1.792969-4 4s1.792969 4 4 4zm0 0"/><path d="m28 460h150c2.207031 0 4-1.792969 4-4s-1.792969-4-4-4h-150c-2.207031 0-4 1.792969-4 4s1.792969 4 4 4zm0 0"/></g></svg>