<svg height="484pt" viewBox="0 -36 484.96 484" width="484pt" xmlns="http://www.w3.org/2000/svg"><path d="m430.480469 206.628906c0 103.828125-84.171875 188-188 188s-188-84.171875-188-188c0-103.832031 84.171875-188 188-188s188 84.167969 188 188zm0 0" fill="#d8d6d7"/><path d="m407.761719 206.628906c0 46.820313-19.460938 89.097656-50.761719 119.179688-29.699219 28.558594-70.058594 46.097656-114.519531 46.097656-15.320313 0-30.140625-2.078125-44.21875-5.976562-26.78125-7.402344-50.820313-21.402344-70.300781-40.121094-31.300782-30.082032-50.761719-72.359375-50.761719-119.179688 0-46.820312 19.460937-89.101562 50.761719-119.179687 20.039062-19.261719 44.917968-33.519531 72.640624-40.742188 13.359376-3.5 27.398438-5.359375 41.878907-5.359375 44.460937 0 84.820312 17.539063 114.519531 46.101563 31.300781 30.078125 50.761719 72.359375 50.761719 119.179687zm0 0" fill="#40c4df"/><path d="m198.261719 365.929688c-26.78125-7.402344-50.820313-21.402344-70.300781-40.121094-31.300782-30.082032-50.761719-72.359375-50.761719-119.179688 0-46.820312 19.460937-89.101562 50.761719-119.179687 20.039062-19.261719 44.917968-33.519531 72.640624-40.742188-32.261718 30.519531-180.160156 185.941407-2.339843 319.222657zm0 0" fill="#1c868e"/><g fill="#f85252"><path d="m480.398438 28.042969c0 12.703125-10.296876 23-23 23-12.703126 0-23-10.296875-23-23s10.296874-23 23-23c12.703124 0 23 10.296875 23 23zm0 0"/><path d="m475.0625 385.210938c0 12.703124-10.296875 23-23 23-12.699219 0-23-10.296876-23-23 0-12.703126 10.300781-23 23-23 12.703125 0 23 10.296874 23 23zm0 0"/><path d="m50.5625 28.042969c0 12.703125-10.296875 23-23 23-12.699219 0-23-10.296875-23-23s10.300781-23 23-23c12.703125 0 23 10.296875 23 23zm0 0"/><path d="m55.898438 385.210938c0 12.703124-10.296876 23-23 23-12.703126 0-23-10.296876-23-23 0-12.703126 10.296874-23 23-23 12.703124 0 23 10.296874 23 23zm0 0"/></g><path d="m363.582031 87.457031c-72.253906-69.488281-173.472656-66.109375-242.203125 0l.082032.078125c-65.171876 66.085938-65.1875 172.09375 0 238.183594l-.082032.078125c68.402344 65.804687 169.777344 69.65625 242.203125 0l-.082031-.078125c65.175781-66.082031 65.1875-172.085938 0-238.179688zm-133.339843-41.046875c-12.527344 12.132813-35.320313 36.335938-54.375 68.171875-14.898438-6.792969-28.792969-15.867187-41.183594-27.09375 26.164062-23.722656 59.160156-38.316406 95.558594-41.078125zm-102.125 47.378906c12.992187 11.859376 27.523437 21.535157 43.152343 28.761719-12.980469 23.386719-23.503906 50.414063-26.625 79.511719h-62.773437c1.128906-40.988281 17.410156-79.113281 46.246094-108.273438zm-46.246094 117.402344h62.046875c-1.519531 29.3125 4.871093 57.085938 19.332031 83.503906-12.601562 6.660157-24.394531 14.964844-35.132812 24.769532-28.832032-29.152344-45.117188-67.28125-46.246094-108.273438zm52.8125 114.578125c10.136718-9.191406 21.292968-16.917969 33.167968-23.160156 13.957032 22.660156 33.929688 44.054687 59.84375 64.054687-35.105468-3.3125-67.183593-17.464843-93.011718-40.894531zm103.230468 37.179688c-26.988281-20.097657-47.621093-41.609375-61.804687-64.390625 19.253906-8.738282 40.195313-13.601563 61.804687-14.207032zm0-87.722657c-23.257812.617188-45.796874 5.867188-66.460937 15.390626-13.828125-25.136719-19.964844-51.597657-18.375-79.425782h84.835937zm0-73.164062h-84.039062c3.214844-27.523438 13.511719-53.34375 26.117188-75.789062 18.273437 7.222656 37.828124 11.222656 57.921874 11.753906zm0-73.160156c-18.453124-.511719-36.425781-4.105469-53.269531-10.59375 19.058594-31.453125 41.742188-55.332032 53.269531-66.507813zm112.363282-41.414063c-12.390625 11.226563-26.285156 20.300781-41.179688 27.09375-19.054687-31.835937-41.851562-56.039062-54.382812-68.171875 35.660156 2.703125 68.796875 16.820313 95.5625 41.078125zm-103.234375-35.695312c11.53125 11.167969 34.230469 35.042969 53.292969 66.507812-16.851563 6.496094-34.828126 10.085938-53.292969 10.601563zm0 86.238281c20.101562-.535156 39.664062-4.535156 57.945312-11.765625 12.601563 22.441406 22.890625 48.261719 26.101563 75.796875h-84.046875zm0 73.160156h84.835937c1.585938 27.800782-4.527344 54.257813-18.371094 79.425782-20.667968-9.523438-43.207031-14.773438-66.464843-15.390626zm0 73.160156c21.613281.605469 42.554687 5.46875 61.808593 14.207032-14.1875 22.78125-34.816406 44.292968-61.808593 64.390625zm10.222656 82.3125c25.914063-20 45.886719-41.394531 59.84375-64.050781 11.875 6.238281 23.03125 13.96875 33.167969 23.15625-25.683594 23.320313-57.707032 37.566407-93.011719 40.894531zm99.582031-47.195312c-10.742187-9.808594-22.535156-18.113281-35.136718-24.773438 14.460937-26.410156 20.851562-54.183593 19.332031-83.5h62.046875c-1.128906 40.984376-17.410156 79.113282-46.242188 108.273438zm46.242188-117.40625h-62.769532c-3.121093-29.101562-13.644531-56.125-26.625-79.515625 15.628907-7.222656 30.160157-16.898437 43.152344-28.757813 28.828125 29.15625 45.113282 67.285157 46.242188 108.273438zm0 0" fill="#491352"/><path d="m452.0625 357.648438c-13.785156 0-25.203125 10.183593-27.214844 23.414062h-36.785156c-2.996094 0-5.433594-2.4375-5.433594-5.433594v-37.066406c67.410156-71.433594 70.46875-182.675781 5.332032-257.9375v-42.996094c0-3 2.4375-5.4375 5.433593-5.4375h36.785157c2.011718 13.234375 13.429687 23.417969 27.214843 23.417969 15.203125 0 27.566407-12.367187 27.566407-27.566406 0-15.195313-12.367188-27.5625-27.566407-27.5625-13.496093 0-24.734375 9.757812-27.089843 22.582031h-36.910157c-8.03125 0-14.5625 6.535156-14.5625 14.566406v33.15625c-75.265625-75.691406-197.300781-75.523437-272.703125.007813v-33.164063c0-8.03125-6.535156-14.566406-14.566406-14.566406h-36.910156c-2.351563-12.824219-13.59375-22.582031-27.089844-22.582031-15.199219 0-27.5625 12.367187-27.5625 27.5625 0 15.199219 12.363281 27.566406 27.5625 27.566406 13.789062 0 25.207031-10.183594 27.21875-23.417969h36.78125c3 0 5.4375 2.4375 5.4375 5.4375v42.964844c-64.421875 74.136719-62.808594 185.457031 5.335938 257.953125v37.082031c0 2.996094-2.441407 5.433594-5.4375 5.433594h-36.78125c-2.011719-13.230469-13.433594-23.414062-27.21875-23.414062-15.199219 0-27.5625 12.367187-27.5625 27.5625 0 15.199218 12.363281 27.566406 27.5625 27.566406 13.496093 0 24.734374-9.757813 27.089843-22.585938h36.910157c8.03125 0 14.5625-6.535156 14.5625-14.5625v-27.984375c73.433593 68.398438 187.558593 69.0625 262.039062-.082031v28.066406c0 8.03125 6.535156 14.5625 14.5625 14.5625h36.910156c2.355469 12.828125 13.59375 22.585938 27.089844 22.585938 15.203125 0 27.566406-12.367188 27.566406-27.566406 0-15.195313-12.363281-27.5625-27.566406-27.5625zm5.332031-348.039063c10.167969 0 18.4375 8.269531 18.4375 18.433594 0 10.167969-8.269531 18.4375-18.4375 18.4375-10.164062 0-18.433593-8.269531-18.433593-18.4375 0-10.164063 8.269531-18.433594 18.433593-18.433594zm-429.832031 36.871094c-10.164062 0-18.433594-8.269531-18.433594-18.4375 0-10.164063 8.269532-18.433594 18.433594-18.433594 10.167969 0 18.4375 8.269531 18.4375 18.433594 0 10.167969-8.273438 18.4375-18.4375 18.4375zm5.335938 357.167969c-10.167969 0-18.4375-8.269532-18.4375-18.4375 0-10.164063 8.269531-18.433594 18.4375-18.433594 10.164062 0 18.4375 8.269531 18.4375 18.433594 0 10.167968-8.273438 18.4375-18.4375 18.4375zm189.636718-14.671876c-100.546875-11-173.402344-101.746093-162.402344-202.292968 10.257813-93.800782 89.925782-163.5 182.210938-163.5 109.617188 0 194.292969 95.40625 182.484375 203.390625-10.996094 100.542969-101.734375 173.386719-202.292969 162.402343zm229.527344 14.671876c-10.164062 0-18.433594-8.269532-18.433594-18.4375 0-10.164063 8.269532-18.433594 18.433594-18.433594 10.167969 0 18.4375 8.269531 18.4375 18.433594 0 10.167968-8.269531 18.4375-18.4375 18.4375zm0 0" fill="#491352"/></svg>