<svg height="511pt" viewBox="0 0 511 511.124" width="511pt" xmlns="http://www.w3.org/2000/svg"><path d="m379.554688 255.625c0 63.820312-48.039063 116.417969-109.941407 123.617188-4.757812.582031-9.621093.863281-14.539062.863281-68.738281 0-124.480469-55.742188-124.480469-124.480469 0-68.742188 55.742188-124.480469 124.480469-124.480469 4.917969 0 9.78125.28125 14.539062.859375 61.902344 7.199219 109.941407 59.800782 109.941407 123.621094zm0 0" fill="#1c868e"/><path d="m293.253906 52.164062-22.519531 22.519532-8.582031 8.601562c-3.898438 3.878906-10.257813 3.878906-14.160156 0l-31.097657-31.121094c-3.902343-3.878906-3.902343-10.238281 0-14.140624l31.097657-31.097657c3.902343-3.902343 10.261718-3.902343 14.160156 0l31.101562 31.097657c3.898438 3.902343 3.898438 10.261718 0 14.140624zm0 0" fill="#56c1b3"/><path d="m165.492188 23.105469v44c0 5.5-4.5 10-10 10h-44c-5.5 0-10-4.5-10-10v-44c0-5.5 4.5-10 10-10h44c5.5 0 10 4.5 10 10zm0 0" fill="#1c868e"/><path d="m408.652344 23.105469v44c0 5.5-4.5 10-10 10h-44c-5.5 0-10-4.5-10-10v-44c0-5.5 4.5-10 10-10h44c5.5 0 10 4.5 10 10zm0 0" fill="#1c868e"/><path d="m293.253906 473.105469-22.519531 22.519531-8.582031 8.578125c-3.898438 3.902344-10.257813 3.902344-14.160156 0l-31.097657-31.097656c-3.902343-3.902344-3.902343-10.261719 0-14.160157l31.097657-31.101562c3.902343-3.898438 10.261718-3.898438 14.160156 0l31.101562 31.101562c3.898438 3.898438 3.898438 10.257813 0 14.160157zm0 0" fill="#56c1b3"/><path d="m408.652344 444.023438v44c0 5.5-4.5 10-10 10h-44c-5.5 0-10-4.5-10-10v-44c0-5.5 4.5-10 10-10h44c5.5 0 10 4.5 10 10zm0 0" fill="#1c868e"/><path d="m165.492188 444.023438v44c0 5.5-4.5 10-10 10h-44c-5.5 0-10-4.5-10-10v-44c0-5.5 4.5-10 10-10h44c5.5 0 10 4.5 10 10zm0 0" fill="#1c868e"/><g fill="#40c4df"><path d="m379.554688 255.625c0 63.820312-48.039063 116.417969-109.941407 123.617188-61.898437-7.199219-109.917969-59.796876-109.917969-123.617188s48.019532-116.421875 109.917969-123.621094c61.902344 7.199219 109.941407 59.800782 109.941407 123.621094zm0 0"/><path d="m165.492188 23.105469v44c0 5.5-4.5 10-10 10h-14.898438c-5.5 0-10-4.5-10-10v-44c0-5.5 4.5-10 10-10h14.898438c5.5 0 10 4.5 10 10zm0 0"/><path d="m408.652344 23.105469v44c0 5.5-4.5 10-10 10h-14.917969c-5.5 0-10-4.5-10-10v-44c0-5.5 4.5-10 10-10h14.917969c5.5 0 10 4.5 10 10zm0 0"/><path d="m408.652344 444.023438v44c0 5.5-4.5 10-10 10h-14.917969c-5.5 0-10-4.5-10-10v-44c0-5.5 4.5-10 10-10h14.917969c5.5 0 10 4.5 10 10zm0 0"/><path d="m165.492188 444.023438v44c0 5.5-4.5 10-10 10h-14.898438c-5.5 0-10-4.5-10-10v-44c0-5.5 4.5-10 10-10h14.898438c5.5 0 10 4.5 10 10zm0 0"/></g><path d="m506.09375 255.625c0 15.679688-9.378906 29.179688-22.839844 35.179688-4.78125 2.140624-10.078125 3.320312-15.660156 3.320312-21.28125 0-38.5-17.242188-38.5-38.5 0-21.261719 17.21875-38.5 38.5-38.5 5.582031 0 10.878906 1.179688 15.660156 3.320312 13.460938 6 22.839844 19.5 22.839844 35.179688zm0 0" fill="#56c1b3"/><path d="m81.054688 255.625c0 15.679688-9.359376 29.179688-22.820313 35.160156-4.78125 2.160156-10.101563 3.339844-15.679687 3.339844-21.261719 0-38.5-17.242188-38.5-38.5 0-21.261719 17.238281-38.5 38.5-38.5 5.578124 0 10.898437 1.179688 15.679687 3.339844 13.460937 5.980468 22.820313 19.480468 22.820313 35.160156zm0 0" fill="#56c1b3"/><path d="m293.253906 52.164062-22.519531 22.519532-22.519531-22.519532c-3.878906-3.878906-3.878906-10.238281 0-14.140624l22.519531-22.519532 22.519531 22.519532c3.898438 3.902343 3.898438 10.261718 0 14.140624zm0 0" fill="#7befe4"/><path d="m293.253906 473.105469-22.519531 22.519531-22.519531-22.519531c-3.878906-3.902344-3.878906-10.261719 0-14.160157l22.519531-22.519531 22.519531 22.519531c3.898438 3.898438 3.898438 10.257813 0 14.160157zm0 0" fill="#7befe4"/><path d="m506.09375 255.625c0 15.679688-9.378906 29.179688-22.839844 35.179688-13.460937-6-22.839844-19.5-22.839844-35.179688s9.378907-29.179688 22.839844-35.179688c13.460938 6 22.839844 19.5 22.839844 35.179688zm0 0" fill="#7befe4"/><path d="m81.054688 255.625c0 15.679688-9.359376 29.179688-22.820313 35.160156-13.460937-5.980468-22.839844-19.480468-22.839844-35.160156s9.378907-29.179688 22.839844-35.160156c13.460937 5.980468 22.820313 19.480468 22.820313 35.160156zm0 0" fill="#7befe4"/><path d="m467.585938 213.125c-22.085938 0-40.273438 16.933594-42.296876 38.5h-41.839843c-2.085938-67.664062-56.714844-122.289062-124.375-124.375v-14.054688h107.570312c7.71875 0 14-6.28125 14-14v-18.09375h18c7.71875 0 14-6.28125 14-14v-44c0-7.71875-6.28125-14-14-14h-44c-7.714843 0-14 6.28125-14 14v44c0 7.71875 6.285157 14 14 14h18v18.09375c0 3.308594-2.691406 6-6 6h-107.570312v-15.574218c2.207031-.652344 4.230469-1.839844 5.898437-3.507813l31.113282-31.113281c5.457031-5.457031 5.457031-14.339844 0-19.796875l-31.113282-31.113281c-2.632812-2.636719-6.152344-4.089844-9.898437-4.089844-3.75 0-7.265625 1.453125-9.898438 4.089844l-31.113281 31.109375c-5.457031 5.457031-5.457031 14.339843 0 19.796875l31.113281 31.113281c1.667969 1.667969 3.691407 2.859375 5.898438 3.511719v15.570312h-107.570313c-3.308594 0-6-2.691406-6-6v-18.09375h18c7.714844 0 14-6.28125 14-14v-44c0-7.71875-6.285156-14-14-14h-44c-7.71875 0-14 6.28125-14 14v44c0 7.71875 6.28125 14 14 14h18v18.09375c0 7.71875 6.28125 14 14 14h107.570313v14.054688c-67.664063 2.089844-122.289063 56.714844-124.375 124.378906h-41.839844c-2.023437-21.566406-20.210937-38.5-42.296875-38.5-23.4375 0-42.5 19.066406-42.5 42.5s19.0625 42.5 42.5 42.5c22.085938 0 40.273438-16.9375 42.296875-38.5h41.839844c2.085937 67.660156 56.710937 122.289062 124.375 124.375v13.929688h-107.570313c-7.71875 0-14 6.28125-14 14v18.09375h-18c-7.71875 0-14 6.28125-14 14v44c0 7.71875 6.28125 14 14 14h44c7.714844 0 14-6.28125 14-14v-44c0-7.71875-6.285156-14-14-14h-18v-18.09375c0-3.308594 2.691406-6 6-6h107.570313v15.574218c-2.207031.648438-4.230469 1.839844-5.898438 3.511719l-31.113281 31.109375c-5.457031 5.460938-5.457031 14.339844 0 19.800781l31.113281 31.109375c2.632813 2.636719 6.148438 4.089844 9.898438 4.089844 3.746093 0 7.265625-1.453125 9.898437-4.089844l31.113282-31.109375c5.457031-5.460937 5.457031-14.339843 0-19.800781l-31.113282-31.109375c-1.667968-1.667969-3.691406-2.863281-5.898437-3.511719v-15.574218h107.570312c3.308594 0 6 2.691406 6 6v18.09375h-18c-7.714843 0-14 6.28125-14 14v44c0 7.71875 6.285157 14 14 14h44c7.71875 0 14-6.28125 14-14v-44c0-7.71875-6.28125-14-14-14h-18v-18.09375c0-7.71875-6.28125-14-14-14h-107.570312v-13.929688c67.660156-2.085938 122.289062-56.710938 124.375-124.375h41.839843c2.023438 21.5625 20.214844 38.5 42.300782 38.5 23.433594 0 42.5-19.066406 42.5-42.5s-19.066406-42.5-42.503906-42.5zm-118.941407-146.023438v-44c0-3.308593 2.695313-6 6-6h44c3.308594 0 6 2.691407 6 6v44c0 3.304688-2.691406 6-6 6h-44c-3.304687 0-6-2.695312-6-6zm-128.925781-17.757812c-2.339844-2.339844-2.339844-6.144531 0-8.484375l31.113281-31.113281c1.125-1.125 2.632813-1.746094 4.242188-1.746094s3.117187.621094 4.242187 1.746094l31.113282 31.113281c2.339843 2.339844 2.339843 6.144531 0 8.484375l-31.113282 31.113281c-2.25 2.25-6.234375 2.25-8.484375 0zm-114.214844 17.757812v-44c0-3.308593 2.691406-6 6-6h44c3.304688 0 6 2.691407 6 6v44c0 3.304688-2.695312 6-6 6h-44c-3.308594 0-6-2.695312-6-6zm56 376.921876v44c0 3.308593-2.695312 6-6 6h-44c-3.308594 0-6-2.691407-6-6v-44c0-3.308594 2.691406-6 6-6h44c3.304688 0 6 2.691406 6 6zm128.925782 17.757812c2.339843 2.339844 2.339843 6.144531 0 8.484375l-31.113282 31.113281c-2.25 2.25-6.234375 2.25-8.484375 0l-31.113281-31.113281c-2.339844-2.339844-2.339844-6.144531 0-8.484375l31.113281-31.113281c2.25-2.253907 6.234375-2.253907 8.484375 0zm114.214843-17.757812v44c0 3.308593-2.691406 6-6 6h-44c-3.304687 0-6-2.691407-6-6v-44c0-3.308594 2.695313-6 6-6h44c3.308594 0 6 2.691406 6 6zm-362.082031-153.898438c-19.023438 0-34.5-15.476562-34.5-34.5s15.476562-34.5 34.5-34.5c19.003906 0 34.46875 15.449219 34.496094 34.445312 0 .019532-.003906.035157-.003906.054688 0 .015625.003906.03125.003906.050781-.027344 19-15.492188 34.449219-34.496094 34.449219zm212.511719 85.976562c-66.433594 0-120.476563-54.046874-120.476563-120.476562s54.042969-120.476562 120.476563-120.476562c66.433593 0 120.476562 54.046874 120.476562 120.476562s-54.042969 120.476562-120.476562 120.476562zm212.511719-85.976562c-19.023438 0-34.5-15.476562-34.5-34.5s15.476562-34.5 34.5-34.5c19.023437 0 34.5 15.476562 34.5 34.5s-15.476563 34.5-34.5 34.5zm0 0" fill="#491352"/></svg>