<svg height="508pt" viewBox="0 -4 508.36 508" width="508pt" xmlns="http://www.w3.org/2000/svg"><path d="m505.179688 14.660156v150.058594c0 6.882812-5.578126 12.460938-12.460938 12.460938h-158.558594l-26.800781 49.480468c-4.621094 8.519532-17.558594 5.238282-17.558594-4.460937v-45.019531h-11.160156c-6.878906 0-12.460937-5.578126-12.460937-12.460938v-150.058594c0-6.878906 5.582031-12.460937 12.460937-12.460937h214.078125c6.882812 0 12.460938 5.582031 12.460938 12.460937zm0 0" fill="#d8d6d7"/><path d="m505.179688 14.660156v150.058594c0 6.882812-5.578126 12.460938-12.460938 12.460938h-167.238281c-6.902344 0-12.480469-5.578126-12.480469-12.460938v-150.058594c0-6.878906 5.578125-12.460937 12.480469-12.460937h167.238281c6.882812 0 12.460938 5.582031 12.460938 12.460937zm0 0" fill="#fff"/><path d="m245.507812 476.515625v7.417969c0 5.519531-4.480468 10-10 10h-220.679687c-5.519531 0-10-4.480469-10-10v-7.417969c0-66.460937 53.878906-120.339844 120.339844-120.339844 5.539062 0 11 .378907 16.339843 1.097657 26.699219 3.621093 50.621094 16 68.761719 34.140624 21.777344 21.78125 35.238281 51.859376 35.238281 85.101563zm0 0" fill="#d73735"/><path d="m245.507812 476.515625v7.417969c0 5.519531-4.480468 10-10 10h-188c-5.519531 0-10-4.480469-10-10v-7.417969c0-60.921875 45.28125-111.28125 104-119.242187 26.699219 3.621093 50.621094 16 68.761719 34.140624 21.777344 21.78125 35.238281 51.859376 35.238281 85.101563zm0 0" fill="#f85252"/><path d="m125.167969 397.664062c-14.222657 0-25.757813-11.53125-25.757813-25.757812v-57.242188h51.515625v57.242188c0 14.226562-11.535156 25.757812-25.757812 25.757812zm0 0" fill="#edaf85"/><path d="m21.714844 267.941406c0 12.328125 10.085937 22.410156 22.410156 22.410156h9.179688v-44.816406h-9.179688c-12.324219-.003906-22.410156 10.082032-22.410156 22.40625zm0 0" fill="#edaf85"/><path d="m206.207031 245.53125h-9.175781v44.820312h9.175781c12.328125 0 22.410157-10.085937 22.410157-22.410156 0-12.324218-10.082032-22.410156-22.410157-22.410156zm0 0" fill="#edaf85"/><path d="m199.109375 196.035156v86.117188c0 36.28125-26.460937 66.660156-61.0625 72.800781-4.179687.761719-8.480469 1.140625-12.878906 1.140625-40.679688 0-73.941407-33.257812-73.941407-73.941406v-86.117188c0-5.5 4.5-10 10-10h127.882813c5.5 0 10 4.5 10 10zm0 0" fill="#edaf85"/><path d="m199.109375 196.035156v86.117188c0 36.28125-26.460937 66.660156-61.0625 72.800781-34.597656-6.117187-61.078125-36.5-61.078125-72.800781v-86.117188c0-5.5 4.5-10 10-10h102.140625c5.5 0 10 4.5 10 10zm0 0" fill="#f7c09a"/><path d="m70.386719 182.234375v44.78125c0 10.21875-8.296875 18.519531-18.519531 18.519531-10.21875 0-18.519532-8.300781-18.519532-18.519531v-44.78125c0-10.21875 8.300782-18.519531 18.519532-18.519531 5.101562 0 9.742187 2.078125 13.101562 5.417968 3.339844 3.359376 5.417969 7.980469 5.417969 13.101563zm0 0" fill="#1c868e"/><path d="m70.386719 182.234375v20.441406c0 10.21875-8.296875 18.519531-18.519531 18.519531-10.21875 0-18.519532-8.300781-18.519532-18.519531v-20.441406c0-10.21875 8.300782-18.519531 18.519532-18.519531 5.101562 0 9.742187 2.078125 13.101562 5.417968 3.339844 3.359376 5.417969 7.980469 5.417969 13.101563zm0 0" fill="#40c4df"/><path d="m240.929688 124.894531-4.203126 14.640625-9.597656 33.480469c-8.160156 28.5-36.222656 49.019531-65.539062 44.578125l-84.640625-9.71875c-3.300781-.382812-5.882813-2.902344-6.460938-6.0625-.058593-.417969-.101562-.859375-.101562-1.296875v-18.28125c0-23.980469 19.441406-43.421875 43.421875-43.421875h64.9375c19.542968 0 38.402344-7.257812 52.882812-20.398438 1.179688-1.078124 2.539063-1.539062 3.839844-1.539062 3.738281 0 7.160156 3.777344 5.460938 8.019531zm0 0" fill="#40c4df"/><path d="m236.726562 139.535156-9.597656 33.480469c-8.160156 28.5-36.222656 49.019531-65.539062 44.578125l-84.640625-9.71875c-3.300781-.382812-5.882813-2.902344-6.460938-6.0625 1.5-22.617188 20.320313-40.5 43.320313-40.5h64.9375c19.542968 0 38.402344-7.257812 52.882812-20.398438 1.179688-1.078124 2.539063-1.539062 3.839844-1.539062.417969 0 .839844.039062 1.257812.160156zm0 0" fill="#1c868e"/><g fill="#491352"><path d="m491.898438.179688h-214.078126c-9.082031 0-16.460937 7.398437-16.460937 16.480468v150.058594c0 9.0625 7.378906 16.460938 16.460937 16.460938h7.160157v41.019531c0 13.894531 18.496093 18.484375 25.078125 6.359375l25.660156-47.378906h156.179688c9.082031 0 16.460937-7.398438 16.460937-16.460938v-150.058594c0-9.082031-7.378906-16.480468-16.460937-16.480468zm8.460937 166.539062c0 4.660156-3.800781 8.460938-8.460937 8.460938h-158.558594c-3.371094 0-1.609375-1.449219-30.320313 51.558593-2.660156 4.917969-10.039062 2.984375-10.039062-2.539062v-45.019531c0-2.21875-1.78125-4-4-4h-11.160157c-4.660156 0-8.460937-3.800782-8.460937-8.460938v-150.058594c0-4.679687 3.800781-8.480468 8.460937-8.480468h214.078126c4.660156 0 8.460937 3.800781 8.460937 8.480468zm0 0"/><path d="m434.398438 48.746094c-3.882813-3.589844-9.320313 2.28125-5.429688 5.875l41.796875 38.648437-41.796875 38.644531c-3.882812 3.589844 1.539062 9.46875 5.429688 5.878907 48.949218-45.257813 46.261718-42.074219 46.261718-44.523438 0-2.484375 2.445313.507813-46.261718-44.523437zm0 0"/><path d="m335.3125 48.746094c-48.996094 45.300781-46.261719 42.09375-46.261719 44.523437 0 1.113281.464844 2.179688 1.289063 2.933594 48.734375 45.0625 45.460937 42.648437 47.6875 42.648437 3.621094 0 5.390625-4.46875 2.714844-6.9375l-41.796876-38.648437 41.796876-38.648437c3.890624-3.589844-1.550782-9.464844-5.429688-5.871094zm0 0"/><path d="m405.398438 49.683594-48.015626 83.167968c-2.640624 4.578126 4.277344 8.585938 6.929688 4l48.015625-83.167968c2.640625-4.578125-4.277344-8.582032-6.929687-4zm0 0"/><path d="m97.835938 264.011719c0 5.472656-4.4375 9.910156-9.90625 9.910156-5.472657 0-9.910157-4.4375-9.910157-9.910156 0-5.472657 4.4375-9.90625 9.910157-9.90625 5.46875 0 9.90625 4.433593 9.90625 9.90625zm0 0"/><path d="m160.761719 273.917969c5.46875 0 9.90625-4.4375 9.90625-9.90625 0-5.472657-4.4375-9.910157-9.90625-9.910157-5.472657 0-9.90625 4.4375-9.90625 9.910157-.003907 5.46875 4.433593 9.90625 9.90625 9.90625zm0 0"/><path d="m140.113281 289.113281c-2.207031 0-4 1.789063-4 4 0 6.488281-5.277343 11.769531-11.769531 11.769531-6.488281 0-11.769531-5.28125-11.769531-11.769531 0-5.285156-8-5.292969-8 0 0 10.902344 8.871093 19.769531 19.769531 19.769531 18.382812 0 24.820312-23.769531 15.769531-23.769531zm0 0"/><path d="m154.101562 357.761719v-1.582031c24.636719-10.199219 42.953126-32.714844 47.214844-59.832032h4.066406c14.5625 0 26.410157-11.84375 26.410157-26.410156 0-14.5625-11.847657-26.410156-26.410157-26.410156h-3.101562c0-27.726563.1875-26.835938-.542969-29.347656 13.28125-8.5 23.78125-21.898438 28.421875-38.078126l13.738282-47.941406c3.59375-9.566406-8.132813-17.65625-15.796876-10.699218-13.761718 12.480468-31.582031 19.359374-50.179687 19.359374h-64.941406c-20.960938 0-38.800781 13.660157-45.019531 32.558594-13.660157-15.503906-39.441407-5.886718-39.441407 14.839844 0 48.042969-1.921875 51.753906 6.542969 60.644531-10.535156 3.472657-18.167969 13.390625-18.167969 25.074219 0 14.5625 11.84375 26.410156 26.40625 26.410156h4.0625c4.261719 27.117188 22.578125 49.632813 47.214844 59.832032v1.601562c-54.238281 13.378906-94.578125 62.4375-94.578125 120.738281v7.421875c0 7.71875 6.28125 14 14 14h220.679688c7.71875 0 14-6.28125 14-14v-7.421875c0-58.671875-40.230469-107.273437-94.578126-120.757812zm51.285157-106.234375c10.152343 0 18.410156 8.257812 18.410156 18.410156s-8.257813 18.410156-18.410156 18.410156h-3.21875c.027343-.300781.113281-3.851562.113281-36.820312zm-131.828125-67.308594c0-21.71875 17.679687-39.398438 39.421875-39.398438h64.941406c20.578125 0 40.316406-7.621093 55.558594-21.441406 1.328125-1.183594 3.636719-.171875 2.78125 2.402344l-13.800781 48.117188c-7.839844 27.402343-34.679688 45.722656-61.242188 41.722656l-84.640625-9.722656c-1.71875-.199219-3.019531-1.660157-3.019531-3.398438zm-27.160156 67.308594c0 32.96875.085937 36.519531.113281 36.820312h-3.210938c-23.03125 0-27.027343-36.820312 3.097657-36.820312zm-9.878907-22.507813v-44.800781c0-8 6.519531-14.5 14.519531-14.5s14.519532 6.5 14.519532 14.5v44.800781c0 8-6.519532 14.5-14.519532 14.5s-14.519531-6.5-14.519531-14.5zm17.878907 55.140625v-32.898437c10.839843-1.621094 19.160156-10.980469 19.160156-22.242188v-15.621093c1.652344.5-4.476563-.3125 86.601562 10.160156 11.304688 1.699218 23.152344-.074219 34.121094-5.257813v65.859375c0 38.558594-31.382812 69.941406-69.941406 69.941406s-69.941406-31.382812-69.941406-69.941406zm91.703124 74.839844v14.921875c0 12-9.761718 21.757813-21.761718 21.757813s-21.761719-9.757813-21.761719-21.757813c0-1.640625 0-13.371094 0-14.921875 14.164063 4.132812 29.355469 4.136719 43.523437 0zm94.578126 126.941406c0 3.296875-2.679688 6-6 6h-220.679688c-3.300781 0-6-2.703125-6-6v-7.421875c0-53.878906 36.800781-99.300781 86.578125-112.480469v7.882813c0 16.398437 13.363281 29.757813 29.761719 29.757813 16.421875 0 29.761718-13.359376 29.761718-29.757813v-7.902344c49.601563 13.179688 86.578126 58.058594 86.578126 112.5zm0 0"/></g></svg>