<svg height="507pt" viewBox="0 -28 507.95027 507" width="507pt" xmlns="http://www.w3.org/2000/svg"><path d="m493.355469 161.476562c-6.539063 6.5625-15.578125 10.601563-25.578125 10.601563h-184.921875c-28.359375 0-45.460938-31.101563-30.917969-54.960937 7.417969-12.21875 15.878906-12.121094 16.5-16.800782.097656-.640625.039062-1.378906-.203125-2.238281-12.820313-47.941406 23.320313-93.601563 71.542969-93.601563 28.519531 0 53.238281 16.082032 65.660156 39.660157 3.320312 6.402343 7.636719-.359375 24.019531-.359375 32.160157 0 56.660157 27.078125 55.5 57.101562-.0625 1.878906.859375 3.617188 2.4375 4.617188 19.460938 12.621094 22.179688 39.761718 5.960938 55.980468zm0 0" fill="#fff"/><path d="m462.855469 172.078125h-180c-28.359375 0-45.460938-31.101563-30.917969-54.960937 7.417969-12.21875 15.878906-12.121094 16.5-16.800782 15.558594-4.578125 32-7.039062 49.039062-7.039062 60.878907 0 114.4375 31.359375 145.378907 78.800781zm0 0" fill="#d8d6d7"/><path d="m431.398438 448.078125c-2.640626 0-357.472657.019531-359.601563-.039063-37.5625-1.101562-67.800781-31.902343-67.800781-69.882812 0-24.660156 12.761718-46.320312 32.023437-58.757812 3.039063-1.980469 4.820313-5.339844 4.699219-8.960938-2.886719-72.097656 69.109375-129.167969 141.640625-104.71875 4.699219 1.578125 9.777344-.5625 12.097656-4.941406 23.980469-45.601563 71.78125-76.699219 126.882813-76.699219 94.320312 0 163.074218 89.753906 138.296875 180.960937-1.238281 4.558594.800781 9.316407 4.960937 11.558594 63.898438 34.578125 38.804688 131.480469-33.199218 131.480469zm0 0" fill="#d8d6d7"/><path d="m431.398438 448.078125c-2.640626 0-357.472657.019531-359.601563-.039063-16.640625-12.582031-27.457031-32.964843-27.457031-55.5625 0-24.640624 12.738281-46.300781 32-58.757812 3.039062-1.960938 4.839844-5.320312 4.71875-8.941406-2.894532-72.460938 69.644531-129.160156 141.621094-104.71875 4.71875 1.578125 9.796874-.5625 12.097656-4.960938 29.21875-55.496094 91.4375-86.25 154.242187-74.058594 58.660157 31.480469 88.207031 99.257813 70.617188 164-1.238281 4.558594.800781 9.316407 4.960937 11.558594 63.898438 34.578125 38.804688 131.480469-33.199218 131.480469zm0 0" fill="#fff"/><path d="m206.199219 134.078125c0 3.378906-.601563 6.617187-1.679688 9.640625-3.941406 10.878906-14.382812 18.660156-26.621093 18.660156h-144.699219c-7.820313 0-14.902344-3.160156-20.019531-8.28125-5.121094-5.121094-8.300782-12.199218-8.300782-20.019531 0-9.980469 5.179688-18.742187 12.960938-23.78125 1.238281-.800781 1.957031-2.160156 1.917968-3.621094-.679687-20.679687 13.5-38.660156 33.058594-43.417969 3.300782-.820312 6.78125-1.261718 10.363282-1.261718 12.878906 0 16.160156 5.28125 18.796874.28125 9.722657-18.460938 29.0625-31.039063 51.363282-31.039063 38.136718 0 66.039062 36.277344 55.976562 73.238281-.5 1.839844.320313 3.78125 2.023438 4.679688 4.417968 2.402344 8.136718 5.941406 10.738281 10.222656 2.621094 4.277344 4.121094 9.296875 4.121094 14.699219zm0 0" fill="#d8d6d7"/><path d="m206.199219 134.078125c0 3.378906-.601563 6.617187-1.679688 9.640625h-139.320312c-7.820313 0-14.902344-3.160156-20.019531-8.300781-5.121094-5.121094-8.300782-12.179688-8.300782-20 0-9.980469 5.179688-18.761719 12.960938-23.800781 1.238281-.78125 1.957031-2.160157 1.917968-3.621094-.199218-6.117188.101563-14.957032 1.058594-24.738282 3.300782-.820312 6.78125-1.261718 10.363282-1.261718 12.878906 0 16.160156 5.28125 18.796874.28125 9.722657-18.460938 29.0625-31.039063 51.363282-31.039063 38.136718 0 66.039062 36.277344 55.976562 73.238281-.5 1.839844.320313 3.78125 2.023438 4.679688 4.417968 2.402344 8.136718 5.941406 10.738281 10.222656 2.621094 4.277344 4.121094 9.296875 4.121094 14.699219zm0 0" fill="#fff"/><path d="m330.75 398.144531c-6.070312-6.566406-5.671875-16.8125.894531-22.882812l52.109375-48.175781-52.109375-48.179688c-6.566406-6.070312-6.964843-16.3125-.894531-22.878906s16.3125-6.96875 22.878906-.894532l64.96875 60.0625c6.925782 6.402344 6.933594 17.367188 0 23.777344l-64.96875 60.066406c-6.558594 6.066407-16.804687 5.675782-22.878906-.894531zm0 0" fill="#40c4df"/><path d="m151.707031 399.039062-64.96875-60.0625c-6.921875-6.402343-6.933593-17.371093 0-23.78125l64.96875-60.0625c6.566407-6.070312 16.808594-5.671874 22.882813.894532 6.070312 6.566406 5.671875 16.8125-.898438 22.882812l-52.105468 48.175782 52.105468 48.179687c6.570313 6.070313 6.96875 16.3125.898438 22.878906-6.082032 6.570313-16.324219 6.957031-22.882813.894531zm0 0" fill="#40c4df"/><path d="m209.890625 401.171875c-7.746094-4.472656-10.394531-14.371094-5.925781-22.117187l69.359375-120.132813c4.472656-7.742187 14.371093-10.398437 22.121093-5.925781 7.746094 4.472656 10.394532 14.375 5.925782 22.117187l-69.359375 120.132813c-4.472657 7.742187-14.371094 10.398437-22.121094 5.925781zm0 0" fill="#40c4df"/><g fill="#491352"><path d="m466.503906 313.078125c-2.519531-1.359375-3.753906-4.242187-3-7.003906 12.121094-44.515625 2.855469-92.726563-26.695312-130h30.96875c39.597656 0 55.570312-52.03125 21.757812-73.960938-.824218-.519531-.558594-1.738281-.558594-2.800781 0-40.414062-39.769531-69.488281-78.585937-56.40625-.539063.183594-1.125-.078125-1.414063-.636719-13.582031-25.78125-40.09375-41.792969-69.199218-41.792969-51.152344 0-88.929688 48.730469-75.402344 98.648438.15625.5625-.089844 1.132812-.601562 1.414062-15.003907 8.109376-23.386719 24.867188-20.546876 41.929688-21.699218 13.574219-39.886718 32.828125-52.316406 56.441406-1.417968 2.691406-4.472656 3.957032-7.277344 3.015625-11.460937-3.875-23.449218-5.839843-35.632812-5.839843-63.191406 0-113.238281 52.671874-111.28125 114.484374.070312 2.207032-1.007812 4.246094-2.878906 5.457032-21.191406 13.707031-33.839844 36.925781-33.839844 62.121094 0 40.769531 33.167969 73.9375 73.9375 73.9375h357.457031c40.769531 0 73.9375-33.167969 73.9375-73.9375.003907-27.191407-14.878906-52.125-38.828125-65.070313zm-198.917968-205.507813c3.785156-2.050781 5.640624-6.386718 4.511718-10.542968-12.167968-44.898438 21.847656-88.554688 67.679688-88.554688 26.125 0 49.929687 14.378906 62.105468 37.5 2.109376 4.074219 6.765626 5.96875 11.070313 4.511719 34.707031-11.699219 69.320313 15.566406 68.003906 50.261719-.105469 3.320312 1.5 6.359375 4.261719 8.105468 27.085938 17.5625 14.214844 59.222657-17.445312 59.222657h-37.742188c-46.796875-51.160157-120.976562-61.839844-179.28125-30.015625-.835938-12.714844 5.800781-24.523438 16.835938-30.488282zm163.808593 336.511719h-357.457031c-65.527344 0-90.734375-85.773437-35.753906-121.339843 7.5-4.851563 6.484375-12.417969 6.484375-15.328126 0-56.976562 46.355469-103.332031 103.335937-103.332031 11.308594 0 22.433594 1.820313 33.070313 5.417969 6.542969 2.214844 13.660156-.675781 16.917969-6.867188 24.199218-45.984374 71.460937-74.550781 123.34375-74.550781 91.320312 0 158.625 87.101563 134.449218 175.890625-1.734375 6.367188 1.109375 13.003906 6.914063 16.144532 21.363281 11.542968 34.636719 33.78125 34.636719 58.027343 0 36.355469-29.582032 65.9375-65.941407 65.9375zm0 0"/><path d="m33.195312 166.382812h144.691407c33.4375 0 44.6875-44.878906 15.34375-60.742187 0 0-.050781-.117187-.050781-.117187 10.769531-39.558594-19.230469-78.289063-59.84375-78.289063-23.09375 0-44.128907 12.710937-54.976563 33.25-30.753906-10.390625-62.632813 12.609375-62.632813 44.957031 0 .453125.007813.902344-.054687 1.484375-26.894531 17.394531-14.621094 59.457031 17.523437 59.457031zm-13.179687-52.734374c2.429687-1.574219 3.824219-4.230469 3.730469-7.105469-.871094-27.121094 25.925781-47.3125 52.050781-38.480469 3.769531 1.277344 7.851563-.375 9.71875-3.925781 9.382813-17.828125 27.707031-28.902344 47.820313-28.902344 35.402343 0 61.496093 33.765625 52.125 68.191406-.992188 3.648438.636718 7.457031 3.96875 9.253907 22.089843 11.941406 13.621093 45.703124-11.542969 45.703124h-144.691407c-24.160156 0-33.445312-31.632812-13.179687-44.734374zm0 0"/><path d="m356.34375 252.1875c-13.207031-12.207031-34.582031-2.230469-33.882812 15.617188.210937 5.390624 2.507812 10.375 6.46875 14.035156l48.929687 45.242187-48.929687 45.242188c-13.078126 12.09375-5.132813 34.292969 12.921874 35 5.511719.199219 10.605469-1.757813 14.492188-5.351563l64.96875-60.0625c8.632812-7.984375 8.632812-21.671875 0-29.65625zm-5.433594 143.910156c-4.917968 4.550782-12.628906 4.296875-17.222656-.675781-4.574219-4.949219-4.277344-12.652344.675781-17.226563 56.472657-52.210937 53.390625-48.617187 53.390625-51.113281 0-2.496093 3.085938 1.101563-53.390625-51.117187-8.15625-7.542969-2.746093-21.136719 8.28125-21.136719 6.578125 0 2.339844-2.246094 73.238281 63.300781 2.523438 2.332032 3.910157 5.511719 3.910157 8.953125 0 7.304688 1.84375 3.628907-68.882813 69.015625zm0 0"/><path d="m182.875 267.804688c.703125-18.03125-20.792969-27.714844-33.886719-15.617188l-64.964843 60.066406c-8.632813 7.980469-8.636719 21.671875 0 29.652344l64.964843 60.066406c13.269531 12.257813 34.582031 2.171875 33.886719-15.617187-.210938-5.386719-2.507812-10.375-6.46875-14.035157l-48.933594-45.242187 48.929688-45.242187c3.964844-3.660157 6.261718-8.644532 6.472656-14.03125zm-64.007812 56.339843c-1.714844 1.585938-1.714844 4.289063 0 5.875 56.433593 52.179688 55.746093 49.785157 56.011718 56.652344.265625 6.714844-4.960937 12.394531-11.707031 12.660156-6.976563.222657-2.816406 2.25-73.714844-63.296875-5.21875-4.820312-5.234375-13.066406 0-17.902344l64.96875-60.066406c7.9375-7.339844 20.882813-1.378906 20.457031 9.429688-.269531 6.878906.359376 4.523437-56.015624 56.648437zm0 0"/><path d="m297.441406 249.527344c-9.644531-5.558594-22.011718-2.246094-27.578125 7.390625l-69.363281 120.132812c-5.5625 9.640625-2.246094 22.015625 7.390625 27.582031 9.644531 5.566407 22.019531 2.246094 27.582031-7.390624l69.363282-120.132813c5.5625-9.640625 2.25-22.015625-7.394532-27.582031zm.464844 23.582031-69.359375 120.132813c-3.363281 5.820312-10.832031 7.824218-16.65625 4.460937-5.820313-3.363281-7.824219-10.832031-4.460937-16.652344l69.359374-120.132812c3.363282-5.816407 10.832032-7.824219 16.65625-4.460938 5.820313 3.363281 7.820313 10.832031 4.460938 16.652344zm0 0"/></g></svg>