<svg height="499pt" viewBox="-32 0 499 499.756" width="499pt" xmlns="http://www.w3.org/2000/svg"><path d="m431.886719 287.839844v191.257812c0 9.199219-7.480469 16.660156-16.679688 16.660156h-91.160156c-9.179687 0-16.660156-7.460937-16.660156-16.660156v-191.257812c0-9.222656 7.480469-16.660156 16.660156-16.660156h91.160156c9.199219 0 16.679688 7.441406 16.679688 16.660156zm0 0" fill="#1c868e"/><path d="m431.886719 287.839844v191.257812c0 9.199219-7.480469 16.660156-16.679688 16.660156h-63.660156c-9.179687 0-16.660156-7.460937-16.660156-16.660156v-191.257812c0-9.222656 7.480469-16.660156 16.660156-16.660156h63.660156c9.199219 0 16.679688 7.441406 16.679688 16.660156zm0 0" fill="#40c4df"/><path d="m307.386719 309.296875h124.5v148.320313h-124.5zm0 0" fill="#d8d6d7"/><path d="m334.886719 309.296875h97v148.320313h-97zm0 0" fill="#fff"/><path d="m418.167969 335.421875v26.65625c0 5.523437-4.460938 10-10 10h-77.058594c-5.542969 0-10-4.476563-10-10v-26.65625c0-5.523437 4.457031-10 10-10h77.058594c5.539062 0 10 4.476563 10 10zm0 0" fill="#d73735"/><path d="m367.96875 395.421875v36.097656c0 5.519531-4.480469 10-10 10h-26.859375c-5.542969 0-10-4.480469-10-10v-36.097656c0-5.542969 4.457031-10 10-10h26.859375c5.519531 0 10 4.457031 10 10zm0 0" fill="#d73735"/><path d="m367.96875 395.421875v36.097656c0 5.519531-4.480469 10-10 10h-23.082031v-56.097656h23.082031c5.519531 0 10 4.457031 10 10zm0 0" fill="#f85252"/><path d="m418.167969 335.421875v26.65625c0 5.523437-4.460938 10-10 10h-73.28125v-46.65625h73.28125c5.539062 0 10 4.476563 10 10zm0 0" fill="#f85252"/><path d="m408.175781 407.628906h-16.316406c-5.523437 0-10-4.476562-10-10v-2.21875c0-5.523437 4.476563-10 10-10h16.316406c5.519531 0 10 4.476563 10 10v2.21875c0 5.523438-4.476562 10-10 10zm0 0" fill="#f85252"/><path d="m408.175781 441.515625h-16.316406c-5.523437 0-10-4.476563-10-10v-2.21875c0-5.523437 4.476563-10 10-10h16.316406c5.519531 0 10 4.476563 10 10v2.21875c0 5.523437-4.476562 10-10 10zm0 0" fill="#f85252"/><path d="m355.078125 290.972656c0 3.449219-2.796875 6.25-6.25 6.25s-6.25-2.800781-6.25-6.25c0-3.453125 2.796875-6.25 6.25-6.25s6.25 2.796875 6.25 6.25zm0 0" fill="#fff"/><path d="m377.550781 484.789062h-15.832031c-4.601562 0-8.332031-3.730468-8.332031-8.332031 0-4.601562 3.730469-8.332031 8.332031-8.332031h15.832031c4.601563 0 8.332031 3.730469 8.332031 8.332031.003907 4.601563-3.730468 8.332031-8.332031 8.332031zm0 0" fill="#fff"/><path d="m393.847656 34v166.078125h-350.160156v-166.078125c0-15.878906 12.359375-28.898438 28-29.921875.660156-.058594 1.320312-.078125 2-.078125h290.160156c16.558594 0 30 13.441406 30 30zm0 0" fill="#1c868e"/><path d="m393.847656 34v166.078125h-322.160156v-196c.660156-.058594 1.320312-.078125 2-.078125h290.160156c16.558594 0 30 13.441406 30 30zm0 0" fill="#40c4df"/><path d="m375.246094 32.601562v167.476563h-312.957032v-167.476563c0-5.523437 4.480469-10 10-10h292.957032c.183594 0 .34375.019532.523437.039063 5.277344.238281 9.476563 4.617187 9.476563 9.960937zm0 0" fill="#d8d6d7"/><path d="m375.246094 32.601562v167.476563h-284.898438v-177.476563h274.898438c.183594 0 .34375.019532.523437.039063 5.277344.238281 9.476563 4.617187 9.476563 9.960937zm0 0" fill="#fff"/><path d="m313.847656 97.835938h-192.488281c-5.523437 0-10-4.476563-10-10v-34.050782c0-5.523437 4.476563-10 10-10h192.488281c5.519532 0 10 4.476563 10 10v34.050782c0 5.523437-4.476562 10-10 10zm0 0" fill="#f85252"/><path d="m200.449219 178.898438h-79.089844c-5.523437 0-10-4.476563-10-10v-45.632813c0-5.523437 4.476563-10 10-10h79.089844c5.523437 0 10 4.476563 10 10v45.632813c0 5.523437-4.476563 10-10 10zm0 0" fill="#f85252"/><path d="m313.847656 137.792969h-74.582031c-5.523437 0-10-4.480469-10-10v-4.527344c0-5.523437 4.476563-10 10-10h74.582031c5.519532 0 10 4.476563 10 10v4.527344c0 5.519531-4.476562 10-10 10zm0 0" fill="#f85252"/><path d="m313.847656 178.898438h-74.582031c-5.523437 0-10-4.476563-10-10v-4.523438c0-5.523438 4.476563-10 10-10h74.582031c5.519532 0 10 4.476562 10 10v4.523438c0 5.523437-4.476562 10-10 10zm0 0" fill="#f85252"/><path d="m431.886719 210.558594v8.0625c0 3.878906-.699219 7.578125-1.980469 11-4.476562 11.917968-15.976562 20.398437-29.417969 20.398437h-363.441406c-17.320313 0-31.398437-14.078125-31.398437-31.398437v-8.0625c0-5.777344 4.699218-10.480469 10.480468-10.480469h405.277344c5.78125 0 10.480469 4.703125 10.480469 10.480469zm0 0" fill="#56c1b3"/><path d="m431.886719 210.558594v8.0625c0 3.878906-.699219 7.578125-1.980469 11-4.476562 11.917968-15.976562 20.398437-29.417969 20.398437h-335.941406c-17.320313 0-31.398437-14.078125-31.398437-31.398437v-8.0625c0-5.777344 4.699218-10.480469 10.480468-10.480469h377.777344c5.78125 0 10.480469 4.703125 10.480469 10.480469zm0 0" fill="#7befe4"/><path d="m267.269531 200.074219v8.8125c0 8.917969-7.242187 16.160156-16.160156 16.160156h-64.683594c-8.917969 0-16.160156-7.242187-16.160156-16.160156v-8.8125zm0 0" fill="#56c1b3"/><path d="m281.769531 279.679688v160.558593c0 5.519531-4.480469 10-10 10h-257.382812c-5.539063 0-10-4.480469-10-10v-160.558593c0-5.523438 4.460937-10 10-10h257.382812c5.519531 0 10 4.480468 10 10zm0 0" fill="#1c868e"/><path d="m281.769531 279.679688v133.878906c0 5.519531-4.480469 10-10 10h-257.382812c-5.539063 0-10-4.480469-10-10v-133.878906c0-5.523438 4.460937-10 10-10h257.382812c5.519531 0 10 4.480468 10 10zm0 0" fill="#40c4df"/><path d="m35.347656 269.679688h215.460938v180.558593h-215.460938zm0 0" fill="#d8d6d7"/><path d="m35.347656 269.679688h215.460938v153.878906h-215.460938zm0 0" fill="#fff"/><path d="m219.539062 343.976562h-152.929687c-5.523437 0-10-4.480468-10-10v-23.992187c0-5.519531 4.476563-10 10-10h152.929687c5.519532 0 10 4.480469 10 10v23.992187c0 5.519532-4.480468 10-10 10zm0 0" fill="#f85252"/><path d="m127.253906 417.925781h-60.644531c-5.523437 0-10-4.476562-10-10v-33.414062c0-5.523438 4.476563-10 10-10h60.644531c5.519532 0 10 4.476562 10 10v33.414062c0 5.523438-4.480468 10-10 10zm0 0" fill="#f85252"/><path d="m219.554688 384.46875h-57.011719c-5.511719 0-9.980469-4.464844-9.980469-9.980469 0-5.511719 4.46875-9.976562 9.980469-9.976562h57.011719c5.511718 0 9.980468 4.464843 9.980468 9.976562.003906 5.515625-4.46875 9.980469-9.980468 9.980469zm0 0" fill="#f85252"/><path d="m219.554688 417.925781h-57.011719c-5.511719 0-9.980469-4.46875-9.980469-9.980469 0-5.511718 4.46875-9.980468 9.980469-9.980468h57.011719c5.511718 0 9.980468 4.46875 9.980468 9.980468.003906 5.511719-4.46875 9.980469-9.980468 9.980469zm0 0" fill="#f85252"/><g fill="#491352"><path d="m415.214844 267.175781h-91.160156c-11.394532 0-20.664063 9.269531-20.664063 20.664063v191.25c0 11.394531 9.269531 20.667968 20.664063 20.667968h91.160156c11.398437 0 20.667968-9.273437 20.667968-20.667968v-191.25c0-11.394532-9.269531-20.664063-20.667968-20.664063zm-91.15625 8h91.160156c6.984375 0 12.664062 5.679688 12.664062 12.664063v17.464844h-116.492187v-17.464844c0-6.984375 5.679687-12.664063 12.667969-12.664063zm103.824218 178.449219h-116.492187v-140.320312h116.492187zm-12.667968 38.132812h-91.160156c-6.984376 0-12.664063-5.683593-12.664063-12.667968v-17.464844h116.492187v17.464844c0 6.984375-5.683593 12.667968-12.667968 12.667968zm0 0"/><path d="m331.101562 376.078125h77.074219c7.71875 0 14-6.28125 14-14v-26.664063c0-7.71875-6.28125-14-14-14h-77.074219c-7.722656 0-14 6.28125-14 14v26.664063c0 7.71875 6.277344 14 14 14zm-6-40.664063c0-3.308593 2.691407-6 6-6h77.074219c3.308594 0 6 2.691407 6 6v26.664063c0 3.308594-2.691406 6-6 6h-77.074219c-3.308593 0-6-2.691406-6-6zm0 0"/><path d="m331.101562 445.515625h26.871094c7.71875 0 14-6.28125 14-14v-36.109375c0-7.71875-6.28125-14-14-14h-26.871094c-7.722656 0-14 6.28125-14 14v36.109375c0 7.71875 6.277344 14 14 14zm-6-50.105469c0-3.308594 2.691407-6 6-6h26.871094c3.308594 0 6 2.691406 6 6v36.109375c0 3.304688-2.691406 6-6 6h-26.871094c-3.308593 0-6-2.695312-6-6zm0 0"/><path d="m408.175781 381.410156h-16.316406c-7.722656 0-14 6.28125-14 14v2.21875c0 7.722656 6.277344 14 14 14h16.316406c7.71875 0 14-6.277344 14-14v-2.21875c0-7.71875-6.28125-14-14-14zm6 16.21875c0 3.308594-2.695312 6-6 6h-16.316406c-3.308594 0-6-2.691406-6-6v-2.21875c0-3.308594 2.691406-6 6-6h16.316406c3.304688 0 6 2.691406 6 6zm0 0"/><path d="m408.175781 415.296875h-16.316406c-7.722656 0-14 6.277344-14 14v2.21875c0 7.71875 6.277344 14 14 14h16.316406c7.71875 0 14-6.28125 14-14v-2.21875c0-7.722656-6.28125-14-14-14zm6 16.21875c0 3.308594-2.695312 6-6 6h-16.316406c-3.308594 0-6-2.691406-6-6v-2.21875c0-3.308594 2.691406-6 6-6h16.316406c3.304688 0 6 2.691406 6 6zm0 0"/><path d="m367.253906 294.972656h29.441406c2.207032 0 4-1.792968 4-4 0-2.207031-1.792968-4-4-4h-29.441406c-2.210937 0-4 1.792969-4 4 0 2.207032 1.789063 4 4 4zm0 0"/><path d="m348.828125 301.222656c5.652344 0 10.25-4.597656 10.25-10.25s-4.597656-10.25-10.25-10.25-10.25 4.597656-10.25 10.25 4.597656 10.25 10.25 10.25zm0-12.5c1.238281 0 2.25 1.007813 2.25 2.25 0 1.242188-1.007813 2.25-2.25 2.25s-2.25-1.011718-2.25-2.25c0-1.242187 1.011719-2.25 2.25-2.25zm0 0"/><path d="m377.554688 464.125h-15.835938c-6.796875 0-12.332031 5.53125-12.332031 12.332031s5.535156 12.332031 12.332031 12.332031h15.835938c6.800781 0 12.332031-5.53125 12.332031-12.332031s-5.53125-12.332031-12.332031-12.332031zm0 16.664062h-15.835938c-2.386719 0-4.332031-1.941406-4.332031-4.332031s1.945312-4.332031 4.332031-4.332031h15.835938c2.386718 0 4.332031 1.941406 4.332031 4.332031s-1.945313 4.332031-4.332031 4.332031zm0 0"/><path d="m313.847656 39.785156h-192.488281c-7.71875 0-14 6.277344-14 14v34.050782c0 7.71875 6.28125 14 14 14h192.488281c7.71875 0 14-6.28125 14-14v-34.050782c0-7.722656-6.28125-14-14-14zm6 48.050782c0 3.308593-2.691406 6-6 6h-192.488281c-3.308594 0-6-2.691407-6-6v-34.050782c0-3.308594 2.691406-6 6-6h192.488281c3.308594 0 6 2.691406 6 6zm0 0"/><path d="m200.449219 109.265625h-79.089844c-7.71875 0-14 6.277344-14 14v45.632813c0 7.722656 6.28125 14 14 14h79.09375c7.71875 0 14-6.277344 14-14v-45.632813c-.003906-7.722656-6.28125-14-14.003906-14zm6 59.632813c0 3.308593-2.691407 6-6 6h-79.089844c-3.308594 0-6-2.691407-6-6v-45.632813c0-3.308594 2.691406-6 6-6h79.09375c3.308594 0 6 2.691406 6 6v45.632813zm0 0"/><path d="m313.847656 109.265625h-74.582031c-7.71875 0-14 6.277344-14 14v4.523437c0 7.722657 6.28125 14 14 14h74.582031c7.71875 0 14-6.277343 14-14v-4.523437c0-7.722656-6.28125-14-14-14zm6 18.527344c0 3.308593-2.691406 6-6 6h-74.582031c-3.308594 0-6-2.691407-6-6v-4.527344c0-3.308594 2.691406-6 6-6h74.582031c3.308594 0 6 2.691406 6 6zm0 0"/><path d="m313.847656 150.375h-74.582031c-7.71875 0-14 6.277344-14 14v4.527344c0 7.71875 6.28125 14 14 14h74.582031c7.71875 0 14-6.28125 14-14v-4.527344c0-7.722656-6.28125-14-14-14zm6 18.523438c0 3.308593-2.691406 6-6 6h-74.582031c-3.308594 0-6-2.691407-6-6v-4.527344c0-3.308594 2.691406-6 6-6h74.582031c3.308594 0 6 2.691406 6 6zm0 0"/><path d="m421.414062 196.074219h-23.566406v-162.074219c0-18.746094-15.25-34-34-34h-290.160156c-18.746094 0-34 15.253906-34 34v162.074219h-23.570312c-7.976563 0-14.464844 6.492187-14.464844 14.46875v8.058593c0 19.519532 15.878906 35.398438 35.398437 35.398438h363.433594c19.519531 0 35.398437-15.878906 35.398437-35.398438v-8.058593c0-7.980469-6.492187-14.46875-14.46875-14.46875zm-373.726562-162.074219c0-14.335938 11.664062-26 26-26h290.160156c14.335938 0 26 11.664062 26 26v162.074219h-10.609375v-163.464844c0-7.722656-6.277343-14-14-14h-292.941406c-7.722656 0-14 6.277344-14 14v163.464844h-10.609375zm126.578125 170.074219h89.003906v4.8125c0 6.707031-5.457031 12.160156-12.160156 12.160156h-64.683594c-6.707031 0-12.160156-5.453125-12.160156-12.160156zm93.003906-8h-200.972656v-163.464844c0-3.308594 2.691406-6 6-6h292.941406c3.308594 0 6 2.691406 6 6v163.464844zm160.613281 22.527343c0 15.105469-12.292968 27.394532-27.402343 27.394532h-363.429688c-15.105469 0-27.398437-12.289063-27.398437-27.394532v-8.0625c0-3.566406 2.902344-6.464843 6.464844-6.464843h150.148437v4.8125c0 11.117187 9.042969 20.160156 20.160156 20.160156h64.679688c11.117187 0 20.160156-9.042969 20.160156-20.160156v-4.8125h150.144531c3.566406 0 6.46875 2.902343 6.46875 6.464843v8.0625zm0 0"/><path d="m271.769531 265.683594h-257.390625c-7.722656 0-14 6.277344-14 14v160.542968c0 7.722657 6.277344 14 14 14h257.390625c7.71875 0 14-6.277343 14-14v-160.542968c0-7.722656-6.285156-14-14-14zm-263.390625 174.546875v-160.546875c0-3.308594 2.691406-6 6-6h16.96875v172.546875h-16.96875c-3.3125 0-6-2.691407-6-6zm30.96875 6v-172.546875h207.449219v172.546875zm238.421875-6c0 3.308593-2.695312 6-6 6h-16.972656v-172.546875h16.972656c3.304688 0 6 2.691406 6 6zm0 0"/><path d="m219.535156 295.984375h-152.925781c-7.722656 0-14 6.28125-14 14v23.992187c0 7.71875 6.277344 14 14 14h152.929687c7.71875 0 14-6.28125 14-14v-23.992187c-.003906-7.71875-6.28125-14-14.003906-14zm6 37.992187c0 3.308594-2.691406 6-6 6h-152.925781c-3.308594 0-6-2.691406-6-6v-23.992187c0-3.304687 2.691406-6 6-6h152.929687c3.308594 0 6 2.695313 6 6v23.992187zm0 0"/><path d="m127.253906 360.511719h-60.644531c-7.722656 0-14 6.277343-14 14v33.414062c0 7.71875 6.277344 14 14 14h60.644531c7.71875 0 14-6.28125 14-14v-33.414062c0-7.722657-6.28125-14-14-14zm6 47.414062c0 3.308594-2.695312 6-6 6h-60.644531c-3.308594 0-6-2.691406-6-6v-33.414062c0-3.308594 2.691406-6 6-6h60.644531c3.304688 0 6 2.691406 6 6zm0 0"/><path d="m219.558594 360.511719h-57.011719c-7.707031 0-13.980469 6.269531-13.980469 13.976562 0 7.710938 6.273438 13.980469 13.980469 13.980469h57.011719c7.707031 0 13.980468-6.269531 13.980468-13.980469-.003906-7.707031-6.273437-13.976562-13.980468-13.976562zm0 19.957031h-57.011719c-3.300781 0-5.980469-2.679688-5.980469-5.980469 0-3.292969 2.679688-5.976562 5.980469-5.976562h57.011719c3.296875 0 5.980468 2.679687 5.980468 5.976562-.003906 3.300781-2.683593 5.980469-5.980468 5.980469zm0 0"/><path d="m219.558594 393.964844h-57.011719c-7.707031 0-13.980469 6.269531-13.980469 13.980468 0 7.707032 6.273438 13.980469 13.980469 13.980469h57.011719c7.707031 0 13.980468-6.273437 13.980468-13.980469 0-7.710937-6.273437-13.980468-13.980468-13.980468zm0 19.960937h-57.011719c-3.300781 0-5.980469-2.683593-5.980469-5.980469 0-3.296874 2.679688-5.980468 5.980469-5.980468h57.011719c3.296875 0 5.980468 2.683594 5.980468 5.980468 0 3.296876-2.683593 5.980469-5.980468 5.980469zm0 0"/><path d="m20.871094 340.460938c-2.210938 0-4 1.792968-4 4v30.992187c0 2.207031 1.789062 4 4 4 2.207031 0 4-1.792969 4-4v-30.992187c0-2.207032-1.792969-4-4-4zm0 0"/><path d="m265.273438 340.460938c-2.207032 0-4 1.792968-4 4v30.992187c0 2.207031 1.792968 4 4 4 2.207031 0 4-1.792969 4-4v-30.992187c0-2.207032-1.789063-4-4-4zm0 0"/></g></svg>