<svg height="504pt" viewBox="0 0 504.62898 504" width="504pt" xmlns="http://www.w3.org/2000/svg"><path d="m440.316406 252.628906c0 103.832032-84.171875 188-188 188s-188-84.167968-188-188c0-103.828125 84.171875-188 188-188s188 84.171875 188 188zm0 0" fill="#d8d6d7"/><path d="m417.597656 252.628906c0 46.820313-19.460937 89.101563-50.761718 119.179688-29.699219 28.5625-70.058594 46.101562-114.519532 46.101562-15.320312 0-30.140625-2.078125-44.21875-5.980468-26.78125-7.398438-50.820312-21.398438-70.300781-40.121094-31.300781-30.078125-50.761719-72.359375-50.761719-119.179688 0-46.820312 19.460938-89.097656 50.761719-119.179687 20.039063-19.257813 44.917969-33.519531 72.640625-40.738281 13.359375-3.5 27.398438-5.359376 41.878906-5.359376 44.460938 0 84.820313 17.539063 114.519532 46.097657 31.300781 30.082031 50.761718 72.359375 50.761718 119.179687zm0 0" fill="#40c4df"/><path d="m208.097656 411.929688c-26.78125-7.398438-50.820312-21.398438-70.300781-40.121094-31.300781-30.078125-50.761719-72.359375-50.761719-119.179688 0-46.820312 19.460938-89.097656 50.761719-119.179687 20.039063-19.257813 44.917969-33.519531 72.640625-40.738281-32.261719 30.519531-180.160156 185.941406-2.339844 319.21875zm0 0" fill="#1c868e"/><path d="m490.234375 74.046875c0 12.703125-10.296875 23-23 23s-23-10.296875-23-23c0-12.699219 10.296875-23 23-23s23 10.300781 23 23zm0 0" fill="#f85252"/><path d="m484.898438 431.214844c0 12.703125-10.296876 23-23 23-12.699219 0-23-10.296875-23-23s10.300781-23 23-23c12.703124 0 23 10.296875 23 23zm0 0" fill="#f85252"/><path d="m60.398438 74.046875c0 12.703125-10.296876 23-23 23-12.699219 0-23-10.296875-23-23 0-12.699219 10.300781-23 23-23 12.703124 0 23 10.300781 23 23zm0 0" fill="#f85252"/><path d="m65.734375 431.214844c0 12.703125-10.296875 23-23 23s-23-10.296875-23-23 10.296875-23 23-23 23 10.296875 23 23zm0 0" fill="#f85252"/><path d="m325.175781 235.128906h-13.878906c-1.199219-4.078125-2.839844-8.058594-4.921875-11.859375l9.820312-9.820312c2.402344-2.378907 2.402344-6.257813 0-8.660157l-16.058593-16.039062c-2.378907-2.398438-6.261719-2.398438-8.660157 0l-9.820312 9.800781c-3.800781-2.082031-7.78125-3.699219-11.859375-4.898437v-13.882813c0-3.398437-2.761719-6.140625-6.140625-6.140625h-22.699219c-3.382812 0-6.140625 2.742188-6.140625 6.140625v13.882813c-4.082031 1.199218-8.039062 2.839844-11.859375 4.898437l-9.820312-9.800781c-2.378907-2.398438-6.261719-2.398438-8.660157 0l-16.039062 16.039062c-2.402344 2.402344-2.402344 6.28125 0 8.660157l9.796875 9.820312c-2.238281 4.140625-3.976563 8.480469-5.199219 12.921875h-13.578125c-3.402343 0-6.140625 2.757813-6.140625 6.140625v22.699219c0 3.378906 2.738282 6.140625 6.140625 6.140625h14.199219c1.140625 3.699219 2.679688 7.320313 4.578125 10.796875l-9.796875 9.820312c-2.402344 2.402344-2.402344 6.28125 0 8.660157l16.039062 16.0625c2.398438 2.398437 6.28125 2.398437 8.660157 0l9.820312-9.820313c3.820313 2.078125 7.777344 3.699219 11.859375 4.917969v13.882813c0 3.398437 2.757813 6.136718 6.140625 6.136718h22.699219c3.378906 0 6.140625-2.738281 6.140625-6.136718v-13.882813c4.078125-1.21875 8.058594-2.839844 11.878906-4.917969l9.800781 9.820313c2.398438 2.398437 6.28125 2.398437 8.660157 0l16.058593-16.0625c2.402344-2.378907 2.402344-6.257813 0-8.660157l-9.820312-9.796874c2.082031-3.820313 3.722656-7.800782 4.921875-11.882813h13.878906c3.398438 0 6.140625-2.757813 6.140625-6.140625v-22.699219c0-3.378906-2.742187-6.140625-6.140625-6.140625zm-72.859375 54.78125c-20.679687 0-37.300781-16.757812-37.300781-37.28125 0-20.699218 16.800781-37.296875 37.300781-37.296875 20.597656 0 37.300782 16.699219 37.300782 37.296875 0 20.660156-16.761719 37.28125-37.300782 37.28125zm0 0" fill="#f85252"/><g fill="#491352"><path d="m373.421875 133.449219c-72.351563-69.601563-173.671875-65.933594-242.207031 0l.085937.085937c-31.5 31.9375-48.832031 74.019532-48.832031 119.09375 0 45.074219 17.332031 87.15625 48.835938 119.09375l-.089844.085938c68.097656 65.515625 169.464844 69.980468 242.207031 0l-.085937-.085938c31.5-31.9375 48.832031-74.019531 48.832031-119.09375 0-45.074218-17.332031-87.15625-48.835938-119.09375zm-13.3125.039062c-12.289063 11.113281-26.238281 20.210938-41.210937 27.039063-19.046876-31.804688-41.820313-55.988282-54.34375-68.113282 34.984374 2.742188 68.089843 16.167969 95.554687 41.074219zm-41.082031 155.464844-7.75-7.738281c1.113281-2.292969 2.097656-4.671875 2.945312-7.113282h10.957032c5.589843 0 10.136718-4.546874 10.136718-10.136718v-6.769532h6.398438c1.59375 27.832032-4.542969 54.324219-18.417969 79.507813-15.644531-7.207031-32.359375-12.023437-49.507813-14.195313v-7.976562c2.441407-.851562 4.820313-1.835938 7.109376-2.945312l7.75 7.769531c3.957031 3.921875 10.378906 3.917969 14.320312-.011719l16.0625-16.058594c3.941406-3.945312 3.941406-10.371094-.003906-14.332031zm16.289062-40.886719v-6.792968c0-5.585938-4.546875-10.132813-10.136718-10.132813h-10.960938c-.84375-2.4375-1.828125-4.808594-2.941406-7.101563l7.746094-7.746093c1.914062-1.90625 2.96875-4.449219 2.972656-7.15625 0-2.710938-1.050782-5.261719-2.96875-7.179688l-16.058594-16.039062c-3.941406-3.945313-10.367188-3.949219-14.332031 0l-7.746094 7.742187c-2.296875-1.117187-4.671875-2.101562-7.105469-2.941406v-7.964844c14.066406-1.785156 27.835938-5.355468 40.96875-10.5625 12.628906 22.464844 22.945313 48.316406 26.160156 75.875zm-78.4375-150.261718c11.515625 11.164062 34.171875 35.007812 53.21875 66.417968-12.289062 4.75-25.15625 7.992188-38.289062 9.582032-1.84375-2.515626-4.800782-4.175782-8.15625-4.175782h-6.773438zm-9.125 0v71.824218h-6.792968c-3.355469 0-6.3125 1.660156-8.160157 4.175782-13.121093-1.589844-25.984375-4.832032-38.265625-9.582032 19.046875-31.40625 41.699219-55.253906 53.21875-66.417968zm-62.152344 118.480468 7.75 7.757813c-1.277343 2.625-2.375 5.355469-3.292968 8.15625h-10.605469c-5.589844 0-10.136719 4.542969-10.136719 10.125v5.742187h-5.605468c3.21875-27.558594 13.535156-53.40625 26.164062-75.871094 13.125 5.207032 26.890625 8.777344 40.949219 10.558594v7.96875c-2.414063.835938-4.785157 1.820313-7.09375 2.941406l-7.75-7.738281c-1.910157-1.917969-4.457031-2.976562-7.167969-2.976562-2.707031 0-5.253906 1.058593-7.160156 2.96875l-16.046875 16.039062c-1.917969 1.917969-2.972657 4.464844-2.96875 7.179688 0 2.710937 1.058593 5.25 2.964843 7.148437zm0 87 16.050782 16.058594c1.910156 1.910156 4.453125 2.957031 7.160156 2.957031 2.710938 0 5.253906-1.046875 7.160156-2.957031l7.757813-7.757812c2.292969 1.113281 4.664062 2.09375 7.09375 2.941406v7.980468c-17.140625 2.171876-33.851563 6.984376-49.488281 14.191407-13.855469-25.148438-20.011719-51.632813-18.417969-79.503907h6.398437v7.828126c0 5.589843 4.546875 10.136718 10.136719 10.136718h11.332031c.746094 2.050782 1.601563 4.066406 2.5625 6.042969l-7.75 7.757813c-3.941406 3.953124-3.9375 10.378906.003906 14.324218zm54.476563-210.871094c-12.523437 12.125-35.296875 36.308594-54.34375 68.117188-14.96875-6.828125-28.917969-15.929688-41.207031-27.042969 26.105468-23.65625 58.835937-38.195312 95.550781-41.074219zm-102.132813 47.382813c12.882813 11.742187 27.488282 21.414063 43.199219 28.679687-13 23.402344-23.539062 50.457032-26.667969 79.589844h-62.769531c1.128907-40.984375 17.410157-79.113281 46.238281-108.269531zm-46.238281 117.398437h62.046875c-1.519531 29.332032 4.878906 57.132813 19.371094 83.574219-12.675781 6.6875-24.515625 14.980469-35.175781 24.695313-28.832031-29.15625-45.113281-67.28125-46.242188-108.269532zm52.820313 114.582032c10.066406-9.105469 21.253906-16.84375 33.195312-23.105469 13.957032 22.636719 33.917969 44.011719 59.8125 63.996094-34.101562-3.101563-66.671875-17.007813-93.007812-40.890625zm103.226562 37.175781c-26.96875-20.085937-47.59375-41.578125-61.777344-64.335937 14.8125-6.726563 30.621094-11.195313 46.824219-13.164063 1.847657 2.519531 4.804688 4.175781 8.160157 4.175781h6.792968zm-6.792968-81.324219c-1.175782 0-2.136719-.957031-2.136719-2.132812v-13.875c0-1.769532-1.160157-3.324219-2.851563-3.832032-3.875-1.164062-7.609375-2.710937-11.09375-4.605468-.601562-.328125-1.257812-.488282-1.910156-.488282-1.035156 0-2.0625.402344-2.832031 1.171876l-9.820313 9.820312c-.535156.535156-1.171875.617188-1.5.617188-.332031 0-.964844-.082032-1.503906-.617188l-16.046875-16.058594c-.832031-.832031-.828125-2.1875 0-3.019531l9.804687-9.820313c1.257813-1.257812 1.535157-3.191406.679688-4.75-1.765625-3.214843-3.199219-6.601562-4.265625-10.054687-.519531-1.679687-2.070313-2.820313-3.824219-2.820313h-14.207031c-1.175781 0-2.136719-.960937-2.136719-2.136718v-22.703125c0-1.171875.960938-2.125 2.136719-2.125h13.578125c1.796875 0 3.375-1.203125 3.855469-2.9375 1.167969-4.226563 2.808593-8.292969 4.867187-12.070313.847656-1.554687.570313-3.484375-.683594-4.738281l-9.8125-9.828125c-.539062-.535156-.621093-1.167969-.621093-1.496094 0-.574218.222656-1.109375.625-1.511718l16.054687-16.046876c.539063-.542968 1.167969-.621093 1.5-.621093.328125 0 .960938.078125 1.503906.625l9.820313 9.808593c1.253906 1.25 3.183594 1.535157 4.738281.683594 3.53125-1.921875 7.257813-3.464844 11.078125-4.589844 1.703125-.503906 2.871094-2.0625 2.871094-3.839843v-13.875c0-1.175781.957031-2.132813 2.136719-2.132813h22.691406c1.179688 0 2.136719.957032 2.136719 2.132813v13.875c0 1.777343 1.167969 3.335937 2.867187 3.839843 3.871094 1.136719 7.601563 2.683594 11.085938 4.585938 1.558594.855469 3.492187.574219 4.746094-.683594l9.804687-9.800781c.835937-.832031 2.191406-.835937 3.023437-.003906l16.058594 16.039062c.402344.40625.625.941407.625 1.515625 0 .328125-.082031.960938-.625 1.5l-9.820312 9.820313c-1.253906 1.257812-1.53125 3.191406-.675782 4.75 1.894532 3.460937 3.441407 7.191406 4.59375 11.078125.503907 1.699218 2.066407 2.863281 3.835938 2.863281h13.875c1.175781 0 2.132812.957031 2.132812 2.132813v22.691406c0 1.179687-.957031 2.136718-2.132812 2.136718h-13.875c-1.769531 0-3.332031 1.164063-3.835938 2.863282-1.15625 3.894531-2.703124 7.628906-4.597656 11.101562-.851562 1.554688-.574218 3.492188.683594 4.746094l9.8125 9.792969c.832031.835937.832031 2.191406.003906 3.023437l-16.054687 16.050782c-.832031.832031-2.195313.832031-3.019531.007812l-9.796876-9.816406c-1.253906-1.257813-3.1875-1.539063-4.742187-.6875-3.46875 1.886718-7.210937 3.433594-11.117187 4.605468-1.691407.507813-2.851563 2.0625-2.851563 3.832032v13.875c0 1.179687-.957031 2.132812-2.136719 2.132812zm15.917968 8h6.773438c3.355468 0 6.3125-1.65625 8.15625-4.175781 16.214844 1.96875 32.03125 6.4375 46.84375 13.164063-14.183594 22.761718-34.804688 44.253906-61.773438 64.335937zm10.222656 77.039063c25.890626-19.984375 45.851563-41.359375 59.808594-64 11.941406 6.265625 23.132813 14.003906 33.199219 23.105469-26.296875 23.828124-59.054687 37.804687-93.007813 40.894531zm99.585938-47.203125c-10.660156-9.714844-22.503906-18.007813-35.179688-24.695313 14.480469-26.417969 20.890626-54.21875 19.371094-83.574219h62.046875c-1.128906 40.988282-17.410156 79.113282-46.238281 108.269532zm46.238281-117.398438h-62.773437c-3.125-29.132812-13.667969-56.1875-26.667969-79.59375 15.714844-7.261718 30.320313-16.933594 43.203125-28.675781 28.828125 29.152344 45.109375 67.28125 46.238281 108.269531zm0 0"/><path d="m461.898438 403.652344c-13.785157 0-25.203126 10.183594-27.214844 23.414062h-36.785156c-2.996094 0-5.433594-2.4375-5.433594-5.4375v-37.0625c67.414062-71.4375 70.472656-182.679687 5.332031-257.9375v-43c0-2.996094 2.4375-5.433594 5.4375-5.433594h36.78125c2.011719 13.230469 13.433594 23.414063 27.21875 23.414063 15.199219 0 27.5625-12.363281 27.5625-27.5625s-12.363281-27.5625-27.5625-27.5625c-13.496094 0-24.738281 9.757813-27.089844 22.582031h-36.910156c-8.03125 0-14.5625 6.535156-14.5625 14.5625v33.160156c-75.183594-75.605468-197.222656-75.613281-272.707031 0v-33.160156c0-8.03125-6.535156-14.5625-14.566406-14.5625h-36.910157c-2.351562-12.824218-13.59375-22.582031-27.089843-22.582031-15.199219 0-27.5625 12.363281-27.5625 27.5625s12.367187 27.5625 27.5625 27.5625c13.789062 0 25.207031-10.183594 27.21875-23.414063h36.78125c3 0 5.4375 2.4375 5.4375 5.433594v42.960938c-64.4375 74.160156-62.792969 185.480468 5.335937 257.957031v37.082031c0 2.996094-2.441406 5.4375-5.4375 5.4375h-36.78125c-2.011719-13.234375-13.433594-23.417968-27.21875-23.417968-15.199219 0-27.5625 12.367187-27.5625 27.5625 0 15.199218 12.363281 27.566406 27.5625 27.566406 13.496094 0 24.734375-9.757813 27.089844-22.585938h36.910156c8.03125 0 14.5625-6.53125 14.5625-14.5625v-27.980468c73.402344 68.367187 187.523437 69.09375 262.039063-.082032v28.0625c0 8.035156 6.535156 14.566406 14.5625 14.566406h36.910156c2.355468 12.824219 13.59375 22.582032 27.089844 22.582032 15.203124 0 27.566406-12.363282 27.566406-27.5625 0-15.199219-12.367188-27.5625-27.566406-27.5625zm5.335937-348.039063c10.164063 0 18.4375 8.269531 18.4375 18.433594 0 10.167969-8.273437 18.4375-18.4375 18.4375-10.167969 0-18.4375-8.269531-18.4375-18.4375 0-10.164063 8.269531-18.433594 18.4375-18.433594zm-429.835937 36.871094c-10.164063 0-18.433594-8.273437-18.433594-18.4375 0-10.167969 8.269531-18.4375 18.433594-18.4375 10.167968 0 18.4375 8.269531 18.4375 18.4375 0 10.164063-8.273438 18.4375-18.4375 18.4375zm5.335937 357.167969c-10.167969 0-18.4375-8.273438-18.4375-18.4375 0-10.167969 8.269531-18.4375 18.4375-18.4375 10.164063 0 18.4375 8.269531 18.4375 18.4375 0 10.164062-8.273437 18.4375-18.4375 18.4375zm189.636719-14.675782c-100.546875-10.996093-173.402344-101.742187-162.402344-202.289062 10.992188-100.503906 101.675781-173.386719 202.292969-162.402344 100.542969 10.996094 173.398437 101.746094 162.402343 202.292969-10.996093 100.542969-101.734374 173.386719-202.292968 162.398437zm229.527344 14.675782c-10.164063 0-18.433594-8.273438-18.433594-18.4375 0-10.167969 8.269531-18.4375 18.433594-18.4375 10.167968 0 18.4375 8.269531 18.4375 18.4375 0 10.164062-8.273438 18.4375-18.4375 18.4375zm0 0"/><path d="m293.609375 252.632812c0-22.773437-18.523437-41.296874-41.289063-41.296874-22.769531 0-41.296874 18.527343-41.296874 41.296874 0 22.765626 18.527343 41.289063 41.296874 41.289063 22.765626 0 41.289063-18.523437 41.289063-41.289063zm-41.289063 33.289063c-18.359374 0-33.296874-14.933594-33.296874-33.289063 0-18.359374 14.9375-33.296874 33.296874-33.296874 18.355469 0 33.289063 14.9375 33.289063 33.296874 0 18.355469-14.933594 33.289063-33.289063 33.289063zm0 0"/><path d="m200.527344 34.785156c12.167968-16.578125 31.648437-26.46875 52.117187-26.46875 20.371094 0 39.140625 9.34375 51.5 25.640625 3.191407 4.207031 9.574219-.617187 6.375-4.835937-13.886719-18.304688-34.980469-28.804688-57.871093-28.804688-23.007813 0-44.902344 11.117188-58.566407 29.734375-3.148437 4.285157 3.347657 8.953125 6.445313 4.734375zm0 0"/><path d="m252.519531 21.40625c-19.703125 0-37.722656 10.003906-48.203125 26.753906-2.800781 4.484375 3.980469 8.726563 6.785156 4.242188 9.003907-14.398438 24.488282-22.996094 41.417969-22.996094 16.636719 0 31.980469 8.371094 41.042969 22.390625 2.875 4.4375 9.59375.101563 6.71875-4.34375-10.546875-16.3125-28.402344-26.046875-47.761719-26.046875zm0 0"/><path d="m304.105469 470.476562c-25.484375 34.722657-77.261719 35.574219-103.617188.828126-3.199219-4.214844-9.566406.625-6.371093 4.835937 29.558593 38.96875 87.761718 38.132813 116.4375-.929687 3.128906-4.261719-3.316407-9-6.449219-4.734376zm0 0"/><path d="m300.3125 457.101562c2.804688-4.480468-3.972656-8.726562-6.78125-4.242187-19.054688 30.472656-63.050781 30.628906-82.464844.605469-2.871094-4.4375-9.589844-.097656-6.714844 4.34375 22.613282 34.976562 73.824219 34.691406 95.960938-.707032zm0 0"/><path d="m475.824219 310.832031c38.972656-29.558593 38.140625-87.761719-.929688-116.441406-4.261719-3.125-9 3.316406-4.734375 6.453125 34.730469 25.488281 35.570313 77.265625.832032 103.613281-4.203126 3.191407.605468 9.574219 4.832031 6.375zm0 0"/><path d="m453.152344 293.875c-4.410156 2.851562-.125 9.605469 4.34375 6.71875 34.96875-22.605469 34.699218-73.820312-.707032-95.960938-4.484374-2.8125-8.726562 3.984376-4.242187 6.785157 30.46875 19.050781 30.628906 63.050781.605469 82.457031zm0 0"/><path d="m28.808594 194.429688c-18.308594 13.886718-28.808594 34.980468-28.808594 57.875 0 36.226562 27.601562 59.34375 32.101562 59.34375 3.847657 0 5.484376-4.941407 2.371094-7.226563-34.730468-25.488281-35.570312-77.265625-.832031-103.617187 4.210937-3.191407-.609375-9.566407-4.832031-6.375zm0 0"/><path d="m51.480469 211.382812c4.445312-2.871093.097656-9.585937-4.34375-6.714843-34.964844 22.605469-34.699219 73.820312.710937 95.957031 4.492188 2.820312 8.703125-3.992188 4.242188-6.78125-30.472656-19.050781-30.628906-63.050781-.609375-82.460938zm0 0"/></g></svg>