<svg height="502pt" viewBox="0 -32 502 502" width="502pt" xmlns="http://www.w3.org/2000/svg"><path d="m488 433.757812h-474c-5.523438 0-10-4.480468-10-10v-409.757812c0-5.523438 4.476562-10 10-10h474c5.523438 0 10 4.476562 10 10v409.757812c0 5.523438-4.476562 10-10 10zm0 0" fill="#f85252"/><path d="m498 74.359375v349.398437c0 5.519532-4.480469 10-10 10h-474c-5.519531 0-10-4.480468-10-10v-409.761718c0-5.519532 4.480469-10 10-10h119.898438l51.023437 63.402344c3.539063 4.398437 8.898437 6.960937 14.558594 6.960937zm0 0" fill="#d8d6d7"/><path d="m498 74.359375v349.398437c0 5.523438-4.476562 10-10 10h-443.539062c-5.523438 0-10-4.476562-10-10v-409.761718c0-5.519532 4.476562-10 10-10h89.4375l51.023437 63.402344c3.539063 4.398437 8.898437 6.960937 14.558594 6.960937zm0 0" fill="#fff"/><path d="m419.476562 39.792969c0 7.617187-6.175781 13.792969-13.792968 13.792969-7.617188 0-13.792969-6.175782-13.792969-13.792969 0-7.617188 6.175781-13.792969 13.792969-13.792969 7.617187 0 13.792968 6.175781 13.792968 13.792969zm0 0" fill="#40c4df"/><path d="m469.960938 39.792969c0 7.617187-6.175782 13.792969-13.792969 13.792969-7.617188 0-13.792969-6.175782-13.792969-13.792969 0-7.617188 6.175781-13.792969 13.792969-13.792969 7.617187 0 13.792969 6.175781 13.792969 13.792969zm0 0" fill="#40c4df"/><path d="m467.820312 133.21875v243.320312c0 11.039063-8.960937 20-20 20h-393.640624c-11.039063 0-20-8.960937-20-20v-243.320312c0-11.039062 8.960937-20 20-20h393.640624c11.039063 0 20 8.960938 20 20zm0 0" fill="#40c4df"/><path d="m467.820312 354.878906v21.660156c0 11.039063-8.960937 20-20 20h-393.640624c-11.039063 0-20-8.960937-20-20v-21.660156zm0 0" fill="#1c868e"/><path d="m163 335.878906h-98.664062c-5.523438 0-10-4.480468-10-10v-182c0-5.523437 4.476562-10 10-10h98.664062c5.523438 0 10 4.476563 10 10v182c0 5.519532-4.476562 10-10 10zm0 0" fill="#fff"/><path d="m435.5 333.378906h-227c-5.523438 0-10-4.480468-10-10v-179.5c0-5.523437 4.476562-10 10-10h227c5.523438 0 10 4.476563 10 10v179.5c0 5.519532-4.476562 10-10 10zm0 0" fill="#fff"/><path d="m284.941406 233.816406c-106.855468 0-194.136718 83.828125-199.664062 189.308594-.300782 5.761719 4.210937 10.632812 9.984375 10.632812h379.355469c5.773437 0 10.285156-4.871093 9.984374-10.632812-5.527343-105.480469-92.804687-189.308594-199.660156-189.308594zm0 0" fill="#f85252"/><path d="m437.539062 404.296875h-305.199218c-8.160156 0-13.980469-7.777344-11.820313-15.640625 19.820313-72.179688 86.019531-125.378906 164.421875-125.378906 6.257813 0 12.4375.339844 18.539063 1 70.140625 7.621094 127.640625 57.960937 145.878906 124.378906 2.160156 7.863281-3.660156 15.640625-11.820313 15.640625zm0 0" fill="#d8d6d7"/><path d="m437.539062 404.296875h-268.140624c-8.160157 0-13.976563-7.777344-11.820313-15.640625 18.242187-66.417969 75.761719-116.757812 145.902344-124.378906 70.140625 7.621094 127.640625 57.960937 145.878906 124.378906 2.160156 7.863281-3.660156 15.640625-11.820313 15.640625zm0 0" fill="#fff"/><path d="m293.847656 385.257812h-17.8125v-54.140624c0-4.917969 3.988282-8.90625 8.90625-8.90625 4.917969 0 8.90625 3.988281 8.90625 8.90625zm0 0" fill="#f85252"/><path d="m323.421875 404.296875h-76.960937c.199218-21.058594 17.359374-38.078125 38.480468-38.078125 21.117188 0 38.277344 17.019531 38.480469 38.078125zm0 0" fill="#40c4df"/><g fill="#491352"><path d="m488 0c-18.835938 0-454.773438 0-473.5625 0h-.4375c-7.71875 0-14 6.28125-14 14v409.757812c0 7.71875 6.28125 14 14 14h.4375 473.5625c7.71875 0 14-6.28125 14-14v-.441406c0-11.492187 0-361.65625 0-409.320312 0-7.714844-6.28125-13.996094-14-13.996094zm-402.8125 392.539062h-31.007812c-8.820313 0-16-7.179687-16-16v-17.660156h57.058593c-1.613281 4.074219-3.085937 8.21875-4.441406 12.414063h-31.296875c-2.207031 0-4 1.792969-4 4 0 2.210937 1.792969 4 4 4h28.894531c-1.207031 4.359375-2.285156 8.773437-3.207031 13.246093zm350.3125-262.660156h-227c-7.71875 0-14 6.277344-14 14v107.125c-6.007812 2.984375-11.847656 6.257813-17.5 9.796875v-116.921875c0-7.722656-6.28125-14-14-14h-98.660156c-7.71875 0-14 6.277344-14 14v182c0 7.71875 6.28125 14 14 14h39.59375c-1.878906 3.605469-3.652344 7.269532-5.316406 11h-60.4375v-217.660156c0-8.824219 7.179687-16 16-16h393.640624c8.820313 0 16 7.175781 16 16v202.679688c-4.289062-7.808594-9.082031-15.304688-14.320312-22.453126v-169.566406c0-7.722656-6.28125-14-14-14zm6 14v159.339844c-59.125-70.789062-156.820312-92.441406-239-55.976562v-103.363282c0-3.308594 2.691406-6 6-6h227c3.308594 0 6 2.691406 6 6zm-356.5 167h37.285156c-5.066406 6.691406-9.738281 13.699219-13.964844 21h-43.980468c-3.308594 0-6-2.691406-6-6v-182c0-3.308594 2.691406-6 6-6h98.660156c3.308594 0 6 2.691406 6 6v122.199219c-15.03125 10.425781-28.601562 22.816406-40.332031 36.800781h-43.667969c-2.207031 0-4 1.792969-4 4 0 2.207032 1.792969 4 4 4zm4.039062 118.878906c2.140626-106.203124 89.195313-191.941406 195.902344-191.941406 106.703125 0 193.757813 85.738282 195.898438 191.941406zm404.960938-6.441406c0 3.117188-2.226562 5.722656-5.175781 6.3125-.546875-27.492187-6.566407-53.664062-17.003907-77.476562v-218.933594c0-13.234375-10.765624-24-24-24h-393.640624c-13.234376 0-24 10.765625-24 24v243.320312c0 13.234376 10.765624 24 24 24h29.539062c-1.566406 9.535157-2.476562 19.289063-2.667969 29.21875h-66.613281c-3.550781 0-6.4375-2.890624-6.4375-6.441406v-408.878906c0-3.550781 2.886719-6.4375 6.4375-6.4375h117.546875l49.824219 61.898438c4.324218 5.375 10.761718 8.457031 17.664062 8.457031h294.527344zm0-352.960937h-294.53125c-4.460938 0-8.628906-1.996094-11.429688-5.472657l-45.785156-56.882812h345.746094c3.308594 0 6 2.691406 6 6zm0 0"/><path d="m112.519531 38.113281h-69.085937c-2.207032 0-4 1.792969-4 4s1.792968 4 4 4h69.085937c2.207031 0 4-1.792969 4-4s-1.792969-4-4-4zm0 0"/><path d="m405.6875 22c-9.8125 0-17.792969 7.980469-17.792969 17.792969 0 9.808593 7.980469 17.792969 17.792969 17.792969 9.808594 0 17.789062-7.984376 17.789062-17.792969 0-9.8125-7.980468-17.792969-17.789062-17.792969zm0 27.585938c-5.402344 0-9.792969-4.390626-9.792969-9.792969 0-5.398438 4.390625-9.789063 9.792969-9.789063 5.398438 0 9.789062 4.390625 9.789062 9.789063 0 5.398437-4.390624 9.792969-9.789062 9.792969zm0 0"/><path d="m456.167969 22c-9.808594 0-17.792969 7.980469-17.792969 17.792969 0 9.808593 7.980469 17.792969 17.792969 17.792969s17.792969-7.984376 17.792969-17.792969c0-9.8125-7.984376-17.792969-17.792969-17.792969zm0 27.585938c-5.398438 0-9.792969-4.390626-9.792969-9.792969 0-5.398438 4.394531-9.789063 9.792969-9.789063 5.398437 0 9.792969 4.390625 9.792969 9.789063 0 5.398437-4.394532 9.792969-9.792969 9.792969zm0 0"/><path d="m85 159.542969h56.5c2.207031 0 4-1.789063 4-4 0-2.207031-1.792969-4-4-4h-56.5c-2.207031 0-4 1.792969-4 4 0 2.210937 1.792969 4 4 4zm0 0"/><path d="m85 184.765625h56.5c2.207031 0 4-1.792969 4-4s-1.792969-4-4-4h-56.5c-2.207031 0-4 1.792969-4 4s1.792969 4 4 4zm0 0"/><path d="m85 209.988281h56.5c2.207031 0 4-1.789062 4-4 0-2.207031-1.792969-4-4-4h-56.5c-2.207031 0-4 1.792969-4 4 0 2.210938 1.792969 4 4 4zm0 0"/><path d="m85 235.210938h56.5c2.207031 0 4-1.789063 4-4 0-2.207032-1.792969-4-4-4h-56.5c-2.207031 0-4 1.792968-4 4 0 2.210937 1.792969 4 4 4zm0 0"/><path d="m85 260.433594h56.5c2.207031 0 4-1.792969 4-4 0-2.207032-1.792969-4-4-4h-56.5c-2.207031 0-4 1.792968-4 4 0 2.207031 1.792969 4 4 4zm0 0"/><path d="m85 285.65625h56.5c5.285156 0 5.292969-8 0-8h-56.5c-2.207031 0-4 1.792969-4 4s1.792969 4 4 4zm0 0"/><path d="m299.464844 159.542969h116.035156c5.285156 0 5.292969-8 0-8h-116.035156c-5.285156 0-5.292969 8 0 8zm0 0"/><path d="m228.5 159.542969h42.585938c5.28125 0 5.289062-8 0-8h-42.585938c-2.207031 0-4 1.792969-4 4 0 2.210937 1.792969 4 4 4zm0 0"/><path d="m415.5 172.210938h-49.941406c-5.28125 0-5.289063 8 0 8h49.941406c5.285156 0 5.292969-8 0-8zm0 0"/><path d="m336.980469 180.210938c5.285156 0 5.292969-8 0-8h-108.480469c-5.285156 0-5.292969 8 0 8zm0 0"/><path d="m228.5 200.875h187c5.285156 0 5.292969-8 0-8h-187c-5.285156 0-5.292969 8 0 8zm0 0"/><path d="m415.5 213.539062c-19.519531 0-167.464844 0-187 0-5.285156 0-5.292969 8 0 8h187c5.285156 0 5.292969-8 0-8zm0 0"/><path d="m415.5 234.210938h-35.859375c-5.285156 0-5.292969 8 0 8h35.859375c2.207031 0 4-1.789063 4-4 0-2.207032-1.792969-4-4-4zm0 0"/><path d="m284.941406 259.277344c-78.335937 0-147.53125 52.769531-168.28125 128.320312-2.863281 10.4375 4.898438 20.699219 15.679688 20.699219h305.199218c10.777344 0 18.546876-10.253906 15.679688-20.699219-20.75-75.550781-89.945312-128.320312-168.277344-128.320312zm-34.207031 141.019531c2.167969-16.914063 16.738281-30.078125 34.207031-30.078125 17.464844 0 32.039063 13.164062 34.203125 30.078125zm29.304687-37.769531v-31.410156c0-6.46875 9.800782-6.492188 9.800782 0v31.410156c-3.535156-.410156-6.253906-.414063-9.800782 0zm157.5 37.769531h-110.355468c-1.753906-16.945313-13.585938-30.984375-29.34375-36.046875 0-35.53125 1.121094-37.308594-3.789063-42.277344-8.148437-8.046875-22.011719-2.300781-22.011719 9.144532v33.132812c-15.757812 5.058594-27.585937 19.101562-29.339843 36.046875-119.226563 0-113.441407 1.316406-116.914063-3.242187-1.601562-2.097657-2.113281-4.773438-1.410156-7.339844 19.796875-72.089844 85.824219-122.4375 160.5625-122.4375 74.742188 0 140.769531 50.347656 160.5625 122.4375 1.46875 5.347656-2.464844 10.582031-7.960938 10.582031zm0 0"/><path d="m280.941406 285.628906v20c0 5.285156 8 5.292969 8 0v-20c0-5.285156-8-5.292968-8 0zm0 0"/><path d="m220.113281 300.222656c-2.640625-4.578125-9.574219-.582031-6.925781 4l10 17.320313c2.644531 4.585937 9.570312.578125 6.925781-4zm0 0"/><path d="m183.660156 352.707031-17.320312-10c-4.59375-2.652343-8.570313 4.289063-4 6.925781l17.320312 10c4.574219 2.648438 8.582032-4.28125 4-6.925781zm0 0"/><path d="m349.765625 300.222656-10 17.320313c-2.640625 4.578125 4.277344 8.585937 6.929687 4l10-17.320313c2.640626-4.578125-4.285156-8.582031-6.929687-4zm0 0"/><path d="m388.222656 360.171875c1.707032 0 1.496094-.25 19.316406-10.539063 4.582032-2.648437.570313-9.582031-4-6.929687l-17.320312 10c-3.539062 2.042969-2.066406 7.46875 2.003906 7.46875zm0 0"/></g></svg>