<svg height="505pt" viewBox="0 -10 505.96 505" width="505pt" xmlns="http://www.w3.org/2000/svg"><path d="m491.953125 481.152344h-477.945313c-5.5 0-10-4.5-10-10v-456.667969c0-5.5 4.5-10 10-10h477.945313c5.5 0 10 4.5 10 10v456.667969c0 5.5-4.5 10-10 10zm0 0" fill="#40c4df"/><path d="m471.960938 44.480469v396.679687c0 5.519532-4.480469 10-10 10h-417.960938c-5.519531 0-10-4.480468-10-10v-396.679687c0-5.519531 4.480469-10 10-10h417.960938c5.519531 0 10 4.480469 10 10zm0 0" fill="#d8d6d7"/><path d="m471.960938 44.480469v396.679687c0 5.519532-4.480469 10-10 10h-383.722657c-5.519531 0-10-4.480468-10-10v-396.679687c0-5.519531 4.480469-10 10-10h383.722657c5.519531 0 10 4.480469 10 10zm0 0" fill="#fff"/><path d="m406.339844 181.5c-22.859375 43.738281-62.160156 63.738281-98.898438 72.421875.039063-.160156.058594-.34375.097656-.5 1.601563-8.261719 1.300782-16.441406-.617187-24.101563-3.800781-15.160156-13.921875-28.21875-27.921875-35.601562 6.28125-18.859375 7.878906-37.839844 7.941406-52 .117188-32.957031 25.757813-60.957031 58.699219-61.597656 21.019531-.421875 38.820313 8.300781 51.058594 21.878906 18.339843 20.378906 24.179687 51.679688 9.640625 79.5zm0 0" fill="#d73735"/><path d="m406.339844 181.5c-22.859375 43.738281-62.160156 63.738281-98.898438 72.421875.039063-.160156.058594-.34375.097656-.5 1.601563-8.261719 1.300782-16.441406-.617187-24.101563 11.597656-23.480468 14.199219-49.378906 14.257813-67.421874.121093-32.957032 25.761718-60.957032 58.699218-61.597657 5.882813-.121093 11.5.480469 16.820313 1.699219 18.339843 20.378906 24.179687 51.679688 9.640625 79.5zm0 0" fill="#f85252"/><path d="m264.101562 188.359375c-.179687-.039063-.339843-.058594-.523437-.097656-10.777344-2.101563-21.4375-.921875-30.9375 2.816406-12.199219 4.820313-22.519531 13.882813-28.78125 25.722656-18.859375-6.28125-37.820313-7.878906-51.980469-7.941406-32.957031-.121094-60.957031-25.757813-61.597656-58.699219-.261719-13.261718 3.097656-25.238281 9.039062-35.339844 17.578126-29.960937 57.679688-43.480468 92.339844-25.359374 43.738282 22.878906 63.738282 62.160156 72.441406 98.898437zm0 0" fill="#d73735"/><path d="m264.101562 188.359375c-.179687-.039063-.339843-.058594-.523437-.097656-10.777344-2.101563-21.4375-.921875-30.9375 2.816406-24.5625-13.476563-52.5625-16.398437-71.699219-16.457031-32.960937-.121094-60.960937-25.761719-61.601562-58.699219 0-.382813-.019532-.742187-.019532-1.101563 17.578126-29.960937 57.679688-43.480468 92.339844-25.359374 43.738282 22.878906 63.738282 62.160156 72.441406 98.898437zm0 0" fill="#f85252"/><path d="m226.960938 291.941406c-6.28125 18.859375-7.882813 37.820313-7.941407 51.980469-.121093 32.957031-25.757812 60.957031-58.699219 61.597656-22.582031.441407-41.421874-9.640625-53.660156-24.960937-16.261718-20.359375-20.878906-49.957032-7.039062-76.417969 22.878906-43.761719 62.179687-63.761719 98.917968-72.460937-.039062.179687-.078124.359374-.117187.539062-2.261719 11.660156-.703125 23.179688 3.796875 33.261719 5 11.199219 13.640625 20.597656 24.742188 26.460937zm0 0" fill="#d73735"/><path d="m202.21875 265.480469c-8.160156 20.859375-10.140625 42.539062-10.199219 58.257812-.121093 32.960938-25.757812 60.960938-58.699219 61.601563-9.640624.199218-18.601562-1.539063-26.660156-4.78125-16.261718-20.359375-20.878906-49.957032-7.039062-76.417969 22.878906-43.761719 62.179687-63.761719 98.917968-72.460937-.039062.179687-.078124.359374-.117187.539062-2.261719 11.660156-.703125 23.179688 3.796875 33.261719zm0 0" fill="#f85252"/><path d="m415.679688 335.480469c.378906 18.980469-6.699219 35.339843-18.078126 47.339843-20.121093 21.21875-53.679687 28.839844-83.300781 13.359376-43.742187-22.859376-63.742187-62.160157-72.421875-98.898438.160156.039062.339844.058594.5.097656 8.980469 1.742188 17.859375 1.222656 26.0625-1.179687.898438-.238281 1.796875-.539063 2.679688-.839844 13.160156-4.539063 24.339844-13.960937 30.980468-26.519531 18.859376 6.28125 37.820313 7.878906 51.976563 7.941406 32.960937.117188 60.960937 25.757812 61.601563 58.699219zm0 0" fill="#d73735"/><path d="m398.558594 369.71875c.082031 4.519531-.238282 8.902344-.957032 13.101562-20.121093 21.21875-53.679687 28.839844-83.300781 13.359376-43.742187-22.859376-63.742187-62.160157-72.421875-98.898438.160156.039062.339844.058594.5.097656 8.980469 1.742188 17.859375 1.222656 26.0625-1.179687 23.757813 12.082031 50.199219 14.761719 68.519532 14.820312 32.9375.121094 60.960937 25.761719 61.597656 58.699219zm0 0" fill="#f85252"/><path d="m307.539062 253.421875c-3.917968 20.179687-18.300781 35.679687-36.417968 41.9375-8.941406 3.101563-18.78125 3.960937-28.742188 2.019531-30.140625-5.859375-49.820312-35.019531-43.957031-65.160156 5.859375-30.140625 35.019531-49.820312 65.15625-43.957031 2.582031.5 5.082031 1.179687 7.5 2.019531 25.820313 8.839844 41.820313 35.578125 36.460937 63.140625zm0 0" fill="#1c868e"/><path d="m307.539062 253.421875c-3.917968 20.179687-18.300781 35.679687-36.417968 41.9375-25.820313-8.839844-41.820313-35.578125-36.460938-63.140625 3.917969-20.179688 18.300782-35.679688 36.417969-41.9375 25.820313 8.839844 41.820313 35.578125 36.460937 63.140625zm0 0" fill="#40c4df"/><g fill="#491352"><path d="m354.097656 272.78125c-11.738281-.050781-28.949218-1.246094-46.410156-6.390625 1.269531-2.949219 2.28125-6.023437 3.058594-9.179687 46.128906-11.476563 79.496094-36.292969 99.136718-73.855469 25.886719-49.507813-9.242187-108.398438-64.324218-107.234375-34.398438.667968-62.492188 30.089844-62.621094 65.585937-.050781 11.738281-1.242188 28.945313-6.386719 46.40625-2.949219-1.265625-6.023437-2.277343-9.183593-3.058593-11.472657-46.128907-36.292969-79.496094-73.855469-99.136719-49.5-25.882813-108.324219 9.199219-107.230469 64.324219.667969 34.398437 30.089844 62.492187 65.582031 62.621093 11.738281.050781 28.945313 1.246094 46.410157 6.390625-1.269532 2.949219-2.28125 6.023438-3.058594 9.179688-46.128906 11.472656-79.5 36.289062-99.140625 73.855468-25.933594 49.601563 9.324219 108.328126 64.324219 107.234376 34.402343-.667969 62.496093-30.089844 62.625-65.585938.046874-11.738281 1.242187-28.945312 6.386718-46.40625 2.949219 1.265625 6.023438 2.277344 9.183594 3.058594 17.886719 71.929687 70.515625 107.816406 108.722656 107.8125 38.84375 0 73.199219-30.894532 72.367188-73-.671875-34.398438-30.09375-62.496094-65.585938-62.621094zm-63.15625-131.046875c.113282-31.183594 24.683594-57.03125 54.777344-57.613281 49.082031-.929688 80.132812 51.433594 57.078125 95.527344-18.042969 34.507812-48.476563 57.679687-90.507813 68.945312 2.238282-22.453125-8.410156-44.699219-28.488281-56.773438 4.664063-15.179687 7.0625-32.007812 7.140625-50.085937zm-139.046875 63.125c-31.183593-.113281-57.03125-24.683594-57.613281-54.78125-.96875-48.882813 51.292969-80.203125 95.527344-57.074219 34.507812 18.042969 57.648437 48.503906 68.90625 90.53125-22.890625-2.269531-44.816406 8.691406-56.710938 28.507813-15.195312-4.671875-32.015625-7.105469-50.109375-7.183594zm63.125 139.042969c-.113281 31.1875-24.683593 57.035156-54.78125 57.617187-48.875 1.054688-80.191406-51.316406-57.074219-95.527343 18.042969-34.507813 48.5-57.648438 90.53125-68.90625-2.269531 22.886718 8.691407 44.816406 28.507813 56.710937-4.671875 15.191406-7.105469 32.015625-7.183594 50.105469zm13.808594-55.5c-19.789063-10.457032-31.140625-32.601563-26.367187-55.910156 7.222656-35.714844 47.824218-52.542969 78.34375-33.121094 17.800781 11.328125 26.898437 32.21875 22.808593 53.285156-7.066406 35.335938-45.253906 51.480469-74.785156 35.746094zm87.324219 104.234375c-34.5-18.039063-57.636719-48.492188-68.898438-90.507813 22.996094 2.277344 44.878906-8.789062 56.726563-28.527344 15.183593 4.667969 32 7.101563 50.085937 7.179688 31.183594.113281 57.03125 24.683594 57.617188 54.777344.964844 48.890625-51.304688 80.203125-95.53125 57.078125zm0 0"/><path d="m461.960938 30.480469h-417.960938c-7.71875 0-14 6.28125-14 14v396.679687c0 7.71875 6.28125 14 14 14h417.960938c7.71875 0 14-6.28125 14-14v-396.679687c0-7.71875-6.28125-14-14-14zm6 410.679687c0 3.308594-2.691407 6-6 6h-417.960938c-3.308594 0-6-2.691406-6-6v-396.679687c0-3.308594 2.691406-6 6-6h417.960938c3.308593 0 6 2.691406 6 6zm0 0"/><path d="m491.960938.480469h-477.960938c-7.71875 0-14 6.28125-14 14v456.679687c0 7.71875 6.28125 14 14 14h477.960938c7.71875 0 14-6.28125 14-14v-456.679687c0-7.71875-6.28125-14-14-14zm6 470.679687c0 3.308594-2.691407 6-6 6h-477.960938c-3.308594 0-6-2.691406-6-6v-456.679687c0-3.308594 2.691406-6 6-6h477.960938c3.308593 0 6 2.691406 6 6zm0 0"/></g></svg>