<svg height="505pt" viewBox="0 -53 505.2447 505" width="505pt" xmlns="http://www.w3.org/2000/svg"><path d="m484.003906 216.6875c-1.511718-1.0625-1.769531-3.164062-.554687-4.554688 8.855469-10.128906 13.035156-24.449218 9.058593-39.625-4.867187-18.597656-22.101562-31.285156-41.324218-31.269531-2.183594.003907-3.667969-2.152343-2.960938-4.21875 2.371094-6.90625 3.429688-14.421875 2.859375-22.257812-1.808593-24.75-20.207031-45.628907-44.523437-50.589844-7.308594-1.492187-14.402344-1.457031-21.089844-.257813-1.644531.296876-3.175781-.824218-3.519531-2.460937-6.894531-32.746094-35.933594-57.335937-70.730469-57.335937-22.714844 0-42.972656 10.488281-56.222656 26.871093-1.226563 1.515625-3.53125 1.515625-4.757813 0-13.25-16.386719-33.507812-26.871093-56.222656-26.871093-34.800781 0-63.839844 24.589843-70.734375 57.335937-.34375 1.636719-1.871094 2.757813-3.519531 2.460937-6.683594-1.203124-13.777344-1.234374-21.089844.257813-24.316406 4.960937-42.714844 25.839844-44.519531 50.589844-.597656 8.1875.585937 16.027343 3.183594 23.191406.582031 1.601563-.59375 3.289063-2.300782 3.289063-23.734375-.019532-43.714844 18.863281-43.820312 42.59375-.042969 10.84375 3.960937 20.738281 10.570312 28.296874 1.214844 1.390626.957032 3.496094-.558594 4.554688-10.808593 7.59375-17.746093 20.320312-17.203124 34.65625.832031 21.90625 19.617187 38.871094 41.539062 38.871094h380.101562l-.011718.003906c-3.179688 18.5-13.140625 48.660156-41.898438 90.921875-5.5625 8.160156 4.398438 18.320313 13.179688 13.839844 29.980468-15.261719 92.777344-81.5 103.378906-136.640625 0-.058594 0-.097656.019531-.160156l-.035156.015624c.484375-2.222656.820313-4.503906.910156-6.851562.546875-14.335938-6.394531-27.0625-17.203125-34.65625zm0 0" fill="#f85252"/><path d="m255.054688 114.117188h-87.507813c-5.519531 0-10 4.476562-10 10v87.503906c0 5.523437 4.480469 10 10 10h87.507813c5.523437 0 10-4.476563 10-10v-87.503906c0-5.523438-4.476563-10-10-10zm0 0" fill="#fff"/><path d="m245.890625 143.28125v49.179688c0 5.519531-4.476563 10-10 10h-49.179687c-5.519532 0-10-4.480469-10-10v-49.179688c0-5.519531 4.480468-10 10-10h49.179687c5.523437 0 10 4.480469 10 10zm0 0" fill="#1c868e"/><path d="m245.890625 143.28125v49.179688c0 5.519531-4.476563 10-10 10h-27.65625c-5.523437 0-10-4.480469-10-10v-49.179688c0-5.519531 4.476563-10 10-10h27.65625c5.523437 0 10 4.480469 10 10zm0 0" fill="#40c4df"/><path d="m232.832031 15.421875c-3.519531 3.480469-7.140625 5.601563-10.820312 5.601563-34.800781 0-63.839844 24.578124-70.738281 57.339843-.339844 1.640625-1.859376 2.757813-3.519532 2.460938-6.679687-1.203125-13.78125-1.242188-21.082031.257812-24.320313 4.960938-42.71875 25.839844-44.519531 50.582031-.601563 8.199219.582031 16.039063 3.179687 23.199219.582031 1.597657-.597656 3.277344-2.300781 3.277344-23.738281-.019531-43.71875 18.863281-43.820312 42.601563-.039063 10.839843 3.960937 20.738281 10.5625 28.300781 1.21875 1.378906.960937 3.5-.5625 4.558593-10.796876 7.582032-17.738282 20.320313-17.199219 34.640626.300781 8.039062 3.039062 15.421874 7.441406 21.539062-19.199219-2.800781-34.679687-18.597656-35.441406-38.4375-.539063-14.339844 6.402343-27.0625 17.199219-34.660156 1.523437-1.0625 1.78125-3.160156.5625-4.542969-6.601563-7.558594-10.601563-17.457031-10.5625-28.296875.101562-23.742188 20.082031-42.621094 43.820312-42.601562 1.703125 0 2.882812-1.679688 2.300781-3.300782-2.597656-7.160156-3.78125-15-3.179687-23.179687 1.800781-24.757813 20.199218-45.621094 44.519531-50.597657 7.300781-1.480468 14.402344-1.441406 21.082031-.242187 1.660156.28125 3.179688-.839844 3.519532-2.460937 6.898437-32.757813 35.9375-57.339844 70.738281-57.339844 14.300781 0 27.601562 4.140625 38.820312 11.300781zm0 0" fill="#d73735"/><g fill="#491352"><path d="m487.113281 214.003906c9.878907-11.800781 13.257813-27.222656 9.257813-42.5-5.179688-19.820312-23.179688-33.761718-44-34.242187 2.363281-7.359375 3.261718-15.019531 2.703125-22.800781-2.539063-34.753907-34.640625-60.347657-69.382813-54.636719-7.699218-34.640625-38.878906-59.703125-74.480468-59.703125-22.738282 0-44.039063 10-58.597657 27.460937-40.769531-48.945312-119.5-28.863281-133.082031 32.242188-43.832031-7.207031-80.492188 34.796875-66.660156 77.457031-39.414063 1.71875-59.644532 46.988281-34.757813 76.722656-34.855469 25.65625-15.972656 80.21875 27.4375 80.21875h375.183594c-3.921875 18.21875-14.242187 46.398438-40.300781 84.679688-7.847656 11.519531 5.804687 26.023437 18.320312 19.640625 39.207032-19.984375 104.539063-99.449219 106.457032-147.039063.5625-14.800781-6.199219-28.742187-18.097657-37.5zm-91.980469 177.417969c-5.183593 2.609375-11.253906-3.355469-8.082031-8.019531 27.441407-40.300782 38.082031-69.921875 41.941407-89.179688 31.335937 0 43.195312 2.144532 58.460937-9.378906-20.839844 46.519531-67.742187 94.039062-92.320313 106.578125zm102.078126-140.238281v.019531c-.738282 19.300781-17.578126 35.019531-37.539063 35.019531-13.53125 0-117.835937 0-133.507813 0 .597657-2 1.164063-24.070312-11.242187-36.46875-7.871094-7.863281-19.539063-11.71875-35.503906-11.585937-5.277344.019531-5.265625 8 .015625 8 44.476562 0 37.207031 33.722656 39.101562 40.054687h-272.984375c-36.167969 0-51.480469-45.550781-22.039062-66.261718.230469-.171876.460937-.347657.671875-.535157 20.9375.242188 34.320312 22.542969 24.730468 41.089844-2.425781 4.695313 4.675782 8.375 7.109376 3.671875 2.050781-3.96875 3.335937-8.332031 3.808593-12.796875 18.179688-1.898437 32.398438-17.308594 32.398438-35.984375 0-5.285156-8-5.292969-8 0 0 14.277344-10.679688 26.078125-24.460938 27.910156-2.042969-17.234375-16.238281-30.761718-33.757812-31.800781-1.1875-2.839844-10.871094-11.050781-10.800781-27.671875.082031-21.175781 17.820312-38.601562 39.820312-38.601562 4.53125 0 7.574219-4.5 6.0625-8.660157-4.207031-11.574219-4.257812-24.738281.546875-36.773437 26.90625.148437 37.6875 12.605468 37.597656 38.875-.011719 2.207031 1.777344 4.003906 3.984375 4.011718 2.242188 0 4.003906-1.804687 4.015625-3.984374.101563-29.328126-12.902343-45.28125-41.652343-46.796876.003906-.003906.003906-.007812.007812-.011718 11.148438-18.179688 32.195312-27.855469 53.457031-24.058594 3.761719.679688 7.339844-1.761719 8.140625-5.5625 3.480469-16.578125 12.980469-30.757812 25.882813-40.417969v-.003906c17.964843 19.003906 16.132812 35.03125-1.960938 53-3.753906 3.726563 1.886719 9.40625 5.636719 5.675781 20.753906-20.609375 23.164062-41.207031 3.074219-63.152344.003906 0 .003906 0 .007812-.003906 28.953125-16.847656 65.941407-10.273437 87.296875 16.121094.441406.539062.941406 1 1.5 1.378906.011719.007813.023438.011719.035156.019532.515626 18.199218 14.5 33.082031 32.335938 34.953124 1.902344 18.171876 17.308594 32.386719 35.980469 32.386719 2.207031 0 4-1.792969 4-4s-1.792969-4-4-4c-14.277344 0-26.078125-10.679687-27.910157-24.460937 17.941407-2.128906 31.910157-17.40625 31.910157-35.910156 0-2.207032-1.792969-4-4-4s-4 1.792968-4 4c0 15.542968-12.644531 28.183593-28.1875 28.183593-15.21875 0-27.628907-12.132812-28.136719-27.234375.527344-.355468 1.019531-.804687 1.433594-1.316406 13.058594-16.140625 32.417968-25.378906 53.117187-25.378906 32.121094 0 60.222657 22.777344 66.820313 54.160156.800781 3.800781 4.382812 6.257812 8.140625 5.558594 12.082031-2.15625 24.96875-.109375 36.46875 6.964844-.84375 2.164062 1.351562 20.40625-9.527344 31.289062-7.90625 7.914062-18.828125 8.628906-29.667969 9.082031-5.203125 0-5.527344 8 .339844 8 29.167969 0 45.1875-12.964843 46.460938-42.621093 10.304687 9.472656 15.925781 21.804687 16.847656 34.484374 1.308594 17.839844-5.886719 21.433594-1.703125 27.222657 1.289062 1.816406 3.441406 2.980469 5.820312 2.980469 17.679688 0 33.0625 11.617187 37.421875 28.277343 3.417969 13 .417969 26.121094-8.199218 35.980469-.332032.371094-.625.78125-.859376 1.230469-12.09375-.402344-20.855468-3.390625-26.636718-9.167969-6.160156-6.152344-9.128906-15.851562-9.082032-29.652344.007813-2.207031-1.777343-4.003906-3.984374-4.015625-.003907 0-.011719 0-.015626 0-2.203124 0-3.992187 1.785157-4 3.988281-.054687 16.042969 3.683594 27.597657 11.425782 35.339844 7.464844 7.457032 18.339844 11.210938 33.113281 11.527344.015625.015625.023437.035156.039063.050781.359374.441407.796874.820313 1.277343 1.160157 10.183594 7.160156 15.984375 18.820312 15.503907 31.222656zm0 0"/><path d="m403.46875 156.035156c-2.785156-4.488281-9.589844-.28125-6.800781 4.21875 7.523437 12.128906 4.671875 27.785156-6.078125 36.609375-11.308594-14.226562-31.597656-17.953125-47.332032-8.191406-4.5 2.785156-.28125 9.582031 4.210938 6.796875 6.398438-3.96875 13.960938-5.207031 21.292969-3.488281 15.113281 3.542969 24.570312 18.683593 21.007812 33.875-1.71875 7.332031-6.191406 13.554687-12.585937 17.519531-4.46875 2.769531-.300782 9.601562 4.210937 6.800781 15.933594-9.878906 21.492188-30.039062 13.511719-46.488281 14.441406-11.195312 18.398438-31.78125 8.5625-47.652344zm0 0"/><path d="m300.890625 190.25h-31.839844v-18.378906h31.839844c5.285156 0 5.292969-8 0-8h-31.839844v-18.378906h31.839844c5.285156 0 5.292969-8 0-8h-31.839844v-13.367188c0-7.71875-6.277343-14-14-14h-13.371093v-31.84375c0-5.285156-8-5.292969-8 0v31.839844h-18.378907v-31.839844c0-5.285156-8-5.292969-8 0v31.839844h-18.378906v-31.839844c0-5.285156-8-5.292969-8 0v31.839844h-13.371094c-7.71875 0-14 6.28125-14 14v13.371094h-31.839843c-5.28125 0-5.289063 8 0 8h31.839843v18.375h-31.839843c-5.28125 0-5.289063 8 0 8h31.839843v18.378906h-31.839843c-2.207032 0-4 1.792968-4 4 0 2.207031 1.792968 4 4 4h31.839843v13.375c0 7.71875 6.28125 14 14 14h13.371094v31.835937c0 5.285157 8 5.292969 8 0v-31.835937h18.378906v31.835937c0 5.285157 8 5.292969 8 0v-31.835937h18.378907v31.835937c0 5.285157 8 5.292969 8 0v-31.835937h13.371093c7.71875 0 14-6.28125 14-14v-13.375h31.835938c2.210937 0 4-1.792969 4-4 0-2.207032-1.789063-3.996094-3.996094-3.996094zm-39.839844 21.371094c0 3.300781-2.679687 6-6 6h-87.5c-3.316406 0-6-2.699219-6-6v-87.5c0-3.320313 2.683594-6 6-6h87.5c3.320313 0 6 2.679687 6 6zm0 0"/><path d="m235.890625 129.28125h-49.179687c-7.71875 0-14 6.28125-14 14v49.179688c0 7.722656 6.28125 14 14 14h49.179687c7.722656 0 14-6.277344 14-14v-49.179688c0-7.71875-6.277344-14-14-14zm6 63.179688c0 3.300781-2.699219 6-6 6h-49.179687c-3.320313 0-6-2.699219-6-6v-49.179688c0-3.320312 2.679687-6 6-6h49.179687c3.300781 0 6 2.679688 6 6zm0 0"/></g></svg>