<svg height="490pt" viewBox="-1 0 490 490.368" width="490pt" xmlns="http://www.w3.org/2000/svg"><path d="m236.4375 44.488281h-96.253906v-30.488281c0-5.523438 4.476562-10 10-10h51.875c3.464844 0 6.675781 1.789062 8.5 4.730469zm0 0" fill="#40c4df"/><path d="m348.414062 56.070312v130.71875c0 6.402344-5.199218 11.582032-11.578124 11.582032h-185.082032c-6.378906 0-11.578125-5.179688-11.578125-11.582032v-140.71875c0-.878906.71875-1.582031 1.578125-1.582031h195.082032c6.378906 0 11.578124 5.183594 11.578124 11.582031zm0 0" fill="#d8d6d7"/><path d="m348.414062 56.070312v103.378907c0 6.402343-5.199218 11.582031-11.578124 11.582031h-185.082032c-6.378906 0-11.578125-5.179688-11.578125-11.582031v-113.378907c0-.878906.71875-1.582031 1.578125-1.582031h195.082032c6.378906 0 11.578124 5.183594 11.578124 11.582031zm0 0" fill="#fff"/><path d="m100.4375 332.488281h-96.253906v-30.488281c0-5.523438 4.476562-10 10-10h51.875c3.464844 0 6.675781 1.789062 8.5 4.730469zm0 0" fill="#40c4df"/><path d="m212.414062 344.070312v130.71875c0 6.402344-5.199218 11.582032-11.578124 11.582032h-185.082032c-6.378906 0-11.578125-5.179688-11.578125-11.582032v-140.71875c0-.878906.71875-1.582031 1.578125-1.582031h195.082032c6.378906 0 11.578124 5.183594 11.578124 11.582031zm0 0" fill="#d8d6d7"/><path d="m212.414062 344.070312v103.378907c0 6.402343-5.199218 11.582031-11.578124 11.582031h-185.082032c-6.378906 0-11.578125-5.179688-11.578125-11.582031v-113.378907c0-.878906.71875-1.582031 1.578125-1.582031h195.082032c6.378906 0 11.578124 5.183594 11.578124 11.582031zm0 0" fill="#fff"/><path d="m372.4375 332.488281h-96.253906v-30.488281c0-5.523438 4.476562-10 10-10h51.875c3.464844 0 6.675781 1.789062 8.5 4.730469zm0 0" fill="#40c4df"/><path d="m484.414062 344.070312v130.71875c0 6.402344-5.199218 11.582032-11.578124 11.582032h-185.082032c-6.378906 0-11.578125-5.179688-11.578125-11.582032v-140.71875c0-.878906.71875-1.582031 1.578125-1.582031h195.082032c6.378906 0 11.578124 5.183594 11.578124 11.582031zm0 0" fill="#d8d6d7"/><path d="m484.414062 344.070312v103.378907c0 6.402343-5.199218 11.582031-11.578124 11.582031h-185.082032c-6.378906 0-11.578125-5.179688-11.578125-11.582031v-113.378907c0-.878906.71875-1.582031 1.578125-1.582031h195.082032c6.378906 0 11.578124 5.183594 11.578124 11.582031zm0 0" fill="#fff"/><g fill="#491352"><path d="m207.246094 84.28125h-37.839844c-.871094 0-1.578125.703125-1.578125 1.574219v69.363281c0 .871094.707031 1.574219 1.578125 1.574219h6.316406c.871094 0 1.578125-.703125 1.578125-1.574219v-29.519531c0-.871094.707031-1.574219 1.574219-1.574219h22.441406c.871094 0 1.574219-.707031 1.574219-1.578125v-4.546875c0-.871094-.703125-1.574219-1.574219-1.574219h-22.441406c-.867188 0-1.574219-.707031-1.574219-1.578125v-21.292968c0-.871094.707031-1.578126 1.574219-1.578126h28.371094c.871094 0 1.574218-.703124 1.574218-1.574218v-4.546875c0-.871094-.703124-1.574219-1.574218-1.574219zm0 0"/><path d="m263.316406 84.28125h-45.953125c-.871093 0-1.574219.703125-1.574219 1.574219v4.546875c0 .871094.703126 1.578125 1.574219 1.578125h16.722657c.867187 0 1.574218.707031 1.574218 1.574219v61.664062c0 .871094.707032 1.574219 1.574219 1.574219h6.316406c.871094 0 1.578125-.703125 1.578125-1.574219v-61.664062c0-.871094.707032-1.578126 1.574219-1.578126h16.613281c.871094 0 1.578125-.703124 1.578125-1.574218v-4.546875c-.003906-.871094-.707031-1.574219-1.578125-1.574219zm0 0"/><path d="m299.949219 84.28125h-21.832031c-.871094 0-1.578126.703125-1.578126 1.574219v69.363281c0 .871094.707032 1.574219 1.578126 1.574219h6.316406c.871094 0 1.578125-.703125 1.578125-1.574219v-27.125c0-.871094.703125-1.574219 1.574219-1.574219h12.363281c18 0 25.074219-9.988281 25.074219-21.015625-.003907-11.863281-8.011719-21.222656-25.074219-21.222656zm0 34.433594h-12.363281c-.871094 0-1.578126-.703125-1.578126-1.574219v-23.484375c0-.867188.707032-1.574219 1.578126-1.574219h12.363281c10.820312 0 15.398437 4.992188 15.398437 13.421875 0 8.113282-4.578125 13.210938-15.398437 13.210938zm0 0"/><path d="m474.402344 328.492188h-90.003906v-86.214844c0-7.71875-6.28125-14-14-14h-122.105469v-25.910156h90.109375c7.71875 0 14-6.28125 14-14v-133.875c0-7.714844-6.28125-14-14-14h-99.917969l-24.605469-34c-2.585937-4.066407-6.992187-6.492188-11.820312-6.492188h-51.875c-7.71875 0-14 6.28125-14 14v174.367188c0 7.71875 6.28125 14 14 14h90.109375v25.910156h-122.101563c-7.71875 0-14 6.28125-14 14v86.214844h-1.710937l-24.605469-34c-2.582031-4.066407-6.988281-6.496094-11.816406-6.496094h-51.875c-7.71875 0-14 6.285156-14 14v174.371094c0 7.71875 6.28125 14 14 14h188.21875c7.71875 0 14-6.28125 14-14v-133.875c0-7.714844-6.28125-14-14-14h-90.210938v-86.214844c0-3.308594 2.691406-6 6-6h252.207032c3.308593 0 6 2.691406 6 6v86.214844h-1.914063l-24.605469-34c-2.585937-4.066407-6.992187-6.492188-11.820312-6.492188h-51.875c-7.71875 0-14 6.28125-14 14v174.367188c0 7.71875 6.28125 14 14 14h188.21875c7.71875 0 14-6.28125 14-14v-133.875c0-7.714844-6.28125-14-14-14zm-466.21875-26.496094c0-3.304688 2.691406-6 6-6h51.875c2.089844 0 4 1.0625 5.101562 2.84375l21.445313 29.648437h-84.421875zm194.21875 34.496094c3.308594 0 6 2.695312 6 6v133.875c0 3.308593-2.691406 6-6 6h-188.21875c-3.308594 0-6-2.691407-6-6v-139.875zm-58.21875-322.492188c0-3.308594 2.691406-6 6-6h51.875c2.09375 0 4 1.0625 5.101562 2.839844l21.445313 29.648437h-84.417969v-26.488281zm6 180.367188c-3.308594 0-6-2.691407-6-6v-139.875h194.21875c3.308594 0 6 2.695312 6 6v133.875c0 3.308593-2.691406 6-6 6zm130 107.632812c0-3.308594 2.691406-6 6-6h51.875c2.09375 0 4 1.0625 5.101562 2.839844l21.445313 29.648437h-84.417969v-26.488281zm200.21875 174.367188c0 3.308593-2.691406 6-6 6h-188.214844c-3.308594 0-6-2.691407-6-6v-139.875h194.214844c3.308594 0 6 2.695312 6 6zm0 0"/></g></svg>