<svg height="502pt" viewBox="-110 0 502 502" width="502pt" xmlns="http://www.w3.org/2000/svg"><path d="m277.816406 24v454c0 11.039062-8.960937 20-20 20h-233.820312c-11.039063 0-20-8.960938-20-20v-454c0-11.039062 8.960937-20 20-20h233.820312c11.039063 0 20 8.960938 20 20zm0 0" fill="#1c868e"/><path d="m277.816406 24v454c0 11.039062-8.960937 20-20 20h-202.820312c-11.039063 0-20-8.960938-20-20v-454c0-11.039062 8.960937-20 20-20h202.820312c11.039063 0 20 8.960938 20 20zm0 0" fill="#40c4df"/><path d="m4.019531 87.871094h273.835938v326.253906h-273.835938zm0 0" fill="#fff"/><path d="m108.910156 47.550781c0 7.589844-6.152344 13.746094-13.746094 13.746094-7.589843 0-13.742187-6.15625-13.742187-13.746094 0-7.59375 6.152344-13.746093 13.742187-13.746093 7.59375 0 13.746094 6.152343 13.746094 13.746093zm0 0" fill="#fff"/><path d="m158.351562 473.875h-34.824218c-10.125 0-18.328125-8.203125-18.328125-18.328125 0-10.121094 8.203125-18.328125 18.328125-18.328125h34.824218c10.121094 0 18.328126 8.207031 18.328126 18.328125 0 10.125-8.207032 18.328125-18.328126 18.328125zm0 0" fill="#fff"/><path d="m4.015625 87.878906h30.980469v326.242188h-30.980469zm0 0" fill="#d8d6d7"/><path d="m197.542969 302.515625c-4.402344-4.757813-4.109375-12.1875.652343-16.585937l37.773438-34.929688-37.773438-34.929688c-4.761718-4.398437-5.054687-11.828124-.652343-16.585937 4.402343-4.761719 11.828125-5.050781 16.589843-.648437l47.097657 43.542968c5.023437 4.640625 5.027343 12.59375 0 17.238282l-47.097657 43.546874c-4.757812 4.398438-12.183593 4.117188-16.589843-.648437zm0 0" fill="#40c4df"/><path d="m67.742188 303.164062-47.101563-43.542968c-5.019531-4.640625-5.023437-12.59375 0-17.238282l47.101563-43.546874c4.761718-4.402344 12.1875-4.113282 16.585937.648437 4.402344 4.761719 4.113281 12.1875-.648437 16.589844l-37.777344 34.925781 37.777344 34.929688c4.761718 4.398437 5.050781 11.828124.648437 16.585937-4.40625 4.765625-11.832031 5.046875-16.585937.648437zm0 0" fill="#40c4df"/><path d="m109.925781 304.710938c-5.617187-3.242188-7.539062-10.417969-4.296875-16.035157l50.285156-87.09375c3.242188-5.613281 10.417969-7.539062 16.039063-4.296875 5.613281 3.242188 7.535156 10.421875 4.292969 16.035156l-50.285156 87.09375c-3.242188 5.613282-10.417969 7.539063-16.035157 4.296876zm0 0" fill="#40c4df"/><g fill="#491352"><path d="m281.8125 24c0-13.234375-10.765625-24-24-24h-233.8125c-13.234375 0-24 10.765625-24 24v454c0 13.234375 10.765625 24 24 24h233.8125c13.234375 0 24-10.765625 24-24v-63.464844c.011719-.136718.042969-.269531.042969-.40625-.003907-372.007812-.042969-347.078125-.042969-390.128906zm-8 454c0 8.820312-7.179688 16-16 16h-233.8125c-8.820312 0-16-7.179688-16-16v-59.875h265.8125zm0-67.875h-265.792969v-318.25h265.792969zm0-326.25h-265.8125v-59.875c0-8.820312 7.179688-16 16-16h233.8125c8.820312 0 16 7.179688 16 16zm0 0"/><path d="m200.453125 43.550781h-64.761719c-2.207031 0-4 1.792969-4 4s1.792969 4 4 4h64.761719c2.207031 0 4-1.792969 4-4s-1.789063-4-4-4zm0 0"/><path d="m95.164062 29.800781c-9.785156 0-17.746093 7.960938-17.746093 17.75 0 9.785157 7.960937 17.746094 17.746093 17.746094 9.789063 0 17.75-7.960937 17.75-17.746094 0-9.785156-7.960937-17.75-17.75-17.75zm0 27.496094c-5.375 0-9.746093-4.371094-9.746093-9.746094s4.371093-9.75 9.746093-9.75c5.378907 0 9.75 4.375 9.75 9.75s-4.371093 9.746094-9.75 9.746094zm0 0"/><path d="m123.523438 477.875h34.824218c12.3125 0 22.332032-10.015625 22.332032-22.328125 0-12.316406-10.019532-22.332031-22.332032-22.332031h-34.824218c-12.3125 0-22.328126 10.015625-22.328126 22.332031 0 12.3125 10.015626 22.328125 22.328126 22.328125zm0-36.65625h34.824218c7.902344 0 14.332032 6.425781 14.332032 14.328125s-6.429688 14.332031-14.332032 14.332031h-34.824218c-7.902344 0-14.328126-6.429687-14.328126-14.332031s6.429688-14.328125 14.328126-14.328125zm0 0"/><path d="m190.4375 293.929688c-.558594 14.078124 16.222656 21.59375 26.410156 12.171874l47.097656-43.546874c6.734376-6.222657 6.730469-16.890626 0-23.113282l-47.097656-43.542968c-10.273437-9.503907-26.960937-1.765626-26.410156 12.167968.164062 4.203125 1.953125 8.085938 5.039062 10.941406l34.601563 31.992188-34.597656 31.992188c-3.089844 2.851562-4.878907 6.738281-5.042969 10.9375zm10.472656-5.0625 37.777344-34.929688c.820312-.753906 1.285156-1.820312 1.285156-2.933594 0-1.117187-.464844-2.183594-1.285156-2.9375l-37.777344-34.929687c-1.519531-1.40625-2.398437-3.3125-2.480468-5.378907-.269532-6.917968 7.992187-10.605468 12.988281-5.984374l47.101562 43.546874c3.308594 3.058594 3.320313 8.296876 0 11.363282l-47.105469 43.546875c-5.042968 4.671875-13.25.867187-12.984374-5.984375.082031-2.066406.960937-3.976563 2.480468-5.378906zm0 0"/><path d="m65.027344 306.101562c10.160156 9.394532 26.960937 1.921876 26.410156-12.171874-.335938-8.601563-2.640625-8.71875-39.644531-42.929688l34.601562-31.992188c3.085938-2.855468 4.878907-6.738281 5.042969-10.941406.546875-14.054687-16.207031-21.601562-26.414062-12.171875l-47.097657 43.550781c-6.726562 6.21875-6.730469 16.890626 0 23.113282zm-41.667969-60.785156 47.097656-43.542968c7.480469-6.917969 18.019531 4.421874 10.507813 11.363281l-37.777344 34.925781c-.820312.757812-1.285156 1.824219-1.285156 2.9375s.464844 2.179688 1.285156 2.9375l37.777344 34.929688c7.496094 6.929687-3.011719 18.289062-10.507813 11.359374l-47.101562-43.542968c-3.304688-3.054688-3.324219-8.289063.003906-11.367188zm0 0"/><path d="m107.925781 308.175781c7.523438 4.339844 17.164063 1.746094 21.5-5.761719l50.285157-87.09375c4.339843-7.515624 1.753906-17.160156-5.761719-21.5-7.515625-4.335937-17.15625-1.75-21.5 5.765626l-50.285157 87.09375c-4.339843 7.515624-1.753906 17.160156 5.761719 21.496093zm1.167969-17.496093 50.28125-87.09375c2.136719-3.695313 6.875-4.964844 10.574219-2.832032 3.695312 2.132813 4.960937 6.875 2.832031 10.570313l-50.285156 87.09375c-2.132813 3.695312-6.878906 4.960937-10.570313 2.835937-3.695312-2.136718-4.964843-6.878906-2.832031-10.574218zm0 0"/></g></svg>