<svg height="493pt" viewBox="0 -11 493.544 493" width="493pt" xmlns="http://www.w3.org/2000/svg"><path d="m276.894531 336.265625v83.378906c0 8.578125-2.257812 16.640625-6.21875 23.621094-8.238281 14.519531-23.820312 24.320313-41.71875 24.320313-26.480469 0-47.941406-21.480469-47.941406-47.941407v-83.378906c0-5.523437 4.480469-10 10-10h75.878906c5.519531 0 10 4.476563 10 10zm0 0" fill="#1c868e"/><path d="m276.894531 336.265625v83.378906c0 8.578125-2.257812 16.640625-6.21875 23.621094-6.039062 2.777344-12.78125 4.320313-19.859375 4.320313-26.480468 0-47.941406-21.480469-47.941406-47.941407v-73.378906h64.019531c5.519531 0 10 4.476563 10 10zm0 0" fill="#40c4df"/><path d="m434.730469 227.59375h-420.730469c-5.523438 0-10-4.476562-10-10v-203.320312c0-5.523438 4.476562-10 10-10h420.730469c5.523437 0 10 4.476562 10 10v203.320312c0 5.523438-4.476563 10-10 10zm0 0" fill="#40c4df"/><path d="m64.570312 80.984375v18.078125c0 4.160156-3.359374 7.523438-7.519531 7.523438h-18.078125c-4.160156 0-7.539062-3.363282-7.539062-7.523438v-18.078125c0-4.160156 3.378906-7.539063 7.539062-7.539063h18.078125c4.160157 0 7.519531 3.378907 7.519531 7.539063zm0 0" fill="#d8d6d7"/><path d="m114.972656 80.984375v18.078125c0 4.160156-3.378906 7.523438-7.539062 7.523438h-18.082032c-4.160156 0-7.519531-3.363282-7.519531-7.523438v-18.078125c0-4.160156 3.359375-7.539063 7.519531-7.539063h18.082032c4.160156 0 7.539062 3.378907 7.539062 7.539063zm0 0" fill="#d8d6d7"/><path d="m165.351562 80.984375v18.078125c0 4.160156-3.359374 7.523438-7.519531 7.523438h-18.078125c-4.160156 0-7.542968-3.363282-7.542968-7.523438v-18.078125c0-4.160156 3.382812-7.539063 7.542968-7.539063h18.078125c4.160157 0 7.519531 3.378907 7.519531 7.539063zm0 0" fill="#d8d6d7"/><path d="m215.753906 80.984375v18.078125c0 4.160156-3.382812 7.523438-7.542968 7.523438h-18.078126c-4.160156 0-7.539062-3.363282-7.539062-7.523438v-18.078125c0-4.160156 3.378906-7.539063 7.539062-7.539063h18.078126c4.160156 0 7.542968 3.378907 7.542968 7.539063zm0 0" fill="#d8d6d7"/><path d="m64.570312 28.863281v18.082031c0 4.160157-3.359374 7.539063-7.519531 7.539063h-18.078125c-4.160156 0-7.539062-3.378906-7.539062-7.539063v-18.082031c0-4.160156 3.378906-7.519531 7.539062-7.519531h18.078125c4.160157 0 7.519531 3.359375 7.519531 7.519531zm0 0" fill="#d8d6d7"/><path d="m114.972656 28.863281v18.082031c0 4.160157-3.378906 7.539063-7.539062 7.539063h-18.082032c-4.160156 0-7.519531-3.378906-7.519531-7.539063v-18.082031c0-4.160156 3.359375-7.519531 7.519531-7.519531h18.082032c4.160156 0 7.539062 3.359375 7.539062 7.519531zm0 0" fill="#d8d6d7"/><path d="m165.351562 28.863281v18.082031c0 4.160157-3.359374 7.539063-7.519531 7.539063h-18.078125c-4.160156 0-7.542968-3.378906-7.542968-7.539063v-18.082031c0-4.160156 3.382812-7.519531 7.542968-7.519531h18.078125c4.160157 0 7.519531 3.359375 7.519531 7.519531zm0 0" fill="#d8d6d7"/><path d="m215.753906 28.863281v18.082031c0 4.160157-3.382812 7.539063-7.542968 7.539063h-18.078126c-4.160156 0-7.539062-3.378906-7.539062-7.539063v-18.082031c0-4.160156 3.378906-7.519531 7.539062-7.519531h18.078126c4.160156 0 7.542968 3.359375 7.542968 7.519531zm0 0" fill="#d8d6d7"/><path d="m266.132812 28.863281v18.082031c0 4.160157-3.378906 7.539063-7.539062 7.539063h-18.082031c-4.160157 0-7.519531-3.378906-7.519531-7.539063v-18.082031c0-4.160156 3.359374-7.519531 7.519531-7.519531h18.082031c4.160156 0 7.539062 3.359375 7.539062 7.519531zm0 0" fill="#d8d6d7"/><path d="m316.511719 28.863281v18.082031c0 4.160157-3.359375 7.539063-7.519531 7.539063h-18.082032c-4.15625 0-7.539062-3.378906-7.539062-7.539063v-18.082031c0-4.160156 3.382812-7.519531 7.539062-7.519531h18.082032c4.160156 0 7.519531 3.359375 7.519531 7.519531zm0 0" fill="#d8d6d7"/><path d="m366.910156 28.863281v18.082031c0 4.160157-3.378906 7.539063-7.539062 7.539063h-18.078125c-4.160157 0-7.539063-3.378906-7.539063-7.539063v-18.082031c0-4.160156 3.378906-7.519531 7.539063-7.519531h18.078125c4.160156 0 7.539062 3.359375 7.539062 7.519531zm0 0" fill="#d8d6d7"/><path d="m366.910156 28.863281v18.082031c0 4.160157-3.378906 7.539063-7.539062 7.539063h-18.078125c-4.160157 0-7.539063-3.378906-7.539063-7.539063v-18.082031c0-4.160156 3.378906-7.519531 7.539063-7.519531h18.078125c4.160156 0 7.539062 3.359375 7.539062 7.519531zm0 0" fill="#d8d6d7"/><path d="m417.292969 28.863281v18.082031c0 4.160157-3.382813 7.539063-7.539063 7.539063h-18.0625c-4.179687 0-7.539062-3.378906-7.539062-7.539063v-18.082031c0-4.160156 3.359375-7.519531 7.539062-7.519531h18.0625c4.15625 0 7.539063 3.359375 7.539063 7.519531zm0 0" fill="#d8d6d7"/><path d="m64.570312 132.945312v18.078126c0 4.160156-3.359374 7.539062-7.519531 7.539062h-18.078125c-4.160156 0-7.539062-3.378906-7.539062-7.539062v-18.078126c0-4.160156 3.378906-7.519531 7.539062-7.519531h18.078125c4.160157 0 7.519531 3.359375 7.519531 7.519531zm0 0" fill="#d8d6d7"/><path d="m114.972656 132.945312v18.078126c0 4.160156-3.378906 7.539062-7.539062 7.539062h-18.082032c-4.160156 0-7.519531-3.378906-7.519531-7.539062v-18.078126c0-4.160156 3.359375-7.519531 7.519531-7.519531h18.082032c4.160156 0 7.539062 3.359375 7.539062 7.519531zm0 0" fill="#d8d6d7"/><path d="m165.351562 132.945312v18.078126c0 4.160156-3.359374 7.539062-7.519531 7.539062h-18.078125c-4.160156 0-7.542968-3.378906-7.542968-7.539062v-18.078126c0-4.160156 3.382812-7.519531 7.542968-7.519531h18.078125c4.160157 0 7.519531 3.359375 7.519531 7.519531zm0 0" fill="#d8d6d7"/><path d="m266.132812 80.984375v70.039063c0 4.160156-3.378906 7.539062-7.539062 7.539062h-68.460938c-4.160156 0-7.539062-3.378906-7.539062-7.539062v-18.078126c0-4.160156 3.378906-7.519531 7.539062-7.519531h35.320313c4.160156 0 7.539063-3.382812 7.539063-7.542969v-36.898437c0-4.160156 3.359374-7.539063 7.519531-7.539063h18.082031c4.160156 0 7.539062 3.378907 7.539062 7.539063zm0 0" fill="#d8d6d7"/><path d="m316.511719 132.945312v18.078126c0 4.160156-3.359375 7.539062-7.519531 7.539062h-18.082032c-4.15625 0-7.539062-3.378906-7.539062-7.539062v-18.078126c0-4.160156 3.382812-7.519531 7.539062-7.519531h18.082032c4.160156 0 7.519531 3.359375 7.519531 7.519531zm0 0" fill="#d8d6d7"/><path d="m64.570312 184.925781v18.078125c0 4.160156-3.359374 7.519532-7.519531 7.519532h-18.078125c-4.160156 0-7.539062-3.359376-7.539062-7.519532v-18.078125c0-4.160156 3.378906-7.542969 7.539062-7.542969h18.078125c4.160157 0 7.519531 3.382813 7.519531 7.542969zm0 0" fill="#d8d6d7"/><path d="m215.753906 186.105469v15.71875c0 4.800781-3.921875 8.699219-8.722656 8.699219h-116.699219c-4.699219 0-8.5-3.800782-8.5-8.5v-16.121094c0-4.699219 3.800781-8.519532 8.5-8.519532h116.699219c4.800781 0 8.722656 3.902344 8.722656 8.722657zm0 0" fill="#d8d6d7"/><path d="m266.132812 184.925781v18.078125c0 4.160156-3.378906 7.519532-7.539062 7.519532h-18.082031c-4.160157 0-7.519531-3.359376-7.519531-7.519532v-18.078125c0-4.160156 3.359374-7.542969 7.519531-7.542969h18.082031c4.160156 0 7.539062 3.382813 7.539062 7.542969zm0 0" fill="#d8d6d7"/><path d="m316.511719 184.925781v18.078125c0 4.160156-3.359375 7.519532-7.519531 7.519532h-18.082032c-4.15625 0-7.539062-3.359376-7.539062-7.519532v-18.078125c0-4.160156 3.382812-7.542969 7.539062-7.542969h18.082032c4.160156 0 7.519531 3.382813 7.519531 7.542969zm0 0" fill="#d8d6d7"/><path d="m366.910156 80.984375v18.078125c0 4.160156-3.378906 7.523438-7.539062 7.523438h-68.460938c-4.15625 0-7.539062-3.363282-7.539062-7.523438v-18.078125c0-4.160156 3.382812-7.539063 7.539062-7.539063h68.460938c4.160156 0 7.539062 3.378907 7.539062 7.539063zm0 0" fill="#d8d6d7"/><path d="m366.910156 132.945312v18.078126c0 4.160156-3.378906 7.539062-7.539062 7.539062h-18.078125c-4.160157 0-7.539063-3.378906-7.539063-7.539062v-18.078126c0-4.160156 3.378906-7.519531 7.539063-7.519531h18.078125c4.160156 0 7.539062 3.359375 7.539062 7.519531zm0 0" fill="#d8d6d7"/><path d="m366.910156 184.925781v18.078125c0 4.160156-3.378906 7.519532-7.539062 7.519532h-18.078125c-4.160157 0-7.539063-3.359376-7.539063-7.519532v-18.078125c0-4.160156 3.378906-7.542969 7.539063-7.542969h18.078125c4.160156 0 7.539062 3.382813 7.539062 7.542969zm0 0" fill="#d8d6d7"/><path d="m417.292969 80.984375v18.078125c0 4.160156-3.382813 7.523438-7.539063 7.523438h-18.0625c-4.179687 0-7.539062-3.363282-7.539062-7.523438v-18.078125c0-4.160156 3.359375-7.539063 7.539062-7.539063h18.0625c4.15625 0 7.539063 3.378907 7.539063 7.539063zm0 0" fill="#d8d6d7"/><path d="m417.292969 132.945312v18.078126c0 4.160156-3.382813 7.539062-7.539063 7.539062h-18.0625c-4.179687 0-7.539062-3.378906-7.539062-7.539062v-18.078126c0-4.160156 3.359375-7.519531 7.539062-7.519531h18.0625c4.15625 0 7.539063 3.359375 7.539063 7.519531zm0 0" fill="#d8d6d7"/><path d="m417.292969 184.925781v18.078125c0 4.160156-3.382813 7.519532-7.539063 7.519532h-18.0625c-4.179687 0-7.539062-3.359376-7.539062-7.519532v-18.078125c0-4.160156 3.359375-7.542969 7.539062-7.542969h18.0625c4.15625 0 7.539063 3.382813 7.539063 7.542969zm0 0" fill="#d8d6d7"/><path d="m64.570312 80.984375v4.039063c0 4.160156-3.359374 7.539062-7.519531 7.539062h-18.078125c-4.160156 0-7.539062-3.378906-7.539062-7.539062v-4.039063c0-4.160156 3.378906-7.539063 7.539062-7.539063h18.078125c4.160157 0 7.519531 3.378907 7.519531 7.539063zm0 0" fill="#fff"/><path d="m114.972656 80.984375v4.039063c0 4.160156-3.378906 7.539062-7.539062 7.539062h-18.082032c-4.160156 0-7.519531-3.378906-7.519531-7.539062v-4.039063c0-4.160156 3.359375-7.539063 7.519531-7.539063h18.082032c4.160156 0 7.539062 3.378907 7.539062 7.539063zm0 0" fill="#fff"/><path d="m165.351562 80.984375v4.039063c0 4.160156-3.359374 7.539062-7.519531 7.539062h-18.078125c-4.160156 0-7.542968-3.378906-7.542968-7.539062v-4.039063c0-4.160156 3.382812-7.539063 7.542968-7.539063h18.078125c4.160157 0 7.519531 3.378907 7.519531 7.539063zm0 0" fill="#fff"/><path d="m215.753906 80.984375v4.039063c0 4.160156-3.382812 7.539062-7.542968 7.539062h-18.078126c-4.160156 0-7.539062-3.378906-7.539062-7.539062v-4.039063c0-4.160156 3.378906-7.539063 7.539062-7.539063h18.078126c4.160156 0 7.542968 3.378907 7.542968 7.539063zm0 0" fill="#fff"/><path d="m64.570312 28.863281v4.0625c0 4.160157-3.359374 7.519531-7.519531 7.519531h-18.078125c-4.160156 0-7.539062-3.359374-7.539062-7.519531v-4.0625c0-4.160156 3.378906-7.519531 7.539062-7.519531h18.078125c4.160157 0 7.519531 3.359375 7.519531 7.519531zm0 0" fill="#fff"/><path d="m114.972656 28.863281v4.0625c0 4.160157-3.378906 7.519531-7.539062 7.519531h-18.082032c-4.160156 0-7.519531-3.359374-7.519531-7.519531v-4.0625c0-4.160156 3.359375-7.519531 7.519531-7.519531h18.082032c4.160156 0 7.539062 3.359375 7.539062 7.519531zm0 0" fill="#fff"/><path d="m165.351562 28.863281v4.0625c0 4.160157-3.359374 7.519531-7.519531 7.519531h-18.078125c-4.160156 0-7.542968-3.359374-7.542968-7.519531v-4.0625c0-4.160156 3.382812-7.519531 7.542968-7.519531h18.078125c4.160157 0 7.519531 3.359375 7.519531 7.519531zm0 0" fill="#fff"/><path d="m215.753906 28.863281v4.0625c0 4.160157-3.382812 7.519531-7.542968 7.519531h-18.078126c-4.160156 0-7.539062-3.359374-7.539062-7.519531v-4.0625c0-4.160156 3.378906-7.519531 7.539062-7.519531h18.078126c4.160156 0 7.542968 3.359375 7.542968 7.519531zm0 0" fill="#fff"/><path d="m266.132812 28.863281v4.0625c0 4.160157-3.378906 7.519531-7.539062 7.519531h-18.082031c-4.160157 0-7.519531-3.359374-7.519531-7.519531v-4.0625c0-4.160156 3.359374-7.519531 7.519531-7.519531h18.082031c4.160156 0 7.539062 3.359375 7.539062 7.519531zm0 0" fill="#fff"/><path d="m316.511719 28.863281v4.0625c0 4.160157-3.359375 7.519531-7.519531 7.519531h-18.082032c-4.15625 0-7.539062-3.359374-7.539062-7.519531v-4.0625c0-4.160156 3.382812-7.519531 7.539062-7.519531h18.082032c4.160156 0 7.519531 3.359375 7.519531 7.519531zm0 0" fill="#fff"/><path d="m366.910156 28.863281v4.0625c0 4.160157-3.378906 7.519531-7.539062 7.519531h-18.078125c-4.160157 0-7.539063-3.359374-7.539063-7.519531v-4.0625c0-4.160156 3.378906-7.519531 7.539063-7.519531h18.078125c4.160156 0 7.539062 3.359375 7.539062 7.519531zm0 0" fill="#fff"/><path d="m366.910156 28.863281v4.0625c0 4.160157-3.378906 7.519531-7.539062 7.519531h-18.078125c-4.160157 0-7.539063-3.359374-7.539063-7.519531v-4.0625c0-4.160156 3.378906-7.519531 7.539063-7.519531h18.078125c4.160156 0 7.539062 3.359375 7.539062 7.519531zm0 0" fill="#fff"/><path d="m417.292969 28.863281v4.0625c0 4.160157-3.382813 7.519531-7.539063 7.519531h-18.0625c-4.179687 0-7.539062-3.359374-7.539062-7.519531v-4.0625c0-4.160156 3.359375-7.519531 7.539062-7.519531h18.0625c4.15625 0 7.539063 3.359375 7.539063 7.519531zm0 0" fill="#fff"/><path d="m64.570312 132.945312v4.058594c0 4.160156-3.359374 7.519532-7.519531 7.519532h-18.078125c-4.160156 0-7.539062-3.359376-7.539062-7.519532v-4.058594c0-4.160156 3.378906-7.519531 7.539062-7.519531h18.078125c4.160157 0 7.519531 3.359375 7.519531 7.519531zm0 0" fill="#fff"/><path d="m114.972656 132.945312v4.058594c0 4.160156-3.378906 7.519532-7.539062 7.519532h-18.082032c-4.160156 0-7.519531-3.359376-7.519531-7.519532v-4.058594c0-4.160156 3.359375-7.519531 7.519531-7.519531h18.082032c4.160156 0 7.539062 3.359375 7.539062 7.519531zm0 0" fill="#fff"/><path d="m165.351562 132.945312v4.058594c0 4.160156-3.359374 7.519532-7.519531 7.519532h-18.078125c-4.160156 0-7.542968-3.359376-7.542968-7.519532v-4.058594c0-4.160156 3.382812-7.519531 7.542968-7.519531h18.078125c4.160157 0 7.519531 3.359375 7.519531 7.519531zm0 0" fill="#fff"/><path d="m266.132812 80.984375v56.019531c0 4.160156-3.378906 7.519532-7.539062 7.519532h-68.460938c-4.160156 0-7.539062-3.359376-7.539062-7.519532v-4.058594c0-4.160156 3.378906-7.519531 7.539062-7.519531h35.320313c4.160156 0 7.539063-3.382812 7.539063-7.542969v-36.898437c0-4.160156 3.359374-7.539063 7.519531-7.539063h18.082031c4.160156 0 7.539062 3.378907 7.539062 7.539063zm0 0" fill="#fff"/><path d="m316.511719 132.945312v4.058594c0 4.160156-3.359375 7.519532-7.519531 7.519532h-18.082032c-4.15625 0-7.539062-3.359376-7.539062-7.519532v-4.058594c0-4.160156 3.382812-7.519531 7.539062-7.519531h18.082032c4.160156 0 7.519531 3.359375 7.519531 7.519531zm0 0" fill="#fff"/><path d="m64.570312 184.925781v4.039063c0 4.179687-3.359374 7.539062-7.519531 7.539062h-18.078125c-4.160156 0-7.539062-3.359375-7.539062-7.539062v-4.039063c0-4.160156 3.378906-7.542969 7.539062-7.542969h18.078125c4.160157 0 7.519531 3.382813 7.519531 7.542969zm0 0" fill="#fff"/><path d="m215.753906 186.105469v1.679687c0 4.820313-3.921875 8.71875-8.722656 8.71875h-116.699219c-4.699219 0-8.5-3.800781-8.5-8.5v-2.101562c0-4.699219 3.800781-8.519532 8.5-8.519532h116.699219c4.800781 0 8.722656 3.902344 8.722656 8.722657zm0 0" fill="#fff"/><path d="m266.132812 184.925781v4.039063c0 4.179687-3.378906 7.539062-7.539062 7.539062h-18.082031c-4.160157 0-7.519531-3.359375-7.519531-7.539062v-4.039063c0-4.160156 3.359374-7.542969 7.519531-7.542969h18.082031c4.160156 0 7.539062 3.382813 7.539062 7.542969zm0 0" fill="#fff"/><path d="m316.511719 184.925781v4.039063c0 4.179687-3.359375 7.539062-7.519531 7.539062h-18.082032c-4.15625 0-7.539062-3.359375-7.539062-7.539062v-4.039063c0-4.160156 3.382812-7.542969 7.539062-7.542969h18.082032c4.160156 0 7.519531 3.382813 7.519531 7.542969zm0 0" fill="#fff"/><path d="m366.910156 80.984375v4.039063c0 4.160156-3.378906 7.539062-7.539062 7.539062h-68.460938c-4.15625 0-7.539062-3.378906-7.539062-7.539062v-4.039063c0-4.160156 3.382812-7.539063 7.539062-7.539063h68.460938c4.160156 0 7.539062 3.378907 7.539062 7.539063zm0 0" fill="#fff"/><path d="m366.910156 132.945312v4.058594c0 4.160156-3.378906 7.519532-7.539062 7.519532h-18.078125c-4.160157 0-7.539063-3.359376-7.539063-7.519532v-4.058594c0-4.160156 3.378906-7.519531 7.539063-7.519531h18.078125c4.160156 0 7.539062 3.359375 7.539062 7.519531zm0 0" fill="#fff"/><path d="m366.910156 184.925781v4.039063c0 4.179687-3.378906 7.539062-7.539062 7.539062h-18.078125c-4.160157 0-7.539063-3.359375-7.539063-7.539062v-4.039063c0-4.160156 3.378906-7.542969 7.539063-7.542969h18.078125c4.160156 0 7.539062 3.382813 7.539062 7.542969zm0 0" fill="#fff"/><path d="m417.292969 80.984375v4.039063c0 4.160156-3.382813 7.539062-7.539063 7.539062h-18.0625c-4.179687 0-7.539062-3.378906-7.539062-7.539062v-4.039063c0-4.160156 3.359375-7.539063 7.539062-7.539063h18.0625c4.15625 0 7.539063 3.378907 7.539063 7.539063zm0 0" fill="#fff"/><path d="m417.292969 132.945312v4.058594c0 4.160156-3.382813 7.519532-7.539063 7.519532h-18.0625c-4.179687 0-7.539062-3.359376-7.539062-7.519532v-4.058594c0-4.160156 3.359375-7.519531 7.539062-7.519531h18.0625c4.15625 0 7.539063 3.359375 7.539063 7.519531zm0 0" fill="#fff"/><path d="m417.292969 184.925781v4.039063c0 4.179687-3.382813 7.539062-7.539063 7.539062h-18.0625c-4.179687 0-7.539062-3.359375-7.539062-7.539062v-4.039063c0-4.160156 3.359375-7.542969 7.539062-7.542969h18.0625c4.15625 0 7.539063 3.382813 7.539063 7.542969zm0 0" fill="#fff"/><g fill="#491352"><path d="m449.542969 111.933594h-.8125v-97.660156c0-7.722657-6.28125-14-14-14h-420.730469c-7.71875 0-14 6.277343-14 14v203.320312c0 7.71875 6.28125 14 14 14h420.730469c7.71875 0 14-6.28125 14-14v-97.660156h.8125c19.847656 0 36 16.152344 36 36v74.839844c0 19.847656-16.152344 36-36 36h-180.59375c-24.261719 0-44 19.738281-44 44v11.5h-33.9375c-7.71875 0-14 6.277343-14 14v83.363281c0 28.640625 23.296875 51.9375 51.9375 51.9375s51.9375-23.296875 51.9375-51.9375v-83.363281c0-7.722657-6.28125-14-14-14h-33.9375v-11.5c0-19.851563 16.152343-36 36-36h180.59375c24.261719 0 44-19.738282 44-44v-74.839844c0-24.261719-19.738281-44-44-44zm-8.8125 105.660156c0 3.308594-2.691407 6-6 6h-420.730469c-3.308594 0-6-2.691406-6-6v-203.320312c0-3.308594 2.691406-6 6-6h420.730469c3.308593 0 6 2.691406 6 6zm-167.84375 118.679688v83.363281c0 24.230469-19.707031 43.9375-43.9375 43.9375-24.226563 0-43.9375-19.707031-43.9375-43.9375v-83.363281c0-3.308594 2.691406-6 6-6h75.875c3.308593 0 6 2.691406 6 6zm0 0"/><path d="m228.949219 374.648438c2.207031 0 4-1.792969 4-4v-27.375c0-2.210938-1.792969-4-4-4s-4 1.789062-4 4v27.375c0 2.207031 1.789062 4 4 4zm0 0"/><path d="m57.050781 69.441406h-18.082031c-6.359375 0-11.53125 5.171875-11.53125 11.53125v18.082032c0 6.359374 5.171875 11.535156 11.53125 11.535156h18.082031c6.359375 0 11.535157-5.175782 11.535157-11.535156v-18.082032c-.003907-6.355468-5.179688-11.53125-11.535157-11.53125zm3.53125 29.613282c0 1.949218-1.585937 3.535156-3.535156 3.535156h-18.078125c-1.949219 0-3.535156-1.585938-3.535156-3.535156v-18.082032c0-1.945312 1.585937-3.53125 3.535156-3.53125h18.078125c1.949219 0 3.535156 1.585938 3.535156 3.53125zm0 0"/><path d="m89.359375 110.589844h18.078125c6.359375 0 11.53125-5.175782 11.53125-11.535156v-18.082032c0-6.359375-5.171875-11.53125-11.53125-11.53125h-18.078125c-6.363281 0-11.535156 5.171875-11.535156 11.53125v18.082032c0 6.359374 5.171875 11.535156 11.535156 11.535156zm-3.535156-29.617188c0-1.945312 1.585937-3.53125 3.535156-3.53125h18.078125c1.945312 0 3.53125 1.585938 3.53125 3.53125v18.082032c0 1.949218-1.585938 3.535156-3.53125 3.535156h-18.078125c-1.949219 0-3.535156-1.585938-3.535156-3.535156zm0 0"/><path d="m139.742188 110.589844h18.082031c6.359375 0 11.53125-5.175782 11.53125-11.535156v-18.082032c0-6.359375-5.171875-11.53125-11.53125-11.53125h-18.082031c-6.359376 0-11.53125 5.171875-11.53125 11.53125v18.082032c0 6.359374 5.175781 11.535156 11.53125 11.535156zm-3.53125-29.617188c0-1.945312 1.585937-3.53125 3.535156-3.53125h18.078125c1.949219 0 3.535156 1.585938 3.535156 3.53125v18.082032c0 1.949218-1.585937 3.535156-3.535156 3.535156h-18.078125c-1.949219 0-3.535156-1.585938-3.535156-3.535156zm0 0"/><path d="m190.132812 110.589844h18.078126c6.359374 0 11.535156-5.175782 11.535156-11.535156v-18.082032c0-6.359375-5.175782-11.53125-11.535156-11.53125h-18.078126c-6.359374 0-11.53125 5.171875-11.53125 11.53125v18.082032c0 6.359374 5.171876 11.535156 11.53125 11.535156zm-3.53125-29.617188c0-1.945312 1.585938-3.53125 3.53125-3.53125h18.078126c1.949218 0 3.535156 1.585938 3.535156 3.53125v18.082032c0 1.949218-1.585938 3.535156-3.535156 3.535156h-18.078126c-1.945312 0-3.53125-1.585938-3.53125-3.535156zm0 0"/><path d="m57.050781 17.335938h-18.082031c-6.359375 0-11.53125 5.171874-11.53125 11.53125v18.082031c0 6.359375 5.171875 11.53125 11.53125 11.53125h18.082031c6.359375 0 11.535157-5.171875 11.535157-11.53125v-18.082031c-.003907-6.359376-5.179688-11.53125-11.535157-11.53125zm3.53125 29.609374c0 1.949219-1.585937 3.535157-3.535156 3.535157h-18.078125c-1.949219 0-3.535156-1.585938-3.535156-3.535157v-18.078124c0-1.949219 1.585937-3.535157 3.535156-3.535157h18.078125c1.949219 0 3.535156 1.582031 3.535156 3.535157zm0 0"/><path d="m89.359375 58.480469h18.078125c6.359375 0 11.53125-5.175781 11.53125-11.535157v-18.078124c0-6.359376-5.171875-11.535157-11.53125-11.535157h-18.078125c-6.363281 0-11.535156 5.175781-11.535156 11.535157v18.078124c0 6.359376 5.171875 11.535157 11.535156 11.535157zm-3.535156-29.613281c0-1.945313 1.585937-3.53125 3.535156-3.53125h18.078125c1.945312 0 3.53125 1.582031 3.53125 3.53125v18.082031c0 1.945312-1.585938 3.53125-3.53125 3.53125h-18.078125c-1.949219 0-3.535156-1.582031-3.535156-3.53125zm0 0"/><path d="m139.742188 58.480469h18.082031c6.359375 0 11.53125-5.175781 11.53125-11.535157v-18.078124c0-6.359376-5.171875-11.535157-11.53125-11.535157h-18.082031c-6.359376 0-11.53125 5.175781-11.53125 11.535157v18.078124c0 6.359376 5.175781 11.535157 11.53125 11.535157zm-3.53125-29.613281c0-1.945313 1.585937-3.53125 3.535156-3.53125h18.078125c1.949219 0 3.535156 1.582031 3.535156 3.53125v18.082031c0 1.945312-1.585937 3.53125-3.535156 3.53125h-18.078125c-1.949219 0-3.535156-1.582031-3.535156-3.53125zm0 0"/><path d="m190.132812 58.480469h18.078126c6.359374 0 11.535156-5.175781 11.535156-11.535157v-18.078124c0-6.359376-5.175782-11.535157-11.535156-11.535157h-18.078126c-6.359374 0-11.53125 5.175781-11.53125 11.535157v18.078124c0 6.359376 5.171876 11.535157 11.53125 11.535157zm-3.53125-29.613281c0-1.945313 1.585938-3.53125 3.53125-3.53125h18.078126c1.949218 0 3.535156 1.582031 3.535156 3.53125v18.082031c0 1.945312-1.585938 3.53125-3.535156 3.53125h-18.078126c-1.945312 0-3.53125-1.582031-3.53125-3.53125zm0 0"/><path d="m258.597656 17.335938h-18.078125c-6.359375 0-11.535156 5.171874-11.535156 11.53125v18.082031c0 6.359375 5.175781 11.53125 11.535156 11.53125h18.078125c6.359375 0 11.535156-5.171875 11.535156-11.53125v-18.082031c0-6.359376-5.175781-11.53125-11.535156-11.53125zm3.535156 29.609374c0 1.949219-1.585937 3.535157-3.535156 3.535157h-18.078125c-1.949219 0-3.535156-1.585938-3.535156-3.535157v-18.078124c0-1.949219 1.585937-3.535157 3.535156-3.535157h18.078125c1.949219 0 3.535156 1.582031 3.535156 3.535157zm0 0"/><path d="m290.90625 58.480469h18.078125c6.363281 0 11.535156-5.175781 11.535156-11.535157v-18.078124c0-6.359376-5.171875-11.535157-11.535156-11.535157h-18.078125c-6.359375 0-11.535156 5.175781-11.535156 11.535157v18.078124c.003906 6.359376 5.175781 11.535157 11.535156 11.535157zm-3.53125-29.613281c0-1.945313 1.585938-3.53125 3.53125-3.53125h18.082031c1.949219 0 3.535157 1.582031 3.535157 3.53125v18.082031c0 1.945312-1.585938 3.53125-3.535157 3.53125h-18.082031c-1.945312 0-3.53125-1.582031-3.53125-3.53125zm0 0"/><path d="m359.375 17.335938h-18.078125c-6.359375 0-11.535156 5.171874-11.535156 11.53125v18.082031c0 6.359375 5.175781 11.53125 11.535156 11.53125h18.078125c6.359375 0 11.53125-5.171875 11.53125-11.53125v-18.082031c0-6.359376-5.175781-11.53125-11.53125-11.53125zm3.53125 29.609374c0 1.949219-1.585938 3.535157-3.535156 3.535157h-18.078125c-1.945313 0-3.53125-1.585938-3.53125-3.535157v-18.078124c0-1.949219 1.585937-3.535157 3.53125-3.535157h18.078125c1.949218 0 3.535156 1.582031 3.535156 3.535157zm0 0"/><path d="m409.761719 17.335938h-18.078125c-6.363282 0-11.535156 5.171874-11.535156 11.53125v18.082031c0 6.359375 5.171874 11.53125 11.535156 11.53125h18.078125c6.359375 0 11.53125-5.171875 11.53125-11.53125v-18.082031c0-6.359376-5.171875-11.53125-11.53125-11.53125zm3.53125 29.609374c0 1.949219-1.582031 3.535157-3.53125 3.535157h-18.078125c-1.949219 0-3.535156-1.585938-3.535156-3.535157v-18.078124c0-1.949219 1.585937-3.535157 3.535156-3.535157h18.078125c1.949219 0 3.53125 1.582031 3.53125 3.535157zm0 0"/><path d="m57.050781 121.414062h-18.082031c-6.359375 0-11.53125 5.175782-11.53125 11.535157v18.082031c0 6.359375 5.171875 11.53125 11.53125 11.53125h18.082031c6.359375 0 11.535157-5.171875 11.535157-11.53125v-18.082031c-.003907-6.359375-5.179688-11.535157-11.535157-11.535157zm3.53125 29.613282c0 1.949218-1.585937 3.535156-3.535156 3.535156h-18.078125c-1.949219 0-3.535156-1.585938-3.535156-3.535156v-18.078125c0-1.949219 1.585937-3.535157 3.535156-3.535157h18.078125c1.949219 0 3.535156 1.582032 3.535156 3.535157zm0 0"/><path d="m89.359375 162.558594h18.078125c6.359375 0 11.53125-5.171875 11.53125-11.53125v-18.082032c0-6.359374-5.171875-11.535156-11.53125-11.535156h-18.078125c-6.363281 0-11.535156 5.175782-11.535156 11.535156v18.082032c0 6.359375 5.171875 11.53125 11.535156 11.53125zm-3.535156-29.609375c0-1.949219 1.585937-3.535157 3.535156-3.535157h18.078125c1.945312 0 3.53125 1.582032 3.53125 3.535157v18.078125c0 1.949218-1.585938 3.535156-3.53125 3.535156h-18.078125c-1.949219 0-3.535156-1.585938-3.535156-3.535156zm0 0"/><path d="m139.742188 162.558594h18.082031c6.359375 0 11.53125-5.171875 11.53125-11.53125v-18.082032c0-6.359374-5.171875-11.535156-11.53125-11.535156h-18.082031c-6.359376 0-11.53125 5.175782-11.53125 11.535156v18.082032c0 6.359375 5.175781 11.53125 11.53125 11.53125zm-3.53125-29.609375c0-1.949219 1.585937-3.535157 3.535156-3.535157h18.078125c1.949219 0 3.535156 1.582032 3.535156 3.535157v18.078125c0 1.949218-1.585937 3.535156-3.535156 3.535156h-18.078125c-1.949219 0-3.535156-1.585938-3.535156-3.535156zm0 0"/><path d="m258.597656 69.441406h-18.078125c-6.359375 0-11.535156 5.171875-11.535156 11.53125v36.910156c0 1.945313-1.585937 3.53125-3.53125 3.53125h-35.320313c-6.359374 0-11.535156 5.175782-11.535156 11.535157v18.082031c0 6.359375 5.175782 11.53125 11.535156 11.53125h68.464844c6.359375 0 11.53125-5.171875 11.53125-11.53125v-70.058594c.003906-6.355468-5.171875-11.53125-11.53125-11.53125zm3.535156 81.585938c0 1.949218-1.585937 3.535156-3.535156 3.535156h-68.464844c-1.945312 0-3.53125-1.585938-3.53125-3.535156v-18.078125c0-1.949219 1.585938-3.535157 3.53125-3.535157h35.320313c6.359375 0 11.535156-5.175781 11.535156-11.535156v-36.90625c0-1.945312 1.585938-3.53125 3.535157-3.53125h18.078124c1.945313 0 3.53125 1.585938 3.53125 3.53125zm0 0"/><path d="m308.984375 121.414062h-18.078125c-6.359375 0-11.535156 5.175782-11.535156 11.535157v18.082031c0 6.359375 5.175781 11.53125 11.535156 11.53125h18.078125c6.363281 0 11.535156-5.171875 11.535156-11.53125v-18.082031c0-6.359375-5.171875-11.535157-11.535156-11.535157zm3.535156 29.613282c0 1.949218-1.585937 3.535156-3.535156 3.535156h-18.078125c-1.949219 0-3.535156-1.585938-3.535156-3.535156v-18.078125c0-1.949219 1.585937-3.535157 3.535156-3.535157h18.078125c1.949219 0 3.535156 1.582032 3.535156 3.535157zm0 0"/><path d="m57.050781 173.386719h-18.082031c-6.359375 0-11.53125 5.175781-11.53125 11.535156v18.082031c0 6.359375 5.171875 11.53125 11.53125 11.53125h18.082031c6.359375 0 11.535157-5.171875 11.535157-11.53125v-18.082031c-.003907-6.359375-5.179688-11.535156-11.535157-11.535156zm3.53125 29.613281c0 1.949219-1.585937 3.535156-3.535156 3.535156h-18.078125c-1.949219 0-3.535156-1.585937-3.535156-3.535156v-18.078125c0-1.949219 1.585937-3.535156 3.535156-3.535156h18.078125c1.949219 0 3.535156 1.582031 3.535156 3.535156zm0 0"/><path d="m207.027344 173.386719h-116.691406c-6.898438 0-12.511719 5.617187-12.511719 12.511719v16.125c0 6.898437 5.613281 12.511718 12.511719 12.511718h116.691406c7.011718 0 12.714844-5.707031 12.714844-12.71875v-15.707031c0-7.015625-5.703126-12.722656-12.714844-12.722656zm4.714844 28.429687c0 2.601563-2.117188 4.71875-4.714844 4.71875h-116.691406c-2.488282 0-4.511719-2.023437-4.511719-4.511718v-16.125c0-2.488282 2.023437-4.511719 4.511719-4.511719h116.691406c2.601562 0 4.714844 2.121093 4.714844 4.71875zm0 0"/><path d="m258.597656 173.386719h-18.078125c-6.359375 0-11.535156 5.175781-11.535156 11.535156v18.082031c0 6.359375 5.175781 11.53125 11.535156 11.53125h18.078125c6.359375 0 11.535156-5.171875 11.535156-11.53125v-18.082031c0-6.359375-5.175781-11.535156-11.535156-11.535156zm3.535156 29.613281c0 1.949219-1.585937 3.535156-3.535156 3.535156h-18.078125c-1.949219 0-3.535156-1.585937-3.535156-3.535156v-18.078125c0-1.949219 1.585937-3.535156 3.535156-3.535156h18.078125c1.949219 0 3.535156 1.582031 3.535156 3.535156zm0 0"/><path d="m308.984375 173.386719h-18.078125c-6.359375 0-11.535156 5.175781-11.535156 11.535156v18.082031c0 6.359375 5.175781 11.53125 11.535156 11.53125h18.078125c6.363281 0 11.535156-5.171875 11.535156-11.53125v-18.082031c0-6.359375-5.171875-11.535156-11.535156-11.535156zm3.535156 29.613281c0 1.949219-1.585937 3.535156-3.535156 3.535156h-18.078125c-1.949219 0-3.535156-1.585937-3.535156-3.535156v-18.078125c0-1.949219 1.585937-3.535156 3.535156-3.535156h18.078125c1.949219 0 3.535156 1.582031 3.535156 3.535156zm0 0"/><path d="m359.375 69.441406h-68.46875c-6.359375 0-11.53125 5.171875-11.53125 11.53125v18.082032c0 6.359374 5.171875 11.535156 11.53125 11.535156h68.46875c6.359375 0 11.53125-5.175782 11.53125-11.535156v-18.082032c0-6.355468-5.175781-11.53125-11.53125-11.53125zm3.53125 29.613282c0 1.949218-1.585938 3.535156-3.535156 3.535156h-68.464844c-1.949219 0-3.535156-1.585938-3.535156-3.535156v-18.082032c0-1.945312 1.585937-3.53125 3.535156-3.53125h68.464844c1.949218 0 3.535156 1.585938 3.535156 3.53125zm0 0"/><path d="m359.375 121.414062h-18.078125c-6.359375 0-11.535156 5.175782-11.535156 11.535157v18.082031c0 6.359375 5.175781 11.53125 11.535156 11.53125h18.078125c6.359375 0 11.53125-5.171875 11.53125-11.53125v-18.082031c0-6.359375-5.175781-11.535157-11.53125-11.535157zm3.53125 29.613282c0 1.949218-1.585938 3.535156-3.535156 3.535156h-18.078125c-1.945313 0-3.53125-1.585938-3.53125-3.535156v-18.078125c0-1.949219 1.585937-3.535157 3.53125-3.535157h18.078125c1.949218 0 3.535156 1.582032 3.535156 3.535157zm0 0"/><path d="m359.375 173.386719h-18.078125c-6.359375 0-11.535156 5.175781-11.535156 11.535156v18.082031c0 6.359375 5.175781 11.53125 11.535156 11.53125h18.078125c6.359375 0 11.53125-5.171875 11.53125-11.53125v-18.082031c0-6.359375-5.175781-11.535156-11.53125-11.535156zm3.53125 29.613281c0 1.949219-1.585938 3.535156-3.535156 3.535156h-18.078125c-1.945313 0-3.53125-1.585937-3.53125-3.535156v-18.078125c0-1.949219 1.585937-3.535156 3.53125-3.535156h18.078125c1.949218 0 3.535156 1.582031 3.535156 3.535156zm0 0"/><path d="m409.761719 69.441406h-18.078125c-6.363282 0-11.535156 5.171875-11.535156 11.53125v18.082032c0 6.359374 5.171874 11.535156 11.535156 11.535156h18.078125c6.359375 0 11.53125-5.175782 11.53125-11.535156v-18.082032c0-6.355468-5.171875-11.53125-11.53125-11.53125zm3.53125 29.613282c0 1.949218-1.582031 3.535156-3.53125 3.535156h-18.078125c-1.949219 0-3.535156-1.585938-3.535156-3.535156v-18.082032c0-1.945312 1.585937-3.53125 3.535156-3.53125h18.078125c1.949219 0 3.53125 1.585938 3.53125 3.53125zm0 0"/><path d="m409.761719 121.414062h-18.078125c-6.363282 0-11.535156 5.175782-11.535156 11.535157v18.082031c0 6.359375 5.171874 11.53125 11.535156 11.53125h18.078125c6.359375 0 11.53125-5.171875 11.53125-11.53125v-18.082031c0-6.359375-5.171875-11.535157-11.53125-11.535157zm3.53125 29.613282c0 1.949218-1.582031 3.535156-3.53125 3.535156h-18.078125c-1.949219 0-3.535156-1.585938-3.535156-3.535156v-18.078125c0-1.949219 1.585937-3.535157 3.535156-3.535157h18.078125c1.949219 0 3.53125 1.582032 3.53125 3.535157zm0 0"/><path d="m409.761719 173.386719h-18.078125c-6.363282 0-11.535156 5.175781-11.535156 11.535156v18.082031c0 6.359375 5.171874 11.53125 11.535156 11.53125h18.078125c6.359375 0 11.53125-5.171875 11.53125-11.53125v-18.082031c0-6.359375-5.171875-11.535156-11.53125-11.535156zm3.53125 29.613281c0 1.949219-1.582031 3.535156-3.53125 3.535156h-18.078125c-1.949219 0-3.535156-1.585937-3.535156-3.535156v-18.078125c0-1.949219 1.585937-3.535156 3.535156-3.535156h18.078125c1.949219 0 3.53125 1.582031 3.53125 3.535156zm0 0"/></g></svg>